<?xml version="1.0" encoding="iso-8859-1"?>
<!-- Generator: Adobe Illustrator 19.0.0, SVG Export Plug-In . SVG Version: 6.00 Build 0)  -->
<svg version="1.1" id="Capa_1" xmlns="http://www.w3.org/2000/svg" xmlns:xlink="http://www.w3.org/1999/xlink" x="0px" y="0px"
	 viewBox="0 0 512.002 512.002" style="enable-background:new 0 0 512.002 512.002;" xml:space="preserve">
<g>
	<g>
		<path d="M497.842,335.641c-0.732-12.84-7.736-24.483-18.734-31.148c-13.771-8.344-30.958-7.449-43.788,2.276l-26.937,20.42
			l-44.293-44.293c-11.516-11.516-26.179-18.729-42.047-20.872v-10.772c3.329,0.371,7.321,0.654,11.798,0.654
			c17.513,0,42.286-4.308,62.416-24.438c34.478-34.478,22.25-82.239,21.712-84.256c-0.922-3.461-3.626-6.165-7.087-7.087
			c-2.017-0.538-49.778-12.765-84.256,21.711c-1.093,1.093-2.138,2.2-3.139,3.318c0.435-16.363-2.929-40.932-22.698-60.701
			c-32.075-32.074-76.49-20.702-78.365-20.202c-3.461,0.922-6.165,3.626-7.087,7.087c-0.5,1.875-11.872,46.291,20.202,78.366
			c18.729,18.728,41.77,22.734,58.056,22.734c3.087,0,5.921-0.146,8.448-0.361v73.948c-15.869,2.143-30.531,9.357-42.047,20.872
			l-32.203,32.203l-12.97-3.522c-21.058-5.719-43.864-2.554-62.568,8.687L18.946,400.37c-4.734,2.844-6.265,8.988-3.42,13.722
			c1.876,3.122,5.186,4.851,8.581,4.851c1.753,0,3.529-0.461,5.142-1.43l133.309-80.107c14.058-8.448,31.198-10.828,47.025-6.528
			l84.951,23.071c5.037,1.368,8.209,6.286,7.378,11.439c-0.799,4.957-5.023,8.554-10.044,8.554h-9.777h-54.95
			c-5.523,0-10,4.477-10,10s4.477,10,10,10h122.929c2.181,0,4.303-0.713,6.041-2.031l91.289-69.204
			c6.254-4.741,14.632-5.176,21.342-1.109c5.441,3.296,8.77,8.83,9.131,15.182c0.362,6.352-2.315,12.227-7.347,16.12l-94.506,73.145
			c-9.911,7.671-22.271,11.896-34.804,11.896h-39.718c-5.523,0-10,4.477-10,10c0,5.523,4.477,10,10,10h39.718
			c16.94,0,33.648-5.71,47.045-16.079l94.506-73.145C492.939,360.845,498.574,348.48,497.842,335.641z M340.768,171.979
			c20.27-20.268,47.129-19.309,58.967-17.651c1.615,11.826,2.543,38.834-17.621,58.997c-19.956,19.957-47.151,19.34-59.202,17.856
			C321.429,219.129,320.812,191.936,340.768,171.979z M249.682,151.562c-18.107-18.107-17.565-42.043-16.112-53.075
			c11.054-1.457,34.978-1.989,53.076,16.11c17.821,17.821,17.586,42.035,16.298,53.259
			C291.701,169.149,267.497,169.377,249.682,151.562z M346.71,373.942h-26.426c0.609-1.717,1.072-3.511,1.372-5.37
			c2.465-15.282-6.942-29.866-21.88-33.924l-49.739-13.509l24.102-24.102c10.125-10.125,23.585-15.701,37.905-15.701
			c14.319,0,27.78,5.576,37.905,15.702l42.347,42.347L346.71,373.942z"/>
	</g>
</g>
<g>
	<g>
		<path d="M265.071,440.87c-1.86-1.86-4.44-2.93-7.07-2.93c-2.63,0-5.21,1.07-7.07,2.93c-1.86,1.86-2.93,4.44-2.93,7.07
			c0,2.63,1.07,5.21,2.93,7.07c1.86,1.86,4.44,2.93,7.07,2.93c2.63,0,5.21-1.07,7.07-2.93c1.86-1.86,2.93-4.44,2.93-7.07
			C268.001,445.31,266.931,442.73,265.071,440.87z"/>
	</g>
</g>
<g>
	<g>
		<path d="M214.003,437.94h-18.088c-2.652,0-5.196,1.054-7.071,2.929l-54.061,54.061c-3.905,3.905-3.905,10.237,0,14.143
			c1.953,1.953,4.512,2.929,7.071,2.929c2.559,0,5.119-0.976,7.071-2.929l51.132-51.133h13.947c5.523,0,10-4.477,10-10
			C224.001,442.418,219.526,437.94,214.003,437.94z"/>
	</g>
</g>
<g>
	<g>
		<path d="M419.105,62.095c-21.755-21.755-57.154-21.755-78.911,0c-3.905,3.905-3.905,10.237,0,14.143
			c3.905,3.904,10.237,3.904,14.143,0c13.958-13.959,36.669-13.959,50.628,0c1.952,1.951,4.511,2.928,7.07,2.928
			c2.559,0,5.119-0.977,7.071-2.929C423.01,72.332,423.01,66,419.105,62.095z"/>
	</g>
</g>
<g>
	<g>
		<path d="M451.49,29.709c-39.613-39.612-104.068-39.613-143.68,0c-3.905,3.905-3.906,10.237,0,14.142
			c1.952,1.954,4.51,2.93,7.07,2.93c2.559,0,5.119-0.977,7.071-2.929c31.816-31.816,83.583-31.815,115.397,0
			c3.905,3.904,10.237,3.904,14.143,0C455.395,39.947,455.395,33.615,451.49,29.709z"/>
	</g>
</g>
<g>
	<g>
		<path d="M386.718,94.69c-1.86-1.86-4.44-2.93-7.07-2.93c-2.63,0-5.21,1.07-7.07,2.93c-1.86,1.86-2.93,4.44-2.93,7.08
			c0,2.63,1.07,5.21,2.93,7.07s4.44,2.93,7.07,2.93c2.63,0,5.21-1.07,7.07-2.93c1.86-1.87,2.93-4.44,2.93-7.07
			C389.648,99.13,388.578,96.55,386.718,94.69z"/>
	</g>
</g>
<g>
</g>
<g>
</g>
<g>
</g>
<g>
</g>
<g>
</g>
<g>
</g>
<g>
</g>
<g>
</g>
<g>
</g>
<g>
</g>
<g>
</g>
<g>
</g>
<g>
</g>
<g>
</g>
<g>
</g>
</svg>
