<?xml version="1.0" encoding="iso-8859-1"?>
<!-- Generator: Adobe Illustrator 19.0.0, SVG Export Plug-In . SVG Version: 6.00 Build 0)  -->
<svg version="1.1" id="Capa_1" xmlns="http://www.w3.org/2000/svg" xmlns:xlink="http://www.w3.org/1999/xlink" x="0px" y="0px"
	 viewBox="0 0 512 512" style="enable-background:new 0 0 512 512;" xml:space="preserve">
<g>
	<g>
		<path d="M484.255,303.065H293.701c-7.134-1.875-12.233-8.395-12.233-15.837v-4.694c17.891-16.119,29.158-39.455,29.158-65.375
			v-59.601h8c18.748,0,34-15.252,34-34s-15.252-34-34-34h-14v-52.17C304.626,16.772,287.854,0,267.238,0h-0.54
			c-9.986,0-19.375,3.889-26.437,10.95c-9.875,9.873-25.939,9.873-35.812,0C197.388,3.889,188,0,178.014,0
			c-20.616,0-37.388,16.772-37.388,37.388v52.171h-14c-18.748,0-34,15.252-34,34c0,18.748,15.252,34,34,34h8v59.601
			c0,25.92,11.267,49.256,29.158,65.375v4.68c0,7.731-5.495,14.481-13.066,16.049l-48.691,10.082
			c-0.029,0.006-0.059,0.012-0.088,0.018l-39.898,8.261c-0.04,0.008-0.079,0.016-0.118,0.024l-9.819,2.033
			C21.913,329.932,0,356.846,0,387.677V502c0,5.522,4.477,10,10,10h492c5.523,0,10-4.478,10-10V330.811
			C512,315.512,499.554,303.065,484.255,303.065z M178.014,20c4.644,0,9.01,1.809,12.295,5.093c17.672,17.671,46.425,17.67,64.095,0
			c3.285-3.284,7.651-5.093,12.295-5.093h0.54c9.587,0,17.388,7.8,17.388,17.388v52.171h-124V37.388h-0.001
			C160.626,27.8,168.426,20,178.014,20z M126.626,137.559c-7.72,0-14-6.281-14-14c0-7.72,6.28-14,14-14h192c7.72,0,14,6.28,14,14
			c0,7.72-6.28,14-14,14H126.626z M154.626,217.159v-59.601h136v59.601c0,37.495-30.505,68-68,68
			C185.13,285.159,154.626,254.654,154.626,217.159z M265.137,303.065h-23.411c7.292-1.62,14.247-4.144,20.738-7.453
			C263.084,298.206,263.985,300.702,265.137,303.065z M208.078,492H20V387.677c0-20.653,14.171-38.769,34-43.905V421.5
			c0,5.522,4.477,10,10,10s10-4.478,10-10v-81.929l20-4.141v55.584c0,20.409,16.604,37.013,37.013,37.013h77.065V492z
			 M208.078,330.812v77.216h-77.065c-9.381,0-17.013-7.632-17.013-17.013V331.29l40.772-8.443
			c13.995-2.897,24.788-13.77,28.013-27.236c11.969,6.103,25.51,9.549,39.841,9.549c0.922,0,1.84-0.019,2.756-0.047
			C215.244,309.247,208.078,319.206,208.078,330.812z M492,492H339H228.078V330.811c0-4.271,3.475-7.745,7.745-7.745h56.639
			c0.013,0,0.026,0.002,0.038,0.002c0.015,0,0.03-0.002,0.045-0.002h191.71c4.271,0,7.745,3.475,7.745,7.745V492z"/>
	</g>
</g>
<g>
	<g>
		<path d="M71.07,453.43c-1.86-1.86-4.44-2.93-7.07-2.93s-5.21,1.069-7.07,2.93c-1.86,1.86-2.93,4.44-2.93,7.07
			s1.07,5.21,2.93,7.069c1.86,1.86,4.44,2.931,7.07,2.931s5.21-1.07,7.07-2.931C72.93,465.71,74,463.13,74,460.5
			S72.93,455.29,71.07,453.43z"/>
	</g>
</g>
<g>
	<g>
		<path d="M260.2,202.93c-1.87-1.86-4.44-2.93-7.07-2.93c-2.64,0-5.21,1.069-7.08,2.93c-1.86,1.86-2.92,4.44-2.92,7.07
			s1.06,5.21,2.92,7.069c1.86,1.861,4.44,2.931,7.08,2.931c2.63,0,5.21-1.07,7.07-2.931c1.86-1.859,2.93-4.439,2.93-7.069
			S262.06,204.79,260.2,202.93z"/>
	</g>
</g>
<g>
	<g>
		<path d="M199.2,202.93c-1.86-1.86-4.44-2.93-7.07-2.93c-2.64,0-5.21,1.069-7.07,2.93c-1.87,1.86-2.93,4.44-2.93,7.07
			s1.06,5.21,2.93,7.069c1.85,1.861,4.43,2.931,7.07,2.931c2.63,0,5.21-1.07,7.07-2.931c1.86-1.859,2.93-4.439,2.93-7.069
			S201.06,204.79,199.2,202.93z"/>
	</g>
</g>
<g>
	<g>
		<path d="M364.485,343.136c-2.801-1.391-6.092-1.391-8.893,0c-1.787,0.887-43.765,22.209-43.765,64.285
			c0,42.023,41.912,63.716,43.696,64.619c1.419,0.718,2.967,1.077,4.515,1.077c1.548,0,3.096-0.359,4.515-1.077
			c1.784-0.903,43.696-22.596,43.696-64.619C408.25,365.345,366.272,344.022,364.485,343.136z M370.039,443.704v-36.098
			c0-5.522-4.477-10-10-10s-10,4.478-10,10v36.098c-8.752-7.97-18.211-20.279-18.211-36.283c0-22.848,19.313-37.979,28.235-43.75
			c8.946,5.736,28.187,20.751,28.187,43.75C388.25,423.424,378.791,435.734,370.039,443.704z"/>
	</g>
</g>
<g>
	<g>
		<path d="M432.368,227.514c-18.813-18.813-49.424-18.813-68.236,0c-3.905,3.905-3.906,10.237,0,14.143
			c3.906,3.904,10.238,3.905,14.142,0c11.016-11.016,28.938-11.016,39.953,0c1.952,1.952,4.511,2.929,7.07,2.929
			c2.559,0,5.119-0.977,7.071-2.929C436.273,237.752,436.273,231.42,432.368,227.514z"/>
	</g>
</g>
<g>
	<g>
		<path d="M459.416,200.467c-16.338-16.338-38.061-25.336-61.167-25.336c-23.106,0-44.828,8.998-61.167,25.336
			c-3.904,3.906-3.904,10.238,0.001,14.143c3.905,3.904,10.237,3.904,14.143,0c25.929-25.93,68.119-25.93,94.048,0
			c1.953,1.952,4.512,2.929,7.071,2.929s5.119-0.977,7.071-2.929C463.321,210.705,463.321,204.373,459.416,200.467z"/>
	</g>
</g>
<g>
	<g>
		<path d="M405.32,254.74c-1.86-1.86-4.44-2.931-7.07-2.931c-2.63,0.001-5.21,1.071-7.07,2.931c-1.86,1.859-2.93,4.439-2.93,7.069
			c0,2.63,1.07,5.21,2.93,7.07c1.86,1.87,4.44,2.93,7.07,2.93s5.21-1.06,7.07-2.93c1.86-1.86,2.93-4.44,2.93-7.07
			S407.18,256.599,405.32,254.74z"/>
	</g>
</g>
<g>
</g>
<g>
</g>
<g>
</g>
<g>
</g>
<g>
</g>
<g>
</g>
<g>
</g>
<g>
</g>
<g>
</g>
<g>
</g>
<g>
</g>
<g>
</g>
<g>
</g>
<g>
</g>
<g>
</g>
</svg>
