<svg id="Layer_1" data-name="Layer 1" xmlns="http://www.w3.org/2000/svg" viewBox="0 0 368.52051 23.61621"><defs><style>.cls-1{fill:#52482d;}</style></defs><title>altitude</title><path class="cls-1" d="M357.8501,380.2041q-.09595-.30029-.29395-.94824-.19849-.64893-.4502-1.46387-.252-.81592-.52783-1.71-.27612-.895-.52783-1.7041-.25269-.81006-.4624-1.458-.21021-.64893-.33008-.96c.104.01563.2041.0293.30029.042a2.56962,2.56962,0,0,0,.6001,0c.0957-.0127.1958-.02637.2998-.042q.22778.91113.44385,1.71.21606.79834.4624,1.62012.24536.82178.52783,1.72754.282.90674.64209,2.0459h.02393q.10767-.32373.2998-.89355.19189-.56982.41992-1.25977.22778-.68994.48-1.43457.25269-.74414.46826-1.42187.21606-.67822.38379-1.23633c.1123-.37207.19238-.65723.24023-.85742a1.346,1.346,0,0,0,.792,0q.0835.32373.25781.8877t.39014,1.25391q.21606.68994.46191,1.43457.24609.74414.47412,1.42773.22778.68408.41406,1.23535.186.55225.29395.86426h.02393q.08423-.26367.25781-.82227c.11621-.37109.248-.792.396-1.25977s.30029-.96.45605-1.47559q.23438-.7749.44434-1.47656.20947-.70166.37207-1.25391c.10791-.36719.18164-.63965.22168-.81543.07227.01563.14209.0293.21.042a1.26272,1.26272,0,0,0,.41992,0c.06787-.0127.13818-.02637.21045-.042q-.12012.27539-.34814.91211-.22852.63574-.51025,1.45117-.282.81738-.58789,1.72852-.30615.9126-.58789,1.73438-.282.82178-.50391,1.47559-.22266.65479-.33008.94238a3.4207,3.4207,0,0,0-.81592,0q-.54053-1.66846-1.06836-3.35449-.52808-1.686-1.13965-3.48633h-.02393q-.09668.27686-.2583.73828-.16187.46289-.35986,1.03809-.19775.57568-.42627,1.23633-.22778.65918-.45557,1.332-.22852.67236-.44434,1.31934-.21606.64893-.396,1.17676a3.62353,3.62353,0,0,0-.83984,0Z" transform="translate(-355.25781 -371.12012)"/><path class="cls-1" d="M367.61816,377.54a3.50437,3.50437,0,0,1,.70215-2.31641,2.51581,2.51581,0,0,1,2.0459-.83984,2.7626,2.7626,0,0,1,1.09814.19824,2.29379,2.29379,0,0,1,.77393.52734,2.09029,2.09029,0,0,1,.46191.77441,2.94113,2.94113,0,0,1,.1499.94824c0,.08008-.002.1582-.00586.2334-.00391.07617-.01025.1543-.01807.23438q-.64819-.01172-1.28369-.02441-.63647-.01172-1.28418-.01172-.39624,0-.78613.01172-.38965.01318-.78613.02441a1.01311,1.01311,0,0,0-.01172.17969v.15625a2.72176,2.72176,0,0,0,.1377.876,1.991,1.991,0,0,0,.40234.70215,1.91976,1.91976,0,0,0,.64795.46777,2.127,2.127,0,0,0,.8877.17383,1.93926,1.93926,0,0,0,.49219-.06543,2.78738,2.78738,0,0,0,.49219-.18066,2.67527,2.67527,0,0,0,.44971-.26953,2.29594,2.29594,0,0,0,.36621-.33594l.06006.03613-.07227.58789a3.34922,3.34922,0,0,1-.894.49219,3.08718,3.08718,0,0,1-1.10986.20313,3.38112,3.38112,0,0,1-1.18213-.19727,2.61389,2.61389,0,0,1-.92383-.57617,2.58229,2.58229,0,0,1-.6001-.89453A2.92693,2.92693,0,0,1,367.61816,377.54Zm2.772-2.77246a1.3244,1.3244,0,0,0-.75.2041,1.7407,1.7407,0,0,0-.50391.50977,2.44113,2.44113,0,0,0-.2998.67188,3.51192,3.51192,0,0,0-.126.69043q.37134.01172.77393.02441.40137.01172.78564.01172.39624,0,.8042-.01172.408-.01318.792-.02441a4.59025,4.59025,0,0,0-.0542-.68359,2.13862,2.13862,0,0,0-.21582-.67285,1.42912,1.42912,0,0,0-.44971-.51562A1.28442,1.28442,0,0,0,370.39014,374.76758Z" transform="translate(-355.25781 -371.12012)"/><path class="cls-1" d="M378.64648,375.08008a3.41,3.41,0,0,1,.99561-.55273,3.101,3.101,0,0,1,.936-.14355,2.38239,2.38239,0,0,1,.792.126,1.718,1.718,0,0,1,.6123.36035,1.66834,1.66834,0,0,1,.396.56348,1.80369,1.80369,0,0,1,.144.72656q0,.68262-.02441,1.36133-.02417.67822-.02393,1.43457c0,.0957.002.19727.00635.30566a.88987.88987,0,0,0,.05371.28809.54392.54392,0,0,0,.13818.21.38469.38469,0,0,0,.27.084q.06006,0,.126-.00586a.301.301,0,0,0,.126-.042v.26367a1.39987,1.39987,0,0,1-.33008.0957,2.415,2.415,0,0,1-.438.03613.80972.80972,0,0,1-.58789-.19727.81918.81918,0,0,1-.24023-.51074,3.24207,3.24207,0,0,1-.85205.63672,2.3525,2.3525,0,0,1-1.03174.20313,2.06429,2.06429,0,0,1-.58789-.084,1.339,1.339,0,0,1-.51025-.27539,1.51589,1.51589,0,0,1-.35986-.46191,1.33689,1.33689,0,0,1-.13818-.61816,1.40655,1.40655,0,0,1,.4502-1.11621,2.45918,2.45918,0,0,1,1.2417-.52832q.64819-.10693,1.01416-.18555a2.555,2.555,0,0,0,.54-.16211.36512.36512,0,0,0,.21-.19824.99477.99477,0,0,0,.03613-.29395,2.26665,2.26665,0,0,0-.07227-.57617,1.33109,1.33109,0,0,0-.228-.47949,1.15424,1.15424,0,0,0-.40771-.33008,1.358,1.358,0,0,0-.6123-.126,1.90758,1.90758,0,0,0-.89355.21582,1.41982,1.41982,0,0,0-.61816.60059h-.13184Zm2.96387,2.13574a3.06817,3.06817,0,0,1-.47412.12012c-.18018.03223-.36182.06543-.5459.10156a5.04935,5.04935,0,0,0-.5459.13867,1.76539,1.76539,0,0,0-.48.22754,1.10848,1.10848,0,0,0-.33643.36035,1.277,1.277,0,0,0,.19824,1.40332,1.05654,1.05654,0,0,0,.72021.28809,1.47357,1.47357,0,0,0,.834-.252,1.8889,1.8889,0,0,0,.582-.58789Z" transform="translate(-355.25781 -371.12012)"/><path class="cls-1" d="M387.58008,375.35547a1.07572,1.07572,0,0,0-.354-.05957,1.01041,1.01041,0,0,0-.51562.13184,1.20122,1.20122,0,0,0-.38428.35352,1.68405,1.68405,0,0,0-.23975.52832,2.45578,2.45578,0,0,0-.084.6543v1.31934q0,.8042.00586,1.23047a5.943,5.943,0,0,0,.042.69043,4.64675,4.64675,0,0,0-.48-.02441,4.88045,4.88045,0,0,0-.50391.02441q.03589-.40869.042-1.11035.00586-.70166.00586-1.72168v-.38477q0-.46729-.00586-1.08008c-.00439-.40723-.01807-.876-.042-1.40332.08789.01563.17188.0293.252.042a1.72976,1.72976,0,0,0,.252.01758,1.579,1.579,0,0,0,.228-.01758c.07959-.0127.16406-.02637.252-.042q-.04834.43213-.0542.68359-.00586.252-.00586.48047l.02393.01172q.70825-1.29639,1.584-1.2959a1.27285,1.27285,0,0,1,.186.01172.92993.92993,0,0,1,.19824.06055,1.33527,1.33527,0,0,0-.07227.4375c-.00781.19629-.01172.374-.01172.53418l-.084.05957A.53809.53809,0,0,0,387.58008,375.35547Z" transform="translate(-355.25781 -371.12012)"/><path class="cls-1" d="M389.10986,377.54a3.50437,3.50437,0,0,1,.70215-2.31641,2.51581,2.51581,0,0,1,2.0459-.83984,2.7626,2.7626,0,0,1,1.09814.19824,2.29379,2.29379,0,0,1,.77393.52734,2.09029,2.09029,0,0,1,.46191.77441,2.94113,2.94113,0,0,1,.1499.94824c0,.08008-.002.1582-.00586.2334-.00391.07617-.01025.1543-.01807.23438q-.64819-.01172-1.28369-.02441-.63647-.01172-1.28418-.01172-.39624,0-.78613.01172-.38965.01318-.78613.02441a1.01311,1.01311,0,0,0-.01172.17969v.15625a2.72176,2.72176,0,0,0,.1377.876,1.991,1.991,0,0,0,.40234.70215,1.91976,1.91976,0,0,0,.64795.46777,2.127,2.127,0,0,0,.8877.17383,1.93926,1.93926,0,0,0,.49219-.06543,2.78738,2.78738,0,0,0,.49219-.18066,2.67527,2.67527,0,0,0,.44971-.26953,2.29594,2.29594,0,0,0,.36621-.33594l.06006.03613-.07227.58789a3.34922,3.34922,0,0,1-.894.49219,3.08718,3.08718,0,0,1-1.10986.20313,3.38112,3.38112,0,0,1-1.18213-.19727,2.61389,2.61389,0,0,1-.92383-.57617,2.58229,2.58229,0,0,1-.6001-.89453A2.92693,2.92693,0,0,1,389.10986,377.54Zm2.772-2.77246a1.3244,1.3244,0,0,0-.75.2041,1.7407,1.7407,0,0,0-.50391.50977,2.44114,2.44114,0,0,0-.2998.67188,3.51192,3.51192,0,0,0-.126.69043q.37134.01172.77393.02441.40137.01172.78564.01172.39624,0,.8042-.01172.408-.01318.792-.02441a4.59023,4.59023,0,0,0-.0542-.68359,2.13862,2.13862,0,0,0-.21582-.67285,1.42912,1.42912,0,0,0-.44971-.51562A1.28442,1.28442,0,0,0,391.88184,374.76758Z" transform="translate(-355.25781 -371.12012)"/><path class="cls-1" d="M399.52588,377.37207a3.34974,3.34974,0,0,1,.2583-1.38672,2.569,2.569,0,0,1,.67773-.92383,2.68134,2.68134,0,0,1,.94189-.51562,3.42357,3.42357,0,0,1,2.082,0,2.69474,2.69474,0,0,1,.936.51563,2.58144,2.58144,0,0,1,.67822.92383,3.85571,3.85571,0,0,1,0,2.77246,2.5729,2.5729,0,0,1-.67822.92383,2.46271,2.46271,0,0,1-.936.498,3.84631,3.84631,0,0,1-2.082,0,2.45425,2.45425,0,0,1-.94189-.498,2.56052,2.56052,0,0,1-.67773-.92383A3.34179,3.34179,0,0,1,399.52588,377.37207Zm1.05615,0a5.13339,5.13339,0,0,0,.08984.97168,2.59475,2.59475,0,0,0,.30615.834,1.641,1.641,0,0,0,.57617.582,1.93451,1.93451,0,0,0,1.77588,0,1.6436,1.6436,0,0,0,.57568-.582,2.59475,2.59475,0,0,0,.30615-.834,5.30467,5.30467,0,0,0,0-1.94434,2.59475,2.59475,0,0,0-.30615-.834,1.6436,1.6436,0,0,0-.57568-.582,1.93451,1.93451,0,0,0-1.77588,0,1.641,1.641,0,0,0-.57617.582,2.59475,2.59475,0,0,0-.30615.834A5.14374,5.14374,0,0,0,400.582,377.37207Z" transform="translate(-355.25781 -371.12012)"/><path class="cls-1" d="M410.79395,375.46973a1.137,1.137,0,0,0-.96-.46191,1.44217,1.44217,0,0,0-1.23.51563,2.36571,2.36571,0,0,0-.39014,1.45215v1.02051q0,.53906.01807,1.13379.01758.59326.07813,1.07422c-.18408-.0166-.36426-.02441-.54-.02441-.17627,0-.35645.00781-.54.02441q.06006-.48047.07813-1.07422.01758-.59473.01758-1.13379v-1.248q0-.54053-.01758-1.13477-.01831-.59326-.07812-1.10937a3.21075,3.21075,0,0,0,.54.05957,1.38717,1.38717,0,0,0,.21-.01758c.07568-.0127.166-.02637.27-.042-.02393.32031-.03613.63965-.03613.96h.02393a2.50517,2.50517,0,0,1,.8042-.79785,2.11758,2.11758,0,0,1,1.11572-.28223,2.521,2.521,0,0,1,.67822.0957,1.63259,1.63259,0,0,1,.61816.33008,1.71254,1.71254,0,0,1,.44971.63574,2.60885,2.60885,0,0,1,.17383,1.02637c0,.34375-.00781.69824-.02393,1.06152q-.02417.54639-.02393,1.1582v.78027q0,.19189.00586.37793.00659.186.01807.35449a4.89405,4.89405,0,0,0-.50391-.02441,4.75682,4.75682,0,0,0-.4917.02441q.02344-.624.05371-1.28418.03-.66064.03027-1.35645V376.832A2.24208,2.24208,0,0,0,410.79395,375.46973Z" transform="translate(-355.25781 -371.12012)"/><path class="cls-1" d="M419.41016,372.89551q-.03589.457-.05371.89453-.01831.438-.042.88184.13184,0,.4917-.00586c.24023-.00391.5-.01465.78027-.03027a.47187.47187,0,0,0-.01221.13184v.252a.40838.40838,0,0,0,.01221.12012c-.104-.00781-.2124-.01367-.32422-.01758-.1123-.00391-.23193-.00684-.35986-.00684h-.58789a3.81977,3.81977,0,0,0-.03027.38477c-.01172.22363-.022.49023-.02979.79785q-.01245.46143-.01807.96582-.00659.50391-.00586.90039,0,.33545.01758.65918a1.9804,1.9804,0,0,0,.11426.582.9334.9334,0,0,0,.28809.41406.85286.85286,0,0,0,.55176.15625,1.91046,1.91046,0,0,0,.2583-.02344,2.046,2.046,0,0,0,.28174-.06055v.28809c-.13623.02441-.28613.05371-.44971.08984a2.203,2.203,0,0,1-.47412.05371,1.49545,1.49545,0,0,1-1.11621-.37109,1.51275,1.51275,0,0,1-.35986-1.09277c0-.21582.00391-.44922.01221-.70215q.01172-.37793.02979-.82715c.01221-.30078.022-.63184.02979-.99609q.01245-.54639.01221-1.21875h-.38379c-.06445,0-.13232.00293-.2041.00684-.07227.00391-.14844.00977-.228.01758.00781-.04785.01367-.09375.01807-.1377.00391-.04395.00586-.08984.00586-.13867,0-.03906-.002-.0791-.00586-.11914-.00439-.04-.01025-.08008-.01807-.12012.35986.02344.624.03613.792.03613q-.01245-.24023-.01807-.60059c-.00439-.24023-.01416-.4873-.02979-.74414l.99561-.41992Z" transform="translate(-355.25781 -371.12012)"/><path class="cls-1" d="M422.28418,373.72363q-.00586-.479-.01807-.94824-.01172-.46729-.02979-.89355-.01831-.42627-.042-.72656a2.43867,2.43867,0,0,0,1.08008,0q-.02417.30029-.042.7207-.01831.42041-.03027.88184c-.00781.30762-.01416.61816-.01807.92969q-.00586.46875-.00586.86426v.91211h.02393a2.50517,2.50517,0,0,1,.8042-.79785,2.11758,2.11758,0,0,1,1.11572-.28223,2.521,2.521,0,0,1,.67822.0957,1.63259,1.63259,0,0,1,.61816.33008,1.71254,1.71254,0,0,1,.44971.63574,2.60885,2.60885,0,0,1,.17383,1.02637c0,.34375-.00781.69824-.02393,1.06152q-.02417.54639-.02393,1.1582v.78027q0,.19189.00586.37793.00659.186.01807.35449a4.89405,4.89405,0,0,0-.50391-.02441,4.75682,4.75682,0,0,0-.4917.02441q.02344-.624.05371-1.28418.03-.66064.03027-1.35645V376.832a2.24208,2.24208,0,0,0-.34814-1.3623,1.137,1.137,0,0,0-.96-.46191,1.44217,1.44217,0,0,0-1.23.51563,2.36571,2.36571,0,0,0-.39014,1.45215q0,.33691.00586.78027.00586.44385.01807.89355c.00781.2998.01807.59082.03027.87012.01172.28027.02588.50781.042.68457-.18408-.0166-.36426-.02441-.54-.02441-.17627,0-.35645.00781-.54.02441.01563-.18457.02979-.416.042-.69629q.01758-.42041.02979-.8877c.00781-.3125.01416-.62793.01807-.94824s.00586-.61621.00586-.88867v-2.17187Q422.29,374.2041,422.28418,373.72363Z" transform="translate(-355.25781 -371.12012)"/><path class="cls-1" d="M428.91406,377.54a3.50437,3.50437,0,0,1,.70215-2.31641,2.51581,2.51581,0,0,1,2.0459-.83984,2.7626,2.7626,0,0,1,1.09814.19824,2.29379,2.29379,0,0,1,.77393.52734,2.0903,2.0903,0,0,1,.46191.77441,2.94114,2.94114,0,0,1,.1499.94824c0,.08008-.002.1582-.00586.2334-.00391.07617-.01025.1543-.01807.23438q-.64819-.01172-1.28369-.02441-.63647-.01172-1.28418-.01172-.39624,0-.78613.01172-.38965.01318-.78613.02441a1.01311,1.01311,0,0,0-.01172.17969v.15625a2.72176,2.72176,0,0,0,.1377.876,1.991,1.991,0,0,0,.40234.70215,1.91976,1.91976,0,0,0,.64795.46777,2.127,2.127,0,0,0,.8877.17383,1.93926,1.93926,0,0,0,.49219-.06543,2.78738,2.78738,0,0,0,.49219-.18066,2.67527,2.67527,0,0,0,.44971-.26953,2.296,2.296,0,0,0,.36621-.33594l.06006.03613-.07227.58789a3.34922,3.34922,0,0,1-.894.49219,3.08718,3.08718,0,0,1-1.10986.20313,3.38112,3.38112,0,0,1-1.18213-.19727,2.61389,2.61389,0,0,1-.92383-.57617,2.58229,2.58229,0,0,1-.6001-.89453A2.92693,2.92693,0,0,1,428.91406,377.54Zm2.772-2.77246a1.3244,1.3244,0,0,0-.75.2041,1.7407,1.7407,0,0,0-.50391.50977,2.44114,2.44114,0,0,0-.2998.67188,3.51192,3.51192,0,0,0-.126.69043q.37134.01172.77393.02441.40137.01172.78564.01172.39624,0,.8042-.01172.408-.01318.792-.02441a4.59025,4.59025,0,0,0-.0542-.68359,2.13862,2.13862,0,0,0-.21582-.67285,1.42912,1.42912,0,0,0-.44971-.51562A1.28442,1.28442,0,0,0,431.686,374.76758Z" transform="translate(-355.25781 -371.12012)"/><path class="cls-1" d="M439.33008,377.54a3.50437,3.50437,0,0,1,.70215-2.31641,2.51581,2.51581,0,0,1,2.0459-.83984,2.7626,2.7626,0,0,1,1.09814.19824,2.29379,2.29379,0,0,1,.77393.52734,2.0903,2.0903,0,0,1,.46191.77441,2.94114,2.94114,0,0,1,.1499.94824c0,.08008-.002.1582-.00586.2334-.00391.07617-.01025.1543-.01807.23438q-.64819-.01172-1.28369-.02441-.63647-.01172-1.28418-.01172-.39624,0-.78613.01172-.38965.01318-.78613.02441a1.01311,1.01311,0,0,0-.01172.17969v.15625a2.72176,2.72176,0,0,0,.1377.876,1.991,1.991,0,0,0,.40234.70215,1.91976,1.91976,0,0,0,.64795.46777,2.127,2.127,0,0,0,.8877.17383,1.93926,1.93926,0,0,0,.49219-.06543,2.78739,2.78739,0,0,0,.49219-.18066,2.67528,2.67528,0,0,0,.44971-.26953,2.296,2.296,0,0,0,.36621-.33594l.06006.03613-.07227.58789a3.34922,3.34922,0,0,1-.894.49219,3.08718,3.08718,0,0,1-1.10986.20313,3.38113,3.38113,0,0,1-1.18213-.19727,2.61389,2.61389,0,0,1-.92383-.57617,2.58229,2.58229,0,0,1-.6001-.89453A2.92693,2.92693,0,0,1,439.33008,377.54Zm2.772-2.77246a1.3244,1.3244,0,0,0-.75.2041,1.7407,1.7407,0,0,0-.50391.50977,2.44114,2.44114,0,0,0-.2998.67188,3.51193,3.51193,0,0,0-.126.69043q.37134.01172.77393.02441.40137.01172.78564.01172.39624,0,.8042-.01172.408-.01318.792-.02441a4.59025,4.59025,0,0,0-.0542-.68359,2.13863,2.13863,0,0,0-.21582-.67285,1.42912,1.42912,0,0,0-.44971-.51562A1.28442,1.28442,0,0,0,442.10205,374.76758Z" transform="translate(-355.25781 -371.12012)"/><path class="cls-1" d="M446.48242,375.08008a3.41,3.41,0,0,1,.99561-.55273,3.101,3.101,0,0,1,.936-.14355,2.38239,2.38239,0,0,1,.792.126,1.718,1.718,0,0,1,.6123.36035,1.66834,1.66834,0,0,1,.396.56348,1.80369,1.80369,0,0,1,.144.72656q0,.68262-.02441,1.36133-.02417.67822-.02393,1.43457c0,.0957.002.19727.00635.30566a.88987.88987,0,0,0,.05371.28809.54392.54392,0,0,0,.13818.21.38469.38469,0,0,0,.27.084q.06006,0,.126-.00586a.301.301,0,0,0,.126-.042v.26367a1.39987,1.39987,0,0,1-.33008.0957,2.415,2.415,0,0,1-.438.03613.80972.80972,0,0,1-.58789-.19727.81918.81918,0,0,1-.24023-.51074,3.24207,3.24207,0,0,1-.85205.63672,2.3525,2.3525,0,0,1-1.03174.20313,2.06429,2.06429,0,0,1-.58789-.084,1.339,1.339,0,0,1-.51025-.27539,1.51589,1.51589,0,0,1-.35986-.46191,1.33689,1.33689,0,0,1-.13818-.61816,1.40655,1.40655,0,0,1,.4502-1.11621,2.45918,2.45918,0,0,1,1.2417-.52832q.64819-.10693,1.01416-.18555a2.555,2.555,0,0,0,.54-.16211.36512.36512,0,0,0,.21-.19824.99476.99476,0,0,0,.03613-.29395,2.26665,2.26665,0,0,0-.07227-.57617,1.33109,1.33109,0,0,0-.228-.47949,1.15424,1.15424,0,0,0-.40771-.33008,1.358,1.358,0,0,0-.6123-.126,1.90758,1.90758,0,0,0-.89355.21582,1.41982,1.41982,0,0,0-.61816.60059h-.13184Zm2.96387,2.13574a3.06817,3.06817,0,0,1-.47412.12012c-.18018.03223-.36182.06543-.5459.10156a5.04935,5.04935,0,0,0-.5459.13867,1.76539,1.76539,0,0,0-.48.22754,1.10848,1.10848,0,0,0-.33643.36035,1.277,1.277,0,0,0,.19824,1.40332,1.05654,1.05654,0,0,0,.72021.28809,1.47357,1.47357,0,0,0,.834-.252,1.8889,1.8889,0,0,0,.582-.58789Z" transform="translate(-355.25781 -371.12012)"/><path class="cls-1" d="M453.02832,379.35156a1.81813,1.81813,0,0,0,.2998.27051,1.72215,1.72215,0,0,0,.396.21,1.37215,1.37215,0,0,0,.91211.01172,1.201,1.201,0,0,0,.37207-.2041.94568.94568,0,0,0,.25781-.33594,1.08645,1.08645,0,0,0,.09619-.46777.74752.74752,0,0,0-.21-.57031,1.65787,1.65787,0,0,0-.522-.32422,5.60115,5.60115,0,0,0-.68408-.22168,2.88061,2.88061,0,0,1-.68408-.27051,1.59038,1.59038,0,0,1-.522-.46191,1.31852,1.31852,0,0,1-.21-.792,1.938,1.938,0,0,1,.13184-.72559,1.59986,1.59986,0,0,1,.38428-.57031,1.80637,1.80637,0,0,1,.624-.37793,2.44232,2.44232,0,0,1,.85205-.1377,2.06226,2.06226,0,0,1,.75.12012c.20361.08008.39746.15137.58154.21582a2.67079,2.67079,0,0,0-.17969.44434,3.09606,3.09606,0,0,0-.10791.40723h-.144a1.14458,1.14458,0,0,0-.37207-.51562,1.04178,1.04178,0,0,0-.68408-.22754,1.13,1.13,0,0,0-.35986.05957,1.00939,1.00939,0,0,0-.32422.17969.96119.96119,0,0,0-.23975.3125,1.00362,1.00362,0,0,0-.09619.45605.80181.80181,0,0,0,.21.59375,1.48255,1.48255,0,0,0,.522.33008,5.44358,5.44358,0,0,0,.68408.21,2.97931,2.97931,0,0,1,.68408.252,1.48768,1.48768,0,0,1,.522.4502,1.32193,1.32193,0,0,1,.21.792,1.66436,1.66436,0,0,1-.1499.68359,1.92173,1.92173,0,0,1-.43213.60645,1.98253,1.98253,0,0,1-.67773.41992,2.53961,2.53961,0,0,1-.90039.14941,3.358,3.358,0,0,1-.92383-.10742,2.91346,2.91346,0,0,1-.624-.252,3.21815,3.21815,0,0,0,.1499-.42578,1.67872,1.67872,0,0,0,.07813-.4502h.144A1.28538,1.28538,0,0,0,453.02832,379.35156Z" transform="translate(-355.25781 -371.12012)"/><path class="cls-1" d="M459.20215,372.89551q-.03589.457-.05371.89453-.01831.438-.042.88184.13184,0,.4917-.00586c.24023-.00391.5-.01465.78027-.03027a.47186.47186,0,0,0-.01221.13184v.252a.40837.40837,0,0,0,.01221.12012c-.104-.00781-.2124-.01367-.32422-.01758-.1123-.00391-.23193-.00684-.35986-.00684h-.58789a3.81977,3.81977,0,0,0-.03027.38477c-.01172.22363-.022.49023-.02979.79785q-.01245.46143-.01807.96582-.00659.50391-.00586.90039,0,.33545.01758.65918a1.9804,1.9804,0,0,0,.11426.582.9334.9334,0,0,0,.28809.41406.85286.85286,0,0,0,.55176.15625,1.91046,1.91046,0,0,0,.2583-.02344,2.046,2.046,0,0,0,.28174-.06055v.28809c-.13623.02441-.28613.05371-.44971.08984a2.203,2.203,0,0,1-.47412.05371,1.49545,1.49545,0,0,1-1.11621-.37109,1.51275,1.51275,0,0,1-.35986-1.09277c0-.21582.00391-.44922.01221-.70215q.01172-.37793.02979-.82715c.01221-.30078.022-.63184.02979-.99609q.01245-.54639.01221-1.21875h-.38379c-.06445,0-.13232.00293-.2041.00684-.07227.00391-.14844.00977-.228.01758.00781-.04785.01367-.09375.01807-.1377.00391-.04395.00586-.08984.00586-.13867,0-.03906-.002-.0791-.00586-.11914-.00439-.04-.01025-.08008-.01807-.12012.35986.02344.624.03613.792.03613q-.01245-.24023-.01807-.60059c-.00439-.24023-.01416-.4873-.02979-.74414l.99561-.41992Z" transform="translate(-355.25781 -371.12012)"/><path class="cls-1" d="M461.49414,377.54a3.50437,3.50437,0,0,1,.70215-2.31641,2.51581,2.51581,0,0,1,2.0459-.83984,2.7626,2.7626,0,0,1,1.09814.19824,2.29379,2.29379,0,0,1,.77393.52734,2.0903,2.0903,0,0,1,.46191.77441,2.94114,2.94114,0,0,1,.1499.94824c0,.08008-.002.1582-.00586.2334-.00391.07617-.01025.1543-.01807.23438q-.64819-.01172-1.28369-.02441-.63647-.01172-1.28418-.01172-.39624,0-.78613.01172-.38965.01318-.78613.02441a1.01311,1.01311,0,0,0-.01172.17969v.15625a2.72176,2.72176,0,0,0,.1377.876,1.991,1.991,0,0,0,.40234.70215,1.91976,1.91976,0,0,0,.64795.46777,2.127,2.127,0,0,0,.8877.17383,1.93926,1.93926,0,0,0,.49219-.06543,2.78739,2.78739,0,0,0,.49219-.18066,2.67528,2.67528,0,0,0,.44971-.26953,2.296,2.296,0,0,0,.36621-.33594l.06006.03613-.07227.58789a3.34922,3.34922,0,0,1-.894.49219,3.08718,3.08718,0,0,1-1.10986.20313,3.38113,3.38113,0,0,1-1.18213-.19727,2.61389,2.61389,0,0,1-.92383-.57617,2.58229,2.58229,0,0,1-.6001-.89453A2.92693,2.92693,0,0,1,461.49414,377.54Zm2.772-2.77246a1.3244,1.3244,0,0,0-.75.2041,1.7407,1.7407,0,0,0-.50391.50977,2.44114,2.44114,0,0,0-.2998.67188,3.51193,3.51193,0,0,0-.126.69043q.37134.01172.77393.02441.40137.01172.78564.01172.39624,0,.8042-.01172.408-.01318.792-.02441a4.59025,4.59025,0,0,0-.0542-.68359,2.13862,2.13862,0,0,0-.21582-.67285,1.42912,1.42912,0,0,0-.44971-.51562A1.28442,1.28442,0,0,0,464.26611,374.76758Z" transform="translate(-355.25781 -371.12012)"/><path class="cls-1" d="M471.03955,375.35547a1.07572,1.07572,0,0,0-.354-.05957,1.01041,1.01041,0,0,0-.51562.13184,1.20122,1.20122,0,0,0-.38428.35352,1.68406,1.68406,0,0,0-.23975.52832,2.45579,2.45579,0,0,0-.084.6543v1.31934q0,.8042.00586,1.23047a5.943,5.943,0,0,0,.042.69043,4.64675,4.64675,0,0,0-.48-.02441,4.88045,4.88045,0,0,0-.50391.02441q.03589-.40869.042-1.11035.00586-.70166.00586-1.72168v-.38477q0-.46729-.00586-1.08008c-.00439-.40723-.01807-.876-.042-1.40332.08789.01563.17188.0293.252.042a1.72976,1.72976,0,0,0,.252.01758,1.579,1.579,0,0,0,.228-.01758c.07959-.0127.16406-.02637.252-.042q-.04834.43213-.0542.68359-.00586.252-.00586.48047l.02393.01172q.70825-1.29639,1.584-1.2959a1.27285,1.27285,0,0,1,.186.01172.92993.92993,0,0,1,.19824.06055,1.33527,1.33527,0,0,0-.07227.4375c-.00781.19629-.01172.374-.01172.53418l-.084.05957A.53809.53809,0,0,0,471.03955,375.35547Z" transform="translate(-355.25781 -371.12012)"/><path class="cls-1" d="M476.626,375.46973a1.137,1.137,0,0,0-.96-.46191,1.44217,1.44217,0,0,0-1.23.51563,2.36571,2.36571,0,0,0-.39014,1.45215v1.02051q0,.53906.01807,1.13379.01758.59326.07813,1.07422c-.18408-.0166-.36426-.02441-.54-.02441-.17627,0-.35645.00781-.54.02441q.06006-.48047.07813-1.07422.01758-.59473.01758-1.13379v-1.248q0-.54053-.01758-1.13477-.01831-.59326-.07812-1.10937a3.21075,3.21075,0,0,0,.54.05957,1.38717,1.38717,0,0,0,.21-.01758c.07568-.0127.166-.02637.27-.042-.02393.32031-.03613.63965-.03613.96h.02393a2.50517,2.50517,0,0,1,.8042-.79785,2.11758,2.11758,0,0,1,1.11572-.28223,2.521,2.521,0,0,1,.67822.0957,1.63259,1.63259,0,0,1,.61816.33008,1.71254,1.71254,0,0,1,.44971.63574,2.60884,2.60884,0,0,1,.17383,1.02637c0,.34375-.00781.69824-.02393,1.06152q-.02417.54639-.02393,1.1582v.78027q0,.19189.00586.37793.00659.186.01807.35449a4.89405,4.89405,0,0,0-.50391-.02441,4.75682,4.75682,0,0,0-.4917.02441q.02344-.624.05371-1.28418.03-.66064.03027-1.35645V376.832A2.24208,2.24208,0,0,0,476.626,375.46973Z" transform="translate(-355.25781 -371.12012)"/><path class="cls-1" d="M484.15576,375.61328q-.01831-.59326-.07812-1.10937a3.21588,3.21588,0,0,0,.54.05957,1.38717,1.38717,0,0,0,.21-.01758c.07617-.0127.166-.02637.27-.042-.02393.32031-.03564.63965-.03564.96h.02393a2.00969,2.00969,0,0,1,2.376-.99023,2.02982,2.02982,0,0,1,.522.24609,1.6724,1.6724,0,0,1,.40186.37793,1.27251,1.27251,0,0,1,.228.47363h.02393a2.1159,2.1159,0,0,1,.78613-.88184,2.143,2.143,0,0,1,1.146-.30566,2.4016,2.4016,0,0,1,.73193.10742,1.483,1.483,0,0,1,.96582.9248,2.40306,2.40306,0,0,1,.13818.86328c0,.13672-.00391.28418-.01221.44434-.00781.16016-.01611.3457-.02393.55762-.00781.21289-.01611.45215-.02393.7207-.00781.26758-.01172.57813-.01172.92969,0,.21582.00146.42383.00586.624q.00586.30029.02979.64844a1.417,1.417,0,0,0-.26367-.02441h-.51611a1.41832,1.41832,0,0,0-.26416.02441q.03589-.30029.07813-1.21289.04175-.91113.042-2.54395a2.321,2.321,0,0,0-.06592-.56348,1.26485,1.26485,0,0,0-.21-.45605,1.01486,1.01486,0,0,0-.38428-.30566,1.39269,1.39269,0,0,0-.59961-.11426,1.47688,1.47688,0,0,0-.73242.168,1.45725,1.45725,0,0,0-.46777.39551,1.27915,1.27915,0,0,0-.1499.26465,1.566,1.566,0,0,0-.084.40137q-.03.271-.042.75684-.01245.48486-.01221,1.33789c0,.34375.00586.6582.01807.94141q.01831.42627.042.93066c-.18408-.0166-.35986-.02441-.52783-.02441s-.34424.00781-.52832.02441q.06006-.66064.084-1.34473.02417-.68408.02393-1.34375,0-.564-.00586-.88184a4.94958,4.94958,0,0,0-.02979-.50391,1.57376,1.57376,0,0,0-.06592-.30664,2.425,2.425,0,0,0-.11426-.26367,1.08671,1.08671,0,0,0-.41406-.38965,1.1495,1.1495,0,0,0-.582-.16211,1.33847,1.33847,0,0,0-1.16406.51563,2.45231,2.45231,0,0,0-.37158,1.45215v1.02051q0,.53906.01758,1.13379.01831.59326.07813,1.07422c-.18408-.0166-.36426-.02441-.54-.02441s-.356.00781-.54.02441q.06006-.48047.07813-1.07422.01831-.59473.01807-1.13379v-1.248Q484.17383,376.20752,484.15576,375.61328Z" transform="translate(-355.25781 -371.12012)"/><path class="cls-1" d="M494.19385,377.37207a3.34974,3.34974,0,0,1,.2583-1.38672,2.569,2.569,0,0,1,.67773-.92383,2.68135,2.68135,0,0,1,.94189-.51562,3.42357,3.42357,0,0,1,2.082,0,2.69474,2.69474,0,0,1,.936.51563,2.58144,2.58144,0,0,1,.67822.92383,3.85571,3.85571,0,0,1,0,2.77246,2.5729,2.5729,0,0,1-.67822.92383,2.46271,2.46271,0,0,1-.936.498,3.84632,3.84632,0,0,1-2.082,0,2.45425,2.45425,0,0,1-.94189-.498,2.56052,2.56052,0,0,1-.67773-.92383A3.34179,3.34179,0,0,1,494.19385,377.37207Zm1.05615,0a5.13339,5.13339,0,0,0,.08984.97168,2.59474,2.59474,0,0,0,.30615.834,1.641,1.641,0,0,0,.57617.582,1.93451,1.93451,0,0,0,1.77588,0,1.6436,1.6436,0,0,0,.57568-.582,2.59475,2.59475,0,0,0,.30615-.834,5.30466,5.30466,0,0,0,0-1.94434,2.59475,2.59475,0,0,0-.30615-.834,1.6436,1.6436,0,0,0-.57568-.582,1.93451,1.93451,0,0,0-1.77588,0,1.641,1.641,0,0,0-.57617.582,2.59474,2.59474,0,0,0-.30615.834A5.14374,5.14374,0,0,0,495.25,377.37207Z" transform="translate(-355.25781 -371.12012)"/><path class="cls-1" d="M501.89795,378.3916q0-.63574.01807-1.08594.01758-.44971.01807-.89355,0-.42041-.00635-.91211-.00586-.49219-.01807-.99609a2.64454,2.64454,0,0,0,.50439.05957,2.608,2.608,0,0,0,.4917-.05957q-.06006.71924-.08984,1.57813-.03.85693-.03027,1.75781a3.21972,3.21972,0,0,0,.1084.9541,1.24362,1.24362,0,0,0,.68994.81543,1.36473,1.36473,0,0,0,.606.126,1.48879,1.48879,0,0,0,.83984-.22168,1.35823,1.35823,0,0,0,.49219-.5459c.05566-.13574.09961-.252.13184-.34766a2.10747,2.10747,0,0,0,.07813-.38477,6.31072,6.31072,0,0,0,.03613-.64746q.00586-.40869.00586-1.11621v-1.00781q0-.26367-.00586-.50391c-.00439-.16016-.01025-.3125-.01807-.45605.08789.01563.17188.0293.252.042a1.81445,1.81445,0,0,0,.50391,0c.08008-.0127.16016-.02637.23975-.042q-.06006.936-.07178,1.80566-.01172.87012-.01221,1.8418,0,.54053.01221,1.05664.01172.51563.03613.99609a4.49815,4.49815,0,0,0-.936,0c.00781-.07227.01367-.14844.01807-.22852q.00586-.12012.00586-.252V379.208h-.02393a2.0332,2.0332,0,0,1-.8042.8457,2.18759,2.18759,0,0,1-1.06787.26953,2.07079,2.07079,0,0,1-1.47021-.49707A1.86635,1.86635,0,0,1,501.89795,378.3916Z" transform="translate(-355.25781 -371.12012)"/><path class="cls-1" d="M512.67383,375.46973a1.137,1.137,0,0,0-.96-.46191,1.44217,1.44217,0,0,0-1.23.51563,2.36571,2.36571,0,0,0-.39014,1.45215v1.02051q0,.53906.01807,1.13379.01758.59326.07813,1.07422c-.18408-.0166-.36426-.02441-.54-.02441-.17627,0-.35645.00781-.54.02441q.06006-.48047.07813-1.07422.01758-.59473.01758-1.13379v-1.248q0-.54053-.01758-1.13477-.01831-.59326-.07812-1.10937a3.21075,3.21075,0,0,0,.54.05957,1.38717,1.38717,0,0,0,.21-.01758c.07568-.0127.166-.02637.27-.042-.02393.32031-.03613.63965-.03613.96h.02393a2.50517,2.50517,0,0,1,.8042-.79785,2.11758,2.11758,0,0,1,1.11572-.28223,2.521,2.521,0,0,1,.67822.0957,1.63258,1.63258,0,0,1,.61816.33008,1.71254,1.71254,0,0,1,.44971.63574,2.60884,2.60884,0,0,1,.17383,1.02637c0,.34375-.00781.69824-.02393,1.06152q-.02417.54639-.02393,1.1582v.78027q0,.19189.00586.37793.00659.186.01807.35449a4.89405,4.89405,0,0,0-.50391-.02441,4.75682,4.75682,0,0,0-.4917.02441q.02344-.624.05371-1.28418.03-.66064.03027-1.35645V376.832A2.24208,2.24208,0,0,0,512.67383,375.46973Z" transform="translate(-355.25781 -371.12012)"/><path class="cls-1" d="M517.41357,372.89551q-.03589.457-.05371.89453-.01831.438-.042.88184.13184,0,.4917-.00586c.24023-.00391.5-.01465.78027-.03027a.47186.47186,0,0,0-.01221.13184v.252a.40837.40837,0,0,0,.01221.12012c-.104-.00781-.2124-.01367-.32422-.01758-.1123-.00391-.23193-.00684-.35986-.00684h-.58789a3.81977,3.81977,0,0,0-.03027.38477c-.01172.22363-.022.49023-.02979.79785q-.01245.46143-.01807.96582-.00659.50391-.00586.90039,0,.33545.01758.65918a1.9804,1.9804,0,0,0,.11426.582.9334.9334,0,0,0,.28809.41406.85286.85286,0,0,0,.55176.15625,1.91046,1.91046,0,0,0,.2583-.02344,2.046,2.046,0,0,0,.28174-.06055v.28809c-.13623.02441-.28613.05371-.44971.08984a2.203,2.203,0,0,1-.47412.05371,1.49545,1.49545,0,0,1-1.11621-.37109,1.51275,1.51275,0,0,1-.35986-1.09277c0-.21582.00391-.44922.01221-.70215q.01172-.37793.02979-.82715c.01221-.30078.022-.63184.02979-.99609q.01245-.54639.01221-1.21875h-.38379c-.06445,0-.13232.00293-.2041.00684-.07227.00391-.14844.00977-.228.01758.00781-.04785.01367-.09375.01807-.1377.00391-.04395.00586-.08984.00586-.13867,0-.03906-.002-.0791-.00586-.11914-.00439-.04-.01025-.08008-.01807-.12012.35986.02344.624.03613.792.03613q-.01245-.24023-.01807-.60059c-.00439-.24023-.01416-.4873-.02979-.74414l.99561-.41992Z" transform="translate(-355.25781 -371.12012)"/><path class="cls-1" d="M520.31787,375.08008a3.41,3.41,0,0,1,.99561-.55273,3.101,3.101,0,0,1,.936-.14355,2.38239,2.38239,0,0,1,.792.126,1.718,1.718,0,0,1,.6123.36035,1.66834,1.66834,0,0,1,.396.56348,1.80369,1.80369,0,0,1,.144.72656q0,.68262-.02441,1.36133-.02417.67822-.02393,1.43457c0,.0957.002.19727.00635.30566a.88987.88987,0,0,0,.05371.28809.54392.54392,0,0,0,.13818.21.38469.38469,0,0,0,.27.084q.06006,0,.126-.00586a.301.301,0,0,0,.126-.042v.26367a1.39987,1.39987,0,0,1-.33008.0957,2.415,2.415,0,0,1-.438.03613.80972.80972,0,0,1-.58789-.19727.81918.81918,0,0,1-.24023-.51074,3.24207,3.24207,0,0,1-.85205.63672,2.3525,2.3525,0,0,1-1.03174.20313,2.06429,2.06429,0,0,1-.58789-.084,1.339,1.339,0,0,1-.51025-.27539,1.51589,1.51589,0,0,1-.35986-.46191,1.33689,1.33689,0,0,1-.13818-.61816,1.40655,1.40655,0,0,1,.4502-1.11621,2.45918,2.45918,0,0,1,1.2417-.52832q.64819-.10693,1.01416-.18555a2.555,2.555,0,0,0,.54-.16211.36512.36512,0,0,0,.21-.19824.99477.99477,0,0,0,.03613-.29395,2.26666,2.26666,0,0,0-.07227-.57617,1.33109,1.33109,0,0,0-.228-.47949,1.15424,1.15424,0,0,0-.40771-.33008,1.358,1.358,0,0,0-.6123-.126,1.90758,1.90758,0,0,0-.89355.21582,1.41982,1.41982,0,0,0-.61816.60059h-.13184Zm2.96387,2.13574a3.06817,3.06817,0,0,1-.47412.12012c-.18018.03223-.36182.06543-.5459.10156a5.04935,5.04935,0,0,0-.5459.13867,1.76539,1.76539,0,0,0-.48.22754,1.10848,1.10848,0,0,0-.33643.36035,1.277,1.277,0,0,0,.19824,1.40332,1.05654,1.05654,0,0,0,.72021.28809,1.47357,1.47357,0,0,0,.834-.252,1.8889,1.8889,0,0,0,.582-.58789Z" transform="translate(-355.25781 -371.12012)"/><path class="cls-1" d="M526.88184,372.416a.6135.6135,0,1,1,.17969.43164A.59193.59193,0,0,1,526.88184,372.416Zm.168,4.332q0-.54053-.01807-1.13477-.01831-.59326-.07812-1.10937a2.47766,2.47766,0,0,0,1.08008,0q-.06006.51563-.07812,1.10938-.01758.59473-.01807,1.13477v1.248q0,.53906.01807,1.13379.01831.59326.07813,1.07422c-.18408-.0166-.36426-.02441-.54-.02441-.17627,0-.356.00781-.54.02441q.06006-.48047.07813-1.07422.01758-.59473.01807-1.13379Z" transform="translate(-355.25781 -371.12012)"/><path class="cls-1" d="M534.17773,375.46973a1.137,1.137,0,0,0-.96-.46191,1.44217,1.44217,0,0,0-1.23.51563,2.36571,2.36571,0,0,0-.39014,1.45215v1.02051q0,.53906.01807,1.13379.01758.59326.07813,1.07422c-.18408-.0166-.36426-.02441-.54-.02441-.17627,0-.35645.00781-.54.02441q.06006-.48047.07813-1.07422.01758-.59473.01758-1.13379v-1.248q0-.54053-.01758-1.13477-.01831-.59326-.07812-1.10937a3.21075,3.21075,0,0,0,.54.05957,1.38717,1.38717,0,0,0,.21-.01758c.07568-.0127.166-.02637.27-.042-.02393.32031-.03613.63965-.03613.96h.02393a2.50517,2.50517,0,0,1,.8042-.79785,2.11758,2.11758,0,0,1,1.11572-.28223,2.521,2.521,0,0,1,.67822.0957,1.63259,1.63259,0,0,1,.61816.33008,1.71254,1.71254,0,0,1,.44971.63574,2.60885,2.60885,0,0,1,.17383,1.02637c0,.34375-.00781.69824-.02393,1.06152q-.02417.54639-.02393,1.1582v.78027q0,.19189.00586.37793.00659.186.01807.35449a4.89405,4.89405,0,0,0-.50391-.02441,4.75682,4.75682,0,0,0-.4917.02441q.02344-.624.05371-1.28418.03-.66064.03027-1.35645V376.832A2.24208,2.24208,0,0,0,534.17773,375.46973Z" transform="translate(-355.25781 -371.12012)"/><path class="cls-1" d="M544.21582,375.35547a1.07572,1.07572,0,0,0-.354-.05957,1.01041,1.01041,0,0,0-.51562.13184,1.20122,1.20122,0,0,0-.38428.35352,1.68405,1.68405,0,0,0-.23975.52832,2.45578,2.45578,0,0,0-.084.6543v1.31934q0,.8042.00586,1.23047a5.943,5.943,0,0,0,.042.69043,4.64675,4.64675,0,0,0-.48-.02441,4.88045,4.88045,0,0,0-.50391.02441q.03589-.40869.042-1.11035.00586-.70166.00586-1.72168v-.38477q0-.46729-.00586-1.08008c-.00439-.40723-.01807-.876-.042-1.40332.08789.01563.17188.0293.252.042a1.72976,1.72976,0,0,0,.252.01758,1.579,1.579,0,0,0,.228-.01758c.07959-.0127.16406-.02637.252-.042q-.04834.43213-.0542.68359-.00586.252-.00586.48047l.02393.01172q.70825-1.29639,1.584-1.2959a1.27286,1.27286,0,0,1,.186.01172.92993.92993,0,0,1,.19824.06055,1.33527,1.33527,0,0,0-.07227.4375c-.00781.19629-.01172.374-.01172.53418l-.084.05957A.53809.53809,0,0,0,544.21582,375.35547Z" transform="translate(-355.25781 -371.12012)"/><path class="cls-1" d="M546.21387,375.08008a3.41,3.41,0,0,1,.99561-.55273,3.101,3.101,0,0,1,.936-.14355,2.38239,2.38239,0,0,1,.792.126,1.718,1.718,0,0,1,.6123.36035,1.66834,1.66834,0,0,1,.396.56348,1.80369,1.80369,0,0,1,.144.72656q0,.68262-.02441,1.36133-.02417.67822-.02393,1.43457c0,.0957.002.19727.00635.30566a.88987.88987,0,0,0,.05371.28809.54392.54392,0,0,0,.13818.21.38469.38469,0,0,0,.27.084q.06006,0,.126-.00586a.301.301,0,0,0,.126-.042v.26367a1.39987,1.39987,0,0,1-.33008.0957,2.415,2.415,0,0,1-.438.03613.80972.80972,0,0,1-.58789-.19727.81918.81918,0,0,1-.24023-.51074,3.24207,3.24207,0,0,1-.85205.63672,2.3525,2.3525,0,0,1-1.03174.20313,2.06429,2.06429,0,0,1-.58789-.084,1.339,1.339,0,0,1-.51025-.27539,1.51589,1.51589,0,0,1-.35986-.46191,1.33689,1.33689,0,0,1-.13818-.61816,1.40655,1.40655,0,0,1,.4502-1.11621,2.45918,2.45918,0,0,1,1.2417-.52832q.64819-.10693,1.01416-.18555a2.555,2.555,0,0,0,.54-.16211.36512.36512,0,0,0,.21-.19824.99477.99477,0,0,0,.03613-.29395,2.26666,2.26666,0,0,0-.07227-.57617,1.33109,1.33109,0,0,0-.228-.47949,1.15424,1.15424,0,0,0-.40771-.33008,1.358,1.358,0,0,0-.6123-.126,1.90758,1.90758,0,0,0-.89355.21582,1.41982,1.41982,0,0,0-.61816.60059h-.13184Zm2.96387,2.13574a3.06817,3.06817,0,0,1-.47412.12012c-.18018.03223-.36182.06543-.5459.10156a5.04935,5.04935,0,0,0-.5459.13867,1.76539,1.76539,0,0,0-.48.22754,1.10848,1.10848,0,0,0-.33643.36035,1.277,1.277,0,0,0,.19824,1.40332,1.05654,1.05654,0,0,0,.72021.28809,1.47357,1.47357,0,0,0,.834-.252,1.8889,1.8889,0,0,0,.582-.58789Z" transform="translate(-355.25781 -371.12012)"/><path class="cls-1" d="M556.19775,375.46973a1.137,1.137,0,0,0-.96-.46191,1.44217,1.44217,0,0,0-1.23.51563,2.36571,2.36571,0,0,0-.39014,1.45215v1.02051q0,.53906.01807,1.13379.01758.59326.07813,1.07422c-.18408-.0166-.36426-.02441-.54-.02441-.17627,0-.35645.00781-.54.02441q.06006-.48047.07813-1.07422.01758-.59473.01758-1.13379v-1.248q0-.54053-.01758-1.13477-.01831-.59326-.07812-1.10937a3.21075,3.21075,0,0,0,.54.05957,1.38717,1.38717,0,0,0,.21-.01758c.07568-.0127.166-.02637.27-.042-.02393.32031-.03613.63965-.03613.96h.02393a2.50517,2.50517,0,0,1,.8042-.79785,2.11758,2.11758,0,0,1,1.11572-.28223,2.521,2.521,0,0,1,.67822.0957,1.63259,1.63259,0,0,1,.61816.33008,1.71254,1.71254,0,0,1,.44971.63574,2.60885,2.60885,0,0,1,.17383,1.02637c0,.34375-.00781.69824-.02393,1.06152q-.02417.54639-.02393,1.1582v.78027q0,.19189.00586.37793.00659.186.01807.35449a4.89405,4.89405,0,0,0-.50391-.02441,4.75682,4.75682,0,0,0-.4917.02441q.02344-.624.05371-1.28418.03-.66064.03027-1.35645V376.832A2.24208,2.24208,0,0,0,556.19775,375.46973Z" transform="translate(-355.25781 -371.12012)"/><path class="cls-1" d="M559.53369,376.33984a1.95838,1.95838,0,0,1,.17969-.87012,1.67546,1.67546,0,0,1,.498-.60645,2.25188,2.25188,0,0,1,.73193-.35937,3.1552,3.1552,0,0,1,.88232-.12012q.22778,0,.438.01172c.13965.00781.31787.02051.53369.03613.18408.0166.34814.02832.49219.03613s.25977.01172.34814.01172a5.53565,5.53565,0,0,0,.97168-.05957,1.22364,1.22364,0,0,0-.01758.126c-.00439.04395-.00635.08594-.00635.126s.002.082.00635.126a1.22364,1.22364,0,0,0,.01758.126c-.23193-.01562-.458-.03418-.67773-.05371q-.33032-.03076-.65381-.042l-.02441.02344a1.50843,1.50843,0,0,1,.6001.62988,1.8485,1.8485,0,0,1,.228.88184,1.7434,1.7434,0,0,1-.606,1.41016,2.43989,2.43989,0,0,1-1.626.50977q-.16846,0-.33008-.01172-.16187-.01172-.33008-.01172a.61117.61117,0,0,0-.40186.15625.49263.49263,0,0,0-.186.39551.60705.60705,0,0,0,.1499.45605.8523.8523,0,0,0,.55811.15625q.33618.01172.66016.01758.32373.00732.65967.01855a3.48457,3.48457,0,0,1,.94238.13184,1.81786,1.81786,0,0,1,.63574.32422,1.24587,1.24587,0,0,1,.35986.46777,1.43467,1.43467,0,0,1,.11426.57617,2.41818,2.41818,0,0,1-.16211.85156,2.21768,2.21768,0,0,1-.50391.78027,2.69376,2.69376,0,0,1-.88184.57617,3.33744,3.33744,0,0,1-1.29639.22754,3.20137,3.20137,0,0,1-1.83594-.46191,1.52469,1.52469,0,0,1-.55811-1.8418,1.75079,1.75079,0,0,1,.29443-.46777,1.4165,1.4165,0,0,1,.40771-.32422,2.08522,2.08522,0,0,1,.46826-.17969v-.02441a1.04978,1.04978,0,0,1-.564-.36035.95706.95706,0,0,1-.19238-.59961.87117.87117,0,0,1,.07813-.37207,1.16786,1.16786,0,0,1,.19824-.2998,1.01922,1.01922,0,0,1,.27588-.21582.97672.97672,0,0,1,.2998-.1084v-.02441a2.01234,2.01234,0,0,1-.86377-.67773A1.84532,1.84532,0,0,1,559.53369,376.33984Zm4.25977,5.13574a1.13577,1.13577,0,0,0-.41992-1.00781,2.541,2.541,0,0,0-1.39209-.28809,2.72885,2.72885,0,0,0-1.39209.29395,1.13331,1.13331,0,0,0-.4917,1.0625,1.59927,1.59927,0,0,0,.1377.69531,1.26719,1.26719,0,0,0,.37207.46777,1.54843,1.54843,0,0,0,.55811.26465,2.78505,2.78505,0,0,0,.69629.084,2.67524,2.67524,0,0,0,.708-.0957,1.95889,1.95889,0,0,0,.61768-.28809,1.507,1.507,0,0,0,.438-.48633A1.39419,1.39419,0,0,0,563.79346,381.47559Zm-.64795-5.19629a1.656,1.656,0,0,0-.35986-1.15137,1.219,1.219,0,0,0-.94824-.39648,1.23294,1.23294,0,0,0-1.00781.43848,1.7836,1.7836,0,0,0-.35986,1.16992,1.936,1.936,0,0,0,.33008,1.19336,1.27254,1.27254,0,0,0,2.02783-.07129,1.65725,1.65725,0,0,0,.23975-.54A2.57984,2.57984,0,0,0,563.14551,376.2793Z" transform="translate(-355.25781 -371.12012)"/><path class="cls-1" d="M565.89355,377.54a3.50437,3.50437,0,0,1,.70215-2.31641,2.51581,2.51581,0,0,1,2.0459-.83984,2.7626,2.7626,0,0,1,1.09814.19824,2.29379,2.29379,0,0,1,.77393.52734,2.09029,2.09029,0,0,1,.46191.77441,2.94113,2.94113,0,0,1,.1499.94824c0,.08008-.002.1582-.00586.2334-.00391.07617-.01025.1543-.01807.23438q-.64819-.01172-1.28369-.02441-.63647-.01172-1.28418-.01172-.39624,0-.78613.01172-.38965.01318-.78613.02441a1.01311,1.01311,0,0,0-.01172.17969v.15625a2.72176,2.72176,0,0,0,.1377.876,1.991,1.991,0,0,0,.40234.70215,1.91976,1.91976,0,0,0,.64795.46777,2.127,2.127,0,0,0,.8877.17383,1.93926,1.93926,0,0,0,.49219-.06543,2.78738,2.78738,0,0,0,.49219-.18066,2.67528,2.67528,0,0,0,.44971-.26953,2.296,2.296,0,0,0,.36621-.33594l.06006.03613-.07227.58789a3.34922,3.34922,0,0,1-.894.49219,3.08718,3.08718,0,0,1-1.10986.20313,3.38112,3.38112,0,0,1-1.18213-.19727,2.61389,2.61389,0,0,1-.92383-.57617,2.58229,2.58229,0,0,1-.6001-.89453A2.92693,2.92693,0,0,1,565.89355,377.54Zm2.772-2.77246a1.3244,1.3244,0,0,0-.75.2041,1.7407,1.7407,0,0,0-.50391.50977,2.44114,2.44114,0,0,0-.2998.67188,3.51192,3.51192,0,0,0-.126.69043q.37134.01172.77393.02441.40137.01172.78564.01172.39624,0,.8042-.01172.408-.01318.792-.02441a4.59023,4.59023,0,0,0-.0542-.68359,2.13862,2.13862,0,0,0-.21582-.67285,1.42912,1.42912,0,0,0-.44971-.51562A1.28442,1.28442,0,0,0,568.66553,374.76758Z" transform="translate(-355.25781 -371.12012)"/><path class="cls-1" d="M576.30957,377.37207a3.34974,3.34974,0,0,1,.2583-1.38672,2.569,2.569,0,0,1,.67773-.92383,2.68135,2.68135,0,0,1,.94189-.51562,3.42357,3.42357,0,0,1,2.082,0,2.69474,2.69474,0,0,1,.936.51563,2.58144,2.58144,0,0,1,.67822.92383,3.85571,3.85571,0,0,1,0,2.77246,2.5729,2.5729,0,0,1-.67822.92383,2.46271,2.46271,0,0,1-.936.498,3.84631,3.84631,0,0,1-2.082,0,2.45425,2.45425,0,0,1-.94189-.498,2.56052,2.56052,0,0,1-.67773-.92383A3.34179,3.34179,0,0,1,576.30957,377.37207Zm1.05615,0a5.13339,5.13339,0,0,0,.08984.97168,2.59475,2.59475,0,0,0,.30615.834,1.641,1.641,0,0,0,.57617.582,1.93451,1.93451,0,0,0,1.77588,0,1.6436,1.6436,0,0,0,.57568-.582,2.59475,2.59475,0,0,0,.30615-.834,5.30467,5.30467,0,0,0,0-1.94434,2.59475,2.59475,0,0,0-.30615-.834,1.6436,1.6436,0,0,0-.57568-.582,1.93451,1.93451,0,0,0-1.77588,0,1.641,1.641,0,0,0-.57617.582,2.59475,2.59475,0,0,0-.30615.834A5.14374,5.14374,0,0,0,577.36572,377.37207Z" transform="translate(-355.25781 -371.12012)"/><path class="cls-1" d="M585.89746,371.97168a.89116.89116,0,0,0-.75586.36621,1.04207,1.04207,0,0,0-.17383.37793,1.86441,1.86441,0,0,0-.0542.45605q0,.21533.042.624c.02783.27148.062.53223.10205.78027q.312,0,.61816-.00684.30542-.00586.61768-.00586c-.00781.04-.01416.08008-.01807.12012s-.00586.08008-.00586.12012.002.08008.00586.12012.01025.08008.01807.12012c-.208-.00781-.41406-.0166-.61768-.02441q-.30615-.01172-.61816-.01172,0,1.30811.00586,2.59766.00586,1.29053.042,2.59863a1.417,1.417,0,0,0-.26367-.02441h-.25244c-.168,0-.34375.00781-.52783.02441q.08423-1.30811.09619-2.58594.01172-1.27881.01172-2.61035-.21606,0-.43164.01172c-.144.00781-.28809.0166-.43213.02441.00781-.04.01367-.08008.01807-.12012q.00586-.06006.00586-.12012t-.00586-.12012c-.00439-.04-.01025-.08008-.01807-.12012.144,0,.28955.002.438.00586.14795.00488.28955.00684.42578.00684a4.3478,4.3478,0,0,1,.07227-.75684,5.12367,5.12367,0,0,1,.21-.80371,5.03375,5.03375,0,0,1,.33008-.75,2.56421,2.56421,0,0,1,.43164-.59375,2.10293,2.10293,0,0,1,.54639-.38379,1.47235,1.47235,0,0,1,.67773-.168.77571.77571,0,0,1,.24023.03516c-.0083.16016-.01807.32031-.03027.48047-.01172.16016-.01807.32031-.01807.47949l-.07178.03613A1.21808,1.21808,0,0,0,585.89746,371.97168Z" transform="translate(-355.25781 -371.12012)"/><path class="cls-1" d="M597.89209,379.92188a3.29532,3.29532,0,0,1-.564.2041q-.33032.08936-.73828.16211a4.91306,4.91306,0,0,1-.85205.07129,5.48224,5.48224,0,0,1-1.752-.26953,3.68274,3.68274,0,0,1-1.38574-.82227,3.86363,3.86363,0,0,1-.91211-1.34961,5.1736,5.1736,0,0,1,0-3.63672,3.79665,3.79665,0,0,1,.92383-1.34961,3.968,3.968,0,0,1,1.42236-.83984,5.50806,5.50806,0,0,1,1.82373-.28809,5.998,5.998,0,0,1,1.44629.16211,6.77141,6.77141,0,0,1,1.15771.38965,1.58267,1.58267,0,0,0-.15576.45605q-.06006.28857-.09619.48047l-.07178.02344a2.71768,2.71768,0,0,0-.33594-.32422,3.78252,3.78252,0,0,0-.50439-.34766,3.23709,3.23709,0,0,0-.64795-.28223,2.637,2.637,0,0,0-.792-.11328,3.71422,3.71422,0,0,0-1.314.22754,2.801,2.801,0,0,0-1.05615.70215,3.2758,3.2758,0,0,0-.70166,1.2002,6.00838,6.00838,0,0,0,0,3.44336,3.26775,3.26775,0,0,0,.70166,1.2002,2.78957,2.78957,0,0,0,1.05615.70215,3.69276,3.69276,0,0,0,1.314.22852,2.797,2.797,0,0,0,.79785-.1084,4.33957,4.33957,0,0,0,.67236-.25781,4.04667,4.04667,0,0,0,.55176-.32422q.24609-.17432.41406-.30566l.04785.04785-.10791.708A1.59028,1.59028,0,0,1,597.89209,379.92188Z" transform="translate(-355.25781 -371.12012)"/><path class="cls-1" d="M599.81738,377.37207a3.34974,3.34974,0,0,1,.2583-1.38672,2.569,2.569,0,0,1,.67773-.92383,2.68134,2.68134,0,0,1,.94189-.51562,3.42357,3.42357,0,0,1,2.082,0,2.69474,2.69474,0,0,1,.936.51563,2.58144,2.58144,0,0,1,.67822.92383,3.85571,3.85571,0,0,1,0,2.77246,2.5729,2.5729,0,0,1-.67822.92383,2.46271,2.46271,0,0,1-.936.498,3.84632,3.84632,0,0,1-2.082,0,2.45425,2.45425,0,0,1-.94189-.498,2.56052,2.56052,0,0,1-.67773-.92383A3.34179,3.34179,0,0,1,599.81738,377.37207Zm1.05615,0a5.13339,5.13339,0,0,0,.08984.97168,2.59475,2.59475,0,0,0,.30615.834,1.641,1.641,0,0,0,.57617.582,1.93451,1.93451,0,0,0,1.77588,0,1.6436,1.6436,0,0,0,.57568-.582,2.59475,2.59475,0,0,0,.30615-.834,5.30467,5.30467,0,0,0,0-1.94434,2.59475,2.59475,0,0,0-.30615-.834,1.6436,1.6436,0,0,0-.57568-.582,1.93451,1.93451,0,0,0-1.77588,0,1.641,1.641,0,0,0-.57617.582,2.59475,2.59475,0,0,0-.30615.834A5.14374,5.14374,0,0,0,600.87354,377.37207Z" transform="translate(-355.25781 -371.12012)"/><path class="cls-1" d="M607.82764,373.72363q-.00586-.479-.01758-.94824-.01245-.46729-.03027-.89355-.01758-.42627-.042-.72656a2.43867,2.43867,0,0,0,1.08008,0q-.02417.30029-.042.72656-.01831.42627-.02979.89355-.01245.46875-.01807.94824-.00659.48047-.00635.8877v2.17188q0,.40869.00635.88867c.00391.32031.00977.63574.01807.94824q.01172.46729.02979.8877c.01221.28027.02588.51172.042.69629-.18408-.0166-.36426-.02441-.54-.02441-.17627,0-.356.00781-.54.02441.01611-.18457.03027-.416.042-.69629q.01831-.42041.03027-.8877c.00781-.3125.01367-.62793.01758-.94824q.00659-.48047.00635-.88867v-2.17187Q607.834,374.2041,607.82764,373.72363Z" transform="translate(-355.25781 -371.12012)"/><path class="cls-1" d="M610.90576,377.37207a3.34974,3.34974,0,0,1,.2583-1.38672,2.569,2.569,0,0,1,.67773-.92383,2.68135,2.68135,0,0,1,.94189-.51562,3.42357,3.42357,0,0,1,2.082,0,2.69474,2.69474,0,0,1,.936.51563,2.58144,2.58144,0,0,1,.67822.92383,3.85571,3.85571,0,0,1,0,2.77246,2.5729,2.5729,0,0,1-.67822.92383,2.46271,2.46271,0,0,1-.936.498,3.84632,3.84632,0,0,1-2.082,0,2.45425,2.45425,0,0,1-.94189-.498,2.56052,2.56052,0,0,1-.67773-.92383A3.34179,3.34179,0,0,1,610.90576,377.37207Zm1.05615,0a5.13339,5.13339,0,0,0,.08984.97168,2.59475,2.59475,0,0,0,.30615.834,1.641,1.641,0,0,0,.57617.582,1.93451,1.93451,0,0,0,1.77588,0,1.6436,1.6436,0,0,0,.57568-.582,2.59475,2.59475,0,0,0,.30615-.834,5.30467,5.30467,0,0,0,0-1.94434,2.59475,2.59475,0,0,0-.30615-.834,1.6436,1.6436,0,0,0-.57568-.582,1.93451,1.93451,0,0,0-1.77588,0,1.641,1.641,0,0,0-.57617.582,2.59475,2.59475,0,0,0-.30615.834A5.14374,5.14374,0,0,0,611.96191,377.37207Z" transform="translate(-355.25781 -371.12012)"/><path class="cls-1" d="M618.61572,375.61328q-.01831-.59326-.07812-1.10937a3.21588,3.21588,0,0,0,.54.05957,1.38717,1.38717,0,0,0,.21-.01758c.07617-.0127.166-.02637.27-.042-.02393.32031-.03564.63965-.03564.96h.02393a2.00969,2.00969,0,0,1,2.376-.99023,2.02982,2.02982,0,0,1,.522.24609,1.6724,1.6724,0,0,1,.40186.37793,1.27251,1.27251,0,0,1,.228.47363h.02393a2.1159,2.1159,0,0,1,.78613-.88184,2.143,2.143,0,0,1,1.146-.30566,2.4016,2.4016,0,0,1,.73193.10742,1.483,1.483,0,0,1,.96582.9248,2.40306,2.40306,0,0,1,.13818.86328c0,.13672-.00391.28418-.01221.44434-.00781.16016-.01611.3457-.02393.55762-.00781.21289-.01611.45215-.02393.7207-.00781.26758-.01172.57813-.01172.92969,0,.21582.00146.42383.00586.624q.00586.30029.02979.64844a1.417,1.417,0,0,0-.26367-.02441h-.51611a1.41832,1.41832,0,0,0-.26416.02441q.03589-.30029.07813-1.21289.04175-.91113.042-2.54395a2.321,2.321,0,0,0-.06592-.56348,1.26486,1.26486,0,0,0-.21-.45605,1.01486,1.01486,0,0,0-.38428-.30566,1.39269,1.39269,0,0,0-.59961-.11426,1.47688,1.47688,0,0,0-.73242.168,1.45725,1.45725,0,0,0-.46777.39551,1.27915,1.27915,0,0,0-.1499.26465,1.566,1.566,0,0,0-.084.40137q-.03.271-.042.75684-.01245.48486-.01221,1.33789c0,.34375.00586.6582.01807.94141q.01831.42627.042.93066c-.18408-.0166-.35986-.02441-.52783-.02441s-.34424.00781-.52832.02441q.06006-.66064.084-1.34473.02417-.68408.02393-1.34375,0-.564-.00586-.88184a4.94961,4.94961,0,0,0-.02979-.50391,1.57376,1.57376,0,0,0-.06592-.30664,2.425,2.425,0,0,0-.11426-.26367,1.08671,1.08671,0,0,0-.41406-.38965,1.1495,1.1495,0,0,0-.582-.16211,1.33848,1.33848,0,0,0-1.16406.51563,2.45231,2.45231,0,0,0-.37158,1.45215v1.02051q0,.53906.01758,1.13379.01831.59326.07813,1.07422c-.18408-.0166-.36426-.02441-.54-.02441s-.356.00781-.54.02441q.06006-.48047.07813-1.07422.01831-.59473.01807-1.13379v-1.248Q618.63379,376.20752,618.61572,375.61328Z" transform="translate(-355.25781 -371.12012)"/><path class="cls-1" d="M634.40137,377.2041a3.69468,3.69468,0,0,1-.21,1.27148,3.06488,3.06488,0,0,1-.57617.99023,2.50067,2.50067,0,0,1-.86377.63574,2.60051,2.60051,0,0,1-1.07422.22168,2.185,2.185,0,0,1-1.03809-.24512,1.92983,1.92983,0,0,1-.70166-.59473q-.43213.34863-.8042.69629h-.21582c.01563-.19238.02979-.42383.042-.69629q.01758-.40723.02979-.87012.01172-.46143.01807-.94141.00586-.48047.00586-.88867v-2.17187q0-.40723-.00586-.8877-.00586-.479-.01807-.94824-.01172-.46729-.02979-.89355-.01831-.42627-.042-.72656a3.12857,3.12857,0,0,0,.54.06055,2.10546,2.10546,0,0,0,.27588-.01855c.09619-.01172.19971-.02539.312-.042q-.03589.24023-.06006.7627-.02417.52148-.03613,1.16406-.01172.6416-.02393,1.31934-.01172.67822-.02393,1.23047h.02393a2.86032,2.86032,0,0,1,.8999-.94824,2.14439,2.14439,0,0,1,1.14014-.2998,2.33518,2.33518,0,0,1,1.08008.23438,2.23557,2.23557,0,0,1,.75586.61719,2.66034,2.66034,0,0,1,.4502.89453A3.78449,3.78449,0,0,1,634.40137,377.2041Zm-1.05615-.03613a3.18253,3.18253,0,0,0-.1377-.97852,2.36281,2.36281,0,0,0-.36035-.71387,1.51685,1.51685,0,0,0-.51562-.4375,1.31356,1.31356,0,0,0-.606-.15039,1.89589,1.89589,0,0,0-.71436.1377,1.44923,1.44923,0,0,0-.59375.45605,2.41727,2.41727,0,0,0-.40186.82813,4.47732,4.47732,0,0,0-.15039,1.25391q0,2.4126,1.752,2.41211a1.245,1.245,0,0,0,.68408-.19824,1.774,1.774,0,0,0,.5459-.56934,3.08963,3.08963,0,0,0,.36621-.88867A4.65125,4.65125,0,0,0,633.34521,377.168Z" transform="translate(-355.25781 -371.12012)"/><path class="cls-1" d="M636.502,372.416a.6135.6135,0,1,1,.17969.43164A.59193.59193,0,0,1,636.502,372.416Zm.168,4.332q0-.54053-.01807-1.13477-.01831-.59326-.07812-1.10937a2.47766,2.47766,0,0,0,1.08008,0q-.06006.51563-.07812,1.10938-.01758.59473-.01807,1.13477v1.248q0,.53906.01807,1.13379.01831.59326.07813,1.07422c-.18408-.0166-.36426-.02441-.54-.02441-.17627,0-.356.00781-.54.02441q.06006-.48047.07813-1.07422.01758-.59473.01807-1.13379Z" transform="translate(-355.25781 -371.12012)"/><path class="cls-1" d="M640.354,375.08008a3.41,3.41,0,0,1,.99561-.55273,3.101,3.101,0,0,1,.936-.14355,2.38239,2.38239,0,0,1,.792.126,1.718,1.718,0,0,1,.6123.36035,1.66834,1.66834,0,0,1,.396.56348,1.80369,1.80369,0,0,1,.144.72656q0,.68262-.02441,1.36133-.02417.67822-.02393,1.43457c0,.0957.002.19727.00635.30566a.88987.88987,0,0,0,.05371.28809.54392.54392,0,0,0,.13818.21.38469.38469,0,0,0,.27.084q.06006,0,.126-.00586a.301.301,0,0,0,.126-.042v.26367a1.39987,1.39987,0,0,1-.33008.0957,2.415,2.415,0,0,1-.438.03613.80972.80972,0,0,1-.58789-.19727.81918.81918,0,0,1-.24023-.51074,3.24208,3.24208,0,0,1-.85205.63672,2.3525,2.3525,0,0,1-1.03174.20313,2.06429,2.06429,0,0,1-.58789-.084,1.339,1.339,0,0,1-.51025-.27539,1.51589,1.51589,0,0,1-.35986-.46191,1.33689,1.33689,0,0,1-.13818-.61816,1.40655,1.40655,0,0,1,.4502-1.11621,2.45918,2.45918,0,0,1,1.2417-.52832q.64819-.10693,1.01416-.18555a2.555,2.555,0,0,0,.54-.16211.36512.36512,0,0,0,.21-.19824.99476.99476,0,0,0,.03613-.29395,2.26666,2.26666,0,0,0-.07227-.57617,1.33109,1.33109,0,0,0-.228-.47949,1.15424,1.15424,0,0,0-.40771-.33008,1.358,1.358,0,0,0-.6123-.126,1.90758,1.90758,0,0,0-.89355.21582,1.41982,1.41982,0,0,0-.61816.60059H640.354Zm2.96387,2.13574a3.06817,3.06817,0,0,1-.47412.12012c-.18018.03223-.36182.06543-.5459.10156a5.04935,5.04935,0,0,0-.5459.13867,1.76539,1.76539,0,0,0-.48.22754,1.10848,1.10848,0,0,0-.33643.36035,1.277,1.277,0,0,0,.19824,1.40332,1.05654,1.05654,0,0,0,.72021.28809,1.47357,1.47357,0,0,0,.834-.252,1.8889,1.8889,0,0,0,.582-.58789Z" transform="translate(-355.25781 -371.12012)"/><path class="cls-1" d="M650.77,375.08008a3.41,3.41,0,0,1,.99561-.55273,3.101,3.101,0,0,1,.936-.14355,2.38239,2.38239,0,0,1,.792.126,1.718,1.718,0,0,1,.6123.36035,1.66834,1.66834,0,0,1,.396.56348,1.80369,1.80369,0,0,1,.144.72656q0,.68262-.02441,1.36133-.02417.67822-.02393,1.43457c0,.0957.002.19727.00635.30566a.88988.88988,0,0,0,.05371.28809.54392.54392,0,0,0,.13818.21.38469.38469,0,0,0,.27.084q.06006,0,.126-.00586a.301.301,0,0,0,.126-.042v.26367a1.39987,1.39987,0,0,1-.33008.0957,2.415,2.415,0,0,1-.438.03613.80972.80972,0,0,1-.58789-.19727.81918.81918,0,0,1-.24023-.51074,3.24208,3.24208,0,0,1-.85205.63672,2.3525,2.3525,0,0,1-1.03174.20313,2.06429,2.06429,0,0,1-.58789-.084,1.339,1.339,0,0,1-.51025-.27539,1.51589,1.51589,0,0,1-.35986-.46191,1.33689,1.33689,0,0,1-.13818-.61816,1.40655,1.40655,0,0,1,.4502-1.11621,2.45918,2.45918,0,0,1,1.2417-.52832q.64819-.10693,1.01416-.18555a2.555,2.555,0,0,0,.54-.16211.36512.36512,0,0,0,.21-.19824.99476.99476,0,0,0,.03613-.29395,2.26666,2.26666,0,0,0-.07227-.57617,1.33109,1.33109,0,0,0-.228-.47949,1.15424,1.15424,0,0,0-.40771-.33008,1.358,1.358,0,0,0-.6123-.126,1.90758,1.90758,0,0,0-.89355.21582,1.41982,1.41982,0,0,0-.61816.60059H650.77Zm2.96387,2.13574a3.06817,3.06817,0,0,1-.47412.12012c-.18018.03223-.36182.06543-.5459.10156a5.04935,5.04935,0,0,0-.5459.13867,1.76539,1.76539,0,0,0-.48.22754,1.10848,1.10848,0,0,0-.33643.36035,1.277,1.277,0,0,0,.19824,1.40332,1.05654,1.05654,0,0,0,.72021.28809,1.47357,1.47357,0,0,0,.834-.252,1.8889,1.8889,0,0,0,.582-.58789Z" transform="translate(-355.25781 -371.12012)"/><path class="cls-1" d="M658.28125,372.89551q-.03589.457-.05371.89453-.01831.438-.042.88184.13184,0,.4917-.00586c.24023-.00391.5-.01465.78027-.03027a.47187.47187,0,0,0-.01221.13184v.252a.40838.40838,0,0,0,.01221.12012c-.104-.00781-.2124-.01367-.32422-.01758-.1123-.00391-.23193-.00684-.35986-.00684h-.58789a3.81979,3.81979,0,0,0-.03027.38477c-.01172.22363-.022.49023-.02979.79785q-.01245.46143-.01807.96582-.00659.50391-.00586.90039,0,.33545.01758.65918a1.9804,1.9804,0,0,0,.11426.582.9334.9334,0,0,0,.28809.41406.85286.85286,0,0,0,.55176.15625,1.91046,1.91046,0,0,0,.2583-.02344,2.046,2.046,0,0,0,.28174-.06055v.28809c-.13623.02441-.28613.05371-.44971.08984a2.203,2.203,0,0,1-.47412.05371,1.49545,1.49545,0,0,1-1.11621-.37109,1.51275,1.51275,0,0,1-.35986-1.09277c0-.21582.00391-.44922.01221-.70215q.01172-.37793.02979-.82715c.01221-.30078.022-.63184.02979-.99609q.01245-.54639.01221-1.21875h-.38379c-.06445,0-.13232.00293-.2041.00684-.07227.00391-.14844.00977-.228.01758.00781-.04785.01367-.09375.01807-.1377.00391-.04395.00586-.08984.00586-.13867,0-.03906-.002-.0791-.00586-.11914-.00439-.04-.01025-.08008-.01807-.12012.35986.02344.624.03613.792.03613q-.01245-.24023-.01807-.60059c-.00439-.24023-.01416-.4873-.02979-.74414l.99561-.41992Z" transform="translate(-355.25781 -371.12012)"/><path class="cls-1" d="M665.06152,375.08008a3.39966,3.39966,0,0,1,.99609-.55273,3.09313,3.09313,0,0,1,.93555-.14355,2.38445,2.38445,0,0,1,.792.126,1.718,1.718,0,0,1,.6123.36035,1.66034,1.66034,0,0,1,.39551.56348,1.78754,1.78754,0,0,1,.14453.72656q0,.68262-.02441,1.36133-.02344.67822-.02344,1.43457c0,.0957.002.19727.00586.30566a.88987.88987,0,0,0,.05371.28809.55415.55415,0,0,0,.1377.21.38685.38685,0,0,0,.27051.084q.06006,0,.126-.00586a.301.301,0,0,0,.126-.042v.26367a1.39293,1.39293,0,0,1-.33008.0957,2.42061,2.42061,0,0,1-.43848.03613.75237.75237,0,0,1-.82715-.708,3.24374,3.24374,0,0,1-.85254.63672,2.35475,2.35475,0,0,1-1.03223.20313,2.0717,2.0717,0,0,1-.58789-.084,1.34781,1.34781,0,0,1-.50977-.27539,1.50987,1.50987,0,0,1-.36035-.46191,1.34286,1.34286,0,0,1-.1377-.61816,1.40814,1.40814,0,0,1,.4502-1.11621,2.45908,2.45908,0,0,1,1.24219-.52832q.64746-.10693,1.01367-.18555a2.555,2.555,0,0,0,.54-.16211.36512.36512,0,0,0,.21-.19824.97875.97875,0,0,0,.03613-.29395,2.28874,2.28874,0,0,0-.07227-.57617,1.33844,1.33844,0,0,0-.22754-.47949,1.16037,1.16037,0,0,0-.4082-.33008,1.358,1.358,0,0,0-.6123-.126,1.90473,1.90473,0,0,0-.89355.21582,1.41982,1.41982,0,0,0-.61816.60059h-.13184Zm2.96387,2.13574a3.06111,3.06111,0,0,1-.47363.12012c-.18066.03223-.3623.06543-.54687.10156a5.13759,5.13759,0,0,0-.5459.13867,1.76912,1.76912,0,0,0-.47949.22754,1.09665,1.09665,0,0,0-.33594.36035,1.2788,1.2788,0,0,0,.19727,1.40332,1.05859,1.05859,0,0,0,.7207.28809,1.47244,1.47244,0,0,0,.834-.252,1.89419,1.89419,0,0,0,.582-.58789Z" transform="translate(-355.25781 -371.12012)"/><path class="cls-1" d="M675.04492,375.46973a1.13516,1.13516,0,0,0-.96-.46191,1.4418,1.4418,0,0,0-1.22949.51563,2.369,2.369,0,0,0-.38965,1.45215v1.02051q0,.53906.01758,1.13379.01758.59326.07813,1.07422c-.18457-.0166-.36426-.02441-.54-.02441s-.35645.00781-.54.02441c.04-.32031.06543-.67871.07813-1.07422q.01758-.59473.01758-1.13379v-1.248q0-.54053-.01758-1.13477-.019-.59326-.07812-1.10937a3.20564,3.20564,0,0,0,.54.05957,1.39225,1.39225,0,0,0,.21-.01758c.07617-.0127.166-.02637.26953-.042-.02344.32031-.03516.63965-.03516.96h.02344a2.50386,2.50386,0,0,1,.80371-.79785,2.12057,2.12057,0,0,1,1.11621-.28223,2.51752,2.51752,0,0,1,.67773.0957,1.62183,1.62183,0,0,1,.61816.33008,1.70243,1.70243,0,0,1,.4502.63574,2.6,2.6,0,0,1,.17383,1.02637c0,.34375-.00781.69824-.02344,1.06152q-.0249.54639-.02441,1.1582v.78027q0,.19189.00586.37793c.00391.124.00977.24219.01855.35449a4.89405,4.89405,0,0,0-.50391-.02441,4.77321,4.77321,0,0,0-.49219.02441q.02344-.624.05371-1.28418.0293-.66064.03027-1.35645V376.832A2.2386,2.2386,0,0,0,675.04492,375.46973Z" transform="translate(-355.25781 -371.12012)"/><path class="cls-1" d="M682.68945,375.08008a3.39966,3.39966,0,0,1,.99609-.55273,3.09313,3.09313,0,0,1,.93555-.14355,2.38445,2.38445,0,0,1,.792.126,1.718,1.718,0,0,1,.6123.36035,1.66034,1.66034,0,0,1,.39551.56348,1.78754,1.78754,0,0,1,.14453.72656q0,.68262-.02441,1.36133-.02344.67822-.02344,1.43457c0,.0957.002.19727.00586.30566a.88988.88988,0,0,0,.05371.28809.55415.55415,0,0,0,.1377.21.38685.38685,0,0,0,.27051.084q.06006,0,.126-.00586a.301.301,0,0,0,.126-.042v.26367a1.39293,1.39293,0,0,1-.33008.0957,2.42061,2.42061,0,0,1-.43848.03613.75237.75237,0,0,1-.82715-.708,3.24374,3.24374,0,0,1-.85254.63672,2.35475,2.35475,0,0,1-1.03223.20313,2.0717,2.0717,0,0,1-.58789-.084,1.34781,1.34781,0,0,1-.50977-.27539,1.50987,1.50987,0,0,1-.36035-.46191,1.34286,1.34286,0,0,1-.1377-.61816,1.40814,1.40814,0,0,1,.4502-1.11621,2.45908,2.45908,0,0,1,1.24219-.52832q.64746-.10693,1.01367-.18555a2.555,2.555,0,0,0,.54-.16211.36512.36512,0,0,0,.21-.19824.97875.97875,0,0,0,.03613-.29395,2.28875,2.28875,0,0,0-.07227-.57617,1.33844,1.33844,0,0,0-.22754-.47949,1.16037,1.16037,0,0,0-.4082-.33008,1.358,1.358,0,0,0-.6123-.126,1.90473,1.90473,0,0,0-.89355.21582,1.41982,1.41982,0,0,0-.61816.60059h-.13184Zm2.96387,2.13574a3.06111,3.06111,0,0,1-.47363.12012c-.18066.03223-.3623.06543-.54687.10156a5.13759,5.13759,0,0,0-.5459.13867,1.76912,1.76912,0,0,0-.47949.22754,1.09665,1.09665,0,0,0-.33594.36035,1.2788,1.2788,0,0,0,.19727,1.40332,1.05859,1.05859,0,0,0,.7207.28809,1.47244,1.47244,0,0,0,.834-.252,1.89419,1.89419,0,0,0,.582-.58789Z" transform="translate(-355.25781 -371.12012)"/><path class="cls-1" d="M689.415,373.72363q-.00586-.479-.01758-.94824c-.00781-.31152-.01855-.60937-.03027-.89355s-.02637-.52637-.042-.72656a2.43867,2.43867,0,0,0,1.08008,0q-.0249.30029-.042.72656c-.01172.28418-.02246.582-.03027.89355q-.01172.46875-.01758.94824-.00586.48047-.00586.8877v2.17188q0,.40869.00586.88867c.00391.32031.00977.63574.01758.94824.00781.31152.01855.60742.03027.8877s.02539.51172.042.69629c-.18457-.0166-.36426-.02441-.54-.02441s-.35645.00781-.54.02441c.01563-.18457.03027-.416.042-.69629s.02246-.57617.03027-.8877c.00781-.3125.01367-.62793.01758-.94824s.00586-.61621.00586-.88867v-2.17187Q689.4209,374.2041,689.415,373.72363Z" transform="translate(-355.25781 -371.12012)"/><path class="cls-1" d="M694.07715,372.89551c-.02344.30469-.042.60254-.05371.89453s-.02637.58594-.042.88184q.13184,0,.49219-.00586c.23926-.00391.499-.01465.7793-.03027a.49745.49745,0,0,0-.01172.13184v.252a.43057.43057,0,0,0,.01172.12012c-.10352-.00781-.21191-.01367-.32324-.01758-.1123-.00391-.23242-.00684-.36035-.00684h-.58789a3.81977,3.81977,0,0,0-.03027.38477c-.01172.22363-.02246.49023-.03027.79785s-.01367.62988-.01758.96582-.00586.63574-.00586.90039q0,.33545.01758.65918a1.94937,1.94937,0,0,0,.11426.582.9334.9334,0,0,0,.28809.41406.85194.85194,0,0,0,.55176.15625,1.885,1.885,0,0,0,.25781-.02344,2.03843,2.03843,0,0,0,.28223-.06055v.28809c-.13574.02441-.28613.05371-.4502.08984a2.202,2.202,0,0,1-.47363.05371,1.49545,1.49545,0,0,1-1.11621-.37109,1.51076,1.51076,0,0,1-.36035-1.09277c0-.21582.00391-.44922.0127-.70215q.01172-.37793.0293-.82715c.0127-.30078.02246-.63184.03027-.99609s.01172-.77051.01172-1.21875H692.709c-.06348,0-.13184.00293-.2041.00684-.07129.00391-.14746.00977-.22754.01758q.01172-.07178.01758-.1377c.00391-.04395.00586-.08984.00586-.13867,0-.03906-.002-.0791-.00586-.11914s-.00977-.08008-.01758-.12012c.36035.02344.624.03613.792.03613q-.01172-.24023-.01855-.60059c-.00391-.24023-.01367-.4873-.0293-.74414l.99609-.41992Z" transform="translate(-355.25781 -371.12012)"/><path class="cls-1" d="M697.00488,372.416a.61519.61519,0,1,1,.18066.43164A.591.591,0,0,1,697.00488,372.416Zm.168,4.332q0-.54053-.01758-1.13477-.01758-.59326-.07812-1.10937a2.47766,2.47766,0,0,0,1.08008,0q-.06006.51563-.07812,1.10938-.01758.59473-.01758,1.13477v1.248q0,.53906.01758,1.13379.01758.59326.07813,1.07422c-.18457-.0166-.36426-.02441-.54-.02441s-.35645.00781-.54.02441q.06006-.48047.07813-1.07422.01758-.59473.01758-1.13379Z" transform="translate(-355.25781 -371.12012)"/><path class="cls-1" d="M701.8291,372.89551c-.02344.30469-.042.60254-.05371.89453s-.02637.58594-.042.88184q.13184,0,.49219-.00586c.23926-.00391.499-.01465.7793-.03027a.49745.49745,0,0,0-.01172.13184v.252a.43057.43057,0,0,0,.01172.12012c-.10352-.00781-.21191-.01367-.32324-.01758-.1123-.00391-.23242-.00684-.36035-.00684h-.58789a3.81981,3.81981,0,0,0-.03027.38477c-.01172.22363-.02246.49023-.03027.79785s-.01367.62988-.01758.96582-.00586.63574-.00586.90039q0,.33545.01758.65918a1.94937,1.94937,0,0,0,.11426.582.9334.9334,0,0,0,.28809.41406.85194.85194,0,0,0,.55176.15625,1.885,1.885,0,0,0,.25781-.02344,2.03843,2.03843,0,0,0,.28223-.06055v.28809c-.13574.02441-.28613.05371-.4502.08984a2.202,2.202,0,0,1-.47363.05371,1.49545,1.49545,0,0,1-1.11621-.37109,1.51076,1.51076,0,0,1-.36035-1.09277c0-.21582.00391-.44922.0127-.70215q.01172-.37793.0293-.82715c.0127-.30078.02246-.63184.03027-.99609s.01172-.77051.01172-1.21875h-.38379c-.06348,0-.13184.00293-.2041.00684-.07129.00391-.14746.00977-.22754.01758q.01172-.07178.01758-.1377c.00391-.04395.00586-.08984.00586-.13867,0-.03906-.002-.0791-.00586-.11914s-.00977-.08008-.01758-.12012c.36035.02344.624.03613.792.03613q-.01172-.24023-.01855-.60059c-.00391-.24023-.01367-.4873-.0293-.74414l.99609-.41992Z" transform="translate(-355.25781 -371.12012)"/><path class="cls-1" d="M704.61328,378.3916q0-.63574.01758-1.08594.019-.44971.01855-.89355,0-.42041-.00586-.91211-.00732-.49219-.01855-.99609a2.64437,2.64437,0,0,0,.50391.05957,2.608,2.608,0,0,0,.49219-.05957q-.06006.71924-.08984,1.57813-.03076.85693-.03027,1.75781a3.21973,3.21973,0,0,0,.1084.9541,1.35865,1.35865,0,0,0,.26367.498,1.3392,1.3392,0,0,0,.42578.31738,1.36691,1.36691,0,0,0,.60645.126,1.48769,1.48769,0,0,0,.83984-.22168,1.36535,1.36535,0,0,0,.49219-.5459c.05566-.13574.09961-.252.13184-.34766a2.10747,2.10747,0,0,0,.07813-.38477,6.31069,6.31069,0,0,0,.03613-.64746q.00586-.40869.00586-1.11621v-1.00781q0-.26367-.00586-.50391c-.00391-.16016-.01074-.3125-.01855-.45605.08789.01563.17188.0293.252.042a1.81445,1.81445,0,0,0,.50391,0c.08008-.0127.16016-.02637.24023-.042q-.06006.936-.07129,1.80566-.01318.87012-.0127,1.8418,0,.54053.0127,1.05664.01172.51563.03516.99609a4.49347,4.49347,0,0,0-.93555,0q.01172-.1084.01758-.22852t.00586-.252V379.208h-.02344a2.03821,2.03821,0,0,1-.80371.8457,2.18945,2.18945,0,0,1-1.06836.26953,2.06873,2.06873,0,0,1-1.46973-.49707A1.86482,1.86482,0,0,1,704.61328,378.3916Z" transform="translate(-355.25781 -371.12012)"/><path class="cls-1" d="M715.88184,379.06348a2.8459,2.8459,0,0,1-.25781.41406,2.09353,2.09353,0,0,1-.4082.41406,2.0655,2.0655,0,0,1-.582.3125,2.3341,2.3341,0,0,1-.7793.11914,2.65736,2.65736,0,0,1-.89453-.15527,2.025,2.025,0,0,1-.78027-.51074,2.61137,2.61137,0,0,1-.55176-.91113,3.81581,3.81581,0,0,1-.21-1.33887,3.532,3.532,0,0,1,.22852-1.33105,2.883,2.883,0,0,1,.59375-.94238,2.38374,2.38374,0,0,1,.82813-.56445,2.4701,2.4701,0,0,1,.92969-.18555,1.85452,1.85452,0,0,1,1.84766,1.2002h.02441v-1.17676q0-.45557-.00586-.918-.00586-.46143-.01172-.88184c-.00488-.2793-.00879-.54395-.0127-.792s-.00977-.46777-.01758-.66016c.0957.0166.1875.03027.27539.042a1.85491,1.85491,0,0,0,.26465.01855,1.723,1.723,0,0,0,.25781-.01855c.084-.01172.17773-.02539.28223-.042q-.03662.38525-.06055,1.11035-.02344.72656-.042,1.60254-.01758.876-.0293,1.7998-.01318.92432-.0127,1.69141,0,.8291.0127,1.48828.01172.66064.02344,1.35645a4.53865,4.53865,0,0,0-.46777-.02441,4.41622,4.41622,0,0,0-.45605.02441l.03613-1.14062Zm-3.4082-1.584a3.97519,3.97519,0,0,0,.15039,1.18848,2.24783,2.24783,0,0,0,.38379.75,1.24533,1.24533,0,0,0,.53418.38965,1.7264,1.7264,0,0,0,.58789.1084,1.367,1.367,0,0,0,.80371-.23437,1.918,1.918,0,0,0,.55859-.6123,2.86924,2.86924,0,0,0,.32422-.85742,4.65489,4.65489,0,0,0,.10156-.96,2.94431,2.94431,0,0,0-.44434-1.75781,1.51731,1.51731,0,0,0-1.30762-.60645,1.39092,1.39092,0,0,0-.75.19824,1.594,1.594,0,0,0-.52832.55176,2.73616,2.73616,0,0,0-.31152.82813A4.79364,4.79364,0,0,0,712.47363,377.47949Z" transform="translate(-355.25781 -371.12012)"/><path class="cls-1" d="M718.5459,377.54a3.507,3.507,0,0,1,.70215-2.31641,2.51516,2.51516,0,0,1,2.0459-.83984,2.75846,2.75846,0,0,1,1.09766.19824,2.28628,2.28628,0,0,1,.77441.52734,2.0838,2.0838,0,0,1,.46191.77441,2.95464,2.95464,0,0,1,.15039.94824c0,.08008-.002.1582-.00586.2334-.00488.07617-.01074.1543-.01855.23438q-.64746-.01172-1.28418-.02441-.63574-.01172-1.28418-.01172-.39551,0-.78516.01172-.39111.01318-.78613.02441a.9106.9106,0,0,0-.0127.17969v.15625a2.69549,2.69549,0,0,0,.13867.876,1.98912,1.98912,0,0,0,.40137.70215,1.92658,1.92658,0,0,0,.64844.46777,2.127,2.127,0,0,0,.8877.17383,1.93926,1.93926,0,0,0,.49219-.06543,2.78739,2.78739,0,0,0,.49219-.18066,2.67962,2.67962,0,0,0,.4502-.26953,2.288,2.288,0,0,0,.36523-.33594l.06055.03613-.07227.58789a3.36116,3.36116,0,0,1-.89355.49219,3.09365,3.09365,0,0,1-1.11035.20313,3.37834,3.37834,0,0,1-1.18164-.19727,2.60956,2.60956,0,0,1-.92383-.57617,2.57008,2.57008,0,0,1-.60059-.89453A2.93626,2.93626,0,0,1,718.5459,377.54Zm2.77246-2.77246a1.3222,1.3222,0,0,0-.75.2041,1.7407,1.7407,0,0,0-.50391.50977,2.429,2.429,0,0,0-.30078.67188,3.66167,3.66167,0,0,0-.126.69043q.37207.01172.77441.02441.40137.01172.78613.01172.39551,0,.80371-.01172c.27148-.00879.53613-.0166.792-.02441a4.58725,4.58725,0,0,0-.05371-.68359,2.164,2.164,0,0,0-.21582-.67285,1.43973,1.43973,0,0,0-.4502-.51562A1.28385,1.28385,0,0,0,721.31836,374.76758Z" transform="translate(-355.25781 -371.12012)"/><path class="cls-1" d="M460.40771,391.77246a3.34974,3.34974,0,0,1,.2583-1.38672,2.569,2.569,0,0,1,.67773-.92383,2.68134,2.68134,0,0,1,.94189-.51562,3.42357,3.42357,0,0,1,2.082,0,2.69474,2.69474,0,0,1,.936.51563,2.58144,2.58144,0,0,1,.67822.92383,3.85571,3.85571,0,0,1,0,2.77246,2.5729,2.5729,0,0,1-.67822.92383,2.46271,2.46271,0,0,1-.936.498,3.84632,3.84632,0,0,1-2.082,0,2.45425,2.45425,0,0,1-.94189-.498,2.56052,2.56052,0,0,1-.67773-.92383A3.34179,3.34179,0,0,1,460.40771,391.77246Zm1.05615,0a5.13339,5.13339,0,0,0,.08984.97168,2.59475,2.59475,0,0,0,.30615.834,1.641,1.641,0,0,0,.57617.582,1.93451,1.93451,0,0,0,1.77588,0,1.6436,1.6436,0,0,0,.57568-.582,2.59475,2.59475,0,0,0,.30615-.834,5.30466,5.30466,0,0,0,0-1.94434,2.59475,2.59475,0,0,0-.30615-.834,1.6436,1.6436,0,0,0-.57568-.582,1.93451,1.93451,0,0,0-1.77588,0,1.641,1.641,0,0,0-.57617.582,2.59475,2.59475,0,0,0-.30615.834A5.14374,5.14374,0,0,0,461.46387,391.77246Z" transform="translate(-355.25781 -371.12012)"/><path class="cls-1" d="M469.63574,394.60449q-.55225-1.4165-1.10986-2.832-.55811-1.4165-1.21826-2.86816c.104.01563.2041.0293.2998.042a2.48287,2.48287,0,0,0,.30029.01758,2.00579,2.00579,0,0,0,.26416-.01758c.08789-.0127.17578-.02637.26367-.042q.37207,1.188.81006,2.334.438,1.14551.978,2.3457.24023-.49219.47412-1.06152.23364-.56982.46777-1.18262.23438-.6123.45605-1.22949.22192-.61816.438-1.20605a1.19174,1.19174,0,0,0,.74414,0q-.64819,1.45166-1.272,2.86816-.624,1.415-1.14014,2.832a2.71646,2.71646,0,0,0-.37207-.02441A2.97849,2.97849,0,0,0,469.63574,394.60449Z" transform="translate(-355.25781 -371.12012)"/><path class="cls-1" d="M473.87207,391.94043a3.50437,3.50437,0,0,1,.70215-2.31641,2.51581,2.51581,0,0,1,2.0459-.83984,2.7626,2.7626,0,0,1,1.09814.19824,2.29379,2.29379,0,0,1,.77393.52734,2.0903,2.0903,0,0,1,.46191.77441,2.94114,2.94114,0,0,1,.1499.94824c0,.08008-.002.1582-.00586.2334-.00391.07617-.01025.1543-.01807.23438q-.64819-.01172-1.28369-.02441-.63647-.01172-1.28418-.01172-.39624,0-.78613.01172-.38965.01318-.78613.02441a1.01311,1.01311,0,0,0-.01172.17969v.15625a2.72176,2.72176,0,0,0,.1377.876,1.991,1.991,0,0,0,.40234.70215,1.91976,1.91976,0,0,0,.64795.46777,2.127,2.127,0,0,0,.8877.17383,1.93926,1.93926,0,0,0,.49219-.06543,2.78738,2.78738,0,0,0,.49219-.18066,2.67527,2.67527,0,0,0,.44971-.26953,2.296,2.296,0,0,0,.36621-.33594l.06006.03613-.07227.58789a3.34921,3.34921,0,0,1-.894.49219,3.08718,3.08718,0,0,1-1.10986.20313,3.38113,3.38113,0,0,1-1.18213-.19727,2.61389,2.61389,0,0,1-.92383-.57617,2.58229,2.58229,0,0,1-.6001-.89453A2.92693,2.92693,0,0,1,473.87207,391.94043Zm2.772-2.77246a1.3244,1.3244,0,0,0-.75.2041,1.7407,1.7407,0,0,0-.50391.50977,2.44114,2.44114,0,0,0-.2998.67188,3.51193,3.51193,0,0,0-.126.69043q.37134.01172.77393.02441.40137.01172.78564.01172.39624,0,.8042-.01172.408-.01318.792-.02441a4.59024,4.59024,0,0,0-.0542-.68359,2.13863,2.13863,0,0,0-.21582-.67285,1.42912,1.42912,0,0,0-.44971-.51562A1.28442,1.28442,0,0,0,476.644,389.168Z" transform="translate(-355.25781 -371.12012)"/><path class="cls-1" d="M483.418,389.75586a1.07572,1.07572,0,0,0-.354-.05957,1.01041,1.01041,0,0,0-.51562.13184,1.20122,1.20122,0,0,0-.38428.35352,1.68406,1.68406,0,0,0-.23975.52832,2.45579,2.45579,0,0,0-.084.6543v1.31934q0,.8042.00586,1.23047a5.943,5.943,0,0,0,.042.69043,4.64675,4.64675,0,0,0-.48-.02441,4.88045,4.88045,0,0,0-.50391.02441q.03589-.40869.042-1.11035.00586-.70166.00586-1.72168v-.38477q0-.46729-.00586-1.08008c-.00439-.40723-.01807-.876-.042-1.40332.08789.01563.17188.0293.252.042a1.72977,1.72977,0,0,0,.252.01758,1.57905,1.57905,0,0,0,.228-.01758c.07959-.0127.16406-.02637.252-.042q-.04834.43213-.0542.68359-.00586.252-.00586.48047l.02393.01172q.70825-1.29639,1.584-1.2959a1.27285,1.27285,0,0,1,.186.01172.92993.92993,0,0,1,.19824.06055,1.33527,1.33527,0,0,0-.07227.4375c-.00781.19629-.01172.374-.01172.53418l-.084.05957A.53809.53809,0,0,0,483.418,389.75586Z" transform="translate(-355.25781 -371.12012)"/><path class="cls-1" d="M493.34766,386.98438c-.08789-.02441-.17969-.04395-.27588-.06055a2.20823,2.20823,0,0,0-.34814-.02344,1.76072,1.76072,0,0,0-.83984.19727,2.34084,2.34084,0,0,0-.66016.52832,3.354,3.354,0,0,0-.4917.75586,5.70422,5.70422,0,0,0-.33594.88184,6.2647,6.2647,0,0,0-.19238.89453,5.97976,5.97976,0,0,0-.05957.80957h.02393a3.14978,3.14978,0,0,1,.2876-.40723,2.07319,2.07319,0,0,1,.40234-.37207,2.13619,2.13619,0,0,1,.54-.27637,2.09677,2.09677,0,0,1,.70166-.1084,3.17191,3.17191,0,0,1,.72021.09668,2.26779,2.26779,0,0,1,.77393.34766,2.07634,2.07634,0,0,1,.61816.69043,2.22974,2.22974,0,0,1,.252,1.12207,3.116,3.116,0,0,1-.186,1.09766,2.385,2.385,0,0,1-.53418.85156,2.2956,2.2956,0,0,1-.83984.54,3.10177,3.10177,0,0,1-1.104.18652,2.9172,2.9172,0,0,1-.99609-.17383,2.08482,2.08482,0,0,1-.8457-.582,2.95746,2.95746,0,0,1-.582-1.0625,5.14892,5.14892,0,0,1-.21631-1.60156,7.28557,7.28557,0,0,1,.23438-1.87793,4.889,4.889,0,0,1,.68359-1.53613,3.29283,3.29283,0,0,1,1.11621-1.02637,2.99749,2.99749,0,0,1,1.52979-.36035c.13623,0,.23828.00293.30615.00684a1.1092,1.1092,0,0,1,.19824.0293l.17969.38477Zm.06006,5.32813a2.66592,2.66592,0,0,0-.37793-1.48828,1.27825,1.27825,0,0,0-1.146-.57617,1.45692,1.45692,0,0,0-.65381.15039,1.54386,1.54386,0,0,0-.52832.42578,2.17518,2.17518,0,0,0-.354.6543,2.51517,2.51517,0,0,0-.13184.834,2.80162,2.80162,0,0,0,.12012.83984,2.05158,2.05158,0,0,0,.33594.66016,1.53556,1.53556,0,0,0,.50977.42578,1.37307,1.37307,0,0,0,.63037.14941,1.47665,1.47665,0,0,0,.67773-.14941,1.42474,1.42474,0,0,0,.498-.42578,2.0265,2.0265,0,0,0,.312-.66016A3.10313,3.10313,0,0,0,493.40771,392.3125Z" transform="translate(-355.25781 -371.12012)"/><path class="cls-1" d="M496.14355,390.64453a8.51971,8.51971,0,0,1,.144-1.60254,4.04844,4.04844,0,0,1,.47412-1.30762,2.537,2.537,0,0,1,.87012-.88867,2.48788,2.48788,0,0,1,1.31982-.33008,2.69846,2.69846,0,0,1,1.41016.33008,2.38233,2.38233,0,0,1,.85791.88867,3.83432,3.83432,0,0,1,.42578,1.30762,10.64916,10.64916,0,0,1,.11426,1.60254,7.12732,7.12732,0,0,1-.168,1.57129,4.36432,4.36432,0,0,1-.51025,1.30859,2.60646,2.60646,0,0,1-.86963.8877,2.36668,2.36668,0,0,1-1.26025.32422,2.82114,2.82114,0,0,1-1.41016-.3125,2.24358,2.24358,0,0,1-.85791-.87012,3.83431,3.83431,0,0,1-.42578-1.30762A10.64531,10.64531,0,0,1,496.14355,390.64453Zm.98438,0a11.33161,11.33161,0,0,0,.08984,1.47559,4.5092,4.5092,0,0,0,.30615,1.1875,2.03388,2.03388,0,0,0,.564.792,1.4397,1.4397,0,0,0,1.728,0,2.04387,2.04387,0,0,0,.564-.792,4.50977,4.50977,0,0,0,.30566-1.1875,12.10509,12.10509,0,0,0,0-2.95215,4.50977,4.50977,0,0,0-.30566-1.1875,2.05122,2.05122,0,0,0-.564-.792,1.30988,1.30988,0,0,0-.86426-.28809,1.3881,1.3881,0,0,0-.86377.26367,1.85141,1.85141,0,0,0-.564.75586,4.35334,4.35334,0,0,0-.30615,1.18262A11.98336,11.98336,0,0,0,497.12793,390.64453Z" transform="translate(-355.25781 -371.12012)"/><path class="cls-1" d="M503.35547,390.64453a8.51972,8.51972,0,0,1,.144-1.60254,4.04844,4.04844,0,0,1,.47412-1.30762,2.537,2.537,0,0,1,.87012-.88867,2.48788,2.48788,0,0,1,1.31982-.33008,2.69846,2.69846,0,0,1,1.41016.33008,2.38233,2.38233,0,0,1,.85791.88867,3.83432,3.83432,0,0,1,.42578,1.30762,10.64916,10.64916,0,0,1,.11426,1.60254,7.12732,7.12732,0,0,1-.168,1.57129,4.36432,4.36432,0,0,1-.51025,1.30859,2.60646,2.60646,0,0,1-.86963.8877,2.36668,2.36668,0,0,1-1.26025.32422,2.82114,2.82114,0,0,1-1.41016-.3125,2.24358,2.24358,0,0,1-.85791-.87012,3.83431,3.83431,0,0,1-.42578-1.30762A10.64531,10.64531,0,0,1,503.35547,390.64453Zm.98438,0a11.33161,11.33161,0,0,0,.08984,1.47559,4.5092,4.5092,0,0,0,.30615,1.1875,2.03388,2.03388,0,0,0,.564.792,1.4397,1.4397,0,0,0,1.728,0,2.04387,2.04387,0,0,0,.564-.792,4.50977,4.50977,0,0,0,.30566-1.1875,12.10508,12.10508,0,0,0,0-2.95215,4.50977,4.50977,0,0,0-.30566-1.1875,2.05122,2.05122,0,0,0-.564-.792,1.30988,1.30988,0,0,0-.86426-.28809,1.3881,1.3881,0,0,0-.86377.26367,1.85141,1.85141,0,0,0-.564.75586,4.35335,4.35335,0,0,0-.30615,1.18262A11.98336,11.98336,0,0,0,504.33984,390.64453Z" transform="translate(-355.25781 -371.12012)"/><path class="cls-1" d="M510.56787,390.64453a8.51971,8.51971,0,0,1,.144-1.60254,4.04844,4.04844,0,0,1,.47412-1.30762,2.537,2.537,0,0,1,.87012-.88867,2.48788,2.48788,0,0,1,1.31982-.33008,2.69846,2.69846,0,0,1,1.41016.33008,2.38233,2.38233,0,0,1,.85791.88867,3.83432,3.83432,0,0,1,.42578,1.30762,10.64916,10.64916,0,0,1,.11426,1.60254,7.12732,7.12732,0,0,1-.168,1.57129,4.36432,4.36432,0,0,1-.51025,1.30859,2.60646,2.60646,0,0,1-.86963.8877,2.36668,2.36668,0,0,1-1.26025.32422,2.82114,2.82114,0,0,1-1.41016-.3125,2.24358,2.24358,0,0,1-.85791-.87012,3.83431,3.83431,0,0,1-.42578-1.30762A10.64531,10.64531,0,0,1,510.56787,390.64453Zm.98438,0a11.33161,11.33161,0,0,0,.08984,1.47559,4.5092,4.5092,0,0,0,.30615,1.1875,2.03388,2.03388,0,0,0,.564.792,1.4397,1.4397,0,0,0,1.728,0,2.04387,2.04387,0,0,0,.564-.792,4.50977,4.50977,0,0,0,.30566-1.1875,12.10509,12.10509,0,0,0,0-2.95215,4.50977,4.50977,0,0,0-.30566-1.1875,2.05122,2.05122,0,0,0-.564-.792,1.30988,1.30988,0,0,0-.86426-.28809,1.3881,1.3881,0,0,0-.86377.26367,1.85141,1.85141,0,0,0-.564.75586,4.35334,4.35334,0,0,0-.30615,1.18262A11.98336,11.98336,0,0,0,511.55225,390.64453Z" transform="translate(-355.25781 -371.12012)"/><path class="cls-1" d="M523.92383,386.37207a.89116.89116,0,0,0-.75586.36621,1.04207,1.04207,0,0,0-.17383.37793,1.86441,1.86441,0,0,0-.0542.45605q0,.21533.042.624c.02783.27148.062.53223.10205.78027q.312,0,.61816-.00684.30542-.00586.61768-.00586c-.00781.04-.01416.08008-.01807.12012s-.00586.08008-.00586.12012.002.08008.00586.12012.01025.08008.01807.12012c-.208-.00781-.41406-.0166-.61768-.02441q-.30615-.01172-.61816-.01172,0,1.30811.00586,2.59766.00586,1.29053.042,2.59863a1.417,1.417,0,0,0-.26367-.02441h-.25244c-.168,0-.34375.00781-.52783.02441q.08423-1.30811.09619-2.58594.01172-1.27881.01172-2.61035-.21606,0-.43164.01172c-.144.00781-.28809.0166-.43213.02441.00781-.04.01367-.08008.01807-.12012q.00586-.06006.00586-.12012t-.00586-.12012c-.00439-.04-.01025-.08008-.01807-.12012.144,0,.28955.002.438.00586.14795.00488.28955.00684.42578.00684a4.3478,4.3478,0,0,1,.07227-.75684,5.12368,5.12368,0,0,1,.21-.80371,5.03377,5.03377,0,0,1,.33008-.75,2.56421,2.56421,0,0,1,.43164-.59375,2.10293,2.10293,0,0,1,.54639-.38379,1.47235,1.47235,0,0,1,.67773-.168.77571.77571,0,0,1,.24023.03516c-.0083.16016-.01807.32031-.03027.48047-.01172.16016-.01807.32031-.01807.47949l-.07178.03613A1.21808,1.21808,0,0,0,523.92383,386.37207Z" transform="translate(-355.25781 -371.12012)"/><path class="cls-1" d="M527.00781,387.2959q-.03589.457-.05371.89453-.01831.438-.042.88184.13184,0,.4917-.00586c.24023-.00391.5-.01465.78027-.03027a.47187.47187,0,0,0-.01221.13184v.252a.40838.40838,0,0,0,.01221.12012c-.104-.00781-.2124-.01367-.32422-.01758-.1123-.00391-.23193-.00684-.35986-.00684h-.58789a3.81979,3.81979,0,0,0-.03027.38477c-.01172.22363-.022.49023-.02979.79785q-.01245.46143-.01807.96582-.00659.50391-.00586.90039,0,.33545.01758.65918a1.9804,1.9804,0,0,0,.11426.582.9334.9334,0,0,0,.28809.41406.85286.85286,0,0,0,.55176.15625,1.91046,1.91046,0,0,0,.2583-.02344,2.04606,2.04606,0,0,0,.28174-.06055v.28809c-.13623.02441-.28613.05371-.44971.08984a2.203,2.203,0,0,1-.47412.05371,1.49545,1.49545,0,0,1-1.11621-.37109,1.51275,1.51275,0,0,1-.35986-1.09277c0-.21582.00391-.44922.01221-.70215q.01172-.37793.02979-.82715c.01221-.30078.022-.63184.02979-.99609q.01245-.54639.01221-1.21875h-.38379c-.06445,0-.13232.00293-.2041.00684-.07227.00391-.14844.00977-.228.01758.00781-.04785.01367-.09375.01807-.1377.00391-.04395.00586-.08984.00586-.13867,0-.03906-.002-.0791-.00586-.11914-.00439-.04-.01025-.08008-.01807-.12012.35986.02344.624.03613.792.03613q-.01245-.24023-.01807-.60059c-.00439-.24023-.01416-.4873-.02979-.74414l.99561-.41992Z" transform="translate(-355.25781 -371.12012)"/><path class="cls-1" d="M533.78809,389.48047a3.41,3.41,0,0,1,.99561-.55273,3.101,3.101,0,0,1,.936-.14355,2.38239,2.38239,0,0,1,.792.126,1.718,1.718,0,0,1,.6123.36035,1.66834,1.66834,0,0,1,.396.56348,1.80369,1.80369,0,0,1,.144.72656q0,.68262-.02441,1.36133-.02417.67822-.02393,1.43457c0,.0957.002.19727.00635.30566a.88988.88988,0,0,0,.05371.28809.54392.54392,0,0,0,.13818.21.38469.38469,0,0,0,.27.084q.06006,0,.126-.00586a.301.301,0,0,0,.126-.042V394.46a1.39987,1.39987,0,0,1-.33008.0957,2.41505,2.41505,0,0,1-.438.03613.80972.80972,0,0,1-.58789-.19727.81917.81917,0,0,1-.24023-.51074,3.24207,3.24207,0,0,1-.85205.63672,2.3525,2.3525,0,0,1-1.03174.20313,2.06428,2.06428,0,0,1-.58789-.084,1.339,1.339,0,0,1-.51025-.27539,1.51589,1.51589,0,0,1-.35986-.46191,1.33689,1.33689,0,0,1-.13818-.61816,1.40655,1.40655,0,0,1,.4502-1.11621,2.45918,2.45918,0,0,1,1.2417-.52832q.64819-.10693,1.01416-.18555a2.555,2.555,0,0,0,.54-.16211.36512.36512,0,0,0,.21-.19824.99476.99476,0,0,0,.03613-.29395,2.26666,2.26666,0,0,0-.07227-.57617,1.33109,1.33109,0,0,0-.228-.47949,1.15424,1.15424,0,0,0-.40771-.33008,1.358,1.358,0,0,0-.6123-.126,1.90758,1.90758,0,0,0-.89355.21582,1.41982,1.41982,0,0,0-.61816.60059h-.13184Zm2.96387,2.13574a3.06815,3.06815,0,0,1-.47412.12012c-.18018.03223-.36182.06543-.5459.10156a5.04938,5.04938,0,0,0-.5459.13867,1.76539,1.76539,0,0,0-.48.22754,1.10848,1.10848,0,0,0-.33643.36035,1.277,1.277,0,0,0,.19824,1.40332,1.05654,1.05654,0,0,0,.72021.28809,1.47357,1.47357,0,0,0,.834-.252,1.8889,1.8889,0,0,0,.582-.58789Z" transform="translate(-355.25781 -371.12012)"/><path class="cls-1" d="M545.46387,391.60449a3.69469,3.69469,0,0,1-.21,1.27148,3.06488,3.06488,0,0,1-.57617.99023,2.50067,2.50067,0,0,1-.86377.63574,2.60051,2.60051,0,0,1-1.07422.22168,2.185,2.185,0,0,1-1.03809-.24512A1.92983,1.92983,0,0,1,541,393.88379q-.43213.34863-.8042.69629H539.98c.01563-.19238.02979-.42383.042-.69629q.01758-.40723.02979-.87012.01172-.46143.01807-.94141.00586-.48047.00586-.88867v-2.17187q0-.40723-.00586-.8877-.00586-.479-.01807-.94824-.01172-.46729-.02979-.89355-.01831-.42627-.042-.72656a3.12858,3.12858,0,0,0,.54.06055,2.10544,2.10544,0,0,0,.27588-.01855c.09619-.01172.19971-.02539.312-.042q-.03589.24023-.06006.7627-.02417.52148-.03613,1.16406-.01172.6416-.02393,1.31934-.01172.67822-.02393,1.23047h.02393a2.86032,2.86032,0,0,1,.8999-.94824,2.14439,2.14439,0,0,1,1.14014-.2998,2.33518,2.33518,0,0,1,1.08008.23438,2.23557,2.23557,0,0,1,.75586.61719,2.66034,2.66034,0,0,1,.4502.89453A3.78449,3.78449,0,0,1,545.46387,391.60449Zm-1.05615-.03613a3.18253,3.18253,0,0,0-.1377-.97852,2.36281,2.36281,0,0,0-.36035-.71387,1.51685,1.51685,0,0,0-.51562-.4375,1.31356,1.31356,0,0,0-.606-.15039,1.89589,1.89589,0,0,0-.71436.1377,1.44923,1.44923,0,0,0-.59375.45605,2.41727,2.41727,0,0,0-.40186.82813,4.47732,4.47732,0,0,0-.15039,1.25391q0,2.4126,1.752,2.41211a1.245,1.245,0,0,0,.68408-.19824,1.774,1.774,0,0,0,.5459-.56934,3.08963,3.08963,0,0,0,.36621-.88867A4.65125,4.65125,0,0,0,544.40771,391.56836Z" transform="translate(-355.25781 -371.12012)"/><path class="cls-1" d="M546.92773,391.77246a3.34974,3.34974,0,0,1,.2583-1.38672,2.569,2.569,0,0,1,.67773-.92383,2.68134,2.68134,0,0,1,.94189-.51562,3.42357,3.42357,0,0,1,2.082,0,2.69474,2.69474,0,0,1,.936.51563,2.58144,2.58144,0,0,1,.67822.92383,3.85571,3.85571,0,0,1,0,2.77246,2.5729,2.5729,0,0,1-.67822.92383,2.46271,2.46271,0,0,1-.936.498,3.84631,3.84631,0,0,1-2.082,0,2.45425,2.45425,0,0,1-.94189-.498,2.56052,2.56052,0,0,1-.67773-.92383A3.34179,3.34179,0,0,1,546.92773,391.77246Zm1.05615,0a5.13339,5.13339,0,0,0,.08984.97168,2.59475,2.59475,0,0,0,.30615.834,1.641,1.641,0,0,0,.57617.582,1.93451,1.93451,0,0,0,1.77588,0,1.6436,1.6436,0,0,0,.57568-.582,2.59475,2.59475,0,0,0,.30615-.834,5.30466,5.30466,0,0,0,0-1.94434,2.59475,2.59475,0,0,0-.30615-.834,1.6436,1.6436,0,0,0-.57568-.582,1.93451,1.93451,0,0,0-1.77588,0,1.641,1.641,0,0,0-.57617.582,2.59475,2.59475,0,0,0-.30615.834A5.14374,5.14374,0,0,0,547.98389,391.77246Z" transform="translate(-355.25781 -371.12012)"/><path class="cls-1" d="M556.15576,394.60449q-.55225-1.4165-1.10986-2.832-.55811-1.4165-1.21826-2.86816c.104.01563.2041.0293.2998.042a2.48287,2.48287,0,0,0,.30029.01758,2.00579,2.00579,0,0,0,.26416-.01758c.08789-.0127.17578-.02637.26367-.042q.37207,1.188.81006,2.334.438,1.14551.978,2.3457.24023-.49219.47412-1.06152.23364-.56982.46777-1.18262.23438-.6123.45605-1.22949.22192-.61816.438-1.20605a1.19174,1.19174,0,0,0,.74414,0q-.64819,1.45166-1.272,2.86816-.624,1.415-1.14014,2.832a2.71646,2.71646,0,0,0-.37207-.02441A2.97849,2.97849,0,0,0,556.15576,394.60449Z" transform="translate(-355.25781 -371.12012)"/><path class="cls-1" d="M560.39209,391.94043a3.50437,3.50437,0,0,1,.70215-2.31641,2.51581,2.51581,0,0,1,2.0459-.83984,2.7626,2.7626,0,0,1,1.09814.19824,2.29379,2.29379,0,0,1,.77393.52734,2.0903,2.0903,0,0,1,.46191.77441,2.94113,2.94113,0,0,1,.1499.94824c0,.08008-.002.1582-.00586.2334-.00391.07617-.01025.1543-.01807.23438q-.64819-.01172-1.28369-.02441-.63647-.01172-1.28418-.01172-.39624,0-.78613.01172-.38965.01318-.78613.02441a1.01311,1.01311,0,0,0-.01172.17969v.15625a2.72176,2.72176,0,0,0,.1377.876,1.991,1.991,0,0,0,.40234.70215,1.91976,1.91976,0,0,0,.64795.46777,2.127,2.127,0,0,0,.8877.17383,1.93926,1.93926,0,0,0,.49219-.06543,2.78739,2.78739,0,0,0,.49219-.18066,2.67527,2.67527,0,0,0,.44971-.26953,2.296,2.296,0,0,0,.36621-.33594l.06006.03613-.07227.58789a3.34921,3.34921,0,0,1-.894.49219,3.08718,3.08718,0,0,1-1.10986.20313,3.38112,3.38112,0,0,1-1.18213-.19727,2.61389,2.61389,0,0,1-.92383-.57617,2.58229,2.58229,0,0,1-.6001-.89453A2.92693,2.92693,0,0,1,560.39209,391.94043Zm2.772-2.77246a1.3244,1.3244,0,0,0-.75.2041,1.7407,1.7407,0,0,0-.50391.50977,2.44114,2.44114,0,0,0-.2998.67188,3.51192,3.51192,0,0,0-.126.69043q.37134.01172.77393.02441.40137.01172.78564.01172.39624,0,.8042-.01172.408-.01318.792-.02441a4.59024,4.59024,0,0,0-.0542-.68359,2.13862,2.13862,0,0,0-.21582-.67285,1.42912,1.42912,0,0,0-.44971-.51562A1.28442,1.28442,0,0,0,563.16406,389.168Z" transform="translate(-355.25781 -371.12012)"/><path class="cls-1" d="M571.42627,393.752a1.81813,1.81813,0,0,0,.2998.27051,1.72216,1.72216,0,0,0,.396.21,1.37215,1.37215,0,0,0,.91211.01172,1.201,1.201,0,0,0,.37207-.2041.94568.94568,0,0,0,.25781-.33594,1.08645,1.08645,0,0,0,.09619-.46777.74752.74752,0,0,0-.21-.57031,1.65787,1.65787,0,0,0-.522-.32422,5.60113,5.60113,0,0,0-.68408-.22168,2.88061,2.88061,0,0,1-.68408-.27051,1.59038,1.59038,0,0,1-.522-.46191,1.31852,1.31852,0,0,1-.21-.792,1.938,1.938,0,0,1,.13184-.72559,1.59986,1.59986,0,0,1,.38428-.57031,1.80637,1.80637,0,0,1,.624-.37793,2.44232,2.44232,0,0,1,.85205-.1377,2.06226,2.06226,0,0,1,.75.12012c.20361.08008.39746.15137.58154.21582a2.67079,2.67079,0,0,0-.17969.44434,3.09606,3.09606,0,0,0-.10791.40723h-.144a1.14458,1.14458,0,0,0-.37207-.51562,1.04178,1.04178,0,0,0-.68408-.22754,1.13,1.13,0,0,0-.35986.05957,1.00939,1.00939,0,0,0-.32422.17969.9612.9612,0,0,0-.23975.3125,1.00362,1.00362,0,0,0-.09619.45605.80181.80181,0,0,0,.21.59375,1.48255,1.48255,0,0,0,.522.33008,5.44356,5.44356,0,0,0,.68408.21,2.97931,2.97931,0,0,1,.68408.252,1.48768,1.48768,0,0,1,.522.4502,1.32193,1.32193,0,0,1,.21.792,1.66436,1.66436,0,0,1-.1499.68359,1.92174,1.92174,0,0,1-.43213.60645,1.98253,1.98253,0,0,1-.67773.41992,2.53961,2.53961,0,0,1-.90039.14941,3.358,3.358,0,0,1-.92383-.10742,2.91345,2.91345,0,0,1-.624-.252,3.21816,3.21816,0,0,0,.1499-.42578,1.67872,1.67872,0,0,0,.07813-.4502h.144A1.28538,1.28538,0,0,0,571.42627,393.752Z" transform="translate(-355.25781 -371.12012)"/><path class="cls-1" d="M576.01563,391.94043a3.50437,3.50437,0,0,1,.70215-2.31641,2.51581,2.51581,0,0,1,2.0459-.83984,2.7626,2.7626,0,0,1,1.09814.19824,2.29379,2.29379,0,0,1,.77393.52734,2.0903,2.0903,0,0,1,.46191.77441,2.94113,2.94113,0,0,1,.1499.94824c0,.08008-.002.1582-.00586.2334-.00391.07617-.01025.1543-.01807.23438q-.64819-.01172-1.28369-.02441-.63647-.01172-1.28418-.01172-.39624,0-.78613.01172-.38965.01318-.78613.02441a1.01311,1.01311,0,0,0-.01172.17969v.15625a2.72176,2.72176,0,0,0,.1377.876,1.991,1.991,0,0,0,.40234.70215,1.91976,1.91976,0,0,0,.64795.46777,2.127,2.127,0,0,0,.8877.17383,1.93926,1.93926,0,0,0,.49219-.06543,2.78738,2.78738,0,0,0,.49219-.18066,2.67528,2.67528,0,0,0,.44971-.26953,2.296,2.296,0,0,0,.36621-.33594l.06006.03613-.07227.58789a3.34921,3.34921,0,0,1-.894.49219,3.08718,3.08718,0,0,1-1.10986.20313,3.38113,3.38113,0,0,1-1.18213-.19727,2.61389,2.61389,0,0,1-.92383-.57617,2.58229,2.58229,0,0,1-.6001-.89453A2.92693,2.92693,0,0,1,576.01563,391.94043Zm2.772-2.77246a1.3244,1.3244,0,0,0-.75.2041,1.7407,1.7407,0,0,0-.50391.50977,2.44114,2.44114,0,0,0-.2998.67188,3.51192,3.51192,0,0,0-.126.69043q.37134.01172.77393.02441.40137.01172.78564.01172.39624,0,.8042-.01172.408-.01318.792-.02441a4.59024,4.59024,0,0,0-.0542-.68359,2.13862,2.13862,0,0,0-.21582-.67285,1.42912,1.42912,0,0,0-.44971-.51562A1.28442,1.28442,0,0,0,578.7876,389.168Z" transform="translate(-355.25781 -371.12012)"/><path class="cls-1" d="M583.168,389.48047a3.41,3.41,0,0,1,.99561-.55273,3.101,3.101,0,0,1,.936-.14355,2.38239,2.38239,0,0,1,.792.126,1.718,1.718,0,0,1,.6123.36035,1.66834,1.66834,0,0,1,.396.56348,1.80369,1.80369,0,0,1,.144.72656q0,.68262-.02441,1.36133-.02417.67822-.02393,1.43457c0,.0957.002.19727.00635.30566a.88987.88987,0,0,0,.05371.28809.54392.54392,0,0,0,.13818.21.38469.38469,0,0,0,.27.084q.06006,0,.126-.00586a.301.301,0,0,0,.126-.042V394.46a1.39987,1.39987,0,0,1-.33008.0957,2.41505,2.41505,0,0,1-.438.03613.80972.80972,0,0,1-.58789-.19727.81917.81917,0,0,1-.24023-.51074,3.24207,3.24207,0,0,1-.85205.63672,2.3525,2.3525,0,0,1-1.03174.20313,2.06429,2.06429,0,0,1-.58789-.084,1.339,1.339,0,0,1-.51025-.27539,1.51589,1.51589,0,0,1-.35986-.46191,1.33689,1.33689,0,0,1-.13818-.61816,1.40655,1.40655,0,0,1,.4502-1.11621,2.45917,2.45917,0,0,1,1.2417-.52832q.64819-.10693,1.01416-.18555a2.555,2.555,0,0,0,.54-.16211.36512.36512,0,0,0,.21-.19824.99476.99476,0,0,0,.03613-.29395,2.26665,2.26665,0,0,0-.07227-.57617,1.33109,1.33109,0,0,0-.228-.47949,1.15424,1.15424,0,0,0-.40771-.33008,1.358,1.358,0,0,0-.6123-.126,1.90758,1.90758,0,0,0-.89355.21582,1.41982,1.41982,0,0,0-.61816.60059H583.168Zm2.96387,2.13574a3.06815,3.06815,0,0,1-.47412.12012c-.18018.03223-.36182.06543-.5459.10156a5.04938,5.04938,0,0,0-.5459.13867,1.76539,1.76539,0,0,0-.48.22754,1.10848,1.10848,0,0,0-.33643.36035,1.277,1.277,0,0,0,.19824,1.40332,1.05654,1.05654,0,0,0,.72021.28809,1.47357,1.47357,0,0,0,.834-.252,1.8889,1.8889,0,0,0,.582-.58789Z" transform="translate(-355.25781 -371.12012)"/><path class="cls-1" d="M593.76953,388.124q-.00586-.479-.01758-.94824-.01245-.46729-.03027-.89355-.01758-.42627-.042-.72656a2.43868,2.43868,0,0,0,1.08008,0q-.02417.30029-.042.72656-.01831.42627-.02979.89355-.01245.46875-.01807.94824-.00659.48047-.00635.8877v2.17188q0,.40869.00635.88867c.00391.32031.00977.63574.01807.94824q.01172.46729.02979.8877c.01221.28027.02588.51172.042.69629-.18408-.0166-.36426-.02441-.54-.02441-.17627,0-.356.00781-.54.02441.01611-.18457.03027-.416.042-.69629q.01831-.42041.03027-.8877c.00781-.3125.01367-.62793.01758-.94824q.00659-.48047.00635-.88867v-2.17187Q593.77588,388.60449,593.76953,388.124Z" transform="translate(-355.25781 -371.12012)"/><path class="cls-1" d="M596.84766,391.94043a3.50437,3.50437,0,0,1,.70215-2.31641,2.51581,2.51581,0,0,1,2.0459-.83984,2.7626,2.7626,0,0,1,1.09814.19824,2.29379,2.29379,0,0,1,.77393.52734,2.0903,2.0903,0,0,1,.46191.77441,2.94113,2.94113,0,0,1,.1499.94824c0,.08008-.002.1582-.00586.2334-.00391.07617-.01025.1543-.01807.23438q-.64819-.01172-1.28369-.02441-.63647-.01172-1.28418-.01172-.39624,0-.78613.01172-.38965.01318-.78613.02441a1.01311,1.01311,0,0,0-.01172.17969v.15625a2.72176,2.72176,0,0,0,.1377.876,1.991,1.991,0,0,0,.40234.70215,1.91976,1.91976,0,0,0,.64795.46777,2.127,2.127,0,0,0,.8877.17383,1.93926,1.93926,0,0,0,.49219-.06543,2.78739,2.78739,0,0,0,.49219-.18066,2.67527,2.67527,0,0,0,.44971-.26953,2.296,2.296,0,0,0,.36621-.33594l.06006.03613-.07227.58789a3.34921,3.34921,0,0,1-.894.49219,3.08718,3.08718,0,0,1-1.10986.20313,3.38112,3.38112,0,0,1-1.18213-.19727,2.61389,2.61389,0,0,1-.92383-.57617,2.58229,2.58229,0,0,1-.6001-.89453A2.92693,2.92693,0,0,1,596.84766,391.94043Zm2.772-2.77246a1.3244,1.3244,0,0,0-.75.2041,1.7407,1.7407,0,0,0-.50391.50977,2.44113,2.44113,0,0,0-.2998.67188,3.51192,3.51192,0,0,0-.126.69043q.37134.01172.77393.02441.40137.01172.78564.01172.39624,0,.8042-.01172.408-.01318.792-.02441a4.59024,4.59024,0,0,0-.0542-.68359,2.13862,2.13862,0,0,0-.21582-.67285,1.42912,1.42912,0,0,0-.44971-.51562A1.28442,1.28442,0,0,0,599.61963,389.168Z" transform="translate(-355.25781 -371.12012)"/><path class="cls-1" d="M605.54785,394.60449q-.55225-1.4165-1.10986-2.832-.55811-1.4165-1.21826-2.86816c.104.01563.2041.0293.2998.042a2.48288,2.48288,0,0,0,.30029.01758,2.00579,2.00579,0,0,0,.26416-.01758c.08789-.0127.17578-.02637.26367-.042q.37207,1.188.81006,2.334.438,1.14551.978,2.3457.24023-.49219.47412-1.06152.23364-.56982.46777-1.18262.23438-.6123.45605-1.22949.22192-.61816.438-1.20605a1.19174,1.19174,0,0,0,.74414,0q-.64819,1.45166-1.272,2.86816-.624,1.415-1.14014,2.832a2.71646,2.71646,0,0,0-.37207-.02441A2.97849,2.97849,0,0,0,605.54785,394.60449Z" transform="translate(-355.25781 -371.12012)"/><path class="cls-1" d="M609.78369,391.94043a3.50437,3.50437,0,0,1,.70215-2.31641,2.51581,2.51581,0,0,1,2.0459-.83984,2.7626,2.7626,0,0,1,1.09814.19824,2.29379,2.29379,0,0,1,.77393.52734,2.0903,2.0903,0,0,1,.46191.77441,2.94114,2.94114,0,0,1,.1499.94824c0,.08008-.002.1582-.00586.2334-.00391.07617-.01025.1543-.01807.23438q-.64819-.01172-1.28369-.02441-.63647-.01172-1.28418-.01172-.39624,0-.78613.01172-.38965.01318-.78613.02441a1.01311,1.01311,0,0,0-.01172.17969v.15625a2.72176,2.72176,0,0,0,.1377.876,1.991,1.991,0,0,0,.40234.70215,1.91976,1.91976,0,0,0,.64795.46777,2.127,2.127,0,0,0,.8877.17383,1.93926,1.93926,0,0,0,.49219-.06543,2.78738,2.78738,0,0,0,.49219-.18066,2.67527,2.67527,0,0,0,.44971-.26953,2.296,2.296,0,0,0,.36621-.33594l.06006.03613-.07227.58789a3.34921,3.34921,0,0,1-.894.49219,3.08718,3.08718,0,0,1-1.10986.20313,3.38113,3.38113,0,0,1-1.18213-.19727,2.61389,2.61389,0,0,1-.92383-.57617,2.58229,2.58229,0,0,1-.6001-.89453A2.92693,2.92693,0,0,1,609.78369,391.94043Zm2.772-2.77246a1.3244,1.3244,0,0,0-.75.2041,1.7407,1.7407,0,0,0-.50391.50977,2.44114,2.44114,0,0,0-.2998.67188,3.51193,3.51193,0,0,0-.126.69043q.37134.01172.77393.02441.40137.01172.78564.01172.39624,0,.8042-.01172.408-.01318.792-.02441a4.59024,4.59024,0,0,0-.0542-.68359,2.13863,2.13863,0,0,0-.21582-.67285,1.42912,1.42912,0,0,0-.44971-.51562A1.28442,1.28442,0,0,0,612.55566,389.168Z" transform="translate(-355.25781 -371.12012)"/><path class="cls-1" d="M617.12158,388.124q-.00586-.479-.01758-.94824-.01245-.46729-.03027-.89355-.01758-.42627-.042-.72656a2.43868,2.43868,0,0,0,1.08008,0q-.02417.30029-.042.72656-.01831.42627-.02979.89355-.01245.46875-.01807.94824-.00659.48047-.00635.8877v2.17188q0,.40869.00635.88867c.00391.32031.00977.63574.01807.94824q.01172.46729.02979.8877c.01221.28027.02588.51172.042.69629-.18408-.0166-.36426-.02441-.54-.02441-.17627,0-.356.00781-.54.02441.01611-.18457.03027-.416.042-.69629q.01831-.42041.03027-.8877c.00781-.3125.01367-.62793.01758-.94824q.00659-.48047.00635-.88867v-2.17187Q617.12793,388.60449,617.12158,388.124Z" transform="translate(-355.25781 -371.12012)"/><path class="cls-1" d="M620.76367,394.04a.68413.68413,0,0,1,1.36816,0,.59817.59817,0,0,1-.2041.46191.71083.71083,0,0,1-.96,0A.59817.59817,0,0,1,620.76367,394.04Z" transform="translate(-355.25781 -371.12012)"/></svg>