<svg id="Layer_1" data-name="Layer 1" xmlns="http://www.w3.org/2000/svg" viewBox="0 0 185.08838 13.1626"><defs><style>.cls-1{fill:#52482d;}</style></defs><title>bfp</title><path class="cls-1" d="M605.1543,383.88086q0-1.07593-.02588-1.9126-.02637-.83643-.07812-1.6792c.147.01758.30664.03223.48.04541q.25928.019.5835.01953.55737,0,1.167-.03271.60938-.03223,1.167-.03223a4.51045,4.51045,0,0,1,1.06348.1167,2.5016,2.5016,0,0,1,.83008.35645,1.59885,1.59885,0,0,1,.53809.62256,2.0585,2.0585,0,0,1,.188.91406,1.80657,1.80657,0,0,1-.22021.91455,2.21951,2.21951,0,0,1-.53857.63525,2.6162,2.6162,0,0,1-.687.39551,3.55807,3.55807,0,0,1-.668.19434v.02588a2.88144,2.88144,0,0,1,.7002.13623,2.65836,2.65836,0,0,1,.76514.38281,2.2901,2.2901,0,0,1,.61621.668,1.84959,1.84959,0,0,1,.25293.99219,2.58531,2.58531,0,0,1-.25293,1.19238,2.27758,2.27758,0,0,1-.67432.80469,2.55984,2.55984,0,0,1-.96631.43359,5.048,5.048,0,0,1-1.12793.124q-.51929,0-.96631-.01367-.44751-.01318-.93994-.0127h-.71973a5.21067,5.21067,0,0,0-.59033.02637q.052-.8042.07813-1.64062.02563-.83643.02588-1.91309Zm3.99365-1.33545a2.35509,2.35509,0,0,0-.07129-.58984,1.19588,1.19588,0,0,0-.23975-.48,1.24782,1.24782,0,0,0-.42773-.32422,1.512,1.512,0,0,0-.64844-.123q-.28564,0-.39551.00635a1.79609,1.79609,0,0,0-.24023.03223q-.02563.48047-.03857.97266-.01318.49292-.01318.83008,0,.3501.00684.668.00586.31787.00635.65479h.5835a1.46559,1.46559,0,0,0,.53809-.104,1.40039,1.40039,0,0,0,.47314-.30469,1.51,1.51,0,0,0,.3374-.51221A1.87726,1.87726,0,0,0,609.14795,382.54541Zm.09082,4.189a1.95294,1.95294,0,0,0-.4082-1.35547,1.52412,1.52412,0,0,0-1.18652-.44727q-.18164,0-.31152.00635c-.08643.00439-.16846.00635-.24609.00635,0,.18164-.00244.37012-.00635.56445q-.00732.2915-.00684.69336,0,.312.00684.63574.00586.32373.00635.63477,0,.312.00635.57129.00659.25928.00635.42773c.12109.00879.2334.01465.3374.01953q.15527.00586.376.00586a1.297,1.297,0,0,0,.99854-.46,1.74012,1.74012,0,0,0,.311-.55078A2.20727,2.20727,0,0,0,609.23877,386.73438Z" transform="translate(-605.05029 -379.48486)"/><path class="cls-1" d="M615.59277,386.25391a3.9835,3.9835,0,0,1,.26611-1.51709,3.2008,3.2008,0,0,1,.70654-1.08252,2.84358,2.84358,0,0,1,1.01807-.64844A3.38877,3.38877,0,0,1,618.77,382.792a3.11879,3.11879,0,0,1,2.34717.85547,3.19407,3.19407,0,0,1,.83008,2.32129,4.12492,4.12492,0,0,1-.2334,1.42676,3.14071,3.14071,0,0,1-.65479,1.083,2.64645,2.64645,0,0,1-1.00537.667,3.59307,3.59307,0,0,1-1.28369.2207,4.30257,4.30257,0,0,1-1.14746-.15527,2.75571,2.75571,0,0,1-1.01807-.52539,2.68838,2.68838,0,0,1-.73291-.96582A3.44785,3.44785,0,0,1,615.59277,386.25391Zm4.43506-.47949a4.40475,4.40475,0,0,0-.28516-1.77.97382.97382,0,0,0-.94678-.62891,1.04637,1.04637,0,0,0-.93994.7002,5.23786,5.23786,0,0,0-.34375,2.19189,7.32338,7.32338,0,0,0,.06494,1.01074,3.08806,3.08806,0,0,0,.21387.81055,1.38,1.38,0,0,0,.38916.53809.92456.92456,0,0,0,.603.19434Q620.02759,388.82129,620.02783,385.77441Z" transform="translate(-605.05029 -379.48486)"/><path class="cls-1" d="M628.146,383.93311a2.764,2.764,0,0,1,.84912-.84326,2.07864,2.07864,0,0,1,1.10889-.29785,1.94544,1.94544,0,0,1,1.49756.564,2.61888,2.61888,0,0,1,.52539,1.82178q0,.66211-.02588,1.167c-.01758.33691-.02588.6748-.02588,1.01172q0,.41455.01953.90137.019.48633.04541.94043a2.86276,2.86276,0,0,0-.42822-.02637h-1.08936a2.85112,2.85112,0,0,0-.42773.02637,15.44689,15.44689,0,0,0,.1167-1.58887q.02563-.91406.02588-2.09473a2.05314,2.05314,0,0,0-.27881-1.19922.98563.98563,0,0,0-1.64014.123,2.98214,2.98214,0,0,0-.27246,1.40039v.51855q0,.79248.01953,1.49219.019.7002.084,1.34863a2.7999,2.7999,0,0,0-.42139-.02637h-1.0957a3.01018,3.01018,0,0,0-.42773.02637q.06445-.64893.084-1.34863.01978-.7002.01953-1.49219v-.51855q0-.791-.01953-1.48437-.019-.6936-.084-1.394.23291.02563.46.04541c.15137.0127.30469.01953.46045.01953s.30908-.00684.46045-.01953q.22705-.01978.48633-.04541l-.05176.97266Z" transform="translate(-605.05029 -379.48486)"/><path class="cls-1" d="M636.8208,383.69971a4.14873,4.14873,0,0,1,1.17383-.67432,3.57189,3.57189,0,0,1,1.25146-.2334,3.6567,3.6567,0,0,1,.95313.1167,2.04123,2.04123,0,0,1,.752.36914,1.67612,1.67612,0,0,1,.49268.65527,2.42942,2.42942,0,0,1,.17529.97217q0,.83057-.01953,1.53711-.01978.70605-.01953,1.40723a2.03678,2.03678,0,0,0,.04541.48633.573.573,0,0,0,.13623.26563.428.428,0,0,0,.23975.11621,1.99265,1.99265,0,0,0,.34375.02637v.31055c-.251.10449-.4624.18164-.63525.23438a1.9385,1.9385,0,0,1-.55762.07715,1.222,1.222,0,0,1-.77832-.2334,1.431,1.431,0,0,1-.45361-.67383,2.45665,2.45665,0,0,1-.69385.66113,1.8477,1.8477,0,0,1-.99219.24609,2.42087,2.42087,0,0,1-.84277-.12988,1.4612,1.4612,0,0,1-.90771-.91406,1.89453,1.89453,0,0,1-.104-.61621,1.82833,1.82833,0,0,1,.13623-.73828,1.49092,1.49092,0,0,1,.38916-.53223,2.26681,2.26681,0,0,1,.603-.36914,4.86243,4.86243,0,0,1,.791-.25293c.36328-.08691.65039-.16211.8623-.22754a2.03591,2.03591,0,0,0,.47314-.19434.4628.4628,0,0,0,.20117-.21387.79016.79016,0,0,0,.04541-.28516,1.08648,1.08648,0,0,0-.33057-.79736,1.2357,1.2357,0,0,0-.91455-.33105,1.86,1.86,0,0,0-.45361.05859,2.29546,2.29546,0,0,0-.44727.16211,2.82112,2.82112,0,0,0-.38916.22705.95844.95844,0,0,0-.26562.26563h-.09082Zm3.07373,3.52686q0-.55664.00635-.84961c.00439-.19434.00635-.36523.00635-.51172a3.05032,3.05032,0,0,1-.57715.25293,2.70159,2.70159,0,0,0-.55762.24609,1.215,1.215,0,0,0-.415.4082,1.43511,1.43511,0,0,0-.16211.75293,1.155,1.155,0,0,0,.20117.73242.65373.65373,0,0,0,.53809.25293.8551.8551,0,0,0,.69385-.32422A1.48537,1.48537,0,0,0,639.89453,387.22656Z" transform="translate(-605.05029 -379.48486)"/><path class="cls-1" d="M648.32373,383.93311a2.764,2.764,0,0,1,.84912-.84326,2.07864,2.07864,0,0,1,1.10889-.29785,1.94544,1.94544,0,0,1,1.49756.564,2.61888,2.61888,0,0,1,.52539,1.82178q0,.66211-.02588,1.167c-.01758.33691-.02588.6748-.02588,1.01172q0,.41455.01953.90137.019.48633.04541.94043a2.86276,2.86276,0,0,0-.42822-.02637h-1.08936a2.85112,2.85112,0,0,0-.42773.02637,15.44689,15.44689,0,0,0,.1167-1.58887q.02563-.91406.02588-2.09473a2.05314,2.05314,0,0,0-.27881-1.19922.98563.98563,0,0,0-1.64014.123,2.98214,2.98214,0,0,0-.27246,1.40039v.51855q0,.79248.01953,1.49219.019.7002.084,1.34863a2.7999,2.7999,0,0,0-.42139-.02637h-1.0957a3.01017,3.01017,0,0,0-.42773.02637q.06445-.64893.084-1.34863.01978-.7002.01953-1.49219v-.51855q0-.791-.01953-1.48437-.019-.6936-.084-1.394.23291.02563.46.04541c.15137.0127.30469.01953.46045.01953s.30908-.00684.46045-.01953q.22705-.01978.48633-.04541l-.05176.97266Z" transform="translate(-605.05029 -379.48486)"/><path class="cls-1" d="M658.36719,386.21484q.83643-1.23193,1.69238-2.51514-.37646,0-.6875.00635c-.207.00439-.42139.01074-.6416.01953q-.33105.01318-.73291.04541-.4021.03223-.95947.084a1.86351,1.86351,0,0,0,.05176-.45361,1.71032,1.71032,0,0,0-.05176-.44092q.32373.02563.63525.04541.31128.019.63574.01953h2.85254q.36328,0,.65527-.01953c.19434-.01318.36963-.02832.5249-.04541v.51855q-.90747,1.2583-1.77637,2.49658-.86938,1.23779-1.66016,2.52148h.75244c.18164,0,.3584-.002.53174-.00586.17285-.00488.3584-.0127.55762-.02637q.2981-.019.66113-.04492c.24219-.01758.51855-.043.83008-.07812a2.69383,2.69383,0,0,0-.03906.44141,1.8832,1.8832,0,0,0,.03906.415c-.13867-.00879-.2749-.01562-.40869-.01953-.13428-.00488-.27246-.00684-.415-.00684h-3.20264q-.48633,0-.8042.00684c-.21191.00391-.37842.00781-.49951.0127-.12109.00391-.21191.00684-.272.00684v-.49316Q657.53052,387.44678,658.36719,386.21484Z" transform="translate(-605.05029 -379.48486)"/><path class="cls-1" d="M666.72461,383.69971a4.14873,4.14873,0,0,1,1.17383-.67432,3.57189,3.57189,0,0,1,1.25146-.2334,3.65669,3.65669,0,0,1,.95313.1167,2.04123,2.04123,0,0,1,.752.36914,1.67612,1.67612,0,0,1,.49268.65527,2.42941,2.42941,0,0,1,.17529.97217q0,.83057-.01953,1.53711-.01978.70605-.01953,1.40723a2.03678,2.03678,0,0,0,.04541.48633.573.573,0,0,0,.13623.26563.428.428,0,0,0,.23975.11621,1.99265,1.99265,0,0,0,.34375.02637v.31055c-.251.10449-.4624.18164-.63525.23438a1.9385,1.9385,0,0,1-.55762.07715,1.222,1.222,0,0,1-.77832-.2334,1.431,1.431,0,0,1-.45361-.67383,2.45665,2.45665,0,0,1-.69385.66113,1.8477,1.8477,0,0,1-.99219.24609,2.42087,2.42087,0,0,1-.84277-.12988,1.4612,1.4612,0,0,1-.90771-.91406,1.89453,1.89453,0,0,1-.104-.61621,1.82833,1.82833,0,0,1,.13623-.73828,1.49092,1.49092,0,0,1,.38916-.53223,2.26681,2.26681,0,0,1,.603-.36914,4.86243,4.86243,0,0,1,.791-.25293c.36328-.08691.65039-.16211.8623-.22754a2.03591,2.03591,0,0,0,.47314-.19434.4628.4628,0,0,0,.20117-.21387.79016.79016,0,0,0,.04541-.28516,1.08648,1.08648,0,0,0-.33057-.79736,1.2357,1.2357,0,0,0-.91455-.33105,1.86,1.86,0,0,0-.45361.05859,2.29546,2.29546,0,0,0-.44727.16211,2.82112,2.82112,0,0,0-.38916.22705.95844.95844,0,0,0-.26562.26563h-.09082Zm3.07373,3.52686q0-.55664.00635-.84961c.00439-.19434.00635-.36523.00635-.51172a3.05032,3.05032,0,0,1-.57715.25293,2.70159,2.70159,0,0,0-.55762.24609,1.215,1.215,0,0,0-.415.4082,1.43511,1.43511,0,0,0-.16211.75293,1.155,1.155,0,0,0,.20117.73242.65373.65373,0,0,0,.53809.25293.8551.8551,0,0,0,.69385-.32422A1.48537,1.48537,0,0,0,669.79834,387.22656Z" transform="translate(-605.05029 -379.48486)"/><path class="cls-1" d="M683.55713,381.96826q-.02637-.83643-.07812-1.6792.58374.01318,1.15381.03906.57129.02563,1.1543.02588.96094,0,1.70508-.01953c.498-.01318.832-.02783,1.00586-.04541a2.28069,2.28069,0,0,0-.05273.54443,2.79381,2.79381,0,0,0,.01367.32422c.00781.07813.02148.16455.03906.25928-.252-.01709-.52539-.03418-.82422-.05176-.29883-.01709-.58789-.03418-.86914-.05176-.28125-.01709-.5332-.03027-.75781-.03906q-.33691-.01245-.48047-.0127-.0498.71338-.05859,1.41309-.00586.70093-.00586,1.41357.84375-.01245,1.52344-.03857.68262-.02637,1.41992-.06494c-.02539.147-.043.25928-.05078.33691a1.992,1.992,0,0,0-.01367.24658,1.16152,1.16152,0,0,0,.01953.21387c.01367.07373.02734.17969.04492.31738q-1.47656-.11719-2.94336-.11621v.66113q0,1.07666.02539,1.91309.02637.83643.07813,1.64063a4.038,4.038,0,0,0-.47852-.02637h-1.168a4.05164,4.05164,0,0,0-.48.02637q.052-.8042.07813-1.64062.02563-.83643.02588-1.91309v-1.76367Q683.583,382.80493,683.55713,381.96826Z" transform="translate(-605.05029 -379.48486)"/><path class="cls-1" d="M692.30957,383.69971a4.142,4.142,0,0,1,1.17383-.67432,3.56927,3.56927,0,0,1,1.251-.2334,3.6514,3.6514,0,0,1,.95313.1167,2.04949,2.04949,0,0,1,.75293.36914,1.67973,1.67973,0,0,1,.49219.65527,2.42131,2.42131,0,0,1,.1748.97217q0,.83057-.01953,1.53711-.019.70605-.01855,1.40723a2.04091,2.04091,0,0,0,.04492.48633.57263.57263,0,0,0,.13574.26563.42944.42944,0,0,0,.24023.11621,1.99265,1.99265,0,0,0,.34375.02637v.31055c-.251.10449-.46289.18164-.63574.23438a1.9337,1.9337,0,0,1-.55762.07715,1.22006,1.22006,0,0,1-.77734-.2334,1.42813,1.42813,0,0,1-.4541-.67383,2.45824,2.45824,0,0,1-.69434.66113,1.84414,1.84414,0,0,1-.99121.24609,2.42476,2.42476,0,0,1-.84375-.12988,1.46506,1.46506,0,0,1-.90723-.91406,1.8939,1.8939,0,0,1-.10352-.61621,1.82856,1.82856,0,0,1,.13574-.73828,1.4955,1.4955,0,0,1,.38867-.53223,2.27762,2.27762,0,0,1,.60352-.36914,4.86243,4.86243,0,0,1,.791-.25293c.36328-.08691.65039-.16211.8623-.22754a2.06011,2.06011,0,0,0,.47363-.19434.47058.47058,0,0,0,.20117-.21387.81264.81264,0,0,0,.04492-.28516,1.085,1.085,0,0,0-.33105-.79736,1.23224,1.23224,0,0,0-.91406-.33105,1.86986,1.86986,0,0,0-.4541.05859,2.30706,2.30706,0,0,0-.44727.16211,2.78625,2.78625,0,0,0-.38867.22705.95844.95844,0,0,0-.26562.26563h-.09082Zm3.07324,3.52686q0-.55664.00684-.84961c.00391-.19434.00684-.36523.00684-.51172a3.05031,3.05031,0,0,1-.57715.25293,2.67863,2.67863,0,0,0-.55762.24609,1.20237,1.20237,0,0,0-.415.4082,1.43039,1.43039,0,0,0-.16211.75293,1.152,1.152,0,0,0,.20117.73242.65245.65245,0,0,0,.53809.25293.85416.85416,0,0,0,.69336-.32422A1.48829,1.48829,0,0,0,695.38281,387.22656Z" transform="translate(-605.05029 -379.48486)"/><path class="cls-1" d="M703.83887,384.56836a3.24284,3.24284,0,0,1,.81738-1.31641,1.67131,1.67131,0,0,1,1.14063-.42139.87442.87442,0,0,1,.11035.00635.61317.61317,0,0,0,.09766.00684,3.66157,3.66157,0,0,0-.05859.415c-.0127.147-.01953.31982-.01953.51855v.63525a1.75593,1.75593,0,0,0,.0127.2207l-.11621.10352a1.42406,1.42406,0,0,0-.292-.12939,1.212,1.212,0,0,0-.37012-.05225,1.16351,1.16351,0,0,0-.91992.38281,1.31574,1.31574,0,0,0-.33789.90088v.51855q0,.79248.01953,1.49219c.01367.4668.041.916.085,1.34863a2.81147,2.81147,0,0,0-.42187-.02637h-1.0957a3.01988,3.01988,0,0,0-.42773.02637q.06445-.64893.084-1.34863.019-.7002.01953-1.49219v-.51855q0-.791-.01953-1.48437-.019-.6936-.084-1.394c.14648.01709.2959.03223.44727.04541.15137.0127.2998.01953.44727.01953.14648,0,.2959-.00684.44727-.01953.15137-.01318.30078-.02832.44727-.04541l-.03906,1.582Z" transform="translate(-605.05029 -379.48486)"/><path class="cls-1" d="M712.06055,383.93311a2.75742,2.75742,0,0,1,.84863-.84326,2.08035,2.08035,0,0,1,1.10938-.29785,1.62493,1.62493,0,0,1,1.00488.31738,2.0421,2.0421,0,0,1,.6543.91455,2.91425,2.91425,0,0,1,.9082-.91455,2.07782,2.07782,0,0,1,1.10254-.31738,1.9436,1.9436,0,0,1,1.49707.564,2.61888,2.61888,0,0,1,.52539,1.82178q0,.66211-.02539,1.167c-.01758.33691-.02637.6748-.02637,1.01172q0,.41455.01953.90137c.0127.32422.02832.6377.04492.94043a2.85112,2.85112,0,0,0-.42773-.02637H718.207a2.85112,2.85112,0,0,0-.42773.02637,15.7407,15.7407,0,0,0,.11621-1.58887q.02637-.91406.02637-2.09473a2.09211,2.09211,0,0,0-.27246-1.19922.88551.88551,0,0,0-.76562-.38232.86215.86215,0,0,0-.51172.14258,1.01188,1.01188,0,0,0-.31836.36963,1.59235,1.59235,0,0,0-.15527.48633,3.39854,3.39854,0,0,0-.03906.49219v.93359q0,.79248.01953,1.49219.019.7002.085,1.34863a2.81147,2.81147,0,0,0-.42187-.02637h-1.0957a3.01987,3.01987,0,0,0-.42773.02637q.06445-.64893.084-1.34863.019-.7002.01953-1.49219v-.791a2.991,2.991,0,0,0-.19434-1.20557.73526.73526,0,0,0-.73926-.42773.90687.90687,0,0,0-.85645.50537,2.99537,2.99537,0,0,0-.27148,1.40039v.51855q0,.79248.01855,1.49219c.01367.4668.041.916.085,1.34863a2.80242,2.80242,0,0,0-.42187-.02637h-1.0957a3.01988,3.01988,0,0,0-.42773.02637q.06445-.64893.084-1.34863.02051-.7002.01953-1.49219v-.51855q0-.791-.01953-1.48437-.019-.6936-.084-1.394.23291.02563.46.04541c.15137.0127.30469.01953.46094.01953.15527,0,.30859-.00684.46-.01953q.22705-.01978.48633-.04541l-.05176.97266Z" transform="translate(-605.05029 -379.48486)"/><path class="cls-1" d="M731.498,383.88086q0-1.07593-.02539-1.9126-.02637-.83643-.07812-1.6792c.14746.01758.30664.03223.47949.04541.17285.0127.36816.01953.584.01953q.4541,0,.94043-.03271.48633-.03223.95313-.03223a5.947,5.947,0,0,1,1.43945.13623,2.00585,2.00585,0,0,1,.81641.39551,2.14616,2.14616,0,0,1,.60938.752,2.33454,2.33454,0,0,1,.19531.99854,3.00624,3.00624,0,0,1-.24707,1.271,2.20448,2.20448,0,0,1-.69336.8623,3.013,3.013,0,0,1-1.05664.48584,5.363,5.363,0,0,1-1.33594.15625H733.418q0,.97266.01953,1.93848.019.9668.084,1.91309a4.067,4.067,0,0,0-.47949-.02637h-1.168a4.055,4.055,0,0,0-.47949.02637q.05127-.8042.07813-1.64062.0249-.83643.02539-1.91309Zm3.86426-1.10205a2.71022,2.71022,0,0,0-.10937-.83008,1.44131,1.44131,0,0,0-.29883-.53809,1.11247,1.11247,0,0,0-.44043-.2915,1.54432,1.54432,0,0,0-.52539-.09082h-.42773a.498.498,0,0,0-.11719.0127q-.01318.93384-.01953,1.835-.00586.90161-.00586,1.80908a3.569,3.569,0,0,0,.667-.06494,1.58406,1.58406,0,0,0,.62891-.26562,1.4738,1.4738,0,0,0,.46777-.57715A2.33026,2.33026,0,0,0,735.3623,382.77881Z" transform="translate(-605.05029 -379.48486)"/><path class="cls-1" d="M743.46777,384.56836a3.24284,3.24284,0,0,1,.81738-1.31641,1.67131,1.67131,0,0,1,1.14063-.42139.87442.87442,0,0,1,.11035.00635.61317.61317,0,0,0,.09766.00684,3.66157,3.66157,0,0,0-.05859.415c-.0127.147-.01953.31982-.01953.51855v.63525a1.75591,1.75591,0,0,0,.0127.2207l-.11621.10352a1.42406,1.42406,0,0,0-.292-.12939,1.212,1.212,0,0,0-.37012-.05225,1.16351,1.16351,0,0,0-.91992.38281,1.31573,1.31573,0,0,0-.33789.90088v.51855q0,.79248.01953,1.49219c.01367.4668.041.916.085,1.34863a2.81147,2.81147,0,0,0-.42187-.02637h-1.0957a3.01988,3.01988,0,0,0-.42773.02637q.06445-.64893.084-1.34863.019-.7002.01953-1.49219v-.51855q0-.791-.01953-1.48437-.019-.6936-.084-1.394c.14648.01709.2959.03223.44727.04541.15137.0127.2998.01953.44727.01953.14648,0,.2959-.00684.44727-.01953.15137-.01318.30078-.02832.44727-.04541l-.03906,1.582Z" transform="translate(-605.05029 -379.48486)"/><path class="cls-1" d="M749.627,386.25391a3.99316,3.99316,0,0,1,.26563-1.51709,3.20909,3.20909,0,0,1,.707-1.08252,2.84549,2.84549,0,0,1,1.01855-.64844,3.38079,3.38079,0,0,1,1.18652-.21387,3.11986,3.11986,0,0,1,2.34668.85547,3.19611,3.19611,0,0,1,.83008,2.32129,4.12492,4.12492,0,0,1-.2334,1.42676,3.12685,3.12685,0,0,1-.65527,1.083,2.63347,2.63347,0,0,1-1.00488.667,3.59036,3.59036,0,0,1-1.2832.2207,4.30705,4.30705,0,0,1-1.14844-.15527,2.75741,2.75741,0,0,1-1.01758-.52539,2.68183,2.68183,0,0,1-.73242-.96582A3.44016,3.44016,0,0,1,749.627,386.25391Zm4.43555-.47949a4.39411,4.39411,0,0,0-.28613-1.77.9719.9719,0,0,0-.94629-.62891,1.04746,1.04746,0,0,0-.94043.7002,5.25383,5.25383,0,0,0-.34375,2.19189,7.24479,7.24479,0,0,0,.06543,1.01074,3.08806,3.08806,0,0,0,.21387.81055,1.384,1.384,0,0,0,.38867.53809.92685.92685,0,0,0,.60352.19434Q754.0625,388.82129,754.0625,385.77441Z" transform="translate(-605.05029 -379.48486)"/><path class="cls-1" d="M759.6123,392.18066a1.2313,1.2313,0,0,0,.752-.57129,2.297,2.297,0,0,0,.2207-1.10156v-4.66895q0-.791-.01953-1.48437-.019-.6936-.084-1.394.18164.02563.42773.04541c.16406.0127.3457.01953.54492.01953a5.75576,5.75576,0,0,0,.97266-.06494c-.04395.4668-.07129.93164-.085,1.394q-.019.6936-.01953,1.48438v3.917a3.929,3.929,0,0,1-.168,1.23145,2.16262,2.16262,0,0,1-.499.84277,2.37459,2.37459,0,0,1-.81055.53223,4.814,4.814,0,0,1-1.10254.28516Zm.81738-11.67139a1.017,1.017,0,1,1,.29785.72656A.98705.98705,0,0,1,760.42969,380.50928Z" transform="translate(-605.05029 -379.48486)"/><path class="cls-1" d="M768.84473,386.09863a4.349,4.349,0,0,0,.10449.97266,2.41015,2.41015,0,0,0,.31738.78418,1.5541,1.5541,0,0,0,.54492.51855,1.52828,1.52828,0,0,0,.77148.18848,2.41865,2.41865,0,0,0,1.59473-.584l.15625.11719-.28613.72559a2.5976,2.5976,0,0,1-.77734.39551,3.91181,3.91181,0,0,1-1.19336.14941,4.10235,4.10235,0,0,1-1.20605-.1748,2.56247,2.56247,0,0,1-1.00488-.57715,2.82156,2.82156,0,0,1-.6875-1.01758,3.88315,3.88315,0,0,1-.25293-1.47266,4.27378,4.27378,0,0,1,.22754-1.46484,2.87072,2.87072,0,0,1,.62891-1.0376,2.56877,2.56877,0,0,1,.95313-.62256,3.37692,3.37692,0,0,1,1.19922-.207,2.51555,2.51555,0,0,1,1.96484.752,3.06282,3.06282,0,0,1,.68066,2.127v.27246a.64169.64169,0,0,1-.0127.15527Zm1.99707-.584a5.00474,5.00474,0,0,0-.23926-1.55566.75037.75037,0,0,0-.71973-.5835.65243.65243,0,0,0-.48047.19434,1.41059,1.41059,0,0,0-.31055.499,3.26484,3.26484,0,0,0-.1748.6875,6.53334,6.53334,0,0,0-.07227.7583Z" transform="translate(-605.05029 -379.48486)"/><path class="cls-1" d="M781.22266,383.80957a1.12171,1.12171,0,0,0-.90137-.35645,1.25639,1.25639,0,0,0-1.167.70654,4.109,4.109,0,0,0-.38867,1.96436,2.88309,2.88309,0,0,0,.49219,1.80957,1.86933,1.86933,0,0,0,2.21777.44043,1.59482,1.59482,0,0,0,.55762-.4209l.15527.12988a2.81746,2.81746,0,0,0-.15527.376c-.043.12891-.08691.25879-.12988.38867a2.46058,2.46058,0,0,1-.71973.36914,3.17673,3.17673,0,0,1-1.03027.14941,4.12513,4.12513,0,0,1-1.5957-.27246,2.7132,2.7132,0,0,1-1.04395-.73926,2.80141,2.80141,0,0,1-.56348-1.05664,4.26925,4.26925,0,0,1-.16895-1.18652,3.57658,3.57658,0,0,1,.24023-1.32275,2.98928,2.98928,0,0,1,.68652-1.05029,3.23175,3.23175,0,0,1,1.083-.69385,3.79544,3.79544,0,0,1,1.41406-.25244,4.04211,4.04211,0,0,1,1.251.16846,5.09805,5.09805,0,0,1,.97949.44092,3.62409,3.62409,0,0,0-.292.63525,4.708,4.708,0,0,0-.20117.71338h-.31152A1.94157,1.94157,0,0,0,781.22266,383.80957Z" transform="translate(-605.05029 -379.48486)"/><path class="cls-1" d="M790.00879,383.37549a1.36144,1.36144,0,0,0,.03906.32422l-1.14062-.02637q-.02637.29883-.0459.6875-.019.38892-.02539.7915c-.00488.26758-.00879.52734-.01367.77734q-.00586.37646-.00586.63574,0,.67383.03223,1.08887a2.61349,2.61349,0,0,0,.11035.63574.51172.51172,0,0,0,.21973.29785.74691.74691,0,0,0,.36328.07813,1.48965,1.48965,0,0,0,.36328-.03223,1.033,1.033,0,0,0,.2334-.09766v.53223a3.6367,3.6367,0,0,1-.64844.207,3.35523,3.35523,0,0,1-.76465.09082q-1.64795,0-1.64746-1.9707,0-.37646.01367-.84961.01172-.47314.03223-.97266.019-.49951.03223-.98535.01318-.48633.0127-.90137l-.90723.01318a1.36145,1.36145,0,0,0,.03906-.32422,1.84277,1.84277,0,0,0-.03906-.3501l.90723.03857q0-.40137-.0127-.752-.01318-.3501-.03906-.84277.4541-.18164.89453-.38281.44092-.20068.88184-.42139l.12988.09082c-.01758.13818-.03223.30029-.04492.48633q-.02051.27905-.03906.5835-.019.30469-.02637.62256-.00586.31787-.00586.603l1.14063-.02588A1.84276,1.84276,0,0,0,790.00879,383.37549Z" transform="translate(-605.05029 -379.48486)"/></svg>