<svg id="Layer_1" data-name="Layer 1" xmlns="http://www.w3.org/2000/svg" viewBox="0 0 884.95117 458.80893"><defs><style>.cls-1{fill:#52482d;}.cls-2{fill:#870808;}.cls-2,.cls-3{fill-rule:evenodd;}.cls-3{fill:#025b02;}</style></defs><title>brand</title><path class="cls-1" d="M607.104,421.499a3.43277,3.43277,0,0,0-2.439.87793,2.83787,2.83787,0,0,0-.21143,4.01563,7.7274,7.7274,0,0,0,1.8374,1.38184q1.10449.61816,2.37354,1.1875a12.39066,12.39066,0,0,1,2.374,1.39746,7.27061,7.27061,0,0,1,1.83691,2.0166,5.71321,5.71321,0,0,1,.73193,3.04,7.067,7.067,0,0,1-.61816,2.97559,6.5546,6.5546,0,0,1-1.75586,2.30859,7.87882,7.87882,0,0,1-2.71533,1.46289,11.55925,11.55925,0,0,1-3.52783.50391,12.09181,12.09181,0,0,1-3.13818-.373,6.04029,6.04029,0,0,1-2.09717-.92676q.32446-1.13818.55273-2.08105.22705-.94336.39014-2.04883h.61816a4.25619,4.25619,0,0,0,.48779,1.34961,4.317,4.317,0,0,0,.91016,1.12109,4.00407,4.00407,0,0,0,1.3335.76465,5.22707,5.22707,0,0,0,1.75586.27637,3.801,3.801,0,0,0,2.87744-.97559,3.27725,3.27725,0,0,0,.92676-2.34082,2.86953,2.86953,0,0,0-.71533-2.0166,7.128,7.128,0,0,0-1.78809-1.38184q-1.07373-.60205-2.34131-1.1709a11.95658,11.95658,0,0,1-2.34131-1.38184,7.02719,7.02719,0,0,1-1.78857-2,5.81549,5.81549,0,0,1-.71533-3.04,7.04853,7.04853,0,0,1,.60156-2.99121,6.4116,6.4116,0,0,1,1.60938-2.17871,6.97731,6.97731,0,0,1,2.3252-1.334,8.46907,8.46907,0,0,1,2.78027-.45508,10.0917,10.0917,0,0,1,3.07275.42285,7.10024,7.10024,0,0,1,2.25977,1.1709q-.29224.74854-.50391,1.44727t-.53662,1.77148h-.4873A3.89387,3.89387,0,0,0,607.104,421.499Z" transform="translate(-238.9502 -145.10611)"/><path class="cls-1" d="M618.875,428.91309q0-2.69971-.06543-4.79687-.06519-2.09766-.19482-4.21094c.36816.04395.769.08105,1.20313.11426q.64966.04834,1.46338.04883,1.13745,0,2.35742-.082,1.21948-.08057,2.39014-.08105a14.90616,14.90616,0,0,1,3.60938.3418,5.04034,5.04034,0,0,1,2.04834.99121,5.403,5.403,0,0,1,1.52832,1.88672,5.86026,5.86026,0,0,1,.48779,2.50391,7.53221,7.53221,0,0,1-.61768,3.18652,5.52264,5.52264,0,0,1-1.73975,2.16211,7.55914,7.55914,0,0,1-2.65039,1.21973,13.54269,13.54269,0,0,1-3.34912.38965h-1.6582q0,2.439.04883,4.86133.04834,2.42285.21094,4.79688a10.20148,10.20148,0,0,0-1.20312-.06543h-2.92627a10.18962,10.18962,0,0,0-1.20312.06543q.12964-2.01709.19482-4.11426.06519-2.09619.06543-4.7959Zm9.68994-2.76465a6.7784,6.7784,0,0,0-.27637-2.08105,3.58572,3.58572,0,0,0-.748-1.34961,2.80091,2.80091,0,0,0-1.10547-.73145,3.87862,3.87862,0,0,0-1.31689-.22754h-1.07324a1.26748,1.26748,0,0,0-.29248.03223q-.033,2.34229-.04883,4.60156-.01685,2.26025-.01611,4.53613a9.02541,9.02541,0,0,0,1.67432-.16211,3.99692,3.99692,0,0,0,1.57715-.667,3.68117,3.68117,0,0,0,1.1709-1.44727A5.80909,5.80909,0,0,0,628.56494,426.14844Z" transform="translate(-238.9502 -145.10611)"/><path class="cls-1" d="M638.35254,424.11621q-.06519-2.09766-.19482-4.21094,1.46338.03369,2.894.09766,1.43042.06592,2.894.06543,2.406,0,4.27588-.04883,1.86914-.0498,2.52-.11426a5.81579,5.81579,0,0,0-.12988,1.36621,7.87518,7.87518,0,0,0,.03223.8125q.03223.293.09766.65039-.94336-.06445-2.06494-.12988-1.12134-.06445-2.17871-.12988-1.05688-.06592-1.90186-.09766-.84595-.03223-1.20312-.0332-.13037,1.79-.14648,3.54492-.01685,1.75635-.01611,3.54395,2.113-.03076,3.8208-.09766,1.70654-.06445,3.56055-.16211c-.06494.36914-.10889.65039-.13037.8457a5.6536,5.6536,0,0,0-.03223.61719,3.0723,3.0723,0,0,0,.04883.53711q.04834.27686.11377.79688-3.70679-.293-7.38135-.293,0,1.0415-.0166,2.08105-.01685,1.0415-.01611,2.08105,0,2.11377.09766,4.06445,1.853,0,3.707-.09766,1.853-.09668,3.73926-.3252c-.04346.23926-.07617.45508-.09766.65039a10.27084,10.27084,0,0,0,0,1.626,2.40518,2.40518,0,0,0,.09766.48828q-.87817-.03369-2.16211-.04883-1.2854-.01758-3.52832-.0166h-5.15381c-.48779,0-.85693.00488-1.106.0166-.249.01074-.46045.02637-.63379.04883q.12964-2.01709.19482-4.11426.06519-2.09619.06543-4.7959v-4.42187Q638.418,426.21338,638.35254,424.11621Z" transform="translate(-238.9502 -145.10611)"/><path class="cls-1" d="M673.56885,439.95215a7.886,7.886,0,0,0-.26025,1.38184,14.63308,14.63308,0,0,1-6.63379,1.333,14.97511,14.97511,0,0,1-5.05615-.7959,10.70432,10.70432,0,0,1-3.772-2.24414,9.64494,9.64494,0,0,1-2.35742-3.43066,11.19741,11.19741,0,0,1-.813-4.292,13.99225,13.99225,0,0,1,1.05664-5.73926,10.48409,10.48409,0,0,1,2.8291-3.83691,11.24813,11.24813,0,0,1,4.11328-2.16211,17.41879,17.41879,0,0,1,4.91016-.68359,13.092,13.092,0,0,1,1.78857.13086q.94263.12891,1.8208.34082a15.24813,15.24813,0,0,1,1.6748.50391,8.40727,8.40727,0,0,1,1.34912.61816,10.20222,10.20222,0,0,0-.50391,1.6416,12.42626,12.42626,0,0,0-.24365,1.6748h-.45557a8.03145,8.03145,0,0,0-2.53613-2.22754,6.6309,6.6309,0,0,0-3.05664-.666,6.41194,6.41194,0,0,0-2.61768.585,7.04082,7.04082,0,0,0-2.39014,1.78809,9.20216,9.20216,0,0,0-1.73926,3.07324,13.34516,13.34516,0,0,0-.667,4.47168,11.90965,11.90965,0,0,0,.68311,4.27539,8.44929,8.44929,0,0,0,1.772,2.89453,6.72313,6.72313,0,0,0,2.47168,1.6416,7.83949,7.83949,0,0,0,2.77979.52051,7.41368,7.41368,0,0,0,1.59375-.17871,10.28055,10.28055,0,0,0,1.59326-.48828,8.25064,8.25064,0,0,0,1.47949-.76367,6.67776,6.67776,0,0,0,1.21924-1.00781l.42285.25977Q673.76318,439.25293,673.56885,439.95215Z" transform="translate(-238.9502 -145.10611)"/><path class="cls-1" d="M679.64893,424.11621q-.06519-2.09766-.19482-4.21094c.36816.04395.769.08105,1.20313.11426q.64966.04834,1.46289.04883.813,0,1.46338-.04883c.43408-.0332.83447-.07031,1.20361-.11426q-.13184,2.11377-.19531,4.21094-.06592,2.09766-.06543,4.79688V433.335q0,2.69971.06543,4.7959.06445,2.09766.19531,4.11426a10.21,10.21,0,0,0-1.20361-.06543h-2.92627a10.18962,10.18962,0,0,0-1.20312.06543q.12891-2.01709.19482-4.11426.06519-2.09619.06494-4.7959v-4.42187Q679.71387,426.21338,679.64893,424.11621Z" transform="translate(-238.9502 -145.10611)"/><path class="cls-1" d="M710.21484,442.24512c-.51953-.04395-1.01367-.06543-1.47852-.06543h-2.76465q-.69873,0-1.38184.06543-.52148-1.59375-1.07324-3.252-.55225-1.6582-1.1709-3.31738-1.04-.03076-2.08105-.04785-1.0415-.01611-2.08105-.0166c-.56445,0-1.127.00586-1.69141.0166q-.84521.01611-1.68945.04785-.65186,1.65967-1.20312,3.31738-.55371,1.6582-1.00879,3.252a4.58668,4.58668,0,0,0-.76465-.06543h-1.54395a5.91951,5.91951,0,0,0-.8457.06543q.39111-.84521,1.04-2.3418.65039-1.49561,1.43164-3.38184.7793-1.88525,1.67383-4.04785.895-2.16211,1.78906-4.374.89355-2.21045,1.75586-4.35742.86133-2.146,1.57715-3.999c.21582.043.42285.08105.61816.11328a3.93121,3.93121,0,0,0,1.23535,0c.19434-.03223.40137-.07031.61816-.11328q1.04,2.76416,2.22656,5.918t2.39063,6.19434q1.20264,3.041,2.3418,5.77148Q709.27148,440.35889,710.21484,442.24512ZM698.7041,426.01855q-.84521,1.95117-1.59277,3.85352-.75,1.90137-1.46387,3.88574h5.9502q-.71484-1.9834-1.41406-3.88574Q699.4834,427.96924,698.7041,426.01855Z" transform="translate(-238.9502 -145.10611)"/><path class="cls-1" d="M714.96289,424.11621q-.06738-2.09766-.19531-4.21094c.36816.04395.76953.08105,1.20313.11426q.65039.04834,1.46289.04883.81152,0,1.46289-.04883c.43359-.0332.834-.07031,1.20313-.11426q-.12891,2.11377-.19531,4.21094-.06445,2.09766-.06445,4.79688V433.335q0,1.853.01563,3.57715.01758,1.72412.04883,2.99121,1.85449,0,3.707-.09766,1.85449-.09668,3.74023-.3252c-.043.23926-.07617.45508-.09766.65039a9.96973,9.96973,0,0,0,0,1.626,2.4391,2.4391,0,0,0,.09766.48828q-.87891-.03369-2.16211-.04883-1.28613-.01758-3.5293-.0166h-5.15332c-.4873,0-.85645.00488-1.10547.0166-.249.01074-.46094.02637-.63379.04883q.12891-2.01709.19531-4.11426.06445-2.09619.06445-4.7959v-4.42187Q715.02734,426.21338,714.96289,424.11621Z" transform="translate(-238.9502 -145.10611)"/><path class="cls-1" d="M733.57813,423.48242a8.22,8.22,0,0,0-.08105-1.13867q-.48779,0-1.20312.0332-.71631.03223-1.52832.08105-.813.04834-1.6582.12988-.84668.082-1.56152.17871.06445-.35742.11426-.71484a5.26421,5.26421,0,0,0,0-1.43066q-.0498-.35742-.11426-.71582,1.106.03369,2,.06543.89355.03223,1.82129.04883.92578.01611,2.01563.03223t2.61816.0166q1.52783,0,2.61719-.0166,1.08984-.01611,2-.03223.90967-.01611,1.77246-.04883.85986-.03223,1.86914-.06543c-.04395.23926-.08105.47754-.11328.71582a5.26421,5.26421,0,0,0,0,1.43066c.03223.23828.06934.47656.11328.71484q-.65039-.09668-1.46289-.17871-.813-.08057-1.60937-.12988-.79834-.04834-1.5127-.08105-.71484-.03223-1.20312-.0332a3.47291,3.47291,0,0,0-.04883.45605c-.01074.19434-.01562.42285-.01562.68262V433.335q0,2.69971.06445,4.7959.06445,2.09766.19531,4.11426a10.20742,10.20742,0,0,0-1.20312-.06543h-2.92676a10.19555,10.19555,0,0,0-1.20312.06543q.13037-2.01709.19531-4.11426.06445-2.09619.06543-4.7959v-8.12891Q733.59473,424.2627,733.57813,423.48242Z" transform="translate(-238.9502 -145.10611)"/><path class="cls-1" d="M759.18555,427.53027q.65039-1.18652,1.26855-2.4873.6167-1.29932,1.20313-2.61719.58447-1.31689,1.1377-2.52051c.23828.04395.48242.08105.73145.11426a6.004,6.004,0,0,0,1.52832,0c.249-.0332.51465-.07031.79688-.11426q-.55371.91113-1.38184,2.39063-.8291,1.47949-1.77246,3.20215-.94336,1.72412-1.90234,3.52832-.95947,1.80469-1.73926,3.333,0,.78076-.0332,1.57715-.03223.79688-.03223,1.60938,0,1.6582.04883,3.28418.04834,1.62744.27637,3.415-.68262-.06592-1.38184-.06543h-2.76367q-.7002,0-1.38184.06543.06445-1.49561.22754-3.05664a30.3887,30.3887,0,0,0,.16211-3.12207q0-.74707-.0166-1.51172-.01611-.76465-.04785-1.5127-.81445-1.62451-1.87012-3.625-1.05762-1.99951-2.04883-3.88574-.9917-1.88672-1.82031-3.415-.83057-1.52783-1.21973-2.21094c.498.04395.98633.08105,1.46289.11426q.71484.04834,1.46387.04883.74707,0,1.44629-.04883c.46582-.0332.94824-.07031,1.44727-.11426q.55225,1.2041,1.252,2.667.69873,1.46338,1.38184,2.86133.68262,1.39746,1.26855,2.53613.58447,1.13818.94238,1.69043h.06543A24.25223,24.25223,0,0,0,759.18555,427.53027Z" transform="translate(-238.9502 -145.10611)"/><path class="cls-1" d="M250.08691,581.75391a2.80888,2.80888,0,0,0-2.25977-.89355,3.14887,3.14887,0,0,0-2.92676,1.77148,10.32075,10.32075,0,0,0-.9751,4.92676,7.2184,7.2184,0,0,0,1.23535,4.53613,4.68925,4.68925,0,0,0,5.56055,1.10547,4.0006,4.0006,0,0,0,1.39844-1.05664l.39014.3252a7.12459,7.12459,0,0,0-.39014.94336q-.16333.48779-.3252.97559a6.26108,6.26108,0,0,1-1.80469.92676,8.02337,8.02337,0,0,1-2.58545.373,10.346,10.346,0,0,1-3.99951-.68262,6.814,6.814,0,0,1-2.61768-1.85352,7.03861,7.03861,0,0,1-1.41455-2.64941,10.78768,10.78768,0,0,1-.42236-2.97559,8.97478,8.97478,0,0,1,.60156-3.31738,7.5112,7.5112,0,0,1,1.72314-2.63379,8.07144,8.07144,0,0,1,2.71533-1.73926,9.50558,9.50558,0,0,1,3.54443-.63379,10.14539,10.14539,0,0,1,3.1377.42188,12.78628,12.78628,0,0,1,2.45508,1.10645,9.21515,9.21515,0,0,0-.73145,1.59277,11.82714,11.82714,0,0,0-.50439,1.78906h-.78027A4.87312,4.87312,0,0,0,250.08691,581.75391Z" transform="translate(-238.9502 -145.10611)"/><path class="cls-1" d="M267.01221,592.92383a6.426,6.426,0,0,1-2.12988,2.06543,5.49139,5.49139,0,0,1-2.78027.69824,4.97633,4.97633,0,0,1-3.75586-1.36523q-1.31689-1.36523-1.31689-4.51953,0-1.65967.06494-2.92676.06519-1.26855.06543-2.53613,0-1.0415-.04883-2.26074-.04907-1.21875-.11377-2.45508.42188.06592,1.07275.11426.65039.04834,1.36572.04883.71484,0,1.36572-.04883.65039-.04834,1.07324-.11426-.22778,1.75635-.293,4.06543-.06519,2.30859-.06494,5.26758a5.15065,5.15065,0,0,0,.69922,3.00781,2.47164,2.47164,0,0,0,4.11328-.30859,7.48127,7.48127,0,0,0,.68311-3.5127v-1.2998q0-1.9834-.04883-3.72363-.04907-1.73877-.21143-3.49609a14.37246,14.37246,0,0,0,2.439.16309q.74707,0,1.36572-.04883.61743-.04834,1.07275-.11426-.1626,1.75635-.21143,3.49609-.04834,1.74023-.04834,3.72363v1.2998q0,1.98486.04834,3.74023.04907,1.75488.21143,3.38184a10.31182,10.31182,0,0,0-1.1543-.06543H268.1665a12.11272,12.11272,0,0,0-1.21924.06543l.12988-2.3418Z" transform="translate(-238.9502 -145.10611)"/><path class="cls-1" d="M277.09277,576.14551q-.06592-2.666-.19531-5.39844c.28174.04395.63916.08105,1.07324.11426q.64966.04834,1.36572.04883.71484,0,1.36572-.04883c.43311-.0332.791-.07031,1.07275-.11426q-.13037,2.73193-.19482,5.39844-.06592,2.666-.06494,5.85254v2.11426q0,3.186.06494,5.85254.06445,2.66748.19482,5.30078a7.18623,7.18623,0,0,0-1.07275-.06543H277.9707a7.18432,7.18432,0,0,0-1.07324.06543q.12964-2.63379.19531-5.30078.06445-2.666.06494-5.85254V581.998Q277.15771,578.812,277.09277,576.14551Z" transform="translate(-238.9502 -145.10611)"/><path class="cls-1" d="M295.49707,580.665a3.336,3.336,0,0,0,.09766.8125l-2.86133-.06445q-.06592.74854-.11377,1.72363-.04907.97559-.06543,1.9834-.01611,1.00781-.03223,1.95117-.01685.94336-.01611,1.59277,0,1.69189.08105,2.73145a6.55793,6.55793,0,0,0,.27637,1.59375,1.29212,1.29212,0,0,0,.55273.748,1.88961,1.88961,0,0,0,.91064.19434,3.68471,3.68471,0,0,0,.91064-.08105,2.61511,2.61511,0,0,0,.585-.24414v1.334a9.039,9.039,0,0,1-1.626.51953,8.44086,8.44086,0,0,1-1.91846.22754q-4.12939,0-4.12939-4.94238,0-.94189.03223-2.12988.03223-1.18652.08154-2.43848.04834-1.251.08105-2.47168.03223-1.21875.03271-2.25977l-2.27637.03223a3.336,3.336,0,0,0,.09766-.8125,4.53224,4.53224,0,0,0-.09766-.87793l2.27637.09766q0-1.00781-.03271-1.88574-.03223-.87891-.09717-2.11426,1.13745-.4541,2.24365-.959,1.10449-.50391,2.21094-1.05664l.3252.22754q-.06519.52-.11377,1.21973-.04907.69873-.09766,1.46289-.04834.76465-.06494,1.56055-.01685.79688-.01611,1.5127l2.86133-.06543A4.53224,4.53224,0,0,0,295.49707,580.665Z" transform="translate(-238.9502 -145.10611)"/><path class="cls-1" d="M299.562,573.47852a2.55333,2.55333,0,1,1,.74756,1.82129A2.47675,2.47675,0,0,1,299.562,573.47852Zm.39014,13.36523q0-1.9834-.04883-3.72363-.04907-1.73877-.21143-3.49609.45483.06592,1.07324.11426.61743.04834,1.36572.04883a14.378,14.378,0,0,0,2.43848-.16309q-.1626,1.75635-.21143,3.49609-.04834,1.74023-.04834,3.72363v1.2998q0,1.98486.04834,3.74023.04907,1.75488.21143,3.38184a7.04683,7.04683,0,0,0-1.05664-.06543h-2.74756a7.6006,7.6006,0,0,0-1.07324.06543q.1626-1.626.21143-3.38184.04907-1.75635.04883-3.74023Z" transform="translate(-238.9502 -145.10611)"/><path class="cls-1" d="M318.69824,585.31543q.95874-2.83008,1.90234-5.69141.35742.06592.68311.11426a4.356,4.356,0,0,0,1.30078,0q.32446-.04834.71533-.11426-.52075,1.26855-1.26855,2.94336-.7478,1.67432-1.57666,3.6748-.82983,1.99951-1.69092,4.292-.86206,2.29248-1.60986,4.73145a6.12842,6.12842,0,0,0-.87793-.06543H314.52a6.11813,6.11813,0,0,0-.87793.06543q-.65112-1.85449-1.44727-4.09766-.79687-2.24414-1.57666-4.40625-.78076-2.16211-1.46338-4.04785-.68335-1.88525-1.13818-3.08984.68262.06592,1.31689.11426t1.252.04883q.61743,0,1.21924-.04883.60132-.04834,1.21973-.11426.87744,2.8623,1.772,5.69141.89429,2.82861,1.8374,5.69043h.06494Q317.73877,588.145,318.69824,585.31543Z" transform="translate(-238.9502 -145.10611)"/><path class="cls-1" d="M326.35693,581.47754a10.434,10.434,0,0,1,2.94238-1.69043,8.95952,8.95952,0,0,1,3.13818-.585,9.23532,9.23532,0,0,1,2.39014.292,5.12679,5.12679,0,0,1,1.88574.92676,4.20778,4.20778,0,0,1,1.23584,1.64258,6.09559,6.09559,0,0,1,.439,2.43848q0,2.08154-.04883,3.85352-.04907,1.77246-.04883,3.52832a5.075,5.075,0,0,0,.11377,1.21875,1.42763,1.42763,0,0,0,.34131.667,1.0934,1.0934,0,0,0,.60156.293,5.11876,5.11876,0,0,0,.86182.06445v.78027q-.94336.39111-1.59326.58594a4.85477,4.85477,0,0,1-1.39844.19434,3.06952,3.06952,0,0,1-1.95068-.585,3.59194,3.59194,0,0,1-1.13818-1.69043,6.15986,6.15986,0,0,1-1.73975,1.6582,4.635,4.635,0,0,1-2.48779.61719,6.09789,6.09789,0,0,1-2.11328-.3252,3.66587,3.66587,0,0,1-2.27637-2.292,4.75169,4.75169,0,0,1-.26025-1.54492,4.59605,4.59605,0,0,1,.3418-1.85352,3.74168,3.74168,0,0,1,.9751-1.333,5.67505,5.67505,0,0,1,1.51221-.92676,12.27715,12.27715,0,0,1,1.9834-.63379q1.366-.3252,2.1626-.56934a5.24808,5.24808,0,0,0,1.187-.4873,1.17674,1.17674,0,0,0,.50391-.53711,1.97708,1.97708,0,0,0,.11377-.71484,2.72606,2.72606,0,0,0-.8291-2,3.09818,3.09818,0,0,0-2.29248-.8291,4.6766,4.6766,0,0,0-1.13818.14648,5.82725,5.82725,0,0,0-1.12207.40625,7.02235,7.02235,0,0,0-.9751.56934,2.42458,2.42458,0,0,0-.667.666h-.22754Zm7.70654,8.84473q0-1.39746.01611-2.12988.01611-.731.01611-1.28418a7.45288,7.45288,0,0,1-1.44678.63379,6.8692,6.8692,0,0,0-1.39844.61816,3.03832,3.03832,0,0,0-1.04053,1.02441,3.58047,3.58047,0,0,0-.40625,1.88574,2.89669,2.89669,0,0,0,.50391,1.83789,1.63726,1.63726,0,0,0,1.34961.63379,2.13945,2.13945,0,0,0,1.73926-.81348A3.72279,3.72279,0,0,0,334.06348,590.32227Z" transform="translate(-238.9502 -145.10611)"/><path class="cls-1" d="M352.37012,580.665a3.336,3.336,0,0,0,.09766.8125l-2.86133-.06445q-.06592.74854-.11377,1.72363-.04907.97559-.06543,1.9834-.01611,1.00781-.03223,1.95117-.01685.94336-.01611,1.59277,0,1.69189.08105,2.73145a6.55794,6.55794,0,0,0,.27637,1.59375,1.29212,1.29212,0,0,0,.55273.748,1.88961,1.88961,0,0,0,.91064.19434,3.68471,3.68471,0,0,0,.91064-.08105,2.61511,2.61511,0,0,0,.585-.24414v1.334a9.039,9.039,0,0,1-1.626.51953,8.44086,8.44086,0,0,1-1.91846.22754q-4.12939,0-4.12939-4.94238,0-.94189.03223-2.12988.03223-1.18652.08154-2.43848.04834-1.251.08105-2.47168.03223-1.21875.03271-2.25977l-2.27637.03223a3.336,3.336,0,0,0,.09766-.8125,4.53223,4.53223,0,0,0-.09766-.87793l2.27637.09766q0-1.00781-.03271-1.88574-.03223-.87891-.09717-2.11426,1.13745-.4541,2.24365-.959,1.10449-.50391,2.21094-1.05664l.3252.22754q-.06519.52-.11377,1.21973-.04907.69873-.09766,1.46289-.04834.76465-.06494,1.56055-.01685.79688-.01611,1.5127l2.86133-.06543A4.53224,4.53224,0,0,0,352.37012,580.665Z" transform="translate(-238.9502 -145.10611)"/><path class="cls-1" d="M360.36914,587.49316a10.9037,10.9037,0,0,0,.25977,2.43945,6.09952,6.09952,0,0,0,.79688,1.9668,3.901,3.901,0,0,0,1.36621,1.30078,3.8444,3.8444,0,0,0,1.93457.47168,6.07246,6.07246,0,0,0,3.999-1.46289l.39063.292-.71582,1.82129a6.59038,6.59038,0,0,1-1.95117.99219,9.86523,9.86523,0,0,1-2.99121.373,10.24524,10.24524,0,0,1-3.02441-.43848,6.43242,6.43242,0,0,1-2.51953-1.44727,7.07078,7.07078,0,0,1-1.72363-2.55273,9.7031,9.7031,0,0,1-.63379-3.69043,10.729,10.729,0,0,1,.56885-3.6748,7.23724,7.23724,0,0,1,1.57666-2.60059,6.44534,6.44534,0,0,1,2.39063-1.56152,8.4935,8.4935,0,0,1,3.00781-.51953,6.3055,6.3055,0,0,1,4.92578,1.88574,7.6688,7.6688,0,0,1,1.708,5.333v.68262a1.47924,1.47924,0,0,1-.0332.38965Zm5.00781-1.46289a12.6251,12.6251,0,0,0-.60156-3.90234,1.88235,1.88235,0,0,0-1.80469-1.46289,1.63331,1.63331,0,0,0-1.20312.4873,3.5172,3.5172,0,0,0-.78027,1.252,8.34769,8.34769,0,0,0-.43945,1.72363,16.29515,16.29515,0,0,0-.17871,1.90234Z" transform="translate(-238.9502 -145.10611)"/><path class="cls-1" d="M388.30078,584.1123q0,3.186.06543,5.85254.06445,2.66748.19531,5.30078a7.19336,7.19336,0,0,0-1.07324-.06543h-2.61816a4.96543,4.96543,0,0,0-.92676.06543,1.82793,1.82793,0,0,0,.06543-.42285q.03223-.35742.08105-.81348c.0332-.30273.05957-.585.08105-.84473.02148-.26074.0332-.42285.0332-.48828l-.06543-.06543a5.30769,5.30769,0,0,1-1.69043,2.26074,4.87769,4.87769,0,0,1-2.959.7959,5.864,5.864,0,0,1-2.8291-.63379,5.27142,5.27142,0,0,1-1.91895-1.77246,8.193,8.193,0,0,1-1.10547-2.666,14.39408,14.39408,0,0,1-.35742-3.28418,10.27864,10.27864,0,0,1,.4873-3.23535,8.48788,8.48788,0,0,1,1.333-2.56934,6.26057,6.26057,0,0,1,2-1.707,5.13467,5.13467,0,0,1,2.45508-.61719,5.04859,5.04859,0,0,1,2.61816.68262,4.41827,4.41827,0,0,1,1.707,1.72363h.06445q0-2.92676-.06445-5.51172-.06592-2.58545-.19531-5.34961c.28125.04395.63965.08105,1.07324.11426q.65039.04834,1.36523.04883.71484,0,1.36621-.04883c.43359-.0332.791-.07031,1.07324-.11426q-.13037,2.73193-.19531,5.39844-.06592,2.666-.06543,5.85254Zm-10.21,3.70605a14.49738,14.49738,0,0,0,.22754,2.79688,6.33415,6.33415,0,0,0,.61816,1.83691,2.65968,2.65968,0,0,0,.89355,1.00879,1.991,1.991,0,0,0,1.05664.30859,2.52215,2.52215,0,0,0,2.19531-1.51172,10.75543,10.75543,0,0,0,.86133-5.02441,9.04954,9.04954,0,0,0-.8125-4.40625,2.38837,2.38837,0,0,0-2.08105-1.38184,2.10611,2.10611,0,0,0-1.041.293,2.64469,2.64469,0,0,0-.94238,1.02441,7.03484,7.03484,0,0,0-.69922,1.9668A14.45129,14.45129,0,0,0,378.09082,587.81836Z" transform="translate(-238.9502 -145.10611)"/><path class="cls-1" d="M404.20215,573.47852a2.55414,2.55414,0,1,1,.748,1.82129A2.4753,2.4753,0,0,1,404.20215,573.47852Zm.38965,13.36523q0-1.9834-.04883-3.72363-.04834-1.73877-.21094-3.49609.45557.06592,1.07324.11426.6167.04834,1.36523.04883A14.38674,14.38674,0,0,0,409.21,579.624q-.16406,1.75635-.21191,3.49609-.04834,1.74023-.04883,3.72363v1.2998q0,1.98486.04883,3.74023.0498,1.75488.21191,3.38184a7.06038,7.06038,0,0,0-1.05664-.06543h-2.748a7.60545,7.60545,0,0,0-1.07324.06543q.1626-1.626.21094-3.38184.0498-1.75635.04883-3.74023Z" transform="translate(-238.9502 -145.10611)"/><path class="cls-1" d="M419.09473,582.06348a6.93324,6.93324,0,0,1,2.12988-2.11426,5.21189,5.21189,0,0,1,2.78027-.74707,4.87774,4.87774,0,0,1,3.75586,1.41406q1.31689,1.415,1.31641,4.56836,0,1.6582-.06445,2.92676-.06592,1.26855-.06543,2.53613,0,1.0415.04883,2.26074.04834,1.21875.11426,2.35742a7.19337,7.19337,0,0,0-1.07324-.06543h-2.73145a7.18432,7.18432,0,0,0-1.07324.06543,38.75177,38.75177,0,0,0,.293-3.9834q.06445-2.29248.06445-5.252a5.14691,5.14691,0,0,0-.69922-3.00781,2.47165,2.47165,0,0,0-4.11328.30859,7.48786,7.48786,0,0,0-.68262,3.5127v1.2998q0,1.98486.04883,3.74023.04834,1.75488.21094,3.38184a7.04232,7.04232,0,0,0-1.05664-.06543h-2.74707a7.59576,7.59576,0,0,0-1.07324.06543q.1626-1.626.21094-3.38184.0498-1.75635.04883-3.74023v-1.2998q0-1.9834-.04883-3.72363-.04834-1.73877-.21094-3.49609.58447.06592,1.1543.11426.56836.04834,1.1543.04883.58447,0,1.1543-.04883.56836-.04834,1.21973-.11426l-.13086,2.43945Z" transform="translate(-238.9502 -145.10611)"/><path class="cls-1" d="M452.97754,580.665a3.31227,3.31227,0,0,0,.09766.8125l-2.86133-.06445q-.06592.74854-.11426,1.72363-.04834.97559-.06445,1.9834-.01758,1.00781-.0332,1.95117-.01611.94336-.01562,1.59277,0,1.69189.08105,2.73145a6.55794,6.55794,0,0,0,.27637,1.59375,1.29414,1.29414,0,0,0,.55273.748,1.89021,1.89021,0,0,0,.91016.19434,3.68656,3.68656,0,0,0,.91113-.08105,2.61511,2.61511,0,0,0,.585-.24414v1.334a9.039,9.039,0,0,1-1.626.51953,8.44635,8.44635,0,0,1-1.918.22754q-4.13086,0-4.12988-4.94238,0-.94189.03223-2.12988.03223-1.18652.08105-2.43848.0498-1.251.082-2.47168.03223-1.21875.03223-2.25977l-2.27637.03223a3.31227,3.31227,0,0,0,.09766-.8125,4.49434,4.49434,0,0,0-.09766-.87793l2.27637.09766q0-1.00781-.03223-1.88574-.03369-.87891-.09766-2.11426,1.13818-.4541,2.24316-.959,1.106-.50391,2.21191-1.05664l.3252.22754q-.06592.52-.11426,1.21973-.04834.69873-.09766,1.46289-.04834.76465-.06543,1.56055-.01611.79688-.01562,1.5127l2.86133-.06543A4.49434,4.49434,0,0,0,452.97754,580.665Z" transform="translate(-238.9502 -145.10611)"/><path class="cls-1" d="M457.00977,576.14551q-.06592-2.666-.19531-5.39844c.28125.04395.63867.08105,1.07324.11426.43262.03223.88867.04883,1.36523.04883s.93164-.0166,1.36621-.04883c.43262-.0332.791-.07031,1.07227-.11426q-.13037,2.73193-.19434,5.39844-.06592,2.666-.06543,5.85254l.06543.06543a6.32665,6.32665,0,0,1,2.06445-2.11426,5.21189,5.21189,0,0,1,2.78027-.74707,4.87774,4.87774,0,0,1,3.75586,1.41406q1.31689,1.415,1.31641,4.56836,0,1.6582-.06445,2.92676-.06592,1.26855-.06543,2.53613,0,1.0415.04883,2.26074.04834,1.21875.11426,2.35742a7.19336,7.19336,0,0,0-1.07324-.06543h-2.73145a7.18432,7.18432,0,0,0-1.07324.06543,38.75177,38.75177,0,0,0,.293-3.9834q.06445-2.29248.06445-5.252a5.14691,5.14691,0,0,0-.69922-3.00781,2.47165,2.47165,0,0,0-4.11328.30859,7.48786,7.48786,0,0,0-.68262,3.5127v1.2998q0,.457.0166,1.31738.01611.86133.04883,1.88574c.02051.68262.04883,1.377.08105,2.08105q.04834,1.05762.11328,1.83789a7.1791,7.1791,0,0,0-1.07227-.06543H457.8877a7.17529,7.17529,0,0,0-1.07324.06543q.12891-2.63379.19531-5.30078.06445-2.666.06445-5.85254V581.998Q457.07422,578.812,457.00977,576.14551Z" transform="translate(-238.9502 -145.10611)"/><path class="cls-1" d="M480.51953,587.49316a10.9037,10.9037,0,0,0,.25977,2.43945,6.09952,6.09952,0,0,0,.79688,1.9668,3.901,3.901,0,0,0,1.36621,1.30078,3.8444,3.8444,0,0,0,1.93457.47168,6.07246,6.07246,0,0,0,3.999-1.46289l.39063.292-.71582,1.82129a6.59037,6.59037,0,0,1-1.95117.99219,9.86523,9.86523,0,0,1-2.99121.373,10.24524,10.24524,0,0,1-3.02441-.43848,6.43242,6.43242,0,0,1-2.51953-1.44727,7.07078,7.07078,0,0,1-1.72363-2.55273,9.69367,9.69367,0,0,1-.63379-3.69043,10.71666,10.71666,0,0,1,.56934-3.6748,7.23637,7.23637,0,0,1,1.57617-2.60059,6.44534,6.44534,0,0,1,2.39063-1.56152,8.4935,8.4935,0,0,1,3.00781-.51953,6.3055,6.3055,0,0,1,4.92578,1.88574,7.6688,7.6688,0,0,1,1.708,5.333v.68262a1.47923,1.47923,0,0,1-.0332.38965Zm5.00781-1.46289a12.6251,12.6251,0,0,0-.60156-3.90234,1.88235,1.88235,0,0,0-1.80469-1.46289,1.63331,1.63331,0,0,0-1.20312.4873,3.5172,3.5172,0,0,0-.78027,1.252,8.34769,8.34769,0,0,0-.43945,1.72363,16.29515,16.29515,0,0,0-.17871,1.90234Z" transform="translate(-238.9502 -145.10611)"/><path class="cls-1" d="M504.77832,576.14551q-.06592-2.666-.19531-5.39844c.28125.04395.63867.08105,1.07324.11426.43262.03223.88867.04883,1.36523.04883s.93164-.0166,1.36621-.04883c.43262-.0332.791-.07031,1.07227-.11426q-.13037,2.73193-.19434,5.39844-.06592,2.666-.06543,5.85254l.06543.06543a6.32665,6.32665,0,0,1,2.06445-2.11426,5.21189,5.21189,0,0,1,2.78027-.74707,4.87774,4.87774,0,0,1,3.75586,1.41406q1.31689,1.415,1.31641,4.56836,0,1.6582-.06445,2.92676-.06592,1.26855-.06543,2.53613,0,1.0415.04883,2.26074.04834,1.21875.11426,2.35742a7.19336,7.19336,0,0,0-1.07324-.06543h-2.73145a7.18432,7.18432,0,0,0-1.07324.06543,38.75177,38.75177,0,0,0,.293-3.9834q.06445-2.29248.06445-5.252a5.14691,5.14691,0,0,0-.69922-3.00781,2.47165,2.47165,0,0,0-4.11328.30859,7.48786,7.48786,0,0,0-.68262,3.5127v1.2998q0,.457.0166,1.31738.01611.86133.04883,1.88574c.02051.68262.04883,1.377.08105,2.08105q.04834,1.05762.11328,1.83789a7.1791,7.1791,0,0,0-1.07227-.06543h-2.73145a7.17529,7.17529,0,0,0-1.07324.06543q.12891-2.63379.19531-5.30078.06445-2.666.06445-5.85254V581.998Q504.84277,578.812,504.77832,576.14551Z" transform="translate(-238.9502 -145.10611)"/><path class="cls-1" d="M524.35254,573.47852a2.55414,2.55414,0,1,1,.748,1.82129A2.4753,2.4753,0,0,1,524.35254,573.47852Zm.38965,13.36523q0-1.9834-.04883-3.72363-.04834-1.73877-.21094-3.49609.45557.06592,1.07324.11426.6167.04834,1.36523.04883a14.38674,14.38674,0,0,0,2.43945-.16309q-.16406,1.75635-.21191,3.49609-.04834,1.74023-.04883,3.72363v1.2998q0,1.98486.04883,3.74023.0498,1.75488.21191,3.38184a7.06039,7.06039,0,0,0-1.05664-.06543h-2.748a7.60545,7.60545,0,0,0-1.07324.06543q.1626-1.626.21094-3.38184.0498-1.75635.04883-3.74023Z" transform="translate(-238.9502 -145.10611)"/><path class="cls-1" d="M545.68359,580.86035a4.226,4.226,0,0,1,1.28418,1.47949,4.50787,4.50787,0,0,1,.47168,2.12988,5.20572,5.20572,0,0,1-.45508,2.19434,4.96889,4.96889,0,0,1-1.28418,1.708,5.89989,5.89989,0,0,1-1.98437,1.10547,8.05025,8.05025,0,0,1-2.585.38965q-.35742,0-.69922-.01562-.34131-.01611-.76367-.0166a.822.822,0,0,0-.667.35742,1.29522,1.29522,0,0,0-.27637.81348,1.46734,1.46734,0,0,0,.60156,1.23535,3.303,3.303,0,0,0,1.90234.4873l2.40625.0332a6.70549,6.70549,0,0,1,4.01563,1.02441,3.75369,3.75369,0,0,1,1.28516,3.16992,6.21,6.21,0,0,1-.79687,3.26758,6.69048,6.69048,0,0,1-2.04883,2.14648,8.49759,8.49759,0,0,1-2.78027,1.18652,12.97873,12.97873,0,0,1-2.959.3584,8.25411,8.25411,0,0,1-4.76367-1.1875,3.88408,3.88408,0,0,1-.8457-5.65723,5.81452,5.81452,0,0,1,2.3252-1.5127v-.06445a2.99006,2.99006,0,0,1-1.34961-.89453,2.27511,2.27511,0,0,1-.50391-1.51172,3.248,3.248,0,0,1,.8291-2.08105,4.10611,4.10611,0,0,1,2.19531-1.36621v-.06445a5.61968,5.61968,0,0,1-3.05664-1.75684,5.03681,5.03681,0,0,1-1.10547-3.38086,4.73738,4.73738,0,0,1,.50391-2.21191,4.67347,4.67347,0,0,1,1.41406-1.6416,6.74558,6.74558,0,0,1,2.17871-1.02441,10.28991,10.28991,0,0,1,2.79688-.35742q.58447,0,1.20313.04883.6167.04834,1.20313.08105c.28125.02148.56934.03809.86133.04883q.43945.01611.959.01563.813,0,1.69141-.01562.87744-.01611,1.75586-.0166c-.02148.12988-.03809.25977-.04883.39063-.01074.12988-.0166.25977-.0166.38965s.00586.26074.0166.39063.02734.25977.04883.38965l-2.86133-.12988Zm-.52051,17.85156a3.22719,3.22719,0,0,0-.3252-1.54395,2.23129,2.23129,0,0,0-.92676-.92676,4.23388,4.23388,0,0,0-1.47949-.43945,15.49192,15.49192,0,0,0-1.9834-.11426,5.80209,5.80209,0,0,0-2.34082.3252,2.363,2.363,0,0,0-.8291.94336,4.196,4.196,0,0,0-.09766,3.52832,3.23678,3.23678,0,0,0,.92676,1.1543,4.31309,4.31309,0,0,0,1.34863.69922,5.39231,5.39231,0,0,0,1.64258.24414,4.38669,4.38669,0,0,0,1.69043-.30957,3.89406,3.89406,0,0,0,1.28516-.8457,3.61086,3.61086,0,0,0,.8125-1.23535A3.99878,3.99878,0,0,0,545.16309,598.71191Zm-4.32422-18.17676q-2.21191,0-2.21191,4.292a7.11911,7.11911,0,0,0,.19531,1.80469,3.88427,3.88427,0,0,0,.50391,1.18652,1.91137,1.91137,0,0,0,.68359.65039,1.62078,1.62078,0,0,0,.76367.19531,1.7047,1.7047,0,0,0,1.59375-.94238,7.0792,7.0792,0,0,0,.51953-3.1875,5.99,5.99,0,0,0-.585-3.10547A1.71533,1.71533,0,0,0,540.83887,580.53516Z" transform="translate(-238.9502 -145.10611)"/><path class="cls-1" d="M552.5459,576.14551q-.06592-2.666-.19531-5.39844c.28125.04395.63867.08105,1.07324.11426.43262.03223.88867.04883,1.36523.04883s.93164-.0166,1.36621-.04883c.43262-.0332.791-.07031,1.07227-.11426q-.13037,2.73193-.19434,5.39844-.06592,2.666-.06543,5.85254l.06543.06543a6.32665,6.32665,0,0,1,2.06445-2.11426,5.21189,5.21189,0,0,1,2.78027-.74707,4.87774,4.87774,0,0,1,3.75586,1.41406q1.31689,1.415,1.31641,4.56836,0,1.6582-.06445,2.92676-.06592,1.26855-.06543,2.53613,0,1.0415.04883,2.26074.04834,1.21875.11426,2.35742a7.19336,7.19336,0,0,0-1.07324-.06543h-2.73145a7.18432,7.18432,0,0,0-1.07324.06543,38.7518,38.7518,0,0,0,.293-3.9834q.06445-2.29248.06445-5.252a5.14691,5.14691,0,0,0-.69922-3.00781,2.47165,2.47165,0,0,0-4.11328.30859,7.48786,7.48786,0,0,0-.68262,3.5127v1.2998q0,.457.0166,1.31738.01611.86133.04883,1.88574c.02051.68262.04883,1.377.08105,2.08105q.04834,1.05762.11328,1.83789a7.1791,7.1791,0,0,0-1.07227-.06543h-2.73145a7.17529,7.17529,0,0,0-1.07324.06543q.12891-2.63379.19531-5.30078.06445-2.666.06445-5.85254V581.998Q552.61035,578.812,552.5459,576.14551Z" transform="translate(-238.9502 -145.10611)"/><path class="cls-1" d="M586.915,582.06348a6.93324,6.93324,0,0,1,2.12988-2.11426,5.2167,5.2167,0,0,1,2.78027-.74707,4.07368,4.07368,0,0,1,2.52051.7959,5.12265,5.12265,0,0,1,1.6416,2.293,7.30765,7.30765,0,0,1,2.27637-2.293,5.21047,5.21047,0,0,1,2.76367-.7959,4.87774,4.87774,0,0,1,3.75586,1.41406q1.31689,1.415,1.31738,4.56836,0,1.6582-.06543,2.92676-.06592,1.26855-.06543,2.53613,0,1.0415.04883,2.26074.0498,1.21875.11426,2.35742a7.19336,7.19336,0,0,0-1.07324-.06543h-2.73145a7.19336,7.19336,0,0,0-1.07324.06543,38.7518,38.7518,0,0,0,.293-3.9834q.06445-2.29248.06543-5.252a5.24209,5.24209,0,0,0-.68359-3.00781,2.2204,2.2204,0,0,0-1.918-.959,2.16451,2.16451,0,0,0-1.28418.35742,2.54674,2.54674,0,0,0-.79687.92676,3.9295,3.9295,0,0,0-.39062,1.21973,8.41418,8.41418,0,0,0-.09766,1.23535v2.34082q0,1.98486.04883,3.74023.0498,1.75488.21191,3.38184a7.06038,7.06038,0,0,0-1.05664-.06543h-2.748a7.60545,7.60545,0,0,0-1.07324.06543q.1626-1.626.21094-3.38184.0498-1.75635.04883-3.74023v-1.9834a7.50071,7.50071,0,0,0-.4873-3.02344,1.84306,1.84306,0,0,0-1.85352-1.07324,2.27491,2.27491,0,0,0-2.14648,1.26758,7.48786,7.48786,0,0,0-.68262,3.5127v1.2998q0,1.98486.04883,3.74023.04834,1.75488.21191,3.38184a7.06549,7.06549,0,0,0-1.05762-.06543h-2.74707a7.59576,7.59576,0,0,0-1.07324.06543q.1626-1.626.21094-3.38184.0498-1.75635.04883-3.74023v-1.2998q0-1.9834-.04883-3.72363-.04834-1.73877-.21094-3.49609.58447.06592,1.1543.11426.56836.04834,1.1543.04883c.39063,0,.77441-.0166,1.1543-.04883q.56836-.04834,1.21973-.11426l-.12988,2.43945Z" transform="translate(-238.9502 -145.10611)"/><path class="cls-1" d="M610.29492,587.88379a9.9905,9.9905,0,0,1,.666-3.80469,8.02536,8.02536,0,0,1,1.77246-2.71484,7.1235,7.1235,0,0,1,2.55273-1.626,8.49406,8.49406,0,0,1,2.97559-.53613,7.82067,7.82067,0,0,1,5.88574,2.14551,8.00924,8.00924,0,0,1,2.08105,5.82129,10.30009,10.30009,0,0,1-.58594,3.57617,7.85063,7.85063,0,0,1-1.6416,2.71582,6.6455,6.6455,0,0,1-2.52051,1.67383,9.02867,9.02867,0,0,1-3.21875.55273,10.79037,10.79037,0,0,1-2.87793-.38965,6.89879,6.89879,0,0,1-2.55273-1.31738,6.73281,6.73281,0,0,1-1.83691-2.42187A8.63526,8.63526,0,0,1,610.29492,587.88379Zm11.12109-1.20312a11.04024,11.04024,0,0,0-.71582-4.43848,2.44209,2.44209,0,0,0-2.374-1.57715,2.62347,2.62347,0,0,0-2.35742,1.75586,13.15343,13.15343,0,0,0-.86133,5.49512,18.49675,18.49675,0,0,0,.16211,2.53711,7.77943,7.77943,0,0,0,.53711,2.03223,3.47392,3.47392,0,0,0,.97559,1.34961,2.32518,2.32518,0,0,0,1.51172.4873Q621.41553,594.32227,621.416,586.68066Z" transform="translate(-238.9502 -145.10611)"/><path class="cls-1" d="M640.50293,592.92383a6.41238,6.41238,0,0,1-2.12988,2.06543,5.48884,5.48884,0,0,1-2.78027.69824,4.97548,4.97548,0,0,1-3.75488-1.36523q-1.31689-1.36523-1.31738-4.51953,0-1.65967.06543-2.92676.06445-1.26855.06445-2.53613,0-1.0415-.04883-2.26074-.04834-1.21875-.11328-2.45508.42188.06592,1.07324.11426c.43262.03223.88867.04883,1.36523.04883s.93164-.0166,1.36621-.04883c.43262-.03223.791-.07031,1.07227-.11426q-.22705,1.75635-.292,4.06543-.06592,2.30859-.06543,5.26758a5.14691,5.14691,0,0,0,.69922,3.00781,2.47164,2.47164,0,0,0,4.11328-.30859,7.48786,7.48786,0,0,0,.68262-3.5127v-1.2998q0-1.9834-.04883-3.72363-.04834-1.73877-.21094-3.49609a14.374,14.374,0,0,0,2.43848.16309q.74854,0,1.36621-.04883.6167-.04834,1.07324-.11426-.16406,1.75635-.21191,3.49609-.04834,1.74023-.04883,3.72363v1.2998q0,1.98486.04883,3.74023.0498,1.75488.21191,3.38184a10.31835,10.31835,0,0,0-1.1543-.06543h-2.30957a12.11835,12.11835,0,0,0-1.21875.06543l.12988-2.3418Z" transform="translate(-238.9502 -145.10611)"/><path class="cls-1" d="M654.64844,582.06348a6.93324,6.93324,0,0,1,2.12988-2.11426,5.21189,5.21189,0,0,1,2.78027-.74707,4.87774,4.87774,0,0,1,3.75586,1.41406q1.31689,1.415,1.31641,4.56836,0,1.6582-.06445,2.92676-.06592,1.26855-.06543,2.53613,0,1.0415.04883,2.26074.04834,1.21875.11426,2.35742a7.19336,7.19336,0,0,0-1.07324-.06543h-2.73145a7.18432,7.18432,0,0,0-1.07324.06543,38.7518,38.7518,0,0,0,.293-3.9834q.06445-2.29248.06445-5.252a5.14691,5.14691,0,0,0-.69922-3.00781,2.47165,2.47165,0,0,0-4.11328.30859,7.48786,7.48786,0,0,0-.68262,3.5127v1.2998q0,1.98486.04883,3.74023.04834,1.75488.21094,3.38184a7.04232,7.04232,0,0,0-1.05664-.06543h-2.74707a7.59576,7.59576,0,0,0-1.07324.06543q.1626-1.626.21094-3.38184.0498-1.75635.04883-3.74023v-1.2998q0-1.9834-.04883-3.72363-.04834-1.73877-.21094-3.49609.58447.06592,1.1543.11426.56836.04834,1.1543.04883.58447,0,1.1543-.04883.56836-.04834,1.21973-.11426l-.13086,2.43945Z" transform="translate(-238.9502 -145.10611)"/><path class="cls-1" d="M678.02832,580.665a3.31227,3.31227,0,0,0,.09766.8125l-2.86133-.06445q-.06592.74854-.11426,1.72363-.04834.97559-.06445,1.9834-.01758,1.00781-.0332,1.95117-.01611.94336-.01562,1.59277,0,1.69189.08105,2.73145a6.55793,6.55793,0,0,0,.27637,1.59375,1.29414,1.29414,0,0,0,.55273.748,1.89021,1.89021,0,0,0,.91016.19434,3.68656,3.68656,0,0,0,.91113-.08105,2.61511,2.61511,0,0,0,.585-.24414v1.334a9.039,9.039,0,0,1-1.626.51953,8.44636,8.44636,0,0,1-1.918.22754q-4.13086,0-4.12988-4.94238,0-.94189.03223-2.12988.03223-1.18652.08105-2.43848.0498-1.251.082-2.47168.03223-1.21875.03223-2.25977l-2.27637.03223a3.31227,3.31227,0,0,0,.09766-.8125,4.49434,4.49434,0,0,0-.09766-.87793l2.27637.09766q0-1.00781-.03223-1.88574-.03369-.87891-.09766-2.11426,1.13818-.4541,2.24316-.959,1.106-.50391,2.21191-1.05664l.3252.22754q-.06592.52-.11426,1.21973-.04834.69873-.09766,1.46289-.04834.76465-.06543,1.56055-.01611.79688-.01562,1.5127l2.86133-.06543A4.49434,4.49434,0,0,0,678.02832,580.665Z" transform="translate(-238.9502 -145.10611)"/><path class="cls-1" d="M682.02734,581.47754a10.45246,10.45246,0,0,1,2.94336-1.69043,8.95284,8.95284,0,0,1,3.1377-.585,9.23417,9.23417,0,0,1,2.38965.292,5.13129,5.13129,0,0,1,1.88672.92676,4.21139,4.21139,0,0,1,1.23535,1.64258,6.08746,6.08746,0,0,1,.43848,2.43848q0,2.08154-.04883,3.85352-.04834,1.77246-.04883,3.52832a5.07089,5.07089,0,0,0,.11426,1.21875,1.42794,1.42794,0,0,0,.3418.667,1.09176,1.09176,0,0,0,.60156.293,5.11266,5.11266,0,0,0,.86133.06445v.78027q-.94336.39111-1.59375.58594a4.848,4.848,0,0,1-1.39746.19434,3.07,3.07,0,0,1-1.95117-.585,3.59615,3.59615,0,0,1-1.13867-1.69043,6.15827,6.15827,0,0,1-1.73926,1.6582,4.63442,4.63442,0,0,1-2.4873.61719,6.10564,6.10564,0,0,1-2.11426-.3252,3.66738,3.66738,0,0,1-2.27539-2.292,4.75232,4.75232,0,0,1-.26074-1.54492,4.60437,4.60437,0,0,1,.3418-1.85352,3.73711,3.73711,0,0,1,.97559-1.333,5.67985,5.67985,0,0,1,1.51172-.92676,12.246,12.246,0,0,1,1.9834-.63379q1.3667-.3252,2.16211-.56934a5.25367,5.25367,0,0,0,1.1875-.4873,1.17674,1.17674,0,0,0,.50391-.53711,1.98837,1.98837,0,0,0,.11328-.71484,2.72606,2.72606,0,0,0-.8291-2,3.097,3.097,0,0,0-2.292-.8291,4.68346,4.68346,0,0,0-1.13867.14648,5.81822,5.81822,0,0,0-1.12109.40625,6.9439,6.9439,0,0,0-.97559.56934,2.42457,2.42457,0,0,0-.667.666h-.22754Zm7.707,8.84473q0-1.39746.01563-2.12988.01611-.731.0166-1.28418a7.43127,7.43127,0,0,1-1.44727.63379,6.83679,6.83679,0,0,0-1.39746.61816,3.03545,3.03545,0,0,0-1.041,1.02441,3.58047,3.58047,0,0,0-.40625,1.88574,2.8937,2.8937,0,0,0,.50391,1.83789,1.63662,1.63662,0,0,0,1.34961.63379,2.14011,2.14011,0,0,0,1.73926-.81348A3.72279,3.72279,0,0,0,689.73438,590.32227Z" transform="translate(-238.9502 -145.10611)"/><path class="cls-1" d="M699.81445,573.47852a2.55414,2.55414,0,1,1,.748,1.82129A2.4753,2.4753,0,0,1,699.81445,573.47852Zm.38965,13.36523q0-1.9834-.04883-3.72363-.04834-1.73877-.21094-3.49609.45557.06592,1.07324.11426.6167.04834,1.36523.04883a14.38674,14.38674,0,0,0,2.43945-.16309q-.16406,1.75635-.21191,3.49609-.04834,1.74023-.04883,3.72363v1.2998q0,1.98486.04883,3.74023.0498,1.75488.21191,3.38184a7.06038,7.06038,0,0,0-1.05664-.06543h-2.748a7.60545,7.60545,0,0,0-1.07324.06543q.1626-1.626.21094-3.38184.0498-1.75635.04883-3.74023Z" transform="translate(-238.9502 -145.10611)"/><path class="cls-1" d="M714.707,582.06348a6.93324,6.93324,0,0,1,2.12988-2.11426,5.21189,5.21189,0,0,1,2.78027-.74707,4.87774,4.87774,0,0,1,3.75586,1.41406q1.31689,1.415,1.31641,4.56836,0,1.6582-.06445,2.92676-.06592,1.26855-.06543,2.53613,0,1.0415.04883,2.26074.04834,1.21875.11426,2.35742a7.19336,7.19336,0,0,0-1.07324-.06543H720.918a7.18432,7.18432,0,0,0-1.07324.06543,38.75177,38.75177,0,0,0,.293-3.9834q.06445-2.29248.06445-5.252a5.14691,5.14691,0,0,0-.69922-3.00781,2.47165,2.47165,0,0,0-4.11328.30859,7.48786,7.48786,0,0,0-.68262,3.5127v1.2998q0,1.98486.04883,3.74023.04834,1.75488.21094,3.38184a7.04232,7.04232,0,0,0-1.05664-.06543h-2.74707a7.59576,7.59576,0,0,0-1.07324.06543q.1626-1.626.21094-3.38184.0498-1.75635.04883-3.74023v-1.2998q0-1.9834-.04883-3.72363-.04834-1.73877-.21094-3.49609.58447.06592,1.1543.11426.56836.04834,1.1543.04883.58447,0,1.1543-.04883.56836-.04834,1.21973-.11426l-.13086,2.43945Z" transform="translate(-238.9502 -145.10611)"/><path class="cls-1" d="M730.65723,592.25781a3.71452,3.71452,0,0,0,.76367.84473,3.61185,3.61185,0,0,0,1.08984.60156,4.3536,4.3536,0,0,0,1.47949.22754,2.45412,2.45412,0,0,0,1.75586-.585,1.73382,1.73382,0,0,0,.61719-1.26855,1.482,1.482,0,0,0-.55273-1.20312,6.17859,6.17859,0,0,0-1.38184-.8291q-.8291-.37354-1.80469-.76367a8.33438,8.33438,0,0,1-1.80469-.99219,5.11893,5.11893,0,0,1-1.38184-1.51172,4.44689,4.44689,0,0,1-.55273-2.34082,5.15124,5.15124,0,0,1,.50391-2.3584,4.74873,4.74873,0,0,1,1.31738-1.625,5.56688,5.56688,0,0,1,1.83691-.94336,7.29966,7.29966,0,0,1,4.45508.08105,10.20644,10.20644,0,0,1,2.16211,1.13867,8.90815,8.90815,0,0,0-.48828,1.39746,12.43332,12.43332,0,0,0-.292,1.46387h-.91113a4.52207,4.52207,0,0,0-.32422-.8623,3.70683,3.70683,0,0,0-.61816-.89355,3.2528,3.2528,0,0,0-.94336-.69922,2.94767,2.94767,0,0,0-1.333-.27637,2.58982,2.58982,0,0,0-1.64258.52051,1.64841,1.64841,0,0,0-.666,1.36523,1.543,1.543,0,0,0,.56934,1.252,5.64362,5.64362,0,0,0,1.41406.8291q.84521.35889,1.85352.71582a8.2258,8.2258,0,0,1,1.85352.92676,4.84627,4.84627,0,0,1,1.41406,1.47949,4.3491,4.3491,0,0,1,.56934,2.34082,5.36589,5.36589,0,0,1-.52051,2.45508,4.84551,4.84551,0,0,1-1.39746,1.69141,5.62015,5.62015,0,0,1-2,.959,9.29785,9.29785,0,0,1-2.35742.292,7.72972,7.72972,0,0,1-2.63379-.42187,8.75034,8.75034,0,0,1-1.85352-.87793,17.36883,17.36883,0,0,0,.4873-3.12207h.81348A4.96629,4.96629,0,0,0,730.65723,592.25781Z" transform="translate(-238.9502 -145.10611)"/><path class="cls-1" d="M753.59766,587.88379a9.9905,9.9905,0,0,1,.666-3.80469,8.02536,8.02536,0,0,1,1.77246-2.71484,7.1235,7.1235,0,0,1,2.55273-1.626,8.49406,8.49406,0,0,1,2.97559-.53613,7.82067,7.82067,0,0,1,5.88574,2.14551,8.00924,8.00924,0,0,1,2.08105,5.82129,10.30009,10.30009,0,0,1-.58594,3.57617,7.85063,7.85063,0,0,1-1.6416,2.71582,6.6455,6.6455,0,0,1-2.52051,1.67383,9.02867,9.02867,0,0,1-3.21875.55273,10.79037,10.79037,0,0,1-2.87793-.38965,6.89879,6.89879,0,0,1-2.55273-1.31738,6.73281,6.73281,0,0,1-1.83691-2.42187A8.63526,8.63526,0,0,1,753.59766,587.88379Zm11.12109-1.20312a11.04024,11.04024,0,0,0-.71582-4.43848,2.44209,2.44209,0,0,0-2.374-1.57715,2.62347,2.62347,0,0,0-2.35742,1.75586,13.15343,13.15343,0,0,0-.86133,5.49512,18.49675,18.49675,0,0,0,.16211,2.53711,7.77943,7.77943,0,0,0,.53711,2.03223,3.47392,3.47392,0,0,0,.97559,1.34961,2.32518,2.32518,0,0,0,1.51172.4873Q764.71826,594.32227,764.71875,586.68066Z" transform="translate(-238.9502 -145.10611)"/><path class="cls-1" d="M782.27734,580.24219a2.60135,2.60135,0,0,0-.03223.42285,2.694,2.694,0,0,0,.03223.40625c.02148.1416.04395.27637.06543.40625l-3.05664-.06445v2.69922q0,3.186.06543,5.85254.06445,2.66748.19434,5.30078a7.1791,7.1791,0,0,0-1.07227-.06543h-2.73145a7.17529,7.17529,0,0,0-1.07324.06543q.12891-2.63379.19531-5.30078.06445-2.666.06445-5.85254v-2.667l-2.27637.03223a3.31227,3.31227,0,0,0,.09766-.8125,4.49434,4.49434,0,0,0-.09766-.87793l2.27637.09766a31.93274,31.93274,0,0,1,.81348-3.6748,11.00789,11.00789,0,0,1,1.28418-2.92676,5.8826,5.8826,0,0,1,2-1.93457,5.80482,5.80482,0,0,1,2.959-.69922,7.18445,7.18445,0,0,1,1.36523.16309,8.99815,8.99815,0,0,0-.11328,1.41406q-.01758.895-.0166,1.74023V575.04l-.39062.12988a9.71079,9.71079,0,0,0-1.49512-.65039,4.9621,4.9621,0,0,0-1.626-.293,2.79757,2.79757,0,0,0-1.44727.30859,1.17521,1.17521,0,0,0-.50391,1.08984,5.73981,5.73981,0,0,0,.43945,1.918,15.81083,15.81083,0,0,0,1.08887,2.30957l3.05664-.06543C782.32129,579.96094,782.29883,580.1123,782.27734,580.24219Z" transform="translate(-238.9502 -145.10611)"/><path class="cls-1" d="M804.4541,580.665a3.31227,3.31227,0,0,0,.09766.8125l-2.86133-.06445q-.06592.74854-.11426,1.72363-.04834.97559-.06445,1.9834-.01758,1.00781-.0332,1.95117-.01611.94336-.01562,1.59277,0,1.69189.08105,2.73145a6.55793,6.55793,0,0,0,.27637,1.59375,1.29414,1.29414,0,0,0,.55273.748,1.89021,1.89021,0,0,0,.91016.19434,3.68656,3.68656,0,0,0,.91113-.08105,2.61511,2.61511,0,0,0,.585-.24414v1.334a9.039,9.039,0,0,1-1.626.51953,8.44635,8.44635,0,0,1-1.918.22754q-4.13086,0-4.12988-4.94238,0-.94189.03223-2.12988.03223-1.18652.08105-2.43848.0498-1.251.082-2.47168.03223-1.21875.03223-2.25977l-2.27637.03223a3.31227,3.31227,0,0,0,.09766-.8125,4.49434,4.49434,0,0,0-.09766-.87793l2.27637.09766q0-1.00781-.03223-1.88574-.03369-.87891-.09766-2.11426,1.13818-.4541,2.24316-.959,1.106-.50391,2.21191-1.05664l.3252.22754q-.06592.52-.11426,1.21973-.04834.69873-.09766,1.46289-.04834.76465-.06543,1.56055-.01611.79688-.01562,1.5127l2.86133-.06543A4.49434,4.49434,0,0,0,804.4541,580.665Z" transform="translate(-238.9502 -145.10611)"/><path class="cls-1" d="M808.48633,576.14551q-.06592-2.666-.19531-5.39844c.28125.04395.63867.08105,1.07324.11426.43262.03223.88867.04883,1.36523.04883s.93164-.0166,1.36621-.04883c.43262-.0332.791-.07031,1.07227-.11426q-.13037,2.73193-.19434,5.39844-.06592,2.666-.06543,5.85254l.06543.06543a6.32665,6.32665,0,0,1,2.06445-2.11426,5.21189,5.21189,0,0,1,2.78027-.74707,4.87774,4.87774,0,0,1,3.75586,1.41406q1.31689,1.415,1.31641,4.56836,0,1.6582-.06445,2.92676-.06592,1.26855-.06543,2.53613,0,1.0415.04883,2.26074.04834,1.21875.11426,2.35742a7.19336,7.19336,0,0,0-1.07324-.06543h-2.73145a7.18432,7.18432,0,0,0-1.07324.06543,38.75177,38.75177,0,0,0,.293-3.9834q.06445-2.29248.06445-5.252a5.14691,5.14691,0,0,0-.69922-3.00781,2.47165,2.47165,0,0,0-4.11328.30859,7.48786,7.48786,0,0,0-.68262,3.5127v1.2998q0,.457.0166,1.31738.01611.86133.04883,1.88574c.02051.68262.04883,1.377.08105,2.08105q.04834,1.05762.11328,1.83789a7.1791,7.1791,0,0,0-1.07227-.06543h-2.73145a7.17529,7.17529,0,0,0-1.07324.06543q.12891-2.63379.19531-5.30078.06445-2.666.06445-5.85254V581.998Q808.55078,578.812,808.48633,576.14551Z" transform="translate(-238.9502 -145.10611)"/><path class="cls-1" d="M831.99609,587.49316a10.90369,10.90369,0,0,0,.25977,2.43945,6.09952,6.09952,0,0,0,.79688,1.9668,3.901,3.901,0,0,0,1.36621,1.30078,3.8444,3.8444,0,0,0,1.93457.47168,6.07246,6.07246,0,0,0,3.999-1.46289l.39063.292-.71582,1.82129a6.59038,6.59038,0,0,1-1.95117.99219,9.86523,9.86523,0,0,1-2.99121.373,10.24524,10.24524,0,0,1-3.02441-.43848,6.43242,6.43242,0,0,1-2.51953-1.44727,7.07078,7.07078,0,0,1-1.72363-2.55273,9.69367,9.69367,0,0,1-.63379-3.69043,10.71666,10.71666,0,0,1,.56934-3.6748,7.23637,7.23637,0,0,1,1.57617-2.60059,6.44534,6.44534,0,0,1,2.39063-1.56152,8.4935,8.4935,0,0,1,3.00781-.51953,6.3055,6.3055,0,0,1,4.92578,1.88574,7.6688,7.6688,0,0,1,1.708,5.333v.68262a1.47923,1.47923,0,0,1-.0332.38965Zm5.00781-1.46289a12.6251,12.6251,0,0,0-.60156-3.90234,1.88235,1.88235,0,0,0-1.80469-1.46289,1.63331,1.63331,0,0,0-1.20312.4873,3.5172,3.5172,0,0,0-.78027,1.252,8.34769,8.34769,0,0,0-.43945,1.72363,16.29513,16.29513,0,0,0-.17871,1.90234Z" transform="translate(-238.9502 -145.10611)"/><path class="cls-1" d="M874.36523,592.97266a7.92934,7.92934,0,0,0-.25977,1.38184,14.63166,14.63166,0,0,1-6.63379,1.333,14.982,14.982,0,0,1-5.05664-.7959,10.71085,10.71085,0,0,1-3.77148-2.24414,9.63245,9.63245,0,0,1-2.35742-3.43066,11.20683,11.20683,0,0,1-.81348-4.292,13.98361,13.98361,0,0,1,1.05762-5.73926,10.482,10.482,0,0,1,2.82813-3.83691,11.24853,11.24853,0,0,1,4.11426-2.16211,17.4163,17.4163,0,0,1,4.91016-.68359,13.08511,13.08511,0,0,1,1.78809.13086q.94189.12891,1.82129.34082a15.23053,15.23053,0,0,1,1.67383.50391,8.37463,8.37463,0,0,1,1.34961.61816,10.20222,10.20222,0,0,0-.50391,1.6416,12.585,12.585,0,0,0-.24414,1.6748h-.45508a8.03145,8.03145,0,0,0-2.53613-2.22754,6.6309,6.6309,0,0,0-3.05664-.666,6.40975,6.40975,0,0,0-2.61719.585,7.04246,7.04246,0,0,0-2.39062,1.78809,9.219,9.219,0,0,0-1.73926,3.07324,13.35756,13.35756,0,0,0-.667,4.47168,11.91023,11.91023,0,0,0,.68262,4.27539,8.465,8.465,0,0,0,1.77246,2.89453,6.72712,6.72712,0,0,0,2.47168,1.6416,7.8401,7.8401,0,0,0,2.78027.52051,7.40829,7.40829,0,0,0,1.59277-.17871,10.27,10.27,0,0,0,1.59375-.48828,8.25065,8.25065,0,0,0,1.47949-.76367,6.698,6.698,0,0,0,1.21973-1.00781l.42188.25977Q874.561,592.27344,874.36523,592.97266Z" transform="translate(-238.9502 -145.10611)"/><path class="cls-1" d="M878.56055,587.88379a9.9905,9.9905,0,0,1,.666-3.80469,8.02536,8.02536,0,0,1,1.77246-2.71484,7.1235,7.1235,0,0,1,2.55273-1.626,8.49406,8.49406,0,0,1,2.97559-.53613,7.82067,7.82067,0,0,1,5.88574,2.14551,8.00924,8.00924,0,0,1,2.08105,5.82129,10.30009,10.30009,0,0,1-.58594,3.57617,7.85063,7.85063,0,0,1-1.6416,2.71582,6.6455,6.6455,0,0,1-2.52051,1.67383,9.02867,9.02867,0,0,1-3.21875.55273,10.79037,10.79037,0,0,1-2.87793-.38965,6.89879,6.89879,0,0,1-2.55273-1.31738,6.73281,6.73281,0,0,1-1.83691-2.42187A8.63526,8.63526,0,0,1,878.56055,587.88379Zm11.12109-1.20312a11.04024,11.04024,0,0,0-.71582-4.43848,2.44209,2.44209,0,0,0-2.374-1.57715,2.62347,2.62347,0,0,0-2.35742,1.75586,13.15343,13.15343,0,0,0-.86133,5.49512,18.49675,18.49675,0,0,0,.16211,2.53711,7.77943,7.77943,0,0,0,.53711,2.03223,3.47392,3.47392,0,0,0,.97559,1.34961,2.32518,2.32518,0,0,0,1.51172.4873Q889.68115,594.32227,889.68164,586.68066Z" transform="translate(-238.9502 -145.10611)"/><path class="cls-1" d="M899.30566,576.14551q-.06592-2.666-.19531-5.39844c.28125.04395.63965.08105,1.07324.11426q.65039.04834,1.36523.04883.71484,0,1.36621-.04883c.43359-.0332.791-.07031,1.07324-.11426q-.13037,2.73193-.19531,5.39844-.06592,2.666-.06543,5.85254v2.11426q0,3.186.06543,5.85254.06445,2.66748.19531,5.30078a7.19336,7.19336,0,0,0-1.07324-.06543h-2.73145a7.18432,7.18432,0,0,0-1.07324.06543q.12891-2.63379.19531-5.30078.06445-2.666.06445-5.85254V581.998Q899.37012,578.812,899.30566,576.14551Z" transform="translate(-238.9502 -145.10611)"/><path class="cls-1" d="M908.60645,587.88379a9.9905,9.9905,0,0,1,.666-3.80469,8.02536,8.02536,0,0,1,1.77246-2.71484,7.1235,7.1235,0,0,1,2.55273-1.626,8.49406,8.49406,0,0,1,2.97559-.53613,7.82067,7.82067,0,0,1,5.88574,2.14551,8.00924,8.00924,0,0,1,2.08105,5.82129,10.30009,10.30009,0,0,1-.58594,3.57617,7.85063,7.85063,0,0,1-1.6416,2.71582,6.6455,6.6455,0,0,1-2.52051,1.67383,9.02867,9.02867,0,0,1-3.21875.55273,10.79037,10.79037,0,0,1-2.87793-.38965,6.89879,6.89879,0,0,1-2.55273-1.31738,6.73281,6.73281,0,0,1-1.83691-2.42187A8.63526,8.63526,0,0,1,908.60645,587.88379Zm11.12109-1.20312a11.04024,11.04024,0,0,0-.71582-4.43848,2.44209,2.44209,0,0,0-2.374-1.57715,2.62347,2.62347,0,0,0-2.35742,1.75586,13.15343,13.15343,0,0,0-.86133,5.49512,18.49673,18.49673,0,0,0,.16211,2.53711,7.77943,7.77943,0,0,0,.53711,2.03223,3.47392,3.47392,0,0,0,.97559,1.34961,2.32518,2.32518,0,0,0,1.51172.4873Q919.72705,594.32227,919.72754,586.68066Z" transform="translate(-238.9502 -145.10611)"/><path class="cls-1" d="M933.31836,582.06348a6.93324,6.93324,0,0,1,2.12988-2.11426,5.2167,5.2167,0,0,1,2.78027-.74707,4.07368,4.07368,0,0,1,2.52051.7959,5.12264,5.12264,0,0,1,1.6416,2.293,7.30765,7.30765,0,0,1,2.27637-2.293,5.21047,5.21047,0,0,1,2.76367-.7959,4.87774,4.87774,0,0,1,3.75586,1.41406q1.31689,1.415,1.31738,4.56836,0,1.6582-.06543,2.92676-.06592,1.26855-.06543,2.53613,0,1.0415.04883,2.26074.0498,1.21875.11426,2.35742a7.19336,7.19336,0,0,0-1.07324-.06543h-2.73145a7.19337,7.19337,0,0,0-1.07324.06543,38.75177,38.75177,0,0,0,.293-3.9834q.06445-2.29248.06543-5.252a5.24209,5.24209,0,0,0-.68359-3.00781,2.2204,2.2204,0,0,0-1.918-.959,2.16451,2.16451,0,0,0-1.28418.35742,2.54674,2.54674,0,0,0-.79687.92676,3.9295,3.9295,0,0,0-.39062,1.21973,8.41418,8.41418,0,0,0-.09766,1.23535v2.34082q0,1.98486.04883,3.74023.0498,1.75488.21191,3.38184a7.06038,7.06038,0,0,0-1.05664-.06543h-2.748a7.60545,7.60545,0,0,0-1.07324.06543q.1626-1.626.21094-3.38184.0498-1.75635.04883-3.74023v-1.9834a7.50071,7.50071,0,0,0-.4873-3.02344,1.84306,1.84306,0,0,0-1.85352-1.07324,2.27491,2.27491,0,0,0-2.14648,1.26758,7.48786,7.48786,0,0,0-.68262,3.5127v1.2998q0,1.98486.04883,3.74023.04834,1.75488.21191,3.38184a7.06549,7.06549,0,0,0-1.05762-.06543h-2.74707a7.59576,7.59576,0,0,0-1.07324.06543q.1626-1.626.21094-3.38184.0498-1.75635.04883-3.74023v-1.2998q0-1.9834-.04883-3.72363-.04834-1.73877-.21094-3.49609.58447.06592,1.1543.11426.56836.04834,1.1543.04883c.39063,0,.77441-.0166,1.1543-.04883q.56836-.04834,1.21973-.11426l-.12988,2.43945Z" transform="translate(-238.9502 -145.10611)"/><path class="cls-1" d="M957.6084,581.998q0-3.186-.06445-5.85254-.06592-2.666-.19531-5.39844c.28125.04395.63867.08105,1.07324.11426.43262.03223.88867.04883,1.36523.04883s.93164-.0166,1.36621-.04883c.43262-.0332.791-.07031,1.07227-.11426q-.13037,2.73193-.19434,5.39844-.06592,2.666-.06543,5.85254h.06543a4.23793,4.23793,0,0,1,1.707-2.08105,4.86544,4.86544,0,0,1,2.61719-.71484,5.33309,5.33309,0,0,1,2.55273.61719,6.345,6.345,0,0,1,1.9834,1.6582,7.681,7.681,0,0,1,1.28418,2.45508,9.86783,9.86783,0,0,1,.45605,3.041,11.15784,11.15784,0,0,1-.667,4.11328,7.794,7.794,0,0,1-1.72363,2.71484,5.96447,5.96447,0,0,1-2.35742,1.46387,8.293,8.293,0,0,1-2.56836.42188,5.31081,5.31081,0,0,1-2.63379-.60156,5.24187,5.24187,0,0,1-1.75684-1.57617,13.691,13.691,0,0,0-1.38184.91016q-.69873.52-1.41406.97559h-.78027q.12891-2.73193.19531-5.41406.06445-2.68359.06445-5.86914Zm4.35742,5.59277q0,1.43115.11426,2.667a9.09605,9.09605,0,0,0,.42188,2.12988,3.5396,3.5396,0,0,0,.8457,1.41406,1.94237,1.94237,0,0,0,1.415.52051,2.512,2.512,0,0,0,2.22656-1.73926,14.234,14.234,0,0,0,.83008-5.707q0-5.65869-2.79687-5.6582a2.47824,2.47824,0,0,0-1.252.3252,2.61672,2.61672,0,0,0-.97559,1.08887,6.70386,6.70386,0,0,0-.61816,1.98438A17.80049,17.80049,0,0,0,961.96582,587.59082Z" transform="translate(-238.9502 -145.10611)"/><path class="cls-1" d="M977.11914,573.47852a2.55414,2.55414,0,1,1,.748,1.82129A2.4753,2.4753,0,0,1,977.11914,573.47852Zm.38965,13.36523q0-1.9834-.04883-3.72363-.04834-1.73877-.21094-3.49609.45557.06592,1.07324.11426.6167.04834,1.36523.04883a14.38674,14.38674,0,0,0,2.43945-.16309q-.16406,1.75635-.21191,3.49609-.04834,1.74023-.04883,3.72363v1.2998q0,1.98486.04883,3.74023.0498,1.75488.21191,3.38184a7.06038,7.06038,0,0,0-1.05664-.06543h-2.748a7.60545,7.60545,0,0,0-1.07324.06543q.1626-1.626.21094-3.38184.0498-1.75635.04883-3.74023Z" transform="translate(-238.9502 -145.10611)"/><path class="cls-1" d="M987.55664,581.47754A10.45246,10.45246,0,0,1,990.5,579.78711a8.95284,8.95284,0,0,1,3.1377-.585,9.23417,9.23417,0,0,1,2.38965.292,5.13129,5.13129,0,0,1,1.88672.92676,4.21139,4.21139,0,0,1,1.23535,1.64258,6.08746,6.08746,0,0,1,.43848,2.43848q0,2.08154-.04883,3.85352-.04834,1.77246-.04883,3.52832a5.07089,5.07089,0,0,0,.11426,1.21875,1.42794,1.42794,0,0,0,.3418.667,1.09177,1.09177,0,0,0,.60156.293,5.11265,5.11265,0,0,0,.86133.06445v.78027q-.94336.39111-1.59375.58594a4.848,4.848,0,0,1-1.39746.19434,3.07,3.07,0,0,1-1.95117-.585,3.59615,3.59615,0,0,1-1.13867-1.69043,6.15827,6.15827,0,0,1-1.73926,1.6582,4.63442,4.63442,0,0,1-2.4873.61719,6.10564,6.10564,0,0,1-2.11426-.3252,3.66738,3.66738,0,0,1-2.27539-2.292,4.75232,4.75232,0,0,1-.26074-1.54492,4.60437,4.60437,0,0,1,.3418-1.85352,3.73711,3.73711,0,0,1,.97559-1.333,5.67985,5.67985,0,0,1,1.51172-.92676,12.246,12.246,0,0,1,1.9834-.63379q1.3667-.3252,2.16211-.56934a5.25366,5.25366,0,0,0,1.1875-.4873,1.17674,1.17674,0,0,0,.50391-.53711,1.98837,1.98837,0,0,0,.11328-.71484,2.72606,2.72606,0,0,0-.8291-2,3.097,3.097,0,0,0-2.292-.8291,4.68346,4.68346,0,0,0-1.13867.14648,5.81822,5.81822,0,0,0-1.12109.40625,6.9439,6.9439,0,0,0-.97559.56934,2.42458,2.42458,0,0,0-.667.666h-.22754Zm7.707,8.84473q0-1.39746.01563-2.12988.01611-.731.0166-1.28418a7.43127,7.43127,0,0,1-1.44727.63379,6.83679,6.83679,0,0,0-1.39746.61816,3.03545,3.03545,0,0,0-1.041,1.02441,3.58047,3.58047,0,0,0-.40625,1.88574,2.8937,2.8937,0,0,0,.50391,1.83789,1.63662,1.63662,0,0,0,1.34961.63379,2.14011,2.14011,0,0,0,1.73926-.81348A3.72279,3.72279,0,0,0,995.26367,590.32227Z" transform="translate(-238.9502 -145.10611)"/><path class="cls-1" d="M1009.7334,582.06348a6.93325,6.93325,0,0,1,2.12988-2.11426,5.21189,5.21189,0,0,1,2.78027-.74707,4.87774,4.87774,0,0,1,3.75586,1.41406q1.31689,1.415,1.31641,4.56836,0,1.6582-.06445,2.92676-.06592,1.26855-.06543,2.53613,0,1.0415.04883,2.26074.04834,1.21875.11426,2.35742a7.19335,7.19335,0,0,0-1.07324-.06543h-2.73145a7.18432,7.18432,0,0,0-1.07324.06543,38.75176,38.75176,0,0,0,.293-3.9834q.06445-2.29248.06445-5.252a5.14691,5.14691,0,0,0-.69922-3.00781,2.47165,2.47165,0,0,0-4.11328.30859,7.48786,7.48786,0,0,0-.68262,3.5127v1.2998q0,1.98486.04883,3.74023.04834,1.75488.21094,3.38184a7.04233,7.04233,0,0,0-1.05664-.06543h-2.74707a7.59575,7.59575,0,0,0-1.07324.06543q.1626-1.626.21094-3.38184.04981-1.75635.04883-3.74023v-1.2998q0-1.9834-.04883-3.72363-.04834-1.73877-.21094-3.49609.58447.06592,1.1543.11426.56836.04834,1.1543.04883.58447,0,1.1543-.04883.56836-.04834,1.21973-.11426l-.13086,2.43945Z" transform="translate(-238.9502 -145.10611)"/><path class="cls-1" d="M1053.46973,595.26563c-.51953-.04395-1.01367-.06543-1.47949-.06543h-2.76367q-.70019,0-1.38184.06543-.52149-1.59375-1.07324-3.252-.55371-1.6582-1.1709-3.31738-1.04-.03076-2.08106-.04785-1.04-.01611-2.08105-.0166-.84522,0-1.69043.0166-.84668.01611-1.69141.04785-.65039,1.65967-1.20312,3.31738-.55225,1.6582-1.00781,3.252a4.584,4.584,0,0,0-.76367-.06543h-1.54492a5.93009,5.93009,0,0,0-.8457.06543q.39111-.84521,1.041-2.3418.64893-1.49561,1.43066-3.38184.78076-1.88525,1.6748-4.04785.89355-2.16211,1.78809-4.374.89355-2.21045,1.75586-4.35742.86133-2.146,1.57715-3.999.3252.06445.61816.11328a3.93122,3.93122,0,0,0,1.23535,0c.19531-.03223.40039-.07031.61816-.11328q1.04,2.76416,2.22656,5.918,1.188,3.15381,2.39063,6.19434,1.20264,3.041,2.34082,5.77148Q1052.52686,593.37939,1053.46973,595.26563ZM1041.959,579.03906q-.84668,1.95117-1.59375,3.85352-.74853,1.90137-1.46289,3.88574h5.95019q-.71484-1.9834-1.41406-3.88574Q1042.73828,580.98975,1041.959,579.03906Z" transform="translate(-238.9502 -145.10611)"/><path class="cls-1" d="M1061.72852,582.06348a6.93323,6.93323,0,0,1,2.12988-2.11426,5.21189,5.21189,0,0,1,2.78027-.74707,4.87774,4.87774,0,0,1,3.75586,1.41406q1.3169,1.415,1.31641,4.56836,0,1.6582-.06445,2.92676-.06592,1.26855-.06543,2.53613,0,1.0415.04883,2.26074.04834,1.21875.11426,2.35742a7.19338,7.19338,0,0,0-1.07324-.06543h-2.73145a7.18432,7.18432,0,0,0-1.07324.06543,38.752,38.752,0,0,0,.293-3.9834q.06445-2.29248.06445-5.252a5.14691,5.14691,0,0,0-.69922-3.00781,2.47165,2.47165,0,0,0-4.11328.30859,7.48786,7.48786,0,0,0-.68262,3.5127v1.2998q0,1.98486.04883,3.74023.04834,1.75488.21094,3.38184a7.04232,7.04232,0,0,0-1.05664-.06543h-2.74707a7.59575,7.59575,0,0,0-1.07324.06543q.1626-1.626.21094-3.38184.0498-1.75635.04883-3.74023v-1.2998q0-1.9834-.04883-3.72363-.04834-1.73877-.21094-3.49609.58447.06592,1.1543.11426.56836.04834,1.1543.04883.58447,0,1.1543-.04883.56836-.04834,1.21973-.11426l-.13086,2.43945Z" transform="translate(-238.9502 -145.10611)"/><path class="cls-1" d="M1091.02637,584.1123q0,3.186.06543,5.85254.06445,2.66748.19531,5.30078a7.19335,7.19335,0,0,0-1.07324-.06543h-2.61816a4.96544,4.96544,0,0,0-.92676.06543,1.82786,1.82786,0,0,0,.06543-.42285q.03223-.35742.08106-.81348c.0332-.30273.05957-.585.08105-.84473.02148-.26074.0332-.42285.0332-.48828l-.06543-.06543a5.30769,5.30769,0,0,1-1.69043,2.26074,4.87769,4.87769,0,0,1-2.959.7959,5.864,5.864,0,0,1-2.8291-.63379,5.27141,5.27141,0,0,1-1.91894-1.77246,8.193,8.193,0,0,1-1.10547-2.666,14.3941,14.3941,0,0,1-.35742-3.28418,10.27865,10.27865,0,0,1,.48731-3.23535,8.48787,8.48787,0,0,1,1.333-2.56934,6.26057,6.26057,0,0,1,2-1.707,5.13466,5.13466,0,0,1,2.45508-.61719,5.04859,5.04859,0,0,1,2.61816.68262,4.41827,4.41827,0,0,1,1.707,1.72363h.06445q0-2.92676-.06445-5.51172-.06592-2.58545-.19531-5.34961c.28125.04395.63965.08105,1.07324.11426q.65039.04834,1.36523.04883.71484,0,1.36621-.04883c.43359-.0332.791-.07031,1.07324-.11426q-.13037,2.73193-.19531,5.39844-.06592,2.666-.06543,5.85254Zm-10.21,3.70605a14.49744,14.49744,0,0,0,.22754,2.79688,6.33415,6.33415,0,0,0,.61816,1.83691,2.65968,2.65968,0,0,0,.89355,1.00879,1.991,1.991,0,0,0,1.05664.30859,2.52215,2.52215,0,0,0,2.19531-1.51172,10.75543,10.75543,0,0,0,.86133-5.02441,9.04953,9.04953,0,0,0-.8125-4.40625,2.38837,2.38837,0,0,0-2.08105-1.38184,2.10611,2.10611,0,0,0-1.041.293,2.64469,2.64469,0,0,0-.94238,1.02441,7.03487,7.03487,0,0,0-.69922,1.9668A14.45131,14.45131,0,0,0,1080.81641,587.81836Z" transform="translate(-238.9502 -145.10611)"/><path class="cls-1" d="M1100.35938,587.49316a10.90365,10.90365,0,0,0,.25977,2.43945,6.09952,6.09952,0,0,0,.79688,1.9668,3.901,3.901,0,0,0,1.36621,1.30078,3.8444,3.8444,0,0,0,1.93457.47168,6.07246,6.07246,0,0,0,3.999-1.46289l.39063.292-.71582,1.82129a6.59037,6.59037,0,0,1-1.95117.99219,9.86523,9.86523,0,0,1-2.99121.373,10.24524,10.24524,0,0,1-3.02441-.43848,6.43242,6.43242,0,0,1-2.51953-1.44727,7.07078,7.07078,0,0,1-1.72363-2.55273,9.69366,9.69366,0,0,1-.63379-3.69043,10.71666,10.71666,0,0,1,.56934-3.6748,7.23637,7.23637,0,0,1,1.57617-2.60059,6.44534,6.44534,0,0,1,2.39063-1.56152,8.4935,8.4935,0,0,1,3.00781-.51953,6.3055,6.3055,0,0,1,4.92578,1.88574,7.66881,7.66881,0,0,1,1.708,5.333v.68262a1.47921,1.47921,0,0,1-.0332.38965Zm5.00781-1.46289a12.62511,12.62511,0,0,0-.60156-3.90234,1.88235,1.88235,0,0,0-1.80469-1.46289,1.63331,1.63331,0,0,0-1.20313.4873,3.51721,3.51721,0,0,0-.78027,1.252,8.34771,8.34771,0,0,0-.43945,1.72363,16.29513,16.29513,0,0,0-.17871,1.90234Z" transform="translate(-238.9502 -145.10611)"/><path class="cls-1" d="M1114.94336,592.25781a3.71454,3.71454,0,0,0,.76367.84473,3.61184,3.61184,0,0,0,1.08984.60156,4.3536,4.3536,0,0,0,1.47949.22754,2.45412,2.45412,0,0,0,1.75586-.585,1.73382,1.73382,0,0,0,.61719-1.26855,1.482,1.482,0,0,0-.55273-1.20312,6.17859,6.17859,0,0,0-1.38184-.8291q-.8291-.37354-1.80469-.76367a8.33438,8.33438,0,0,1-1.80469-.99219,5.11892,5.11892,0,0,1-1.38184-1.51172,4.44688,4.44688,0,0,1-.55273-2.34082,5.15123,5.15123,0,0,1,.50391-2.3584,4.74872,4.74872,0,0,1,1.31738-1.625,5.56686,5.56686,0,0,1,1.83691-.94336,7.29966,7.29966,0,0,1,4.45508.08105,10.20646,10.20646,0,0,1,2.16211,1.13867,8.90815,8.90815,0,0,0-.48828,1.39746,12.43326,12.43326,0,0,0-.292,1.46387h-.91113a4.52208,4.52208,0,0,0-.32422-.8623,3.70683,3.70683,0,0,0-.61816-.89355,3.2528,3.2528,0,0,0-.94336-.69922,2.94767,2.94767,0,0,0-1.333-.27637,2.58982,2.58982,0,0,0-1.64258.52051,1.64841,1.64841,0,0,0-.666,1.36523,1.543,1.543,0,0,0,.56934,1.252,5.64362,5.64362,0,0,0,1.41406.8291q.84521.35889,1.85352.71582a8.2258,8.2258,0,0,1,1.85352.92676,4.84627,4.84627,0,0,1,1.41406,1.47949,4.3491,4.3491,0,0,1,.56934,2.34082,5.36588,5.36588,0,0,1-.52051,2.45508,4.8455,4.8455,0,0,1-1.39746,1.69141,5.62014,5.62014,0,0,1-2,.959,9.29784,9.29784,0,0,1-2.35742.292,7.72972,7.72972,0,0,1-2.63379-.42187,8.75034,8.75034,0,0,1-1.85352-.87793,17.36882,17.36882,0,0,0,.4873-3.12207h.81348A4.96631,4.96631,0,0,0,1114.94336,592.25781Z" transform="translate(-238.9502 -145.10611)"/><path class="cls-1" d="M548.29541,523.18457a18.804,18.804,0,0,0-.61816,3.28223q-6.25562,3.16553-15.75439,3.166a35.53483,35.53483,0,0,1-12.00879-1.8916,25.41985,25.41985,0,0,1-8.9585-5.3291,22.92553,22.92553,0,0,1-5.59912-8.14746,26.60682,26.60682,0,0,1-1.93066-10.19434,33.221,33.221,0,0,1,2.50977-13.63086,24.89312,24.89312,0,0,1,6.71875-9.1123,26.71544,26.71544,0,0,1,9.76953-5.13574,41.4433,41.4433,0,0,1,11.66162-1.62207,31.29751,31.29751,0,0,1,4.24756.30859q2.239.31055,4.32471.81152a36.09957,36.09957,0,0,1,3.97705,1.19629,20.07852,20.07852,0,0,1,3.20508,1.46777,24.17462,24.17462,0,0,0-1.19727,3.90039,29.53915,29.53915,0,0,0-.5791,3.97656h-1.08105a19.05273,19.05273,0,0,0-6.02393-5.29,15.72771,15.72771,0,0,0-7.25928-1.583,15.2058,15.2058,0,0,0-6.2168,1.39063,16.69152,16.69152,0,0,0-5.67627,4.24707,21.83808,21.83808,0,0,0-4.13184,7.29785,31.70179,31.70179,0,0,0-1.583,10.61914,28.28986,28.28986,0,0,0,1.62158,10.15527,20.05054,20.05054,0,0,0,4.209,6.873,15.94214,15.94214,0,0,0,5.86914,3.90039,18.60546,18.60546,0,0,0,6.603,1.23535,17.51986,17.51986,0,0,0,3.78418-.4248,24.44561,24.44561,0,0,0,3.78418-1.1582,19.64509,19.64509,0,0,0,3.51416-1.81445,15.76272,15.76272,0,0,0,2.896-2.39453l1.00391.61816Q548.75757,521.52393,548.29541,523.18457Z" transform="translate(-238.9502 -145.10611)"/><path class="cls-1" d="M570.38184,502.2168a27.25532,27.25532,0,0,1,2.12354-10.73437,26.82449,26.82449,0,0,1,5.98535-8.80371,27.67,27.67,0,0,1,9.34473-5.94727,33.02181,33.02181,0,0,1,12.20166-2.16211,37.71253,37.71253,0,0,1,11.50732,1.69922,26.1827,26.1827,0,0,1,9.26709,5.09668,23.708,23.708,0,0,1,6.2168,8.61133,30.16027,30.16027,0,0,1,2.27832,12.16309,26.62154,26.62154,0,0,1-2.20117,10.8125,27.13082,27.13082,0,0,1-6.10059,8.76465,27.58756,27.58756,0,0,1-9.30615,5.83105,32.7999,32.7999,0,0,1-11.89307,2.085A42.28071,42.28071,0,0,1,588.3374,528.127a24.54892,24.54892,0,0,1-9.34473-4.86523,23.49476,23.49476,0,0,1-6.29395-8.57227A30.55569,30.55569,0,0,1,570.38184,502.2168Zm46.25977-1.69922a30.33173,30.33173,0,0,0-1.23584-8.99707,20.63931,20.63931,0,0,0-3.43652-6.75684,15.05155,15.05155,0,0,0-5.3291-4.28613,15.54607,15.54607,0,0,0-6.83447-1.50586,13.38682,13.38682,0,0,0-7.06641,1.8916,16.76466,16.76466,0,0,0-5.29,5.13574,24.61779,24.61779,0,0,0-3.28223,7.60742,37.30354,37.30354,0,0,0-1.11963,9.30566,35.68159,35.68159,0,0,0,1.3125,10.42578,18.77269,18.77269,0,0,0,3.55273,6.835,13.20859,13.20859,0,0,0,5.17432,3.74512,16.66784,16.66784,0,0,0,6.17822,1.1582,15.61258,15.61258,0,0,0,6.6416-1.4668,14.99192,14.99192,0,0,0,5.522-4.47949,23.617,23.617,0,0,0,3.78418-7.64551A37.43279,37.43279,0,0,0,616.6416,500.51758Z" transform="translate(-238.9502 -145.10611)"/><path class="cls-1" d="M653.47852,485.57422q-.15527-4.98047-.46289-10.001,3.47461.07764,6.873.23145,3.397.15674,6.873.1543,5.71436,0,10.15625-.11523,4.43994-.11572,5.98438-.27051a13.81014,13.81014,0,0,0-.30859,3.24316,18.49622,18.49622,0,0,0,.07715,1.93164q.07617.69434.23145,1.54395-2.23975-.15381-4.90332-.30859-2.66455-.15381-5.1748-.30859-2.51074-.15527-4.51758-.23242-2.00977-.07617-2.85742-.07715-.30908,4.248-.34766,8.418-.03955,4.17041-.03809,8.418,5.01855-.07617,9.07422-.23145,4.05469-.15381,8.45605-.38672-.23145,1.314-.30859,2.00781a13.264,13.264,0,0,0-.07715,1.46777,7.316,7.316,0,0,0,.11523,1.27441c.07715.4375.167,1.06934.27051,1.8916q-8.80371-.69434-17.53027-.69434v3.93848q0,6.41016.1543,11.39063.15381,4.98193.46289,9.76953a24.43581,24.43581,0,0,0-2.85742-.1543H655.873a24.41184,24.41184,0,0,0-2.85742.1543q.30762-4.78711.46289-9.76953.15381-4.98047.15527-11.39062V496.96582Q653.63379,490.55566,653.47852,485.57422Z" transform="translate(-238.9502 -145.10611)"/><path class="cls-1" d="M707.53809,485.57422q-.15527-4.98047-.46289-10.001,3.47461.07764,6.873.23145,3.397.15674,6.873.1543,5.71436,0,10.15625-.11523,4.43994-.11572,5.98438-.27051a13.81014,13.81014,0,0,0-.30859,3.24316,18.49618,18.49618,0,0,0,.07715,1.93164q.07617.69434.23145,1.54395-2.23975-.15381-4.90332-.30859-2.66455-.15381-5.1748-.30859-2.51074-.15527-4.51758-.23242-2.00977-.07617-2.85742-.07715-.30908,4.248-.34766,8.418-.03955,4.17041-.03809,8.418,5.01855-.07617,9.07422-.23145,4.05469-.15381,8.45605-.38672-.23145,1.314-.30859,2.00781a13.264,13.264,0,0,0-.07715,1.46777,7.316,7.316,0,0,0,.11523,1.27441c.07715.4375.167,1.06934.27051,1.8916q-8.80371-.69434-17.53027-.69434v3.93848q0,6.41016.1543,11.39063.15381,4.98193.46289,9.76953a24.43581,24.43581,0,0,0-2.85742-.1543h-6.9502a24.41185,24.41185,0,0,0-2.85742.1543q.30762-4.78711.46289-9.76953.15381-4.98047.15527-11.39062V496.96582Q707.69336,490.55566,707.53809,485.57422Z" transform="translate(-238.9502 -145.10611)"/><path class="cls-1" d="M761.59766,485.57422q-.15527-4.98047-.46289-10.001,3.47461.07764,6.873.23145,3.397.15674,6.873.1543,5.71436,0,10.15625-.11523,4.43994-.11572,5.98438-.27051a13.81014,13.81014,0,0,0-.30859,3.24316A18.49618,18.49618,0,0,0,790.79,480.748q.07617.69434.23145,1.54395-2.23975-.15381-4.90332-.30859-2.66455-.15381-5.1748-.30859-2.51074-.15527-4.51758-.23242-2.00977-.07617-2.85742-.07715-.30908,4.248-.34766,8.418-.03955,4.17041-.03809,8.418,5.01855-.07617,9.07422-.23145,4.05469-.15381,8.45605-.38672-.23145,1.314-.30859,2.00781a13.264,13.264,0,0,0-.07715,1.46777,7.316,7.316,0,0,0,.11523,1.27441c.07715.4375.167,1.06934.27051,1.8916q-8.80371-.69434-17.53027-.69434,0,2.47266-.03906,4.94238-.03955,2.47266-.03809,4.94238,0,5.02148.23145,9.65332,4.40186,0,8.80371-.23145t8.88086-.77246c-.10352.56738-.18066,1.08105-.23145,1.54492a24.19629,24.19629,0,0,0,0,3.86133,5.64451,5.64451,0,0,0,.23145,1.1582q-2.08447-.07764-5.13477-.11523-3.05273-.041-8.37988-.03906H765.2666c-1.1582,0-2.03516.01172-2.626.03906q-.88916.03662-1.50586.11523.30762-4.78711.46289-9.76953.15381-4.98047.15527-11.39062V496.96582Q761.75293,490.55566,761.59766,485.57422Z" transform="translate(-238.9502 -145.10611)"/><path class="cls-1" d="M815.65723,485.57422q-.15527-4.98047-.46289-10.001,3.47461.07764,6.873.23145,3.397.15674,6.873.1543,5.71436,0,10.15625-.11523,4.43994-.11572,5.98438-.27051a13.81014,13.81014,0,0,0-.30859,3.24316,18.49621,18.49621,0,0,0,.07715,1.93164q.07617.69434.23145,1.54395-2.23975-.15381-4.90332-.30859-2.66455-.15381-5.1748-.30859-2.51074-.15527-4.51758-.23242-2.00977-.07617-2.85742-.07715-.30908,4.248-.34766,8.418-.03955,4.17041-.03809,8.418,5.01855-.07617,9.07422-.23145,4.05469-.15381,8.45605-.38672-.23145,1.314-.30859,2.00781a13.264,13.264,0,0,0-.07715,1.46777,7.316,7.316,0,0,0,.11523,1.27441c.07715.4375.167,1.06934.27051,1.8916q-8.80371-.69434-17.53027-.69434,0,2.47266-.03906,4.94238-.03955,2.47266-.03809,4.94238,0,5.02148.23145,9.65332,4.40186,0,8.80371-.23145t8.88086-.77246c-.10352.56738-.18066,1.08105-.23145,1.54492a24.19629,24.19629,0,0,0,0,3.86133,5.64451,5.64451,0,0,0,.23145,1.1582q-2.08447-.07764-5.13477-.11523-3.05273-.041-8.37988-.03906H819.32617c-1.1582,0-2.03516.01172-2.626.03906q-.88916.03662-1.50586.11523.30762-4.78711.46289-9.76953.15381-4.98047.15527-11.39062V496.96582Q815.8125,490.55566,815.65723,485.57422Z" transform="translate(-238.9502 -145.10611)"/><path class="cls-1" d="M494.13574,369.86963q0-2.92236-.07031-5.19531-.07178-2.272-.21191-4.5625c.39941.04785.833.08887,1.30371.124q.70459.05273,1.585.05273,1.51465,0,3.1709-.08789,1.65527-.08789,3.16992-.08887a12.25277,12.25277,0,0,1,2.88867.31738,6.81216,6.81216,0,0,1,2.25488.96875,4.34239,4.34239,0,0,1,1.46191,1.69141,5.58586,5.58586,0,0,1,.51074,2.4834,4.88921,4.88921,0,0,1-.59961,2.4834,6.02007,6.02007,0,0,1-1.46191,1.72559,7.0879,7.0879,0,0,1-1.86621,1.0752,9.79932,9.79932,0,0,1-1.81445.52832v.07031a7.772,7.772,0,0,1,1.90234.37012,7.174,7.174,0,0,1,2.07813,1.03906,6.21015,6.21015,0,0,1,1.67285,1.81348,5.0258,5.0258,0,0,1,.6875,2.69531,7.03194,7.03194,0,0,1-.6875,3.24121,6.15608,6.15608,0,0,1-1.83105,2.18359,6.93874,6.93874,0,0,1-2.625,1.17969,13.81706,13.81706,0,0,1-3.06445.335q-1.40918,0-2.624-.03516-1.21582-.03516-2.55469-.03516h-1.95508a14.40833,14.40833,0,0,0-1.60254.07031q.14063-2.18408.21191-4.45605.06885-2.272.07031-5.19629Zm10.84961-3.62793a6.50265,6.50265,0,0,0-.19336-1.60254,3.27021,3.27021,0,0,0-.65234-1.30371,3.4065,3.4065,0,0,0-1.16211-.88086,4.10543,4.10543,0,0,0-1.76172-.334q-.7749,0-1.07422.01758a4.7537,4.7537,0,0,0-.65137.08789q-.07178,1.30371-.10645,2.6416-.03516,1.33887-.03516,2.25488,0,.95068.01758,1.81445.01758.86279.01758,1.77832h1.58594a3.999,3.999,0,0,0,1.46191-.28125,3.85084,3.85084,0,0,0,1.28516-.82812,4.0977,4.0977,0,0,0,.916-1.3916A5.1076,5.1076,0,0,0,504.98535,366.2417Zm.24609,11.37793a5.30512,5.30512,0,0,0-1.10937-3.68066,4.14311,4.14311,0,0,0-3.22266-1.21582c-.3291,0-.61133.00684-.8457.01758-.23535.0127-.458.01758-.66992.01758q0,.73975-.01758,1.5332-.01758.79248-.01758,1.88379,0,.84668.01758,1.72656.01758.88037.01758,1.72656,0,.84521.01855,1.5498c.01074.46973.01758.85742.01758,1.16211.32813.02344.63379.041.915.05273.28223.0127.62207.01758,1.02246.01758a3.5783,3.5783,0,0,0,1.47949-.31641,3.52232,3.52232,0,0,0,1.23242-.93359,4.75047,4.75047,0,0,0,.8457-1.49707A6.03537,6.03537,0,0,0,505.23145,377.61963Z" transform="translate(-238.9502 -145.10611)"/><path class="cls-1" d="M522.56348,372.26514a12.42908,12.42908,0,0,1,.96875-4.89648,12.25341,12.25341,0,0,1,2.72949-4.01562,12.6188,12.6188,0,0,1,4.2627-2.71191,15.059,15.059,0,0,1,5.56641-.98633,17.18788,17.18788,0,0,1,5.248.77441,11.93123,11.93123,0,0,1,4.22754,2.3252,10.82559,10.82559,0,0,1,2.83594,3.92773,13.76264,13.76264,0,0,1,1.03906,5.54785,12.14525,12.14525,0,0,1-1.00391,4.93164,12.36908,12.36908,0,0,1-2.7832,3.999,12.58687,12.58687,0,0,1-4.24512,2.65918,14.9604,14.9604,0,0,1-5.4248.95117,19.27765,19.27765,0,0,1-5.23047-.68652,11.19656,11.19656,0,0,1-4.2627-2.21973,10.71556,10.71556,0,0,1-2.87109-3.91016A13.94608,13.94608,0,0,1,522.56348,372.26514Zm21.10059-.77441a13.84856,13.84856,0,0,0-.56348-4.10449,9.423,9.423,0,0,0-1.56738-3.082,6.86972,6.86972,0,0,0-2.43066-1.95508,7.09094,7.09094,0,0,0-3.11816-.68652,6.10434,6.10434,0,0,0-3.22266.8623,7.64714,7.64714,0,0,0-2.41309,2.34277,11.21424,11.21424,0,0,0-1.49707,3.46973,17.01511,17.01511,0,0,0-.51074,4.24512,16.28132,16.28132,0,0,0,.59863,4.75586,8.557,8.557,0,0,0,1.62012,3.11719,6.03,6.03,0,0,0,2.36035,1.709,7.62175,7.62175,0,0,0,2.81836.52832,7.10706,7.10706,0,0,0,3.0293-.66992,6.82766,6.82766,0,0,0,2.51855-2.043,10.74884,10.74884,0,0,0,1.72656-3.4873A17.09154,17.09154,0,0,0,543.66406,371.49072Z" transform="translate(-238.9502 -145.10611)"/><path class="cls-1" d="M562.93262,367.12256q0-2.43018-.07031-4.08691-.07031-1.65527-.10547-2.92383a7.19443,7.19443,0,0,0,3.16992,0q3.83936,4.2627,7.5918,8.38477,3.75146,4.12061,7.69727,8.38379v-6.48145q0-1.72559-.01758-3.39941-.019-1.67285-.03516-3.083-.019-1.40771-.07031-2.43066a11.57162,11.57162,0,0,0-.124-1.374,7.19881,7.19881,0,0,0,3.1709,0q-.17725,3.20654-.28223,5.79492-.10547,2.58984-.17578,4.87891-.07178,2.291-.08789,4.52734-.019,2.23682-.01758,4.77246V384.313c-.4707-.04687-.95117-.07031-1.44434-.07031a11.91273,11.91273,0,0,0-1.374.07031q-7.25684-8.45361-15.39453-17.01465-.03516,1.02246-.05273,2.043-.01758,1.02246-.01758,2.0791v4.08594q0,2.11377.01758,3.59277.01758,1.47949.05273,2.502.03516,1.021.07031,1.67285t.07129,1.03906a5.15636,5.15636,0,0,0-.8457-.07031h-.81055q-.81006,0-1.62012.07031a19.45725,19.45725,0,0,0,.17578-2.00781q.10547-1.72559.22949-4.21.123-2.48291.21094-5.38965Q562.93262,369.79932,562.93262,367.12256Z" transform="translate(-238.9502 -145.10611)"/><path class="cls-1" d="M618.06348,384.313q-.84521-.07031-1.60254-.07031H613.4668q-.75879,0-1.498.07031-.5625-1.72559-1.16211-3.52246-.59912-1.79736-1.26855-3.59277-1.12646-.03516-2.25391-.05371-1.12793-.01611-2.25488-.01758-.91553,0-1.832.01758-.91553.019-1.83105.05371-.70605,1.7959-1.30371,3.59277-.59912,1.7959-1.0918,3.52246a5.053,5.053,0,0,0-.82812-.07031h-1.67285a6.50641,6.50641,0,0,0-.916.07031q.42188-.91553,1.127-2.53613.70459-1.62012,1.5498-3.66406.84521-2.042,1.81445-4.38574.96826-2.34229,1.9375-4.7373.96826-2.395,1.90234-4.7207.93311-2.32471,1.708-4.333c.23438.04785.458.08789.66992.123a4.27541,4.27541,0,0,0,1.33887,0c.21094-.03516.43359-.0752.66895-.123q1.12646,2.99414,2.41309,6.41113,1.28467,3.41748,2.58887,6.71094,1.30371,3.29443,2.53613,6.25293Q617.042,382.27,618.06348,384.313Zm-12.4707-17.57812q-.91553,2.11377-1.72559,4.1748-.81152,2.05957-1.585,4.209h6.44629q-.7749-2.14746-1.53223-4.209Q606.4375,368.84863,605.59277,366.73486Z" transform="translate(-238.9502 -145.10611)"/><path class="cls-1" d="M630.81543,367.12256q0-2.43018-.07031-4.08691-.07178-1.65527-.10645-2.92383a7.19881,7.19881,0,0,0,3.1709,0q3.83936,4.2627,7.5918,8.38477,3.75146,4.12061,7.69629,8.38379v-6.48145q0-1.72559-.01758-3.39941-.01758-1.67285-.03516-3.083-.01758-1.40771-.07031-2.43066a11.64007,11.64007,0,0,0-.123-1.374,7.19443,7.19443,0,0,0,3.16992,0q-.17578,3.20654-.28125,5.79492-.10547,2.58984-.17676,4.87891-.07031,2.291-.08789,4.52734-.01758,2.23682-.01758,4.77246V384.313q-.70459-.07031-1.44434-.07031a11.91273,11.91273,0,0,0-1.374.07031q-7.25684-8.45361-15.39355-17.01465-.03516,1.02246-.05273,2.043-.019,1.02246-.01758,2.0791v4.08594q0,2.11377.01758,3.59277.01758,1.47949.05273,2.502.03516,1.021.07031,1.67285t.07031,1.03906a5.13865,5.13865,0,0,0-.8457-.07031h-.80957q-.81152,0-1.62109.07031a19.31183,19.31183,0,0,0,.17676-2.00781q.10547-1.72559.22852-4.21.123-2.48291.21191-5.38965Q630.814,369.79932,630.81543,367.12256Z" transform="translate(-238.9502 -145.10611)"/><path class="cls-1" d="M666.8877,379.27588q1.585-2.53711,3.24121-5.31934,1.65527-2.7832,3.293-5.63672,1.63916-2.85352,3.083-5.49512l-.03516-.07031q-2.748,0-5.56641.03516t-5.46.28223c.04688-.25879.08789-.50488.123-.74023a5.21486,5.21486,0,0,0,0-1.47949q-.05273-.35156-.123-.74023,1.62012,0,2.87109.03613,1.24951.03516,2.36035.05273,1.10889.01758,2.18359.05273,1.0752.03516,2.30762.03516,1.09131,0,2.02539-.01758.93311-.01758,1.91992-.03516.98584-.01758,2.11328-.05273,1.12793-.03516,2.60742-.07129v.63477q-3.312,5.28369-6.34082,10.46191-3.03076,5.17822-6.02441,10.498v.07031q2.748,0,4.65039-.01758,1.90283-.01758,3.31152-.05273,1.40771-.03516,2.41309-.08789,1.00342-.05273,1.95508-.124a7.25844,7.25844,0,0,1-.10547.74023,3.70115,3.70115,0,0,0-.07129.73926,3.44124,3.44124,0,0,0,.07129.72266c.0459.22363.082.42871.10547.61621q-2.21924-.07031-4.28027-.07031h-4.52637q-4.2627,0-7.11621.01758t-3.875.05273v-.49316Q665.30273,381.81152,666.8877,379.27588Z" transform="translate(-238.9502 -145.10611)"/><path class="cls-1" d="M716.90918,384.313q-.84521-.07031-1.60254-.07031H712.3125c-.50586,0-1.00391.02344-1.49707.07031q-.564-1.72559-1.16309-3.52246-.59912-1.79736-1.26758-3.59277-1.12793-.03516-2.25488-.05371-1.12793-.01611-2.25488-.01758-.91553,0-1.83105.01758-.917.019-1.832.05371-.70459,1.7959-1.30371,3.59277-.59912,1.7959-1.0918,3.52246a5.044,5.044,0,0,0-.82812-.07031h-1.67285a6.50641,6.50641,0,0,0-.916.07031q.42334-.91553,1.127-2.53613.70459-1.62012,1.55078-3.66406.84521-2.042,1.81348-4.38574.96826-2.34229,1.9375-4.7373.96826-2.395,1.90234-4.7207.93311-2.32471,1.709-4.333c.23438.04785.458.08789.66895.123a4.27541,4.27541,0,0,0,1.33887,0c.21094-.03516.43359-.0752.66895-.123q1.12646,2.99414,2.41309,6.41113,1.28613,3.41748,2.58887,6.71094,1.30371,3.29443,2.53711,6.25293Q715.88721,382.27,716.90918,384.313Zm-12.46973-17.57812q-.917,2.11377-1.72656,4.1748-.81006,2.05957-1.585,4.209h6.44629q-.7749-2.14746-1.53223-4.209Q705.28467,368.84863,704.43945,366.73486Z" transform="translate(-238.9502 -145.10611)"/><path class="cls-1" d="M747.55664,364.67432q-.07178-2.272-.21191-4.5625,1.585.03662,3.13574.10645,1.5498.07031,3.13477.07031,2.606,0,4.63281-.05273,2.02441-.05273,2.72949-.124a6.31431,6.31431,0,0,0-.14062,1.47949,8.47264,8.47264,0,0,0,.03516.88086c.02344.21191.05859.44629.10547.70508q-1.02246-.07031-2.23633-.1416-1.21582-.06885-2.36035-.14062-1.14551-.07031-2.06055-.10547-.917-.03516-1.30371-.03516-.14209,1.938-.1582,3.83984-.019,1.90137-.01855,3.83984,2.28955-.03516,4.13965-.10645,1.8501-.06885,3.85742-.17578c-.07031.39941-.11816.70508-.14062.916a5.84158,5.84158,0,0,0-.03516.66895,3.358,3.358,0,0,0,.05273.582c.03516.19922.0752.4873.123.8623q-4.0166-.31641-7.99707-.31641v1.7959q0,2.92529.07129,5.19629.07031,2.272.21094,4.45605a11.22324,11.22324,0,0,0-1.30371-.07031h-3.16992a11.22324,11.22324,0,0,0-1.30371.07031q.14063-2.18408.21191-4.45605.07031-2.272.07031-5.19629v-4.791Q747.627,366.94727,747.55664,364.67432Z" transform="translate(-238.9502 -145.10611)"/><path class="cls-1" d="M792.29492,384.313q-.84521-.07031-1.60254-.07031h-2.99414c-.50586,0-1.00391.02344-1.49707.07031q-.564-1.72559-1.16309-3.52246-.59912-1.79736-1.26758-3.59277-1.12793-.03516-2.25488-.05371-1.12793-.01611-2.25488-.01758-.91553,0-1.83105.01758-.917.019-1.832.05371-.70459,1.7959-1.30371,3.59277-.59912,1.7959-1.0918,3.52246a5.044,5.044,0,0,0-.82812-.07031h-1.67285a6.50641,6.50641,0,0,0-.916.07031q.42334-.91553,1.127-2.53613.70459-1.62012,1.55078-3.66406.84521-2.042,1.81348-4.38574.96826-2.34229,1.9375-4.7373.96826-2.395,1.90234-4.7207.93311-2.32471,1.709-4.333c.23438.04785.458.08789.66895.123a4.27541,4.27541,0,0,0,1.33887,0c.21094-.03516.43359-.0752.66895-.123q1.12646,2.99414,2.41309,6.41113,1.28613,3.41748,2.58887,6.71094,1.30371,3.29443,2.53711,6.25293Q791.27295,382.27,792.29492,384.313ZM779.8252,366.73486q-.917,2.11377-1.72656,4.1748-.81006,2.05957-1.585,4.209H782.96q-.7749-2.14746-1.53223-4.209Q780.67041,368.84863,779.8252,366.73486Z" transform="translate(-238.9502 -145.10611)"/><path class="cls-1" d="M809.94336,373.21631v1.44434q0,2.92529.07031,5.19629.07031,2.272.21191,4.45605a11.22324,11.22324,0,0,0-1.30371-.07031H805.752a11.199,11.199,0,0,0-1.30371.07031q.14063-2.18408.21094-4.45605t.07031-5.19629v-4.791q0-2.92236-.07031-5.19531-.07031-2.272-.21094-4.5625.59766.07178,1.30371.124.70313.05273,1.585.05273.95068,0,2.166-.08789,1.21582-.08789,3.01172-.08887,1.33887,0,2.29.07129a13.09341,13.09341,0,0,1,1.6377.21094,5.787,5.787,0,0,1,1.19824.37012,6.01427,6.01427,0,0,1,.96875.5459,5.46169,5.46169,0,0,1,2.29,4.64941,6.16232,6.16232,0,0,1-1.40918,4.19238,7.69871,7.69871,0,0,1-4.05176,2.29q1.69189,2.99414,3.62891,5.9707,1.93652,2.97656,3.875,5.90039-.81152-.07031-1.585-.07031h-3.18848q-.79248,0-1.60254.07031l-6.30566-11.09668Zm5.56641-6.48145a7.77341,7.77341,0,0,0-.31738-2.46582,2.79628,2.79628,0,0,0-.96875-1.3916,3.65532,3.65532,0,0,0-1.69141-.61621,18.83912,18.83912,0,0,0-2.4834-.14062q-.10547,4.79-.10547,9.58105c.14063.02344.27637.042.40527.05273.12891.0127.252.01758.37012.01758a4.77518,4.77518,0,0,0,3.55762-1.25A5.19305,5.19305,0,0,0,815.50977,366.73486Z" transform="translate(-238.9502 -145.10611)"/><path class="cls-1" d="M837.03223,376.42236q-.28125,3.94629-.56348,7.89063a5.13575,5.13575,0,0,0-.84473-.07031h-1.63867a5.02349,5.02349,0,0,0-.82715.07031q1.12646-6.05859,2.00781-12.04785.87891-5.98828,1.62012-12.15332c.25781.04785.499.08887.72168.124a4.65349,4.65349,0,0,0,.72266.05273,4.52238,4.52238,0,0,0,.66895-.05273q.35156-.05273.74023-.124.95068,2.11377,1.99023,4.29785,1.03857,2.18555,2.07813,4.35059,1.03857,2.1665,2.07813,4.24512,1.04,2.07861,1.99121,3.94531,2.1123-3.94482,4.209-8.26074,2.09619-4.314,3.998-8.57812a7.84955,7.84955,0,0,0,1.51563.17676,7.73925,7.73925,0,0,0,1.47949-.17676q.35156,3.03076.75684,6.51758.4043,3.48779.793,6.81641.38672,3.32813.77441,6.21777.38818,2.88867.70508,4.64941-.70605-.07031-1.42676-.07031h-2.87109q-.73975,0-1.47949.07031-.17725-3.627-.58105-7.85547-.40576-4.22754-.82812-8.38379H854.752q-2.0083,4.15723-3.94531,8.17285-1.938,4.01514-3.83984,8.06641c-.11816-.02344-.22949-.041-.335-.05273a3.19092,3.19092,0,0,0-.66895,0c-.10547.01172-.21777.0293-.335.05273q-1.90137-3.94482-3.78711-7.89062-1.88379-3.94482-3.89258-7.99609h-.07031Q837.314,372.47656,837.03223,376.42236Z" transform="translate(-238.9502 -145.10611)"/><path class="cls-2" d="M655.99759,176.0537c0,12.7031,4.0952,23.4834,13.5805,30.169,2.2984,1.6294,6.7696,3.7612,10.5298,3.7612,5.89211,0,6.728-13.4551,4.0112-21.7285-3.1753-9.7364-11.3237-19.5142-7.1035-36.0196a14.23386,14.23386,0,0,1,1.0445-3.0922c1.12891-2.5064,1.6303-4.4288-.9605-3.9693-15.0425,2.5073-21.102,20.2241-21.102,30.8794Z" transform="translate(-238.9502 -145.10611)"/><path class="cls-3" d="M682.32279,223.313a8.37793,8.37793,0,1,0,8.3569,8.3989,8.36373,8.36373,0,0,0-8.3569-8.3989Z" transform="translate(-238.9502 -145.10611)"/><path class="cls-3" d="M721.89359,268.4829a77.373,77.373,0,0,1,44.5849,44.5859,2.16452,2.16452,0,0,1-2.7998,2.7569,77.22979,77.22979,0,0,1-44.543-44.543,2.16558,2.16558,0,0,1,2.7579-2.7998Z" transform="translate(-238.9502 -145.10611)"/><path class="cls-3" d="M645.50979,271.2827a77.23034,77.23034,0,0,1-44.5435,44.543,2.16483,2.16483,0,0,1-2.7993-2.7569,77.36727,77.36727,0,0,1,44.585-44.5859,2.16529,2.16529,0,0,1,2.75779,2.7998Z" transform="translate(-238.9502 -145.10611)"/><path class="cls-3" d="M642.752,194.8989a77.25144,77.25144,0,0,1-44.585-44.5849,2.1653,2.1653,0,0,1,2.7993-2.7578,77.23129,77.23129,0,0,1,44.5435,44.5429,2.16524,2.16524,0,0,1-2.75779,2.7998Z" transform="translate(-238.9502 -145.10611)"/><path class="cls-2" d="M737.93849,205.3457c-12.7031,0-23.4414,4.1367-30.168,13.5796-1.6299,2.2983-3.7617,6.769-3.7617,10.5718,0,5.8921,13.4551,6.686,21.7285,4.0117,9.7363-3.1763,19.51471-11.3237,36.0615-7.104a15.03042,15.03042,0,0,1,3.0918,1.0449c2.5059,1.0864,4.3877,1.6299,3.9698-.9614-2.5499-15.0425-20.2666-21.1426-30.9219-21.1426Z" transform="translate(-238.9502 -145.10611)"/><path class="cls-2" d="M708.64749,287.3281c0-12.7016-4.0948-23.4824-13.5801-30.1694-2.2988-1.6289-6.7695-3.7608-10.5303-3.7608-5.8916,0-6.7275,13.4566-4.0112,21.7286,3.1753,9.7353,11.3237,19.5136,7.104,36.0195a14.16647,14.16647,0,0,1-1.04589,3.0918c-1.127,2.5059-1.62791,4.4297.96189,4.0117,15.043-2.5498,21.1016-20.2661,21.1016-30.9214Z" transform="translate(-238.9502 -145.10611)"/><path class="cls-2" d="M626.7065,258.0371c12.7027,0,23.4419-4.1377,30.127-13.5806,1.6299-2.2983,3.8022-6.769,3.8022-10.5717,0-5.8921-13.4545-6.6861-21.728-4.0118-9.7363,3.1753-19.51369,11.3658-36.0605,7.1451a18.066,18.066,0,0,1-3.0923-1.085c-2.5073-1.0879-4.3872-1.5879-3.9697,1.0029,2.5488,15.0411,20.2661,21.1011,30.9213,21.1011Z" transform="translate(-238.9502 -145.10611)"/><path class="cls-3" d="M719.13569,192.0991a77.23074,77.23074,0,0,1,44.543-44.5429,2.165,2.165,0,0,1,2.7998,2.7578,77.2571,77.2571,0,0,1-44.5849,44.5849,2.16553,2.16553,0,0,1-2.7579-2.7998Z" transform="translate(-238.9502 -145.10611)"/><path class="cls-2" d="M610.8701,231.2524c16.8809,0,25.2793-12.5361,42.2027-9.4438,1.6713.3345,8.8584,2.9253,3.30121-3.6353-.54291-.6264-.91941-.9189-1.50441-1.5039l-1.0869-1.2119c-10.90569-11.4072-31.2964-13.2881-45.2109-4.9306-4.5132,2.6738-11.6582,8.6494-11.6582,14.332,0,4.1787,9.9028,6.3935,13.9565,6.3935Z" transform="translate(-238.9502 -145.10611)"/><path class="cls-2" d="M681.90429,303.165c0-16.9228-12.5352-25.2812-9.4429-42.2451.2925-1.6299,2.8833-8.8169-3.6352-3.2588a17.34394,17.34394,0,0,0-1.5459,1.5035l-1.1704,1.0449c-11.4493,10.9477-13.2876,31.2973-4.9727,45.2114,2.6743,4.5132,8.6919,11.7007,14.3325,11.6597,4.2207.041,6.4346-9.8628,6.4346-13.9156Z" transform="translate(-238.9502 -145.10611)"/><path class="cls-2" d="M753.77539,232.1304c-16.9229,0-25.2793,12.5351-42.2451,9.4428-1.6299-.2924-8.8174-2.8828-3.2588,3.6348.543.627.9189.9194,1.5049,1.5059l1.0859,1.2104c10.9053,11.4068,31.2979,13.2881,45.2109,4.9736,4.4717-2.7177,11.6582-8.6928,11.6582-14.3745,0-4.1782-9.9033-6.393-13.956-6.393Z" transform="translate(-238.9502 -145.10611)"/><path class="cls-2" d="M682.74069,160.2168c0,16.9228,12.5357,25.2808,9.4429,42.2456-.292,1.6294-2.8828,8.8584,3.6367,3.2588.668-.543.96-.919,1.5449-1.4624l1.17-1.0864c11.4492-10.9478,13.288-31.2974,4.9716-45.212-2.67379-4.5126-8.6894-11.6582-14.332-11.6582-4.2187,0-6.4341,9.8619-6.4341,13.9146Z" transform="translate(-238.9502 -145.10611)"/></svg>