<svg id="Layer_1" data-name="Layer 1" xmlns="http://www.w3.org/2000/svg" viewBox="0 0 72.06445 20.77349"><defs><style>.cls-1{fill:#52482d;}</style></defs><title>brand-title</title><path class="cls-1" d="M526.9292,405.63574q-.02783-.73389-.0791-1.47266c.34131.00488.6792.0127,1.01367.02637.3335.01172.67139.01758,1.0127.01465q.84229-.00586,1.49658-.02734.65479-.022.88184-.04687a2.0178,2.0178,0,0,0-.04248.47852,2.67146,2.67146,0,0,0,.01416.28516c.00781.06836.01953.14258.03564.22656-.22021-.01367-.46094-.02637-.72363-.04-.26172-.0127-.51562-.02637-.76221-.03906-.24658-.01465-.46924-.02441-.6665-.0293q-.2959-.01025-.4209-.00879-.041.62549-.042,1.24023-.00146.61523.00293,1.24121.73975-.01758,1.3374-.04395.59766-.02783,1.24561-.06641c-.02148.12988-.03613.22754-.043.2959a1.925,1.925,0,0,0-.00977.2168,1.051,1.051,0,0,0,.01855.1875c.01172.06445.02539.15723.0415.2793q-1.29785-.09375-2.58447-.084l.00439.58008q.00732.94482.03516,1.67871c.019.48926.04541.96973.0791,1.43848a3.79331,3.79331,0,0,0-.42139-.01855c-.15186.001-.32227.002-.51221.00391-.18945.001-.36035.002-.51172.00293a3.93757,3.93757,0,0,0-.42139.02637q.04028-.70605.05762-1.44043.01758-.73389.01074-1.67871l-.01123-1.54785Q526.95752,406.36963,526.9292,405.63574Z" transform="translate(-513.93115 -403.78608)"/><path class="cls-1" d="M535.61279,405.57227q-.02783-.73389-.0791-1.47363c.12891.01465.27.02637.42188.03711.15137.00977.32227.01465.51221.0127.18945-.001.35986-.00879.51172-.02051.15186-.0127.291-.02637.42041-.043q-.03955.73975-.05762,1.47461-.01685.73389-.01025,1.67871l.01123,1.54785q.00732.94482.03516,1.67871c.019.48828.04541.96875.0791,1.43848a3.77292,3.77292,0,0,0-.4209-.01953c-.15186.001-.32227.00293-.51172.00391-.18994.001-.36084.00293-.51221.00391a3.70953,3.70953,0,0,0-.42139.02539q.04028-.70459.05762-1.43945.01758-.73535.01074-1.67969l-.01123-1.54785Q535.64111,406.30518,535.61279,405.57227Z" transform="translate(-513.93115 -403.78608)"/><path class="cls-1" d="M542.333,406.31348q-.00586-.78516-.03223-1.32031-.0271-.53467-.041-.94434a2.99276,2.99276,0,0,0,.5127.05371,3.10337,3.10337,0,0,0,.51123-.06055q1.251,1.3667,2.47266,2.69043,1.22168,1.32275,2.50684,2.68945l-.00732-.99023-.0083-1.10352q-.00366-.55811-.01318-1.09766-.01025-.54053-.019-.99512-.00952-.45557-.02832-.78613a3.79677,3.79677,0,0,0-.04346-.44336,3.08144,3.08144,0,0,0,.5127.05273,3.00468,3.00468,0,0,0,.51172-.06055q-.04907,1.03711-.07764,1.873-.0271.83643-.04492,1.57617-.01685.74121-.01758,1.46387-.00073.72217.00537,1.542l.01025,1.36523c-.15186-.01367-.30713-.02051-.4668-.01953a4.12959,4.12959,0,0,0-.44385.02637q-2.36426-2.71436-5.01367-5.46094-.00879.33105-.01221.66016-.00366.33105-.001.67188l.00977,1.32031q.00513.68262.01465,1.16016c.00537.31934.01367.58887.02295.80859.00879.21973.01758.40039.02637.541.0083.13965.01709.252.02539.335a1.61144,1.61144,0,0,0-.27344-.02051c-.09082,0-.17822.001-.26172.002-.17432.001-.34912.00977-.52344.02637a6.28972,6.28972,0,0,0,.05225-.64941q.03-.55811.064-1.36035c.02246-.53418.041-1.11621.05566-1.74219Q542.3396,407.17822,542.333,406.31348Z" transform="translate(-513.93115 -403.78608)"/><path class="cls-1" d="M559.96289,410.93555a2.751,2.751,0,0,0-.0874.48438,5.12312,5.12312,0,0,1-2.31836.48438,5.22063,5.22063,0,0,1-1.772-.2666,3.74155,3.74155,0,0,1-1.32568-.77539,3.3662,3.3662,0,0,1-.8335-1.19434,3.91765,3.91765,0,0,1-.29541-1.501,4.90563,4.90563,0,0,1,.35449-2.01172,3.681,3.681,0,0,1,.98047-1.34961,3.94232,3.94232,0,0,1,1.43408-.76758,6.12857,6.12857,0,0,1,1.71631-.252,4.74331,4.74331,0,0,1,.62646.041q.33032.04395.6377.11523a5.40414,5.40414,0,0,1,.58789.17188,3.04182,3.04182,0,0,1,.47363.21289,3.59345,3.59345,0,0,0-.17187.57617,4.317,4.317,0,0,0-.08105.58691l-.15918.001a2.79583,2.79583,0,0,0-.89355-.77246,2.31665,2.31665,0,0,0-1.07129-.22559,2.22647,2.22647,0,0,0-.915.21191,2.45236,2.45236,0,0,0-.832.63184,3.216,3.216,0,0,0-.60107,1.0791,4.69291,4.69291,0,0,0-.22119,1.56641,4.16047,4.16047,0,0,0,.25,1.49512,2.94486,2.94486,0,0,0,.62744,1.00879,2.34592,2.34592,0,0,0,.86914.56836,2.74932,2.74932,0,0,0,.97412.1748,2.64379,2.64379,0,0,0,.55762-.06641,3.53868,3.53868,0,0,0,.55664-.17578,2.83434,2.83434,0,0,0,.51563-.27051,2.31888,2.31888,0,0,0,.42383-.35645l.14893.08984C560.05908,410.61133,560.00732,410.77246,559.96289,410.93555Z" transform="translate(-513.93115 -403.78608)"/><path class="cls-1" d="M570.314,411.66113c-.18213-.0127-.35449-.01953-.51758-.01855-.16309.002-.32422.00293-.48389.00391-.15918.001-.32031.002-.4834.00391-.16357.001-.32471.00977-.48389.02539q-.18677-.55518-.38379-1.13477-.19849-.57861-.41846-1.1582-.36475-.00732-.72852-.01074-.364-.00439-.72852-.001c-.19727.002-.39453.00488-.5918.01074-.19727.00488-.39453.0127-.5918.02051q-.22339.58154-.41211,1.16406-.1897.58154-.34473,1.14063a1.676,1.676,0,0,0-.26758-.02051c-.08691.001-.17627.001-.26709.002-.09131.001-.18213.001-.27344.002a2.20553,2.20553,0,0,0-.2959.02441q.13477-.2959.3584-.82227.22339-.52441.49219-1.18652.26807-.66211.57568-1.42187c.20459-.50488.40967-1.01758.61426-1.53418q.30762-.77783.60352-1.53027.2959-.75439.5415-1.40332c.07617.01367.14844.02734.2168.03711a1.27889,1.27889,0,0,0,.21631.0166,1.38592,1.38592,0,0,0,.21631-.01953c.06836-.01172.14014-.02539.21582-.041q.37134.96387.79492,2.06543.42334,1.1001.85205,2.16211.4292,1.06055.835,2.01367Q569.97852,411.00439,570.314,411.66113Zm-4.0708-5.64844q-.29077.68408-.54736,1.35254c-.17187.44434-.33887.90039-.50244,1.36426l2.083-.01562q-.25562-.69287-.50488-1.35645Q566.521,406.69238,566.24316,406.0127Z" transform="translate(-513.93115 -403.78608)"/><path class="cls-1" d="M514.022,419.74512q0-.94482-.02246-1.67871-.02271-.73389-.06836-1.47363c.12891.01563.269.02832.4209.04.15186.01074.32275.0166.51221.0166q.48926,0,1.02441-.02832.53467-.02783,1.02441-.02832a3.94639,3.94639,0,0,1,.93311.10254,2.21131,2.21131,0,0,1,.72852.3125,1.40519,1.40519,0,0,1,.47217.54688,1.80262,1.80262,0,0,1,.165.80176,1.58115,1.58115,0,0,1-.19336.80273,1.96233,1.96233,0,0,1-.47217.55762,2.28851,2.28851,0,0,1-.60352.34668,3.11274,3.11274,0,0,1-.58594.1709v.02344a2.46778,2.46778,0,0,1,.61426.11914,2.31784,2.31784,0,0,1,.67188.33594,1.99962,1.99962,0,0,1,.54053.58594,1.623,1.623,0,0,1,.22168.87012,2.27537,2.27537,0,0,1-.22168,1.04785,1.98831,1.98831,0,0,1-.5918.70508,2.23721,2.23721,0,0,1-.84814.38184,4.45993,4.45993,0,0,1-.99023.10742q-.45483,0-.84766-.01074-.39258-.01172-.8252-.01172h-.63135a4.793,4.793,0,0,0-.51807.02246q.04541-.70459.06836-1.43945.02271-.73389.02246-1.67871Zm3.50537-1.17187a2.10139,2.10139,0,0,0-.0625-.51855,1.04971,1.04971,0,0,0-.21045-.4209,1.1001,1.1001,0,0,0-.37549-.28418,1.32148,1.32148,0,0,0-.56934-.1084q-.25049,0-.34668.00586a1.6369,1.6369,0,0,0-.21094.02832q-.02271.42188-.03418.85352c-.00732.28906-.01123.53125-.01123.72852q0,.30762.00586.58594c.00342.18652.00537.37793.00537.5752H516.23a1.29387,1.29387,0,0,0,.47266-.09082,1.257,1.257,0,0,0,.415-.26758,1.32346,1.32346,0,0,0,.2959-.4502A1.63993,1.63993,0,0,0,517.52734,418.57324Zm.08008,3.67578a1.71367,1.71367,0,0,0-.35889-1.18945,1.33834,1.33834,0,0,0-1.041-.39258c-.10645,0-.19775.002-.27344.00586s-.14795.00586-.21631.00586q0,.23877-.00537.49512-.00586.25488-.00586.6084c0,.18262.002.36816.00586.55762.00342.19043.00537.376.00537.55762q0,.27393.00586.501c.00391.15234.00586.27734.00586.376.106.00781.20459.0127.2959.0166q.13623.00586.33008.00586a1.15276,1.15276,0,0,0,.478-.10254,1.13608,1.13608,0,0,0,.39795-.30176,1.52639,1.52639,0,0,0,.27344-.4834A1.94464,1.94464,0,0,0,517.60742,422.249Z" transform="translate(-513.93115 -403.78608)"/><path class="cls-1" d="M523.20654,420.51953a4.012,4.012,0,0,1,.313-1.582,3.95826,3.95826,0,0,1,.88184-1.29785,4.06433,4.06433,0,0,1,1.377-.876,4.85628,4.85628,0,0,1,1.79834-.31934,5.55106,5.55106,0,0,1,1.6958.251,3.8542,3.8542,0,0,1,1.36572.751,3.49771,3.49771,0,0,1,.9165,1.26855,4.453,4.453,0,0,1,.33545,1.793,3.92342,3.92342,0,0,1-.32422,1.59375,3.99746,3.99746,0,0,1-.89941,1.291,4.066,4.066,0,0,1-1.37109.85938,4.82788,4.82788,0,0,1-1.75293.30762,6.2515,6.2515,0,0,1-1.68994-.22168,3.62473,3.62473,0,0,1-1.377-.71777,3.46187,3.46187,0,0,1-.92773-1.2627A4.50713,4.50713,0,0,1,523.20654,420.51953Zm6.81738-.251a4.47987,4.47987,0,0,0-.18213-1.32617,3.0323,3.0323,0,0,0-.50684-.99512,2.20786,2.20786,0,0,0-.78516-.63184,2.284,2.284,0,0,0-1.00732-.22168,1.97386,1.97386,0,0,0-1.041.27832,2.47565,2.47565,0,0,0-.77979.75684,3.63584,3.63584,0,0,0-.48389,1.12109,5.50635,5.50635,0,0,0-.165,1.37109,5.24888,5.24888,0,0,0,.19385,1.53711A2.76419,2.76419,0,0,0,525.79,423.165a1.93482,1.93482,0,0,0,.76221.55176,2.45136,2.45136,0,0,0,.91064.1709,2.31266,2.31266,0,0,0,.979-.21582,2.212,2.212,0,0,0,.81348-.66016,3.47315,3.47315,0,0,0,.55762-1.127A5.50362,5.50362,0,0,0,530.02393,420.26855Z" transform="translate(-513.93115 -403.78608)"/><path class="cls-1" d="M536.249,418.85742q0-.78516-.02246-1.32031-.02344-.53467-.03418-.94434a2.34208,2.34208,0,0,0,1.02393,0q1.24072,1.377,2.45264,2.709,1.21216,1.33154,2.48682,2.708V419.916q0-.55811-.00537-1.09863-.00586-.54053-.01172-.99512-.00586-.45557-.02246-.78613a3.81819,3.81819,0,0,0-.04-.44336,2.34429,2.34429,0,0,0,1.02441,0q-.05713,1.03564-.09131,1.87207-.03369.83643-.05664,1.57617-.02271.73975-.02832,1.46289-.00586.72217-.00586,1.542v1.36523c-.15186-.01465-.30713-.02246-.4668-.02246a3.96423,3.96423,0,0,0-.44385.02246q-2.34448-2.73047-4.97314-5.49707-.01172.33105-.01709.66016-.00586.33105-.00586.67188v1.32031q0,.68262.00586,1.16016.00513.479.01709.80859c.00732.21973.01465.40039.02246.541.00732.13965.01514.252.02295.335a1.72136,1.72136,0,0,0-.27344-.02246h-.26172c-.17432,0-.34912.00781-.52344.02246a6.2994,6.2994,0,0,0,.05713-.64844q.03369-.55811.07373-1.36035.03955-.80127.06836-1.74121Q536.24927,419.72217,536.249,418.85742Z" transform="translate(-513.93115 -403.78608)"/><path class="cls-1" d="M554.06055,424.41113c-.18213-.01465-.35449-.02246-.51758-.02246h-.96729c-.16357,0-.32471.00781-.48389.02246q-.18237-.55664-.37549-1.1377-.19409-.58008-.40967-1.16113-.36475-.01025-.72852-.0166-.364-.00586-.72852-.00586-.2959,0-.5918.00586t-.5918.0166q-.22778.58008-.4209,1.16113-.19409.58008-.353,1.1377a1.6818,1.6818,0,0,0-.26758-.02246H547.084a2.18532,2.18532,0,0,0-.2959.02246q.137-.2959.36426-.81934.22778-.52295.501-1.18359.27319-.65918.58594-1.417.31274-.75586.626-1.53027.31274-.7749.61475-1.52539.301-.75146.55176-1.39941c.07568.01465.14795.02832.21631.03906a1.33969,1.33969,0,0,0,.43262,0c.06836-.01074.14014-.02441.21631-.03906q.364.9668.7793,2.07129.41528,1.103.83643,2.168.42114,1.06348.81982,2.01953Q553.73022,423.75146,554.06055,424.41113Zm-4.02881-5.67871q-.2959.68262-.55762,1.34863-.26221.665-.51221,1.36035h2.083q-.25049-.69434-.49512-1.36035Q550.30444,419.41455,550.03174,418.73242Z" transform="translate(-513.93115 -403.78608)"/><path class="cls-1" d="M558.18018,418.85742q0-.78516-.02246-1.32031-.02344-.53467-.03418-.94434a2.34208,2.34208,0,0,0,1.02393,0q1.24072,1.377,2.45264,2.709,1.21216,1.33154,2.48682,2.708V419.916q0-.55811-.00537-1.09863-.00586-.54053-.01172-.99512-.00586-.45557-.02246-.78613a3.8182,3.8182,0,0,0-.04-.44336,2.34429,2.34429,0,0,0,1.02441,0q-.05713,1.03564-.09131,1.87207-.03369.83643-.05664,1.57617-.02271.73975-.02832,1.46289-.00586.72217-.00586,1.542v1.36523c-.15186-.01465-.30713-.02246-.4668-.02246a3.96423,3.96423,0,0,0-.44385.02246q-2.34448-2.73047-4.97314-5.49707-.01172.33105-.01709.66016-.00586.33105-.00586.67188v1.32031q0,.68262.00586,1.16016.00513.479.01709.80859c.00732.21973.01465.40039.02246.541.00732.13965.01514.252.02295.335a1.72136,1.72136,0,0,0-.27344-.02246h-.26172c-.17432,0-.34912.00781-.52344.02246a6.2994,6.2994,0,0,0,.05713-.64844q.03369-.55811.07373-1.36035.03955-.80127.06836-1.74121Q558.18042,419.72217,558.18018,418.85742Z" transform="translate(-513.93115 -403.78608)"/><path class="cls-1" d="M569.83447,422.78418q.512-.82031,1.04688-1.71875.5354-.89941,1.06445-1.82129.52881-.92139.99561-1.77539l-.01123-.02246q-.8877,0-1.79834.01172-.9104.01025-1.76416.09082c.01514-.084.02881-.16309.04-.23926a1.67651,1.67651,0,0,0,0-.47754c-.01123-.07617-.0249-.15625-.04-.23926q.52368,0,.92773.01172.40356.01025.7627.0166.35815.00586.70557.0166.34717.01172.74512.01172.353,0,.65479-.00586c.20068-.00391.40771-.00684.62012-.01074s.43994-.00977.68311-.01758q.364-.01025.8418-.02246v.20508q-1.06934,1.70654-2.04834,3.37988-.97925,1.67285-1.94629,3.3916v.02246q.8877,0,1.50244-.00586.6145-.00439,1.06982-.0166c.30322-.00781.56348-.01758.7793-.02832.21631-.01172.42676-.02441.63184-.04a2.33088,2.33088,0,0,1-.03418.23926,1.21023,1.21023,0,0,0-.02295.23828,1.126,1.126,0,0,0,.02295.2334c.01514.07227.02637.13867.03418.19922q-.717-.022-1.38281-.02246h-1.4624q-1.377,0-2.29883.00586-.92212.00586-1.252.0166V424.252Q569.32178,423.603,569.83447,422.78418Z" transform="translate(-513.93115 -403.78608)"/><path class="cls-1" d="M585.99561,424.41113c-.18213-.01465-.35449-.02246-.51758-.02246h-.96729c-.16357,0-.32471.00781-.48389.02246q-.18237-.55664-.37549-1.1377-.19409-.58008-.40967-1.16113-.36475-.01025-.72852-.0166-.364-.00586-.72852-.00586-.2959,0-.5918.00586t-.5918.0166q-.22778.58008-.4209,1.16113-.19409.58008-.353,1.1377a1.6818,1.6818,0,0,0-.26758-.02246H579.019a2.18532,2.18532,0,0,0-.2959.02246q.137-.2959.36426-.81934.22778-.52295.501-1.18359.27319-.65918.58594-1.417.31274-.75586.626-1.53027.31274-.7749.61475-1.52539.301-.75146.55176-1.39941c.07568.01465.14795.02832.21631.03906a1.33969,1.33969,0,0,0,.43262,0c.06836-.01074.14014-.02441.21631-.03906q.364.9668.7793,2.07129.41528,1.103.83643,2.168.42114,1.06348.81982,2.01953Q585.66528,423.75146,585.99561,424.41113Zm-4.02881-5.67871q-.2959.68262-.55762,1.34863-.26221.665-.51221,1.36035h2.083q-.25049-.69434-.49512-1.36035Q582.2395,419.41455,581.9668,418.73242Z" transform="translate(-513.93115 -403.78608)"/></svg>