<?xml version="1.0" encoding="iso-8859-1"?>
<!-- Generator: Adobe Illustrator 19.0.0, SVG Export Plug-In . SVG Version: 6.00 Build 0)  -->
<svg version="1.1" id="Capa_1" xmlns="http://www.w3.org/2000/svg" xmlns:xlink="http://www.w3.org/1999/xlink" x="0px" y="0px"
	 viewBox="0 0 302.8 302.8" style="enable-background:new 0 0 302.8 302.8;" xml:space="preserve">
<g>
	<g>
		<path d="M239.2,44.88C216.8,17.16,185.76,0,151.4,0S86,17.16,63.64,44.88C40.003,75.311,27.408,112.871,27.92,151.4
			c-0.524,38.524,12.057,76.084,35.68,106.52c22.4,27.72,53.44,44.88,87.8,44.88s65.4-17.16,87.76-44.88
			c23.637-30.431,36.232-67.991,35.72-106.52C275.404,112.876,262.823,75.316,239.2,44.88z M147.84,289.2
			c-28.72-1.16-54.72-16-73.8-40c-21.639-27.969-33.172-62.44-32.72-97.8c-0.533-35.483,11.004-70.094,32.72-98.16v0.2
			C91.4,31.96,113.96,17.72,139.4,14.2c-12.6,24-35.08,83.12,6.6,140.96C188.84,214.44,156.4,275.16,147.84,289.2z M228.76,249.56
			c-17.36,21.28-39.92,35.52-65.36,39.04c12.6-24,35.08-83.08-6.6-140.92C113.96,88.2,146.44,27.4,154.96,13.44
			c28.72,1.16,54.72,16,73.8,40c21.673,28.012,33.208,62.546,32.72,97.96C262.013,186.883,250.476,221.494,228.76,249.56z"/>
	</g>
</g>
<g>
</g>
<g>
</g>
<g>
</g>
<g>
</g>
<g>
</g>
<g>
</g>
<g>
</g>
<g>
</g>
<g>
</g>
<g>
</g>
<g>
</g>
<g>
</g>
<g>
</g>
<g>
</g>
<g>
</g>
</svg>
