<svg id="Layer_1" data-name="Layer 1" xmlns="http://www.w3.org/2000/svg" viewBox="0 0 91.75879 9.24561"><defs><style>.cls-1{fill:#52482d;}</style></defs><title>contact</title><path class="cls-1" d="M611.98828,388.2832a3.12909,3.12909,0,0,0-.104.55176,5.83412,5.83412,0,0,1-2.64551.53125,5.95911,5.95911,0,0,1-2.01611-.31738,4.27171,4.27171,0,0,1-1.50439-.89453,3.85876,3.85876,0,0,1-.94043-1.36816,4.47482,4.47482,0,0,1-.32373-1.71191,5.575,5.575,0,0,1,.42139-2.28906,4.18406,4.18406,0,0,1,1.12793-1.53027,4.493,4.493,0,0,1,1.64063-.8623,6.95379,6.95379,0,0,1,1.958-.272,5.22127,5.22127,0,0,1,.71338.05176q.37573.052.72607.13623a6.06361,6.06361,0,0,1,.668.20068,3.385,3.385,0,0,1,.53809.24658,4.07074,4.07074,0,0,0-.20117.65479,4.98187,4.98187,0,0,0-.09717.668h-.18164a3.19456,3.19456,0,0,0-1.01123-.88818,2.64154,2.64154,0,0,0-1.21924-.26611,2.55965,2.55965,0,0,0-1.04395.2334,2.80917,2.80917,0,0,0-.95312.71338,3.67183,3.67183,0,0,0-.69385,1.22559,5.32274,5.32274,0,0,0-.26562,1.78271,4.75255,4.75255,0,0,0,.27246,1.70557,3.38474,3.38474,0,0,0,.70654,1.1543,2.67439,2.67439,0,0,0,.98584.6543,3.11721,3.11721,0,0,0,1.1084.208,2.99911,2.99911,0,0,0,.63574-.07129,4.196,4.196,0,0,0,.63525-.19434,3.30932,3.30932,0,0,0,.58984-.30566,2.61732,2.61732,0,0,0,.48633-.40137l.16846.10352Q612.06616,388.00488,611.98828,388.2832Z" transform="translate(-604.4541 -380.12061)"/><path class="cls-1" d="M616.31885,386.25391a3.9835,3.9835,0,0,1,.26611-1.51709,3.2008,3.2008,0,0,1,.70654-1.08252,2.84358,2.84358,0,0,1,1.01807-.64844,3.38877,3.38877,0,0,1,1.18652-.21387,3.11879,3.11879,0,0,1,2.34717.85547,3.19407,3.19407,0,0,1,.83008,2.32129,4.12492,4.12492,0,0,1-.2334,1.42676,3.14071,3.14071,0,0,1-.65479,1.083,2.64645,2.64645,0,0,1-1.00537.667,3.59307,3.59307,0,0,1-1.28369.2207,4.30257,4.30257,0,0,1-1.14746-.15527,2.75571,2.75571,0,0,1-1.01807-.52539,2.68838,2.68838,0,0,1-.73291-.96582A3.44785,3.44785,0,0,1,616.31885,386.25391Zm4.43506-.47949a4.40475,4.40475,0,0,0-.28516-1.77.97382.97382,0,0,0-.94678-.62891,1.04637,1.04637,0,0,0-.93994.7002,5.23787,5.23787,0,0,0-.34375,2.19189,7.32337,7.32337,0,0,0,.06494,1.01074,3.08806,3.08806,0,0,0,.21387.81055,1.38,1.38,0,0,0,.38916.53809.92456.92456,0,0,0,.603.19434Q620.75366,388.82129,620.75391,385.77441Z" transform="translate(-604.4541 -380.12061)"/><path class="cls-1" d="M628.87207,383.93311a2.764,2.764,0,0,1,.84912-.84326,2.07864,2.07864,0,0,1,1.10889-.29785,1.94544,1.94544,0,0,1,1.49756.564,2.61888,2.61888,0,0,1,.52539,1.82178q0,.66211-.02588,1.167c-.01758.33691-.02588.6748-.02588,1.01172q0,.41455.01953.90137.019.48633.04541.94043a2.86276,2.86276,0,0,0-.42822-.02637h-1.08936a2.85112,2.85112,0,0,0-.42773.02637,15.44692,15.44692,0,0,0,.1167-1.58887q.02563-.91406.02588-2.09473a2.05314,2.05314,0,0,0-.27881-1.19922.98563.98563,0,0,0-1.64014.123,2.98214,2.98214,0,0,0-.27246,1.40039v.51855q0,.79248.01953,1.49219.019.7002.084,1.34863a2.7999,2.7999,0,0,0-.42139-.02637h-1.0957a3.01018,3.01018,0,0,0-.42773.02637q.06445-.64893.084-1.34863.01978-.7002.01953-1.49219v-.51855q0-.791-.01953-1.48437-.019-.6936-.084-1.394.23291.02563.46.04541c.15137.0127.30469.01953.46045.01953s.30908-.00684.46045-.01953q.22705-.01978.48633-.04541l-.05176.97266Z" transform="translate(-604.4541 -380.12061)"/><path class="cls-1" d="M640.85449,383.37549a1.3368,1.3368,0,0,0,.03857.32422l-1.14111-.02637q-.02563.29883-.04541.6875-.019.38892-.02588.7915c-.00439.26758-.00879.52734-.0127.77734q-.00732.37646-.00684.63574,0,.67383.03271,1.08887a2.61735,2.61735,0,0,0,.10986.63574.51276.51276,0,0,0,.2207.29785.743.743,0,0,0,.36328.07813,1.48236,1.48236,0,0,0,.36279-.03223,1.02381,1.02381,0,0,0,.2334-.09766v.53223a3.64978,3.64978,0,0,1-.64844.207,3.35618,3.35618,0,0,1-.76514.09082q-1.64648,0-1.64648-1.9707,0-.37646.0127-.84961.01318-.47314.03223-.97266.01978-.49951.03271-.98535.01245-.48633.0127-.90137l-.90771.01318a1.31323,1.31323,0,0,0,.03906-.32422,1.76661,1.76661,0,0,0-.03906-.3501l.90771.03857q0-.40137-.0127-.752-.01318-.3501-.03906-.84277.4541-.18164.895-.38281.44019-.20068.88184-.42139l.12939.09082q-.02563.20728-.04541.48633-.019.27905-.03857.5835-.01978.30469-.02637.62256t-.00635.603l1.14111-.02588A1.80032,1.80032,0,0,0,640.85449,383.37549Z" transform="translate(-604.4541 -380.12061)"/><path class="cls-1" d="M645.10742,383.69971a4.14873,4.14873,0,0,1,1.17383-.67432,3.57189,3.57189,0,0,1,1.25146-.2334,3.65669,3.65669,0,0,1,.95313.1167,2.04123,2.04123,0,0,1,.752.36914,1.67612,1.67612,0,0,1,.49268.65527,2.42942,2.42942,0,0,1,.17529.97217q0,.83057-.01953,1.53711-.01978.70605-.01953,1.40723a2.03678,2.03678,0,0,0,.04541.48633.573.573,0,0,0,.13623.26563.428.428,0,0,0,.23975.11621,1.99265,1.99265,0,0,0,.34375.02637v.31055c-.251.10449-.4624.18164-.63525.23438a1.9385,1.9385,0,0,1-.55762.07715,1.222,1.222,0,0,1-.77832-.2334,1.431,1.431,0,0,1-.45361-.67383,2.45665,2.45665,0,0,1-.69385.66113,1.8477,1.8477,0,0,1-.99219.24609,2.42087,2.42087,0,0,1-.84277-.12988,1.4612,1.4612,0,0,1-.90771-.91406,1.89453,1.89453,0,0,1-.104-.61621,1.82833,1.82833,0,0,1,.13623-.73828,1.49092,1.49092,0,0,1,.38916-.53223,2.26681,2.26681,0,0,1,.603-.36914,4.86243,4.86243,0,0,1,.791-.25293c.36328-.08691.65039-.16211.8623-.22754a2.03591,2.03591,0,0,0,.47314-.19434.4628.4628,0,0,0,.20117-.21387.79016.79016,0,0,0,.04541-.28516,1.08648,1.08648,0,0,0-.33057-.79736,1.2357,1.2357,0,0,0-.91455-.33105,1.86,1.86,0,0,0-.45361.05859,2.29546,2.29546,0,0,0-.44727.16211,2.82112,2.82112,0,0,0-.38916.22705.95844.95844,0,0,0-.26562.26563h-.09082Zm3.07373,3.52686q0-.55664.00635-.84961c.00439-.19434.00635-.36523.00635-.51172a3.05032,3.05032,0,0,1-.57715.25293,2.70159,2.70159,0,0,0-.55762.24609,1.215,1.215,0,0,0-.415.4082,1.43511,1.43511,0,0,0-.16211.75293,1.155,1.155,0,0,0,.20117.73242.65373.65373,0,0,0,.53809.25293.8551.8551,0,0,0,.69385-.32422A1.48537,1.48537,0,0,0,648.18115,387.22656Z" transform="translate(-604.4541 -380.12061)"/><path class="cls-1" d="M659.08008,383.80957a1.12171,1.12171,0,0,0-.90137-.35645,1.2559,1.2559,0,0,0-1.167.70654,4.11434,4.11434,0,0,0-.38916,1.96436,2.87688,2.87688,0,0,0,.49316,1.80957,1.86862,1.86862,0,0,0,2.21729.44043,1.59943,1.59943,0,0,0,.55762-.4209l.15576.12988a2.81982,2.81982,0,0,0-.15576.376c-.04346.12891-.08643.25879-.12988.38867a2.46058,2.46058,0,0,1-.71973.36914,3.17777,3.17777,0,0,1-1.03076.14941,4.12423,4.12423,0,0,1-1.59521-.27246,2.71136,2.71136,0,0,1-1.04346-.73926,2.79671,2.79671,0,0,1-.56445-1.05664,4.30516,4.30516,0,0,1-.16846-1.18652,3.5764,3.5764,0,0,1,.23975-1.32275,2.99835,2.99835,0,0,1,.6875-1.05029,3.22956,3.22956,0,0,1,1.08252-.69385,3.79647,3.79647,0,0,1,1.41357-.25244,4.04325,4.04325,0,0,1,1.25146.16846,5.09385,5.09385,0,0,1,.979.44092,3.698,3.698,0,0,0-.2915.63525,4.708,4.708,0,0,0-.20117.71338h-.311A1.94193,1.94193,0,0,0,659.08008,383.80957Z" transform="translate(-604.4541 -380.12061)"/><path class="cls-1" d="M667.86621,383.37549a1.3368,1.3368,0,0,0,.03857.32422l-1.14111-.02637q-.02563.29883-.04541.6875-.019.38892-.02588.7915c-.00439.26758-.00879.52734-.0127.77734q-.00732.37646-.00684.63574,0,.67383.03271,1.08887a2.61736,2.61736,0,0,0,.10986.63574.51276.51276,0,0,0,.2207.29785.743.743,0,0,0,.36328.07813,1.48236,1.48236,0,0,0,.36279-.03223,1.02381,1.02381,0,0,0,.2334-.09766v.53223a3.64979,3.64979,0,0,1-.64844.207,3.35618,3.35618,0,0,1-.76514.09082q-1.64648,0-1.64648-1.9707,0-.37646.0127-.84961.01318-.47314.03223-.97266.01978-.49951.03271-.98535.01245-.48633.0127-.90137l-.90771.01318a1.31323,1.31323,0,0,0,.03906-.32422,1.76662,1.76662,0,0,0-.03906-.3501l.90771.03857q0-.40137-.0127-.752-.01318-.3501-.03906-.84277.4541-.18164.895-.38281.44019-.20068.88184-.42139l.12939.09082q-.02563.20728-.04541.48633-.019.27905-.03857.5835-.01978.30469-.02637.62256t-.00635.603l1.14111-.02588A1.80031,1.80031,0,0,0,667.86621,383.37549Z" transform="translate(-604.4541 -380.12061)"/><path class="cls-1" d="M683.32324,389.36621a6.57317,6.57317,0,0,1-1.5498-.1748,3.31847,3.31847,0,0,1-1.25146-.584,2.8234,2.8234,0,0,1-.83643-1.0498,3.62452,3.62452,0,0,1-.30469-1.5625q0-.51855.00635-.92773.00659-.408.00684-.7583,0-.3501.00635-.67432.00659-.32446.00635-.67432,0-1.05029-.0127-1.69873-.01318-.64819-.03906-.97266c.17285.01758.3501.03223.53174.04541.18164.0127.3584.01953.53174.01953.17285,0,.3501-.00684.53174-.01953.18164-.01318.3584-.02783.53174-.04541q-.13037,1.25757-.15576,2.34082-.02637,1.08252-.02588,2.19775a8.73221,8.73221,0,0,0,.16846,1.90674,2.67619,2.67619,0,0,0,.49951,1.12109,1.56632,1.56632,0,0,0,.81006.52539,4.27666,4.27666,0,0,0,1.11523.12988,1.77707,1.77707,0,0,0,1.21875-.38965,2.40656,2.40656,0,0,0,.668-1.03711,5.54218,5.54218,0,0,0,.2793-1.48437q.05127-.83789.05176-1.74463,0-.89429-.02637-1.78271t-.07715-1.7832c.12109.01758.2373.03223.34961.04541a2.78938,2.78938,0,0,0,.31152.01953,2.66552,2.66552,0,0,0,.32422-.01953c.10352-.01318.21191-.02783.32422-.04541q-.02637.28491-.05176.76514-.02637.47974-.05176,1.1084-.02637.62915-.0459,1.3877-.019.75879-.01953,1.60205a4.477,4.477,0,0,1-.97266,3.23535A3.85284,3.85284,0,0,1,683.32324,389.36621Z" transform="translate(-604.4541 -380.12061)"/><path class="cls-1" d="M692.64063,387.998a1.48716,1.48716,0,0,0,.30469.33789,1.46215,1.46215,0,0,0,.43457.23926,1.745,1.745,0,0,0,.58984.09082.97958.97958,0,0,0,.7002-.2334.69178.69178,0,0,0,.24707-.50586.59269.59269,0,0,0-.2207-.47949,2.4615,2.4615,0,0,0-.55176-.33105c-.21973-.09863-.46-.20117-.71973-.30469a3.31958,3.31958,0,0,1-.71973-.39551,2.05179,2.05179,0,0,1-.55078-.60254,1.7743,1.7743,0,0,1-.2207-.93408,2.05467,2.05467,0,0,1,.20117-.93994,1.89967,1.89967,0,0,1,.52539-.64844,2.21784,2.21784,0,0,1,.73242-.376,2.91144,2.91144,0,0,1,1.77637.03223,4.10079,4.10079,0,0,1,.86328.4541,3.48463,3.48463,0,0,0-.19531.55762,4.89031,4.89031,0,0,0-.11621.5835h-.36328a1.84291,1.84291,0,0,0-.12988-.34375,1.47611,1.47611,0,0,0-.24609-.35645,1.29217,1.29217,0,0,0-.376-.27881,1.17723,1.17723,0,0,0-.53223-.11035,1.03129,1.03129,0,0,0-.6543.20752.656.656,0,0,0-.26562.54443.616.616,0,0,0,.22656.49951,2.24651,2.24651,0,0,0,.56445.33057q.33691.14355.73926.28516a3.3065,3.3065,0,0,1,.73828.37012,1.93,1.93,0,0,1,.56445.58984,1.73489,1.73489,0,0,1,.22656.93359,2.14149,2.14149,0,0,1-.207.97852,1.93132,1.93132,0,0,1-.55762.6748,2.24826,2.24826,0,0,1-.79785.38281,3.73464,3.73464,0,0,1-.93945.11621,3.08083,3.08083,0,0,1-1.05078-.168,3.48284,3.48284,0,0,1-.73926-.35059,6.872,6.872,0,0,0,.19434-1.24512h.32422A1.98417,1.98417,0,0,0,692.64063,387.998Z" transform="translate(-604.4541 -380.12061)"/></svg>