<?xml version="1.0" encoding="iso-8859-1"?>
<!-- Generator: Adobe Illustrator 22.1.0, SVG Export Plug-In . SVG Version: 6.00 Build 0)  -->
<svg xmlns="http://www.w3.org/2000/svg" xmlns:xlink="http://www.w3.org/1999/xlink" version="1.1" id="Layer_3" x="0px" y="0px" viewBox="0 0 64 64" style="enable-background:new 0 0 64 64;" xml:space="preserve" width="512" height="512">
<path d="M58.916,53.084C58.484,50.763,56.444,49,54,49c-1.129,0-2.162,0.388-3,1.022V28.351l0.429-0.536  C52.449,28.574,53.684,29,55,29c3.309,0,6-2.691,6-6c0-0.771-0.152-1.523-0.452-2.244C62.115,19.251,63,17.195,63,15  c0-4.411-3.589-8-8-8c-0.085,0-0.171,0.001-0.258,0.005C53.846,3.521,50.674,1,47,1c-3.673,0-6.846,2.522-7.742,6.005  C39.143,7,39.032,7.007,38.919,7.008C37.525,4.6,34.923,3,32,3c-2.923,0-5.525,1.6-6.919,4.008C24.968,7.007,24.857,7,24.742,7.005  C23.846,3.522,20.673,1,17,1s-6.846,2.522-7.742,6.005C9.171,7.001,9.085,7,9,7c-4.411,0-8,3.589-8,8  c0,2.195,0.885,4.251,2.452,5.756C3.152,21.477,3,22.229,3,23c0,3.309,2.691,6,6,6c1.316,0,2.551-0.426,3.571-1.186L13,28.351  v21.671C12.162,49.388,11.129,49,10,49c-2.444,0-4.484,1.763-4.916,4.084C2.763,53.516,1,55.556,1,58c0,2.757,2.243,5,5,5h52  c2.757,0,5-2.243,5-5C63,55.556,61.237,53.516,58.916,53.084z M14.781,27.375l-3.626-4.532C11.055,22.718,11,22.562,11,22.401  v-0.694c0-0.189,0.074-0.366,0.207-0.5c0.134-0.133,0.311-0.207,0.5-0.207h0.473c0.216,0,0.417,0.097,0.552,0.265l3.487,4.359  c0.379,0.475,1.183,0.475,1.562,0l0.236-0.295c0.06,1.097,0.41,2.117,0.983,2.98v24.798c-0.722,0.151-1.406,0.459-2,0.91  c-0.594-0.451-1.278-0.759-2-0.91V28C15,27.773,14.923,27.553,14.781,27.375z M21,30.188C21.884,30.701,22.907,31,24,31  c1.316,0,2.551-0.426,3.571-1.186L28,30.351v20.681C27.088,49.806,25.642,49,24,49c-1.129,0-2.162,0.388-3,1.022V30.188z   M29.781,29.375l-3.626-4.532C26.055,24.718,26,24.562,26,24.401v-0.694c0-0.189,0.074-0.366,0.207-0.5  c0.134-0.133,0.311-0.207,0.5-0.207h0.473c0.216,0,0.417,0.097,0.552,0.265l3.487,4.359c0.379,0.475,1.183,0.475,1.562,0  l3.487-4.359C36.403,23.097,36.604,23,36.82,23h0.473c0.189,0,0.366,0.074,0.5,0.207c0.133,0.134,0.207,0.311,0.207,0.5v0.694  c0,0.16-0.055,0.317-0.155,0.442l-3.626,4.532C34.077,29.553,34,29.773,34,30v23.108c-0.945,0.196-1.815,0.661-2.5,1.342  c-0.434-0.432-0.947-0.766-1.5-1.012V30C30,29.773,29.923,29.553,29.781,29.375z M36,30.351l0.834-1.043  C37.946,30.388,39.416,31,41,31c0.702,0,1.373-0.128,2-0.35v20.381C42.088,49.806,40.642,49,39,49c-1.129,0-2.162,0.388-3,1.022  V30.351z M45,29.46c0.997-0.895,1.691-2.116,1.915-3.497c0.324,0.026,0.657-0.078,0.865-0.338l3.487-4.359  C51.403,21.097,51.604,21,51.82,21h0.473c0.189,0,0.366,0.074,0.5,0.207c0.133,0.134,0.207,0.311,0.207,0.5v0.694  c0,0.16-0.055,0.317-0.155,0.442l-3.626,4.532C49.077,27.553,49,27.773,49,28v25.108c-0.945,0.196-1.815,0.661-2.5,1.342  c-0.434-0.432-0.947-0.766-1.5-1.012V29.46z M41.058,8.219C41.445,5.244,44,3,47,3s5.555,2.244,5.942,5.218  c0.035,0.267,0.176,0.508,0.391,0.67c0.215,0.161,0.485,0.227,0.752,0.189C54.433,9.025,54.724,9,55,9c3.309,0,6,2.691,6,6  c0,1.851-0.841,3.572-2.306,4.721c-0.393,0.308-0.499,0.857-0.249,1.289C58.813,21.644,59,22.314,59,23c0,2.206-1.794,4-4,4  c-0.851,0-1.643-0.282-2.311-0.76l1.718-2.147C54.79,23.614,55,23.014,55,22.401v-0.694c0-0.723-0.282-1.403-0.793-1.914  S53.016,19,52.293,19H51.82c-0.826,0-1.597,0.37-2.114,1.016L47,23.399l-0.395-0.494c-0.112-0.293-0.24-0.581-0.399-0.856  C47.368,20.626,48,18.862,48,17c0-4.279-3.379-7.774-7.608-7.98c0.096-0.033,0.192-0.068,0.274-0.13  C40.882,8.728,41.023,8.486,41.058,8.219z M32,5c3,0,5.555,2.244,5.942,5.219c0.035,0.267,0.176,0.509,0.391,0.671  c0.216,0.162,0.488,0.23,0.753,0.188C39.433,11.025,39.723,11,40,11c3.309,0,6,2.691,6,6c0,1.605-0.626,3.114-1.764,4.249  c-0.357,0.356-0.393,0.921-0.085,1.32c0.238,0.307,0.417,0.64,0.556,0.985l-0.088,0.07l0.204,0.255C44.934,24.243,45,24.617,45,25  c0,2.206-1.794,4-4,4c-1.12,0-2.142-0.475-2.896-1.279l1.303-1.629C39.79,25.614,40,25.014,40,24.401v-0.694  c0-0.723-0.282-1.403-0.793-1.914S38.016,21,37.293,21H36.82c-0.826,0-1.597,0.37-2.114,1.016L32,25.399l-2.707-3.383  C28.776,21.37,28.006,21,27.18,21h-0.473c-0.723,0-1.403,0.282-1.914,0.793S24,22.984,24,23.707v0.694  c0,0.612,0.21,1.213,0.593,1.691l1.718,2.147C25.643,28.718,24.851,29,24,29c-2.206,0-4-1.794-4-4c0-0.686,0.187-1.356,0.555-1.991  c0.25-0.431,0.144-0.981-0.249-1.289C18.841,20.572,18,18.852,18,17c0-3.309,2.691-6,6-6c0.277,0,0.567,0.025,0.914,0.078  c0.266,0.041,0.538-0.026,0.753-0.188s0.356-0.404,0.391-0.671C26.445,7.244,29,5,32,5z M9,27c-2.206,0-4-1.794-4-4  c0-0.686,0.187-1.356,0.555-1.991c0.25-0.431,0.144-0.981-0.249-1.289C3.841,18.572,3,16.852,3,15c0-3.309,2.691-6,6-6  c0.277,0,0.567,0.025,0.914,0.078c0.267,0.04,0.538-0.027,0.753-0.188c0.215-0.162,0.356-0.404,0.391-0.671C11.445,5.244,14,3,17,3  s5.555,2.244,5.942,5.219c0.035,0.267,0.176,0.509,0.391,0.671c0.083,0.062,0.179,0.097,0.274,0.13C19.379,9.226,16,12.721,16,17  c0,1.945,0.697,3.779,1.945,5.218L17,23.399l-2.707-3.384C13.776,19.37,13.006,19,12.18,19h-0.473c-0.723,0-1.403,0.282-1.914,0.793  S9,20.984,9,21.707v0.694c0,0.612,0.21,1.213,0.593,1.691l1.718,2.147C10.643,26.718,9.851,27,9,27z M58,61H6c-1.654,0-3-1.346-3-3  s1.346-3,3-3c0.552,0,1-0.448,1-1c0-1.654,1.346-3,3-3s3,1.346,3,3c0,0.552,0.448,1,1,1c0.864,0,1.662,0.369,2.248,1.038  c0.379,0.435,1.126,0.435,1.505,0C18.338,55.369,19.136,55,20,55c0.552,0,1-0.448,1-1c0-1.654,1.346-3,3-3s3,1.346,3,3  c0,0.552,0.448,1,1,1c1.087,0,2.092,0.605,2.622,1.579c0.351,0.644,1.406,0.644,1.757,0C32.908,55.605,33.913,55,35,55  c0.552,0,1-0.448,1-1c0-1.654,1.346-3,3-3s3,1.346,3,3c0,0.552,0.448,1,1,1c1.087,0,2.092,0.605,2.622,1.579  c0.351,0.644,1.406,0.644,1.757,0C47.908,55.605,48.913,55,50,55c0.552,0,1-0.448,1-1c0-1.654,1.346-3,3-3s3,1.346,3,3  c0,0.552,0.448,1,1,1c1.654,0,3,1.346,3,3S59.654,61,58,61z"/>
</svg>
