<svg height="496pt" viewBox="0 0 496.008 496" width="496pt" xmlns="http://www.w3.org/2000/svg"><path d="m438.046875 368.308594-17.246094-57.496094c-4.097656-13.640625-16.417969-22.808594-30.65625-22.808594h-9.191406l-31.160156-62.3125c-5.457031-10.902344-16.425781-17.6875-28.625-17.6875h-45.464844l-87.230469-191.886718c-4.441406-9.792969-14.257812-16.11328175-25-16.11328175-15.152344 0-27.472656 12.32031275-27.472656 27.78515575 0 1.40625.230469 2.816407.457031 4.214844h-76.769531l-7.214844-15.886718c-4.441406-9.792969-14.257812-16.11328175-25-16.11328175-15.152344 0-27.472656 12.32031275-27.472656 27.78515575 0 3.894532.847656 7.824219 2.464844 11.367188l84.023437 184.847656h-30.488281c-13.230469 0-24 10.769532-24 24v136c0 13.230469 10.769531 24 24 24h8.40625c-.261719 2.632813-.40625 5.296875-.40625 8 0 44.113282 35.886719 80 80 80 35.753906 0 66.089844-23.582031 76.3125-56h148.246094c3.960937 31.519532 30.875 56 63.449218 56 35.289063 0 64-28.710937 64-64-.007812-33.246094-25.503906-60.632812-57.960937-63.695312zm-32.574219-52.90625 16.054688 53.539062c-15.847656 2.621094-29.75 11.046875-39.40625 23.0625h-30.121094v-40h-16v40h-16v-40h-16v40h-16v-40h-16v40h-16v-40h-16v40h-19.6875c-7.441406-23.609375-25.59375-42.441406-48.6875-50.984375l13.117188-27.847656c2.625-5.566406 8.3125-9.167969 14.472656-9.167969h190.921875c7.128906 0 13.289062 4.585938 15.335937 11.398438zm-320.328125-227.398438h75.519531l58.230469 128.128906c-6.621093 5.863282-10.894531 14.335938-10.894531 23.871094v11.886719l-4.617188-12.3125c-3.488281-9.316406-12.519531-15.574219-22.472656-15.574219h-33.941406zm234.855469 200v-32h16v32zm-16 0h-16v-32h16zm48 0v-22.113281l11.054688 22.113281zm-16.519531-55.160156 3.574219 7.160156h-51.054688c-8.824219 0-16 7.175782-16 16v32h-48v-48c0-8.824218 7.175781-16 16-16h81.167969c6.097656 0 11.585937 3.390625 14.3125 8.839844zm-95.480469-24.839844c-2.359375 0-4.648438.296875-6.863281.785156l-54.898438-120.785156h25.335938l54.546875 120zm-88-180.527344c0-6.320312 5.152344-11.472656 11.472656-11.472656 4.488282 0 8.574219 2.640625 10.4375 6.726563l4.210938 9.273437h-25.273438c-.527344-1.34375-.847656-2.800781-.847656-4.527344zm33.390625 20.527344 10.914063 24h-118.433594l-10.902344-24zm-169.390625-20.527344c0-6.320312 5.152344-11.472656 11.472656-11.472656 4.488282 0 8.574219 2.640625 10.4375 6.726563l113.074219 248.753906c.664063 1.472656 1.015625 3.105469 1.015625 5.046875 0 6.320312-5.152344 11.472656-11.472656 11.472656-4.488282 0-8.574219-2.640625-10.4375-6.726562l-113.066406-248.753906c-.671876-1.472657-1.023438-3.101563-1.023438-5.046876zm40 364.527344c-4.414062 0-8-3.582031-8-8v-136c0-4.414062 3.585938-8 8-8h37.761719l21.765625 47.886719c4.441406 9.792969 14.257812 16.113281 25 16.113281 15.152344 0 27.472656-12.320312 27.472656-27.785156 0-3.894531-.847656-7.832031-2.464844-11.367188l-11.296875-24.847656h26.671875c3.3125 0 6.320313 2.089844 7.488282 5.191406l16.058593 42.808594h-5.234375c-12.328125 0-23.695312 7.199219-28.941406 18.351563l-14.441406 30.625c-3.878906-.578125-7.808594-.976563-11.839844-.976563-35.753906 0-66.089844 23.585938-76.3125 56zm88 88c-35.289062 0-64-28.710937-64-64 0-35.289062 28.710938-64 64-64s64 28.710938 64 64c0 35.289063-28.710938 64-64 64zm79.59375-72h149.117188c-2.046876 5.046875-3.453126 10.417969-4.160157 16h-144.957031c.261719-2.632812.40625-5.296875.40625-8s-.144531-5.367187-.40625-8zm208.40625 72c-26.472656 0-48-21.527344-48-48s21.527344-48 48-48 48 21.527344 48 48-21.527344 48-48 48zm0 0"/><path d="m432 400.003906c-17.648438 0-32 14.351563-32 32 0 17.648438 14.351562 32 32 32s32-14.351562 32-32c0-17.648437-14.351562-32-32-32zm0 48c-8.824219 0-16-7.175781-16-16 0-8.824218 7.175781-16 16-16s16 7.175782 16 16c0 8.824219-7.175781 16-16 16zm0 0"/><path d="m144 368.003906c-9.414062 0-18.558594 2.769532-26.457031 7.984375l8.839843 13.34375c5.265626-3.488281 11.351563-5.328125 17.617188-5.328125 17.648438 0 32 14.351563 32 32 0 6.265625-1.839844 12.351563-5.328125 17.609375l13.34375 8.839844c5.214844-7.890625 7.984375-17.03125 7.984375-26.449219 0-26.472656-21.527344-48-48-48zm0 0"/><path d="m144 448.003906c-17.648438 0-32-14.351562-32-32 0-6.265625 1.839844-12.351562 5.328125-17.609375l-13.34375-8.839843c-5.214844 7.890624-7.984375 17.035156-7.984375 26.449218 0 26.472656 21.527344 48 48 48 9.414062 0 18.558594-2.769531 26.457031-7.984375l-8.839843-13.34375c-5.265626 3.488281-11.351563 5.328125-17.617188 5.328125zm0 0"/></svg>