<svg id="Layer_1" enable-background="new 0 0 510.696 510.696" height="512" viewBox="0 0 510.696 510.696" width="512" xmlns="http://www.w3.org/2000/svg"><g><g><path d="m366.58 47.595-10.848 10.36c14.513 15.195 25.18 33.142 31.535 52.609-.664.26-1.044.551-.937.893l-38.017 14.733-63.385-44.68-32.062-.322-9.805-6.346 10.348-59.82c.008 0 .016-.004.025-.004 33.772-.461 66.309 11.236 91.95 33.149l9.746-11.402c-60.861-52.017-151.772-48.456-208.506 8.268-60.09 60.089-60.1 157.357 0 217.457 59.949 59.938 157.494 59.941 217.446 0 59.323-59.325 59.971-154.734 2.51-214.895zm-191.76-6.855 17.632 49.27-2.77 17.5-29.223 12.242-7.614 34.276-36.098-6.992c2.051-43.266 23.878-81.885 58.073-106.296zm106.513 249.274c-64.772 12.249-127.266-22.307-152.869-79.901 3.467-.194-12.877.493 41.347-1.566l28.968 30.344 33.808-10.231 46.723 30.175 2.66 30.012c-.352.072-.547.518-.637 1.167zm15.457-3.857-3.186-35.948-58.715-37.919-31.629 9.572-27.266-28.561-53.104 2.002c-3.312-10.606-5.349-21.657-6.034-32.967l47.468 9.193 9.094-40.944 29.771-12.472 4.677-29.547-20.052-56.051c15.442-8.613 32.444-14.206 50.185-16.425l-11.41 65.959 21.775 14.094 31.738.318 66.135 46.619 45.022-17.448c1.755 8.557 2.715 17.331 2.832 26.231l-18.962-.14-42.92 36.114-13.99 51.769 20.32 25.208c-12.84 9.635-26.982 16.749-41.749 21.343zm53.938-31.617c-.336-.03-.687.033-1.003.247l-15.028-18.643 10.769-39.854 35.089-29.525 11.932.088c-.066.696.255 1.425.798 2.095-3.546 32.667-18.467 62.78-42.557 85.592z"/><path d="m106.363 306.015v-71.926l-25.394-25.394h-7.497l-21-21h-38.106v188.606l98.32 98.32v36.074h101.18v-56.8h-15v41.8h-71.18v-27.287l-98.32-98.32v-167.392h16.894l16.606 16.606v98l15.974 15.974-1.164 1.164v21.193l49.126 49.126 10.606-10.606-44.733-44.733v-8.767l19.636-19.637h8.767l77.787 77.787v40.094h15v-46.307l-86.574-86.574h-20.928zm-15 14.737-1.917 1.917-11.58-11.58v-84.284l13.497 13.497z"/><path d="m458.223 187.696-21 21h-7.5l-25.394 25.394v71.926h-20.926l-86.574 86.574v118.106h101.181v-36.074l98.319-98.319v-188.607zm-38.894 52.606 13.5-13.5v84.287l-11.581 11.581-1.919-1.919zm62 129.787-98.319 98.319v27.287h-71.181v-96.894l77.787-77.787h8.764l19.64 19.641v8.764l-44.733 44.733 10.607 10.606 49.126-49.127v-21.189l-1.165-1.166 15.975-15.975v-98l16.606-16.606h16.894v167.394z"/></g><g><path d="m340.346 468.696h15v15h-15z"/></g><g><path d="m155.346 468.696h15v15h-15z"/></g><g><path d="m307.105 160.955h-14.999v-15h14.999zm-45 0h-15v-15h15zm-45 0h-15v-15h15z"/></g></g></svg>