<svg id="Layer_1" data-name="Layer 1" xmlns="http://www.w3.org/2000/svg" viewBox="0 0 368.45947 26.67578"><defs><style>.cls-1{fill:#52482d;}</style></defs><title>loc</title><path class="cls-1" d="M357.832,372.584q-.312,0-.6543.00586-.342.00586-.68359.02344-.342.019-.66016.042c-.21191.0166-.40186.03613-.56982.06055a1.47739,1.47739,0,0,0,.05957-.38379,1.67757,1.67757,0,0,0-.05957-.37207q.79175.02344,1.54785.042.75586.01758,1.54785.01758.79175,0,1.54785-.01758.75659-.019,1.54834-.042a1.67458,1.67458,0,0,0-.06006.38379,1.429,1.429,0,0,0,.06006.37207c-.168-.02441-.3584-.04395-.57031-.06055q-.31787-.02344-.65967-.042-.342-.01758-.68408-.02344t-.6543-.00586q-.03589,1.23633-.03564,2.4834v2.06445q0,.79248.02979,1.55957.03.769.06592,1.5127-.27612-.0249-.58789-.02441-.312,0-.58789.02441.03589-.74414.06592-1.5127.03-.76758.03027-1.55957v-2.06445Q357.86816,373.81934,357.832,372.584Z" transform="translate(-355.26416 -371.12012)"/><path class="cls-1" d="M362.69775,373.72363q-.00586-.479-.01807-.94824-.01172-.46729-.02979-.89355-.01831-.42627-.042-.72656a2.43867,2.43867,0,0,0,1.08008,0q-.02417.30029-.042.7207-.01831.42041-.03027.88184c-.00781.30762-.01416.61816-.01807.92969q-.00586.46875-.00586.86426v.91211h.02393a2.50517,2.50517,0,0,1,.8042-.79785,2.11758,2.11758,0,0,1,1.11572-.28223,2.521,2.521,0,0,1,.67822.0957,1.63259,1.63259,0,0,1,.61816.33008,1.71254,1.71254,0,0,1,.44971.63574,2.60885,2.60885,0,0,1,.17383,1.02637c0,.34375-.00781.69824-.02393,1.06152q-.02417.54639-.02393,1.1582v.78027q0,.19189.00586.37793.00659.186.01807.35449a4.89405,4.89405,0,0,0-.50391-.02441,4.75682,4.75682,0,0,0-.4917.02441q.02344-.624.05371-1.28418.03-.66064.03027-1.35645V376.832a2.24208,2.24208,0,0,0-.34814-1.3623,1.137,1.137,0,0,0-.96-.46191,1.44217,1.44217,0,0,0-1.23.51563,2.36571,2.36571,0,0,0-.39014,1.45215q0,.33691.00586.78027.00586.44385.01807.89355c.00781.2998.01807.59082.03027.87012.01172.28027.02588.50781.042.68457-.18408-.0166-.36426-.02441-.54-.02441-.17627,0-.35645.00781-.54.02441.01563-.18457.02979-.416.042-.69629q.01758-.42041.02979-.8877c.00781-.3125.01416-.62793.01807-.94824s.00586-.61621.00586-.88867v-2.17187Q362.70361,374.2041,362.69775,373.72363Z" transform="translate(-355.26416 -371.12012)"/><path class="cls-1" d="M369.32764,377.54a3.50437,3.50437,0,0,1,.70215-2.31641,2.51581,2.51581,0,0,1,2.0459-.83984,2.7626,2.7626,0,0,1,1.09814.19824,2.29379,2.29379,0,0,1,.77393.52734,2.0903,2.0903,0,0,1,.46191.77441,2.94114,2.94114,0,0,1,.1499.94824c0,.08008-.002.1582-.00586.2334-.00391.07617-.01025.1543-.01807.23438q-.64819-.01172-1.28369-.02441-.63647-.01172-1.28418-.01172-.39624,0-.78613.01172-.38965.01318-.78613.02441a1.01311,1.01311,0,0,0-.01172.17969v.15625a2.72176,2.72176,0,0,0,.1377.876,1.991,1.991,0,0,0,.40234.70215,1.91976,1.91976,0,0,0,.64795.46777,2.127,2.127,0,0,0,.8877.17383,1.93926,1.93926,0,0,0,.49219-.06543,2.78739,2.78739,0,0,0,.49219-.18066,2.67528,2.67528,0,0,0,.44971-.26953,2.296,2.296,0,0,0,.36621-.33594l.06006.03613-.07227.58789a3.34922,3.34922,0,0,1-.894.49219,3.08718,3.08718,0,0,1-1.10986.20313,3.38113,3.38113,0,0,1-1.18213-.19727,2.61389,2.61389,0,0,1-.92383-.57617,2.58229,2.58229,0,0,1-.6001-.89453A2.92693,2.92693,0,0,1,369.32764,377.54Zm2.772-2.77246a1.3244,1.3244,0,0,0-.75.2041,1.7407,1.7407,0,0,0-.50391.50977,2.44114,2.44114,0,0,0-.2998.67188,3.51193,3.51193,0,0,0-.126.69043q.37134.01172.77393.02441.40137.01172.78564.01172.39624,0,.8042-.01172.408-.01318.792-.02441a4.59025,4.59025,0,0,0-.0542-.68359,2.13863,2.13863,0,0,0-.21582-.67285,1.42912,1.42912,0,0,0-.44971-.51562A1.28442,1.28442,0,0,0,372.09961,374.76758Z" transform="translate(-355.26416 -371.12012)"/><path class="cls-1" d="M382.11963,371.97168a.89116.89116,0,0,0-.75586.36621,1.04207,1.04207,0,0,0-.17383.37793,1.86441,1.86441,0,0,0-.0542.45605q0,.21533.042.624c.02783.27148.062.53223.10205.78027q.312,0,.61816-.00684.30542-.00586.61768-.00586c-.00781.04-.01416.08008-.01807.12012s-.00586.08008-.00586.12012.002.08008.00586.12012.01025.08008.01807.12012c-.208-.00781-.41406-.0166-.61768-.02441q-.30615-.01172-.61816-.01172,0,1.30811.00586,2.59766.00586,1.29053.042,2.59863a1.417,1.417,0,0,0-.26367-.02441h-.25244c-.168,0-.34375.00781-.52783.02441q.08423-1.30811.09619-2.58594.01172-1.27881.01172-2.61035-.21606,0-.43164.01172c-.144.00781-.28809.0166-.43213.02441.00781-.04.01367-.08008.01807-.12012q.00586-.06006.00586-.12012t-.00586-.12012c-.00439-.04-.01025-.08008-.01807-.12012.144,0,.28955.002.438.00586.14795.00488.28955.00684.42578.00684a4.34779,4.34779,0,0,1,.07227-.75684,5.12368,5.12368,0,0,1,.21-.80371,5.03377,5.03377,0,0,1,.33008-.75,2.5642,2.5642,0,0,1,.43164-.59375,2.10293,2.10293,0,0,1,.54639-.38379,1.47235,1.47235,0,0,1,.67773-.168.7757.7757,0,0,1,.24023.03516c-.0083.16016-.01807.32031-.03027.48047-.01172.16016-.01807.32031-.01807.47949l-.07178.03613A1.21808,1.21808,0,0,0,382.11963,371.97168Z" transform="translate(-355.26416 -371.12012)"/><path class="cls-1" d="M384.23193,375.08008a3.41,3.41,0,0,1,.99561-.55273,3.101,3.101,0,0,1,.936-.14355,2.38239,2.38239,0,0,1,.792.126,1.718,1.718,0,0,1,.6123.36035,1.66834,1.66834,0,0,1,.396.56348,1.80369,1.80369,0,0,1,.144.72656q0,.68262-.02441,1.36133-.02417.67822-.02393,1.43457c0,.0957.002.19727.00635.30566a.88987.88987,0,0,0,.05371.28809.54392.54392,0,0,0,.13818.21.38469.38469,0,0,0,.27.084q.06006,0,.126-.00586a.301.301,0,0,0,.126-.042v.26367a1.39987,1.39987,0,0,1-.33008.0957,2.415,2.415,0,0,1-.438.03613.80972.80972,0,0,1-.58789-.19727.81918.81918,0,0,1-.24023-.51074,3.24208,3.24208,0,0,1-.85205.63672,2.3525,2.3525,0,0,1-1.03174.20313,2.06429,2.06429,0,0,1-.58789-.084,1.339,1.339,0,0,1-.51025-.27539,1.51589,1.51589,0,0,1-.35986-.46191,1.33689,1.33689,0,0,1-.13818-.61816,1.40655,1.40655,0,0,1,.4502-1.11621,2.45918,2.45918,0,0,1,1.2417-.52832q.64819-.10693,1.01416-.18555a2.555,2.555,0,0,0,.54-.16211.36512.36512,0,0,0,.21-.19824.99476.99476,0,0,0,.03613-.29395,2.26666,2.26666,0,0,0-.07227-.57617,1.33109,1.33109,0,0,0-.228-.47949,1.15424,1.15424,0,0,0-.40771-.33008,1.358,1.358,0,0,0-.6123-.126,1.90758,1.90758,0,0,0-.89355.21582,1.41982,1.41982,0,0,0-.61816.60059h-.13184Zm2.96387,2.13574a3.06817,3.06817,0,0,1-.47412.12012c-.18018.03223-.36182.06543-.5459.10156a5.04935,5.04935,0,0,0-.5459.13867,1.76539,1.76539,0,0,0-.48.22754,1.10848,1.10848,0,0,0-.33643.36035,1.277,1.277,0,0,0,.19824,1.40332,1.05654,1.05654,0,0,0,.72021.28809,1.47357,1.47357,0,0,0,.834-.252,1.8889,1.8889,0,0,0,.582-.58789Z" transform="translate(-355.26416 -371.12012)"/><path class="cls-1" d="M393.16553,375.35547a1.07572,1.07572,0,0,0-.354-.05957,1.01041,1.01041,0,0,0-.51562.13184,1.20122,1.20122,0,0,0-.38428.35352,1.68406,1.68406,0,0,0-.23975.52832,2.45579,2.45579,0,0,0-.084.6543v1.31934q0,.8042.00586,1.23047a5.943,5.943,0,0,0,.042.69043,4.64675,4.64675,0,0,0-.48-.02441,4.88045,4.88045,0,0,0-.50391.02441q.03589-.40869.042-1.11035.00586-.70166.00586-1.72168v-.38477q0-.46729-.00586-1.08008c-.00439-.40723-.01807-.876-.042-1.40332.08789.01563.17188.0293.252.042a1.72976,1.72976,0,0,0,.252.01758,1.579,1.579,0,0,0,.228-.01758c.07959-.0127.16406-.02637.252-.042q-.04834.43213-.0542.68359-.00586.252-.00586.48047l.02393.01172q.70825-1.29639,1.584-1.2959a1.27285,1.27285,0,0,1,.186.01172.92993.92993,0,0,1,.19824.06055,1.33527,1.33527,0,0,0-.07227.4375c-.00781.19629-.01172.374-.01172.53418l-.084.05957A.53809.53809,0,0,0,393.16553,375.35547Z" transform="translate(-355.26416 -371.12012)"/><path class="cls-1" d="M395.19385,375.61328q-.01831-.59326-.07812-1.10937a3.21588,3.21588,0,0,0,.54.05957,1.38717,1.38717,0,0,0,.21-.01758c.07617-.0127.166-.02637.27-.042-.02393.32031-.03564.63965-.03564.96h.02393a2.00969,2.00969,0,0,1,2.376-.99023,2.02982,2.02982,0,0,1,.522.24609,1.6724,1.6724,0,0,1,.40186.37793,1.27251,1.27251,0,0,1,.228.47363h.02393a2.1159,2.1159,0,0,1,.78613-.88184,2.143,2.143,0,0,1,1.146-.30566,2.4016,2.4016,0,0,1,.73193.10742,1.483,1.483,0,0,1,.96582.9248,2.40306,2.40306,0,0,1,.13818.86328c0,.13672-.00391.28418-.01221.44434-.00781.16016-.01611.3457-.02393.55762-.00781.21289-.01611.45215-.02393.7207-.00781.26758-.01172.57813-.01172.92969,0,.21582.00146.42383.00586.624q.00586.30029.02979.64844a1.417,1.417,0,0,0-.26367-.02441h-.51611a1.41832,1.41832,0,0,0-.26416.02441q.03589-.30029.07813-1.21289.04175-.91113.042-2.54395a2.321,2.321,0,0,0-.06592-.56348,1.26486,1.26486,0,0,0-.21-.45605,1.01486,1.01486,0,0,0-.38428-.30566,1.39269,1.39269,0,0,0-.59961-.11426,1.47688,1.47688,0,0,0-.73242.168,1.45725,1.45725,0,0,0-.46777.39551,1.27915,1.27915,0,0,0-.1499.26465,1.566,1.566,0,0,0-.084.40137q-.03.271-.042.75684-.01245.48486-.01221,1.33789c0,.34375.00586.6582.01807.94141q.01831.42627.042.93066c-.18408-.0166-.35986-.02441-.52783-.02441s-.34424.00781-.52832.02441q.06006-.66064.084-1.34473.02417-.68408.02393-1.34375,0-.564-.00586-.88184a4.94961,4.94961,0,0,0-.02979-.50391,1.57376,1.57376,0,0,0-.06592-.30664,2.425,2.425,0,0,0-.11426-.26367,1.08671,1.08671,0,0,0-.41406-.38965,1.1495,1.1495,0,0,0-.582-.16211,1.33848,1.33848,0,0,0-1.16406.51563,2.45231,2.45231,0,0,0-.37158,1.45215v1.02051q0,.53906.01758,1.13379.01831.59326.07813,1.07422c-.18408-.0166-.36426-.02441-.54-.02441s-.356.00781-.54.02441q.06006-.48047.07813-1.07422.01831-.59473.01807-1.13379v-1.248Q395.21191,376.20752,395.19385,375.61328Z" transform="translate(-355.26416 -371.12012)"/><path class="cls-1" d="M409.74414,372.416a.6135.6135,0,1,1,.17969.43164A.59193.59193,0,0,1,409.74414,372.416Zm.168,4.332q0-.54053-.01807-1.13477-.01831-.59326-.07812-1.10937a2.47766,2.47766,0,0,0,1.08008,0q-.06006.51563-.07812,1.10938-.01758.59473-.01807,1.13477v1.248q0,.53906.01807,1.13379.01831.59326.07813,1.07422c-.18408-.0166-.36426-.02441-.54-.02441-.17627,0-.356.00781-.54.02441q.06006-.48047.07813-1.07422.01758-.59473.01807-1.13379Z" transform="translate(-355.26416 -371.12012)"/><path class="cls-1" d="M413.60205,379.35156a1.81813,1.81813,0,0,0,.2998.27051,1.72215,1.72215,0,0,0,.396.21,1.37215,1.37215,0,0,0,.91211.01172,1.201,1.201,0,0,0,.37207-.2041.94568.94568,0,0,0,.25781-.33594,1.08645,1.08645,0,0,0,.09619-.46777.74752.74752,0,0,0-.21-.57031,1.65787,1.65787,0,0,0-.522-.32422,5.60115,5.60115,0,0,0-.68408-.22168,2.88062,2.88062,0,0,1-.68408-.27051,1.59039,1.59039,0,0,1-.522-.46191,1.31852,1.31852,0,0,1-.21-.792,1.938,1.938,0,0,1,.13184-.72559,1.59987,1.59987,0,0,1,.38428-.57031,1.80637,1.80637,0,0,1,.624-.37793,2.44232,2.44232,0,0,1,.85205-.1377,2.06226,2.06226,0,0,1,.75.12012c.20361.08008.39746.15137.58154.21582a2.67077,2.67077,0,0,0-.17969.44434,3.096,3.096,0,0,0-.10791.40723h-.144a1.14458,1.14458,0,0,0-.37207-.51562,1.04178,1.04178,0,0,0-.68408-.22754,1.13,1.13,0,0,0-.35986.05957,1.00939,1.00939,0,0,0-.32422.17969.96119.96119,0,0,0-.23975.3125,1.00362,1.00362,0,0,0-.09619.45605.80181.80181,0,0,0,.21.59375,1.48255,1.48255,0,0,0,.522.33008,5.44357,5.44357,0,0,0,.68408.21,2.9793,2.9793,0,0,1,.68408.252,1.48768,1.48768,0,0,1,.522.4502,1.32193,1.32193,0,0,1,.21.792,1.66436,1.66436,0,0,1-.1499.68359,1.92174,1.92174,0,0,1-.43213.60645,1.98253,1.98253,0,0,1-.67773.41992,2.53961,2.53961,0,0,1-.90039.14941,3.358,3.358,0,0,1-.92383-.10742,2.91346,2.91346,0,0,1-.624-.252,3.21815,3.21815,0,0,0,.1499-.42578,1.67872,1.67872,0,0,0,.07813-.4502h.144A1.28538,1.28538,0,0,0,413.60205,379.35156Z" transform="translate(-355.26416 -371.12012)"/><path class="cls-1" d="M422.86523,373.72363q-.00586-.479-.01758-.94824-.01245-.46729-.03027-.89355-.01758-.42627-.042-.72656a2.43867,2.43867,0,0,0,1.08008,0q-.02417.30029-.042.72656-.01831.42627-.02979.89355-.01245.46875-.01807.94824-.00659.48047-.00635.8877v2.17188q0,.40869.00635.88867c.00391.32031.00977.63574.01807.94824q.01172.46729.02979.8877c.01221.28027.02588.51172.042.69629-.18408-.0166-.36426-.02441-.54-.02441-.17627,0-.356.00781-.54.02441.01611-.18457.03027-.416.042-.69629q.01831-.42041.03027-.8877c.00781-.3125.01367-.62793.01758-.94824q.00659-.48047.00635-.88867v-2.17187Q422.87158,374.2041,422.86523,373.72363Z" transform="translate(-355.26416 -371.12012)"/><path class="cls-1" d="M425.94336,377.37207a3.34974,3.34974,0,0,1,.2583-1.38672,2.569,2.569,0,0,1,.67773-.92383,2.68135,2.68135,0,0,1,.94189-.51562,3.42357,3.42357,0,0,1,2.082,0,2.69474,2.69474,0,0,1,.936.51563,2.58144,2.58144,0,0,1,.67822.92383,3.85571,3.85571,0,0,1,0,2.77246,2.5729,2.5729,0,0,1-.67822.92383,2.46271,2.46271,0,0,1-.936.498,3.84631,3.84631,0,0,1-2.082,0,2.45425,2.45425,0,0,1-.94189-.498,2.56052,2.56052,0,0,1-.67773-.92383A3.34179,3.34179,0,0,1,425.94336,377.37207Zm1.05615,0a5.13339,5.13339,0,0,0,.08984.97168,2.59475,2.59475,0,0,0,.30615.834,1.641,1.641,0,0,0,.57617.582,1.93451,1.93451,0,0,0,1.77588,0,1.6436,1.6436,0,0,0,.57568-.582,2.59475,2.59475,0,0,0,.30615-.834,5.30466,5.30466,0,0,0,0-1.94434,2.59475,2.59475,0,0,0-.30615-.834,1.6436,1.6436,0,0,0-.57568-.582,1.93451,1.93451,0,0,0-1.77588,0,1.641,1.641,0,0,0-.57617.582,2.59475,2.59475,0,0,0-.30615.834A5.14374,5.14374,0,0,0,426.99951,377.37207Z" transform="translate(-355.26416 -371.12012)"/><path class="cls-1" d="M433.23975,377.37207a3.14741,3.14741,0,0,1,.26416-1.34473,2.679,2.679,0,0,1,1.668-1.46973,3.72287,3.72287,0,0,1,1.12793-.17383,3.97269,3.97269,0,0,1,1.18213.16211,2.04638,2.04638,0,0,1,.75.36621,3.27411,3.27411,0,0,0-.1499.37793,3.94061,3.94061,0,0,0-.11426.41406h-.0957a1.71209,1.71209,0,0,0-.228-.31836,1.90689,1.90689,0,0,0-.34229-.2998,2.00075,2.00075,0,0,0-.438-.22852,1.50262,1.50262,0,0,0-.52783-.08984,2.03473,2.03473,0,0,0-.93018.19824,1.71012,1.71012,0,0,0-.63574.5459,2.37093,2.37093,0,0,0-.36035.82227,4.36882,4.36882,0,0,0-.11377,1.02539,2.844,2.844,0,0,0,.52783,1.86621,1.906,1.906,0,0,0,1.54834.62988,1.93842,1.93842,0,0,0,.4917-.06543,2.78738,2.78738,0,0,0,.49219-.18066,2.65594,2.65594,0,0,0,.44971-.26953,2.296,2.296,0,0,0,.36621-.33594l.06006.03613a3.54365,3.54365,0,0,0-.07227.58789,3.34922,3.34922,0,0,1-.894.49219,3.08718,3.08718,0,0,1-1.10986.20313,3.76028,3.76028,0,0,1-1.03809-.14941,2.53565,2.53565,0,0,1-.94189-.50391,2.58008,2.58008,0,0,1-.67773-.918A3.3006,3.3006,0,0,1,433.23975,377.37207Z" transform="translate(-355.26416 -371.12012)"/><path class="cls-1" d="M440.30811,375.08008a3.41,3.41,0,0,1,.99561-.55273,3.101,3.101,0,0,1,.936-.14355,2.38239,2.38239,0,0,1,.792.126,1.718,1.718,0,0,1,.6123.36035,1.66834,1.66834,0,0,1,.396.56348,1.80369,1.80369,0,0,1,.144.72656q0,.68262-.02441,1.36133-.02417.67822-.02393,1.43457c0,.0957.002.19727.00635.30566a.88987.88987,0,0,0,.05371.28809.54392.54392,0,0,0,.13818.21.38469.38469,0,0,0,.27.084q.06006,0,.126-.00586a.301.301,0,0,0,.126-.042v.26367a1.39987,1.39987,0,0,1-.33008.0957,2.415,2.415,0,0,1-.438.03613.80972.80972,0,0,1-.58789-.19727.81918.81918,0,0,1-.24023-.51074,3.24207,3.24207,0,0,1-.85205.63672,2.3525,2.3525,0,0,1-1.03174.20313,2.06429,2.06429,0,0,1-.58789-.084,1.339,1.339,0,0,1-.51025-.27539,1.51589,1.51589,0,0,1-.35986-.46191,1.33689,1.33689,0,0,1-.13818-.61816,1.40655,1.40655,0,0,1,.4502-1.11621,2.45918,2.45918,0,0,1,1.2417-.52832q.64819-.10693,1.01416-.18555a2.555,2.555,0,0,0,.54-.16211.36512.36512,0,0,0,.21-.19824.99476.99476,0,0,0,.03613-.29395,2.26665,2.26665,0,0,0-.07227-.57617,1.33109,1.33109,0,0,0-.228-.47949,1.15424,1.15424,0,0,0-.40771-.33008,1.358,1.358,0,0,0-.6123-.126,1.90758,1.90758,0,0,0-.89355.21582,1.41982,1.41982,0,0,0-.61816.60059h-.13184Zm2.96387,2.13574a3.06817,3.06817,0,0,1-.47412.12012c-.18018.03223-.36182.06543-.5459.10156a5.04935,5.04935,0,0,0-.5459.13867,1.76539,1.76539,0,0,0-.48.22754,1.10848,1.10848,0,0,0-.33643.36035,1.277,1.277,0,0,0,.19824,1.40332,1.05654,1.05654,0,0,0,.72021.28809,1.47357,1.47357,0,0,0,.834-.252,1.8889,1.8889,0,0,0,.582-.58789Z" transform="translate(-355.26416 -371.12012)"/><path class="cls-1" d="M447.81934,372.89551q-.03589.457-.05371.89453-.01831.438-.042.88184.13184,0,.4917-.00586c.24023-.00391.5-.01465.78027-.03027a.47186.47186,0,0,0-.01221.13184v.252a.40837.40837,0,0,0,.01221.12012c-.104-.00781-.2124-.01367-.32422-.01758-.1123-.00391-.23193-.00684-.35986-.00684h-.58789a3.81977,3.81977,0,0,0-.03027.38477c-.01172.22363-.022.49023-.02979.79785q-.01245.46143-.01807.96582-.00659.50391-.00586.90039,0,.33545.01758.65918a1.9804,1.9804,0,0,0,.11426.582.9334.9334,0,0,0,.28809.41406.85286.85286,0,0,0,.55176.15625,1.91046,1.91046,0,0,0,.2583-.02344,2.046,2.046,0,0,0,.28174-.06055v.28809c-.13623.02441-.28613.05371-.44971.08984a2.203,2.203,0,0,1-.47412.05371,1.49545,1.49545,0,0,1-1.11621-.37109,1.51275,1.51275,0,0,1-.35986-1.09277c0-.21582.00391-.44922.01221-.70215q.01172-.37793.02979-.82715c.01221-.30078.022-.63184.02979-.99609q.01245-.54639.01221-1.21875h-.38379c-.06445,0-.13232.00293-.2041.00684-.07227.00391-.14844.00977-.228.01758.00781-.04785.01367-.09375.01807-.1377.00391-.04395.00586-.08984.00586-.13867,0-.03906-.002-.0791-.00586-.11914-.00439-.04-.01025-.08008-.01807-.12012.35986.02344.624.03613.792.03613q-.01245-.24023-.01807-.60059c-.00439-.24023-.01416-.4873-.02979-.74414l.99561-.41992Z" transform="translate(-355.26416 -371.12012)"/><path class="cls-1" d="M450.11182,377.54a3.50437,3.50437,0,0,1,.70215-2.31641,2.51581,2.51581,0,0,1,2.0459-.83984,2.7626,2.7626,0,0,1,1.09814.19824,2.29379,2.29379,0,0,1,.77393.52734,2.0903,2.0903,0,0,1,.46191.77441,2.94114,2.94114,0,0,1,.1499.94824c0,.08008-.002.1582-.00586.2334-.00391.07617-.01025.1543-.01807.23438q-.64819-.01172-1.28369-.02441-.63647-.01172-1.28418-.01172-.39624,0-.78613.01172-.38965.01318-.78613.02441a1.01311,1.01311,0,0,0-.01172.17969v.15625a2.72176,2.72176,0,0,0,.1377.876,1.991,1.991,0,0,0,.40234.70215,1.91976,1.91976,0,0,0,.64795.46777,2.127,2.127,0,0,0,.8877.17383,1.93926,1.93926,0,0,0,.49219-.06543,2.78738,2.78738,0,0,0,.49219-.18066,2.67527,2.67527,0,0,0,.44971-.26953,2.296,2.296,0,0,0,.36621-.33594l.06006.03613-.07227.58789a3.34922,3.34922,0,0,1-.894.49219,3.08718,3.08718,0,0,1-1.10986.20313,3.38113,3.38113,0,0,1-1.18213-.19727,2.61389,2.61389,0,0,1-.92383-.57617,2.58229,2.58229,0,0,1-.6001-.89453A2.92693,2.92693,0,0,1,450.11182,377.54Zm2.772-2.77246a1.3244,1.3244,0,0,0-.75.2041,1.7407,1.7407,0,0,0-.50391.50977,2.44114,2.44114,0,0,0-.2998.67188,3.51193,3.51193,0,0,0-.126.69043q.37134.01172.77393.02441.40137.01172.78564.01172.39624,0,.8042-.01172.408-.01318.792-.02441a4.59025,4.59025,0,0,0-.0542-.68359,2.13863,2.13863,0,0,0-.21582-.67285,1.42912,1.42912,0,0,0-.44971-.51562A1.28442,1.28442,0,0,0,452.88379,374.76758Z" transform="translate(-355.26416 -371.12012)"/><path class="cls-1" d="M461.19922,379.06348a2.93332,2.93332,0,0,1-.25781.41406,2.08116,2.08116,0,0,1-.98975.72656,2.34211,2.34211,0,0,1-.78027.11914,2.65666,2.65666,0,0,1-.894-.15527,2.01976,2.01976,0,0,1-.77979-.51074,2.61212,2.61212,0,0,1-.55225-.91113,3.80462,3.80462,0,0,1-.21-1.33887,3.542,3.542,0,0,1,.228-1.33105,2.892,2.892,0,0,1,.59424-.94238,2.38192,2.38192,0,0,1,.82764-.56445,2.47253,2.47253,0,0,1,.93018-.18555,1.85515,1.85515,0,0,1,1.84814,1.2002h.02393v-1.17676q0-.45557-.00586-.918-.00659-.46143-.01221-.88184c-.00391-.2793-.00781-.54395-.01221-.792q-.00586-.37207-.01758-.66016c.0957.0166.1875.03027.27588.042a1.84317,1.84317,0,0,0,.26416.01855,1.723,1.723,0,0,0,.25781-.01855c.084-.01172.17773-.02539.28174-.042q-.03589.38525-.05957,1.11035-.02417.72656-.042,1.60254-.01831.876-.03027,1.7998-.01172.92432-.01172,1.69141,0,.8291.01172,1.48828.01172.66064.02393,1.35645a4.53161,4.53161,0,0,0-.46777-.02441,4.41622,4.41622,0,0,0-.45605.02441l.03613-1.14062Zm-3.40771-1.584a3.961,3.961,0,0,0,.1499,1.18848,2.23914,2.23914,0,0,0,.38428.75,1.24115,1.24115,0,0,0,.53369.38965,1.72218,1.72218,0,0,0,.58789.1084,1.37061,1.37061,0,0,0,.8042-.23437,1.92787,1.92787,0,0,0,.55811-.6123,2.84261,2.84261,0,0,0,.32373-.85742,4.6223,4.6223,0,0,0,.10205-.96,2.94445,2.94445,0,0,0-.44385-1.75781,1.51821,1.51821,0,0,0-1.30811-.60645,1.39092,1.39092,0,0,0-.75.19824,1.584,1.584,0,0,0-.52783.55176,2.73651,2.73651,0,0,0-.312.82813A4.7943,4.7943,0,0,0,457.7915,377.47949Z" transform="translate(-355.26416 -371.12012)"/><path class="cls-1" d="M468.376,372.416a.6135.6135,0,1,1,.17969.43164A.59193.59193,0,0,1,468.376,372.416Zm.168,4.332q0-.54053-.01807-1.13477-.01831-.59326-.07812-1.10937a2.47766,2.47766,0,0,0,1.08008,0q-.06006.51563-.07812,1.10938-.01758.59473-.01807,1.13477v1.248q0,.53906.01807,1.13379.01831.59326.07813,1.07422c-.18408-.0166-.36426-.02441-.54-.02441-.17627,0-.356.00781-.54.02441q.06006-.48047.07813-1.07422.01758-.59473.01807-1.13379Z" transform="translate(-355.26416 -371.12012)"/><path class="cls-1" d="M475.67188,375.46973a1.137,1.137,0,0,0-.96-.46191,1.44217,1.44217,0,0,0-1.23.51563,2.36571,2.36571,0,0,0-.39014,1.45215v1.02051q0,.53906.01807,1.13379.01758.59326.07813,1.07422c-.18408-.0166-.36426-.02441-.54-.02441-.17627,0-.35645.00781-.54.02441q.06006-.48047.07813-1.07422.01758-.59473.01758-1.13379v-1.248q0-.54053-.01758-1.13477-.01831-.59326-.07812-1.10937a3.21075,3.21075,0,0,0,.54.05957,1.38717,1.38717,0,0,0,.21-.01758c.07568-.0127.166-.02637.27-.042-.02393.32031-.03613.63965-.03613.96h.02393a2.50517,2.50517,0,0,1,.8042-.79785,2.11758,2.11758,0,0,1,1.11572-.28223,2.521,2.521,0,0,1,.67822.0957,1.63259,1.63259,0,0,1,.61816.33008,1.71254,1.71254,0,0,1,.44971.63574,2.60885,2.60885,0,0,1,.17383,1.02637c0,.34375-.00781.69824-.02393,1.06152q-.02417.54639-.02393,1.1582v.78027q0,.19189.00586.37793.00659.186.01807.35449a4.89405,4.89405,0,0,0-.50391-.02441,4.75682,4.75682,0,0,0-.4917.02441q.02344-.624.05371-1.28418.03-.66064.03027-1.35645V376.832A2.24208,2.24208,0,0,0,475.67188,375.46973Z" transform="translate(-355.26416 -371.12012)"/><path class="cls-1" d="M484.2876,372.89551q-.03589.457-.05371.89453-.01831.438-.042.88184.13184,0,.4917-.00586c.24023-.00391.5-.01465.78027-.03027a.47187.47187,0,0,0-.01221.13184v.252a.40838.40838,0,0,0,.01221.12012c-.104-.00781-.2124-.01367-.32422-.01758-.1123-.00391-.23193-.00684-.35986-.00684h-.58789a3.81981,3.81981,0,0,0-.03027.38477c-.01172.22363-.022.49023-.02979.79785q-.01245.46143-.01807.96582-.00659.50391-.00586.90039,0,.33545.01758.65918a1.9804,1.9804,0,0,0,.11426.582.9334.9334,0,0,0,.28809.41406.85286.85286,0,0,0,.55176.15625,1.91046,1.91046,0,0,0,.2583-.02344,2.046,2.046,0,0,0,.28174-.06055v.28809c-.13623.02441-.28613.05371-.44971.08984a2.203,2.203,0,0,1-.47412.05371,1.49545,1.49545,0,0,1-1.11621-.37109,1.51275,1.51275,0,0,1-.35986-1.09277c0-.21582.00391-.44922.01221-.70215q.01172-.37793.02979-.82715c.01221-.30078.022-.63184.02979-.99609q.01245-.54639.01221-1.21875h-.38379c-.06445,0-.13232.00293-.2041.00684-.07227.00391-.14844.00977-.228.01758.00781-.04785.01367-.09375.01807-.1377.00391-.04395.00586-.08984.00586-.13867,0-.03906-.002-.0791-.00586-.11914-.00439-.04-.01025-.08008-.01807-.12012.35986.02344.624.03613.792.03613q-.01245-.24023-.01807-.60059c-.00439-.24023-.01416-.4873-.02979-.74414l.99561-.41992Z" transform="translate(-355.26416 -371.12012)"/><path class="cls-1" d="M487.16162,373.72363q-.00586-.479-.01807-.94824-.01172-.46729-.02979-.89355-.01831-.42627-.042-.72656a2.43867,2.43867,0,0,0,1.08008,0q-.02417.30029-.042.7207-.01831.42041-.03027.88184c-.00781.30762-.01416.61816-.01807.92969q-.00586.46875-.00586.86426v.91211h.02393a2.50517,2.50517,0,0,1,.8042-.79785,2.11758,2.11758,0,0,1,1.11572-.28223,2.521,2.521,0,0,1,.67822.0957,1.63259,1.63259,0,0,1,.61816.33008,1.71254,1.71254,0,0,1,.44971.63574,2.60885,2.60885,0,0,1,.17383,1.02637c0,.34375-.00781.69824-.02393,1.06152q-.02417.54639-.02393,1.1582v.78027q0,.19189.00586.37793.00659.186.01807.35449a4.89405,4.89405,0,0,0-.50391-.02441,4.75682,4.75682,0,0,0-.4917.02441q.02344-.624.05371-1.28418.03-.66064.03027-1.35645V376.832a2.24208,2.24208,0,0,0-.34814-1.3623,1.137,1.137,0,0,0-.96-.46191,1.44217,1.44217,0,0,0-1.23.51563,2.36571,2.36571,0,0,0-.39014,1.45215q0,.33691.00586.78027.00586.44385.01807.89355c.00781.2998.01807.59082.03027.87012.01172.28027.02588.50781.042.68457-.18408-.0166-.36426-.02441-.54-.02441-.17627,0-.35645.00781-.54.02441.01563-.18457.02979-.416.042-.69629q.01758-.42041.02979-.8877c.00781-.3125.01416-.62793.01807-.94824s.00586-.61621.00586-.88867v-2.17187Q487.16748,374.2041,487.16162,373.72363Z" transform="translate(-355.26416 -371.12012)"/><path class="cls-1" d="M493.7915,377.54a3.50437,3.50437,0,0,1,.70215-2.31641,2.51581,2.51581,0,0,1,2.0459-.83984,2.7626,2.7626,0,0,1,1.09814.19824,2.29379,2.29379,0,0,1,.77393.52734,2.0903,2.0903,0,0,1,.46191.77441,2.94114,2.94114,0,0,1,.1499.94824c0,.08008-.002.1582-.00586.2334-.00391.07617-.01025.1543-.01807.23438q-.64819-.01172-1.28369-.02441-.63647-.01172-1.28418-.01172-.39624,0-.78613.01172-.38965.01318-.78613.02441a1.01311,1.01311,0,0,0-.01172.17969v.15625a2.72176,2.72176,0,0,0,.1377.876,1.991,1.991,0,0,0,.40234.70215,1.91976,1.91976,0,0,0,.64795.46777,2.127,2.127,0,0,0,.8877.17383,1.93926,1.93926,0,0,0,.49219-.06543,2.78738,2.78738,0,0,0,.49219-.18066,2.67527,2.67527,0,0,0,.44971-.26953,2.296,2.296,0,0,0,.36621-.33594l.06006.03613-.07227.58789a3.34922,3.34922,0,0,1-.894.49219,3.08718,3.08718,0,0,1-1.10986.20313,3.38113,3.38113,0,0,1-1.18213-.19727,2.61389,2.61389,0,0,1-.92383-.57617,2.58229,2.58229,0,0,1-.6001-.89453A2.92693,2.92693,0,0,1,493.7915,377.54Zm2.772-2.77246a1.3244,1.3244,0,0,0-.75.2041,1.7407,1.7407,0,0,0-.50391.50977,2.44114,2.44114,0,0,0-.2998.67188,3.51192,3.51192,0,0,0-.126.69043q.37134.01172.77393.02441.40137.01172.78564.01172.39624,0,.8042-.01172.408-.01318.792-.02441a4.59025,4.59025,0,0,0-.0542-.68359,2.13862,2.13862,0,0,0-.21582-.67285,1.42912,1.42912,0,0,0-.44971-.51562A1.28442,1.28442,0,0,0,496.56348,374.76758Z" transform="translate(-355.26416 -371.12012)"/><path class="cls-1" d="M504.70557,375.61328q-.01831-.59326-.07812-1.10937a3.21588,3.21588,0,0,0,.54.05957,1.38717,1.38717,0,0,0,.21-.01758c.07617-.0127.166-.02637.27-.042-.02393.32031-.03564.63965-.03564.96h.02393a2.00969,2.00969,0,0,1,2.376-.99023,2.02982,2.02982,0,0,1,.522.24609,1.6724,1.6724,0,0,1,.40186.37793,1.27251,1.27251,0,0,1,.228.47363h.02393a2.1159,2.1159,0,0,1,.78613-.88184,2.143,2.143,0,0,1,1.146-.30566,2.4016,2.4016,0,0,1,.73193.10742,1.483,1.483,0,0,1,.96582.9248,2.40306,2.40306,0,0,1,.13818.86328c0,.13672-.00391.28418-.01221.44434-.00781.16016-.01611.3457-.02393.55762-.00781.21289-.01611.45215-.02393.7207-.00781.26758-.01172.57813-.01172.92969,0,.21582.00146.42383.00586.624q.00586.30029.02979.64844a1.417,1.417,0,0,0-.26367-.02441h-.51611a1.41832,1.41832,0,0,0-.26416.02441q.03589-.30029.07813-1.21289.04175-.91113.042-2.54395a2.321,2.321,0,0,0-.06592-.56348,1.26485,1.26485,0,0,0-.21-.45605,1.01486,1.01486,0,0,0-.38428-.30566,1.39269,1.39269,0,0,0-.59961-.11426,1.47688,1.47688,0,0,0-.73242.168,1.45725,1.45725,0,0,0-.46777.39551,1.27915,1.27915,0,0,0-.1499.26465,1.566,1.566,0,0,0-.084.40137q-.03.271-.042.75684-.01245.48486-.01221,1.33789c0,.34375.00586.6582.01807.94141q.01831.42627.042.93066c-.18408-.0166-.35986-.02441-.52783-.02441s-.34424.00781-.52832.02441q.06006-.66064.084-1.34473.02417-.68408.02393-1.34375,0-.564-.00586-.88184a4.94958,4.94958,0,0,0-.02979-.50391,1.57376,1.57376,0,0,0-.06592-.30664,2.425,2.425,0,0,0-.11426-.26367,1.08671,1.08671,0,0,0-.41406-.38965,1.1495,1.1495,0,0,0-.582-.16211,1.33848,1.33848,0,0,0-1.16406.51563,2.45231,2.45231,0,0,0-.37158,1.45215v1.02051q0,.53906.01758,1.13379.01831.59326.07813,1.07422c-.18408-.0166-.36426-.02441-.54-.02441s-.356.00781-.54.02441q.06006-.48047.07813-1.07422.01831-.59473.01807-1.13379v-1.248Q504.72363,376.20752,504.70557,375.61328Z" transform="translate(-355.26416 -371.12012)"/><path class="cls-1" d="M515.23584,378.3916q0-.63574.01807-1.08594.01758-.44971.01807-.89355,0-.42041-.00635-.91211-.00586-.49219-.01807-.99609a2.64454,2.64454,0,0,0,.50439.05957,2.608,2.608,0,0,0,.4917-.05957q-.06006.71924-.08984,1.57813-.03.85693-.03027,1.75781a3.21973,3.21973,0,0,0,.1084.9541,1.24362,1.24362,0,0,0,.68994.81543,1.36473,1.36473,0,0,0,.606.126,1.48879,1.48879,0,0,0,.83984-.22168,1.35823,1.35823,0,0,0,.49219-.5459c.05566-.13574.09961-.252.13184-.34766a2.10747,2.10747,0,0,0,.07813-.38477,6.31069,6.31069,0,0,0,.03613-.64746q.00586-.40869.00586-1.11621v-1.00781q0-.26367-.00586-.50391c-.00439-.16016-.01025-.3125-.01807-.45605.08789.01563.17188.0293.252.042a1.81445,1.81445,0,0,0,.50391,0c.08008-.0127.16016-.02637.23975-.042q-.06006.936-.07178,1.80566-.01172.87012-.01221,1.8418,0,.54053.01221,1.05664.01172.51563.03613.99609a4.49815,4.49815,0,0,0-.936,0c.00781-.07227.01367-.14844.01807-.22852q.00586-.12012.00586-.252V379.208h-.02393a2.0332,2.0332,0,0,1-.8042.8457,2.18759,2.18759,0,0,1-1.06787.26953,2.07079,2.07079,0,0,1-1.47021-.49707A1.86635,1.86635,0,0,1,515.23584,378.3916Z" transform="translate(-355.26416 -371.12012)"/><path class="cls-1" d="M526.01172,375.46973a1.137,1.137,0,0,0-.96-.46191,1.44217,1.44217,0,0,0-1.23.51563,2.36571,2.36571,0,0,0-.39014,1.45215v1.02051q0,.53906.01807,1.13379.01758.59326.07813,1.07422c-.18408-.0166-.36426-.02441-.54-.02441-.17627,0-.35645.00781-.54.02441q.06006-.48047.07813-1.07422.01758-.59473.01758-1.13379v-1.248q0-.54053-.01758-1.13477-.01831-.59326-.07812-1.10937a3.21075,3.21075,0,0,0,.54.05957,1.38717,1.38717,0,0,0,.21-.01758c.07568-.0127.166-.02637.27-.042-.02393.32031-.03613.63965-.03613.96h.02393a2.50517,2.50517,0,0,1,.8042-.79785,2.11758,2.11758,0,0,1,1.11572-.28223,2.521,2.521,0,0,1,.67822.0957,1.63258,1.63258,0,0,1,.61816.33008,1.71254,1.71254,0,0,1,.44971.63574,2.60884,2.60884,0,0,1,.17383,1.02637c0,.34375-.00781.69824-.02393,1.06152q-.02417.54639-.02393,1.1582v.78027q0,.19189.00586.37793.00659.186.01807.35449a4.89405,4.89405,0,0,0-.50391-.02441,4.75682,4.75682,0,0,0-.4917.02441q.02344-.624.05371-1.28418.03-.66064.03027-1.35645V376.832A2.24208,2.24208,0,0,0,526.01172,375.46973Z" transform="translate(-355.26416 -371.12012)"/><path class="cls-1" d="M529.80371,372.416a.6135.6135,0,1,1,.17969.43164A.59193.59193,0,0,1,529.80371,372.416Zm.168,4.332q0-.54053-.01807-1.13477-.01831-.59326-.07812-1.10937a2.47766,2.47766,0,0,0,1.08008,0q-.06006.51563-.07812,1.10938-.01758.59473-.01807,1.13477v1.248q0,.53906.01807,1.13379.01831.59326.07813,1.07422c-.18408-.0166-.36426-.02441-.54-.02441-.17627,0-.356.00781-.54.02441q.06006-.48047.07813-1.07422.01758-.59473.01807-1.13379Z" transform="translate(-355.26416 -371.12012)"/><path class="cls-1" d="M533.12744,377.37207a3.14741,3.14741,0,0,1,.26416-1.34473,2.679,2.679,0,0,1,1.668-1.46973,3.72287,3.72287,0,0,1,1.12793-.17383,3.97269,3.97269,0,0,1,1.18213.16211,2.04638,2.04638,0,0,1,.75.36621,3.27411,3.27411,0,0,0-.1499.37793,3.94056,3.94056,0,0,0-.11426.41406h-.0957a1.71209,1.71209,0,0,0-.228-.31836,1.90689,1.90689,0,0,0-.34229-.2998,2.00075,2.00075,0,0,0-.438-.22852,1.50262,1.50262,0,0,0-.52783-.08984,2.03473,2.03473,0,0,0-.93018.19824,1.71012,1.71012,0,0,0-.63574.5459,2.37093,2.37093,0,0,0-.36035.82227,4.36882,4.36882,0,0,0-.11377,1.02539,2.844,2.844,0,0,0,.52783,1.86621,1.906,1.906,0,0,0,1.54834.62988,1.93842,1.93842,0,0,0,.4917-.06543,2.78738,2.78738,0,0,0,.49219-.18066,2.65594,2.65594,0,0,0,.44971-.26953,2.296,2.296,0,0,0,.36621-.33594l.06006.03613a3.54365,3.54365,0,0,0-.07227.58789,3.34922,3.34922,0,0,1-.894.49219,3.08718,3.08718,0,0,1-1.10986.20313,3.76028,3.76028,0,0,1-1.03809-.14941,2.53565,2.53565,0,0,1-.94189-.50391,2.58008,2.58008,0,0,1-.67773-.918A3.3006,3.3006,0,0,1,533.12744,377.37207Z" transform="translate(-355.26416 -371.12012)"/><path class="cls-1" d="M540.21973,372.416a.6135.6135,0,1,1,.17969.43164A.59193.59193,0,0,1,540.21973,372.416Zm.168,4.332q0-.54053-.01807-1.13477-.01831-.59326-.07812-1.10937a2.47766,2.47766,0,0,0,1.08008,0q-.06006.51563-.07812,1.10938-.01758.59473-.01807,1.13477v1.248q0,.53906.01807,1.13379.01831.59326.07813,1.07422c-.18408-.0166-.36426-.02441-.54-.02441-.17627,0-.356.00781-.54.02441q.06006-.48047.07813-1.07422.01758-.59473.01807-1.13379Z" transform="translate(-355.26416 -371.12012)"/><path class="cls-1" d="M543.81934,377.99609q0-.40869-.00586-.88867-.00586-.479-.01807-.9541-.01172-.47314-.02979-.90527-.01831-.43213-.042-.74414a2.47766,2.47766,0,0,0,1.08008,0q-.04834.312-.07227.59961c-.01611.19238-.02393.38379-.02393.57617h.02393a2.45169,2.45169,0,0,1,.24023-.41406,2.07147,2.07147,0,0,1,.40186-.41992,2.16046,2.16046,0,0,1,.59424-.33008,2.22249,2.22249,0,0,1,.792-.13184,2.44585,2.44585,0,0,1,.8999.17383,2.16,2.16,0,0,1,.78564.53418,2.691,2.691,0,0,1,.55225.918,3.77572,3.77572,0,0,1,.21,1.32617,3.54728,3.54728,0,0,1-.228,1.332,2.82512,2.82512,0,0,1-.59375.93555,2.26074,2.26074,0,0,1-.834.5459,2.665,2.665,0,0,1-.936.17383,1.94466,1.94466,0,0,1-1.88428-1.13965h-.02393v.75586q0,.38379.00586.8584c.00391.31543.01025.62988.01807.94141q.01172.46875.03027.89453c.01172.28418.02588.52539.042.72559a2.47767,2.47767,0,0,0-1.08008,0c.01563-.2002.02979-.44141.042-.72559q.01758-.42627.02979-.89453c.00781-.31152.01416-.626.01807-.94141q.00586-.47461.00586-.8584Zm4.332-.67285a3.95406,3.95406,0,0,0-.1499-1.1875,2.23831,2.23831,0,0,0-.38379-.75,1.2402,1.2402,0,0,0-.53418-.38965,1.72428,1.72428,0,0,0-.58789-.1084,1.579,1.579,0,0,0-.82227.2041,1.65565,1.65565,0,0,0-.55762.5459,2.4066,2.4066,0,0,0-.312.80371,4.77857,4.77857,0,0,0-.09619.97852q0,2.49609,1.752,2.49609a1.39092,1.39092,0,0,0,.75-.19824,1.5981,1.5981,0,0,0,.52832-.55176,2.74907,2.74907,0,0,0,.31152-.82812A4.82923,4.82923,0,0,0,548.15137,377.32324Z" transform="translate(-355.26416 -371.12012)"/><path class="cls-1" d="M551.28369,375.08008a3.41,3.41,0,0,1,.99561-.55273,3.101,3.101,0,0,1,.936-.14355,2.38239,2.38239,0,0,1,.792.126,1.718,1.718,0,0,1,.6123.36035,1.66834,1.66834,0,0,1,.396.56348,1.80369,1.80369,0,0,1,.144.72656q0,.68262-.02441,1.36133-.02417.67822-.02393,1.43457c0,.0957.002.19727.00635.30566a.88987.88987,0,0,0,.05371.28809.54392.54392,0,0,0,.13818.21.38469.38469,0,0,0,.27.084q.06006,0,.126-.00586a.301.301,0,0,0,.126-.042v.26367a1.39987,1.39987,0,0,1-.33008.0957,2.415,2.415,0,0,1-.438.03613.80972.80972,0,0,1-.58789-.19727.81918.81918,0,0,1-.24023-.51074,3.24208,3.24208,0,0,1-.85205.63672,2.3525,2.3525,0,0,1-1.03174.20313,2.06429,2.06429,0,0,1-.58789-.084,1.339,1.339,0,0,1-.51025-.27539,1.51589,1.51589,0,0,1-.35986-.46191,1.33689,1.33689,0,0,1-.13818-.61816,1.40655,1.40655,0,0,1,.4502-1.11621,2.45918,2.45918,0,0,1,1.2417-.52832q.64819-.10693,1.01416-.18555a2.555,2.555,0,0,0,.54-.16211.36512.36512,0,0,0,.21-.19824.99476.99476,0,0,0,.03613-.29395,2.26666,2.26666,0,0,0-.07227-.57617,1.33109,1.33109,0,0,0-.228-.47949,1.15424,1.15424,0,0,0-.40771-.33008,1.358,1.358,0,0,0-.6123-.126,1.90758,1.90758,0,0,0-.89355.21582,1.41982,1.41982,0,0,0-.61816.60059h-.13184Zm2.96387,2.13574a3.06817,3.06817,0,0,1-.47412.12012c-.18018.03223-.36182.06543-.5459.10156a5.04935,5.04935,0,0,0-.5459.13867,1.76539,1.76539,0,0,0-.48.22754,1.10848,1.10848,0,0,0-.33643.36035,1.277,1.277,0,0,0,.19824,1.40332,1.05654,1.05654,0,0,0,.72021.28809,1.47357,1.47357,0,0,0,.834-.252,1.8889,1.8889,0,0,0,.582-.58789Z" transform="translate(-355.26416 -371.12012)"/><path class="cls-1" d="M558.00928,373.72363q-.00586-.479-.01758-.94824-.01245-.46729-.03027-.89355-.01758-.42627-.042-.72656a2.43867,2.43867,0,0,0,1.08008,0q-.02417.30029-.042.72656-.01831.42627-.02979.89355-.01245.46875-.01807.94824-.00659.48047-.00635.8877v2.17188q0,.40869.00635.88867c.00391.32031.00977.63574.01807.94824q.01172.46729.02979.8877c.01221.28027.02588.51172.042.69629-.18408-.0166-.36426-.02441-.54-.02441-.17627,0-.356.00781-.54.02441.01611-.18457.03027-.416.042-.69629q.01831-.42041.03027-.8877c.00781-.3125.01367-.62793.01758-.94824q.00659-.48047.00635-.88867v-2.17187Q558.01563,374.2041,558.00928,373.72363Z" transform="translate(-355.26416 -371.12012)"/><path class="cls-1" d="M561.72363,372.416a.6135.6135,0,1,1,.17969.43164A.59193.59193,0,0,1,561.72363,372.416Zm.168,4.332q0-.54053-.01807-1.13477-.01831-.59326-.07812-1.10937a2.47766,2.47766,0,0,0,1.08008,0q-.06006.51563-.07812,1.10938-.01758.59473-.01807,1.13477v1.248q0,.53906.01807,1.13379.01831.59326.07813,1.07422c-.18408-.0166-.36426-.02441-.54-.02441-.17627,0-.356.00781-.54.02441q.06006-.48047.07813-1.07422.01758-.59473.01807-1.13379Z" transform="translate(-355.26416 -371.12012)"/><path class="cls-1" d="M566.54736,372.89551q-.03589.457-.05371.89453-.01831.438-.042.88184.13184,0,.4917-.00586c.24023-.00391.5-.01465.78027-.03027a.47187.47187,0,0,0-.01221.13184v.252a.40838.40838,0,0,0,.01221.12012c-.104-.00781-.2124-.01367-.32422-.01758-.1123-.00391-.23193-.00684-.35986-.00684h-.58789a3.81979,3.81979,0,0,0-.03027.38477c-.01172.22363-.022.49023-.02979.79785q-.01245.46143-.01807.96582-.00659.50391-.00586.90039,0,.33545.01758.65918a1.9804,1.9804,0,0,0,.11426.582.9334.9334,0,0,0,.28809.41406.85286.85286,0,0,0,.55176.15625,1.91046,1.91046,0,0,0,.2583-.02344,2.046,2.046,0,0,0,.28174-.06055v.28809c-.13623.02441-.28613.05371-.44971.08984a2.203,2.203,0,0,1-.47412.05371,1.49545,1.49545,0,0,1-1.11621-.37109,1.51275,1.51275,0,0,1-.35986-1.09277c0-.21582.00391-.44922.01221-.70215q.01172-.37793.02979-.82715c.01221-.30078.022-.63184.02979-.99609q.01245-.54639.01221-1.21875h-.38379c-.06445,0-.13232.00293-.2041.00684-.07227.00391-.14844.00977-.228.01758.00781-.04785.01367-.09375.01807-.1377.00391-.04395.00586-.08984.00586-.13867,0-.03906-.002-.0791-.00586-.11914-.00439-.04-.01025-.08008-.01807-.12012.35986.02344.624.03613.792.03613q-.01245-.24023-.01807-.60059c-.00439-.24023-.01416-.4873-.02979-.74414l.99561-.41992Z" transform="translate(-355.26416 -371.12012)"/><path class="cls-1" d="M571.0835,380.21582q-.13257-.32373-.34229-.83984-.20947-.51562-.44971-1.08594-.24023-.56982-.49219-1.16406-.252-.59473-.47412-1.11621-.22192-.52148-.38965-.918-.16846-.39551-.252-.58789c.10352.01563.19971.0293.2876.042a1.99365,1.99365,0,0,0,.52832,0c.08789-.0127.18408-.02637.28809-.042q.37134,1.15137.82764,2.2793.4563,1.12939.96,2.32813.50464-1.05469.96631-2.25586.46143-1.19971.82178-2.35156a1.346,1.346,0,0,0,.792,0q-.0835.16846-.27.56934-.186.40283-.44385.96-.25781.55811-.564,1.23633t-.624,1.39258q-.31787.71338-.62988,1.416-.312.70166-.57617,1.332-.26367.62988-.46191,1.13965-.19775.50977-.29395.80957a1.42671,1.42671,0,0,0-.81592,0A24.34875,24.34875,0,0,0,571.0835,380.21582Z" transform="translate(-355.26416 -371.12012)"/><path class="cls-1" d="M579.25537,377.37207a3.34974,3.34974,0,0,1,.2583-1.38672,2.569,2.569,0,0,1,.67773-.92383,2.68135,2.68135,0,0,1,.94189-.51562,3.42357,3.42357,0,0,1,2.082,0,2.69474,2.69474,0,0,1,.936.51563,2.58144,2.58144,0,0,1,.67822.92383,3.85571,3.85571,0,0,1,0,2.77246,2.5729,2.5729,0,0,1-.67822.92383,2.46271,2.46271,0,0,1-.936.498,3.84631,3.84631,0,0,1-2.082,0,2.45425,2.45425,0,0,1-.94189-.498,2.56052,2.56052,0,0,1-.67773-.92383A3.34179,3.34179,0,0,1,579.25537,377.37207Zm1.05615,0a5.13339,5.13339,0,0,0,.08984.97168,2.59475,2.59475,0,0,0,.30615.834,1.641,1.641,0,0,0,.57617.582,1.93451,1.93451,0,0,0,1.77588,0,1.6436,1.6436,0,0,0,.57568-.582,2.59474,2.59474,0,0,0,.30615-.834,5.30466,5.30466,0,0,0,0-1.94434,2.59474,2.59474,0,0,0-.30615-.834,1.6436,1.6436,0,0,0-.57568-.582,1.93451,1.93451,0,0,0-1.77588,0,1.641,1.641,0,0,0-.57617.582,2.59475,2.59475,0,0,0-.30615.834A5.14374,5.14374,0,0,0,580.31152,377.37207Z" transform="translate(-355.26416 -371.12012)"/><path class="cls-1" d="M588.84326,371.97168a.89116.89116,0,0,0-.75586.36621,1.04207,1.04207,0,0,0-.17383.37793,1.86441,1.86441,0,0,0-.0542.45605q0,.21533.042.624c.02783.27148.062.53223.10205.78027q.312,0,.61816-.00684.30542-.00586.61768-.00586c-.00781.04-.01416.08008-.01807.12012s-.00586.08008-.00586.12012.002.08008.00586.12012.01025.08008.01807.12012c-.208-.00781-.41406-.0166-.61768-.02441q-.30615-.01172-.61816-.01172,0,1.30811.00586,2.59766.00586,1.29053.042,2.59863a1.417,1.417,0,0,0-.26367-.02441h-.25244c-.168,0-.34375.00781-.52783.02441q.08423-1.30811.09619-2.58594.01172-1.27881.01172-2.61035-.21606,0-.43164.01172c-.144.00781-.28809.0166-.43213.02441.00781-.04.01367-.08008.01807-.12012q.00586-.06006.00586-.12012t-.00586-.12012c-.00439-.04-.01025-.08008-.01807-.12012.144,0,.28955.002.438.00586.14795.00488.28955.00684.42578.00684a4.3478,4.3478,0,0,1,.07227-.75684,5.12368,5.12368,0,0,1,.21-.80371,5.03376,5.03376,0,0,1,.33008-.75,2.5642,2.5642,0,0,1,.43164-.59375,2.10293,2.10293,0,0,1,.54639-.38379,1.47235,1.47235,0,0,1,.67773-.168.77571.77571,0,0,1,.24023.03516c-.0083.16016-.01807.32031-.03027.48047-.01172.16016-.01807.32031-.01807.47949l-.07178.03613A1.21808,1.21808,0,0,0,588.84326,371.97168Z" transform="translate(-355.26416 -371.12012)"/><path class="cls-1" d="M600.8374,379.92188a3.29532,3.29532,0,0,1-.564.2041q-.33032.08936-.73828.16211a4.91306,4.91306,0,0,1-.85205.07129,5.48224,5.48224,0,0,1-1.752-.26953,3.68274,3.68274,0,0,1-1.38574-.82227,3.86363,3.86363,0,0,1-.91211-1.34961,5.1736,5.1736,0,0,1,0-3.63672,3.79665,3.79665,0,0,1,.92383-1.34961,3.968,3.968,0,0,1,1.42236-.83984,5.50806,5.50806,0,0,1,1.82373-.28809,5.998,5.998,0,0,1,1.44629.16211,6.77141,6.77141,0,0,1,1.15771.38965,1.58267,1.58267,0,0,0-.15576.45605q-.06006.28857-.09619.48047l-.07178.02344a2.71768,2.71768,0,0,0-.33594-.32422,3.78252,3.78252,0,0,0-.50439-.34766,3.23709,3.23709,0,0,0-.64795-.28223,2.637,2.637,0,0,0-.792-.11328,3.71422,3.71422,0,0,0-1.314.22754,2.801,2.801,0,0,0-1.05615.70215,3.2758,3.2758,0,0,0-.70166,1.2002,6.00838,6.00838,0,0,0,0,3.44336,3.26775,3.26775,0,0,0,.70166,1.2002,2.78957,2.78957,0,0,0,1.05615.70215,3.69276,3.69276,0,0,0,1.314.22852,2.797,2.797,0,0,0,.79785-.1084,4.33957,4.33957,0,0,0,.67236-.25781,4.04667,4.04667,0,0,0,.55176-.32422q.24609-.17432.41406-.30566l.04785.04785-.10791.708A1.59028,1.59028,0,0,1,600.8374,379.92188Z" transform="translate(-355.26416 -371.12012)"/><path class="cls-1" d="M602.76318,377.37207a3.34974,3.34974,0,0,1,.2583-1.38672,2.569,2.569,0,0,1,.67773-.92383,2.68134,2.68134,0,0,1,.94189-.51562,3.42357,3.42357,0,0,1,2.082,0,2.69474,2.69474,0,0,1,.936.51563,2.58144,2.58144,0,0,1,.67822.92383,3.85571,3.85571,0,0,1,0,2.77246,2.5729,2.5729,0,0,1-.67822.92383,2.46271,2.46271,0,0,1-.936.498,3.84631,3.84631,0,0,1-2.082,0,2.45425,2.45425,0,0,1-.94189-.498,2.56052,2.56052,0,0,1-.67773-.92383A3.34179,3.34179,0,0,1,602.76318,377.37207Zm1.05615,0a5.13339,5.13339,0,0,0,.08984.97168,2.59475,2.59475,0,0,0,.30615.834,1.641,1.641,0,0,0,.57617.582,1.93451,1.93451,0,0,0,1.77588,0,1.6436,1.6436,0,0,0,.57568-.582,2.59475,2.59475,0,0,0,.30615-.834,5.30467,5.30467,0,0,0,0-1.94434,2.59475,2.59475,0,0,0-.30615-.834,1.6436,1.6436,0,0,0-.57568-.582,1.93451,1.93451,0,0,0-1.77588,0,1.641,1.641,0,0,0-.57617.582,2.59475,2.59475,0,0,0-.30615.834A5.14374,5.14374,0,0,0,603.81934,377.37207Z" transform="translate(-355.26416 -371.12012)"/><path class="cls-1" d="M610.33545,377.99609q0-.40869-.00586-.88867-.00586-.479-.01807-.9541-.01172-.47314-.02979-.90527-.01831-.43213-.042-.74414a2.47766,2.47766,0,0,0,1.08008,0q-.04834.312-.07227.59961c-.01611.19238-.02393.38379-.02393.57617h.02393a2.45169,2.45169,0,0,1,.24023-.41406,2.07147,2.07147,0,0,1,.40186-.41992,2.16046,2.16046,0,0,1,.59424-.33008,2.22249,2.22249,0,0,1,.792-.13184,2.44585,2.44585,0,0,1,.8999.17383,2.16,2.16,0,0,1,.78564.53418,2.691,2.691,0,0,1,.55225.918,3.77572,3.77572,0,0,1,.21,1.32617,3.54729,3.54729,0,0,1-.228,1.332,2.82512,2.82512,0,0,1-.59375.93555,2.26074,2.26074,0,0,1-.834.5459,2.665,2.665,0,0,1-.936.17383,1.94466,1.94466,0,0,1-1.88428-1.13965h-.02393v.75586q0,.38379.00586.8584c.00391.31543.01025.62988.01807.94141q.01172.46875.03027.89453c.01172.28418.02588.52539.042.72559a2.47767,2.47767,0,0,0-1.08008,0c.01563-.2002.02979-.44141.042-.72559q.01758-.42627.02979-.89453c.00781-.31152.01416-.626.01807-.94141q.00586-.47461.00586-.8584Zm4.332-.67285a3.95406,3.95406,0,0,0-.1499-1.1875,2.23831,2.23831,0,0,0-.38379-.75,1.2402,1.2402,0,0,0-.53418-.38965,1.72428,1.72428,0,0,0-.58789-.1084,1.579,1.579,0,0,0-.82227.2041,1.65565,1.65565,0,0,0-.55762.5459,2.4066,2.4066,0,0,0-.312.80371,4.77857,4.77857,0,0,0-.09619.97852q0,2.49609,1.752,2.49609a1.39092,1.39092,0,0,0,.75-.19824,1.5981,1.5981,0,0,0,.52832-.55176,2.74907,2.74907,0,0,0,.31152-.82812A4.82923,4.82923,0,0,0,614.66748,377.32324Z" transform="translate(-355.26416 -371.12012)"/><path class="cls-1" d="M617.1875,377.54a3.50437,3.50437,0,0,1,.70215-2.31641,2.51581,2.51581,0,0,1,2.0459-.83984,2.7626,2.7626,0,0,1,1.09814.19824,2.29379,2.29379,0,0,1,.77393.52734,2.09029,2.09029,0,0,1,.46191.77441,2.94113,2.94113,0,0,1,.1499.94824c0,.08008-.002.1582-.00586.2334-.00391.07617-.01025.1543-.01807.23438q-.64819-.01172-1.28369-.02441-.63647-.01172-1.28418-.01172-.39624,0-.78613.01172-.38965.01318-.78613.02441a1.01311,1.01311,0,0,0-.01172.17969v.15625a2.72176,2.72176,0,0,0,.1377.876,1.991,1.991,0,0,0,.40234.70215,1.91976,1.91976,0,0,0,.64795.46777,2.127,2.127,0,0,0,.8877.17383,1.93926,1.93926,0,0,0,.49219-.06543,2.78738,2.78738,0,0,0,.49219-.18066,2.67528,2.67528,0,0,0,.44971-.26953,2.296,2.296,0,0,0,.36621-.33594l.06006.03613-.07227.58789a3.34922,3.34922,0,0,1-.894.49219,3.08718,3.08718,0,0,1-1.10986.20313,3.38113,3.38113,0,0,1-1.18213-.19727,2.61389,2.61389,0,0,1-.92383-.57617,2.58229,2.58229,0,0,1-.6001-.89453A2.92693,2.92693,0,0,1,617.1875,377.54Zm2.772-2.77246a1.3244,1.3244,0,0,0-.75.2041,1.7407,1.7407,0,0,0-.50391.50977,2.44114,2.44114,0,0,0-.2998.67188,3.51192,3.51192,0,0,0-.126.69043q.37134.01172.77393.02441.40137.01172.78564.01172.39624,0,.8042-.01172.408-.01318.792-.02441a4.59025,4.59025,0,0,0-.0542-.68359,2.13862,2.13862,0,0,0-.21582-.67285,1.42912,1.42912,0,0,0-.44971-.51562A1.28442,1.28442,0,0,0,619.95947,374.76758Z" transform="translate(-355.26416 -371.12012)"/><path class="cls-1" d="M626.7334,375.35547a1.07572,1.07572,0,0,0-.354-.05957,1.01041,1.01041,0,0,0-.51562.13184,1.20122,1.20122,0,0,0-.38428.35352,1.68406,1.68406,0,0,0-.23975.52832,2.45579,2.45579,0,0,0-.084.6543v1.31934q0,.8042.00586,1.23047a5.943,5.943,0,0,0,.042.69043,4.64675,4.64675,0,0,0-.48-.02441,4.88045,4.88045,0,0,0-.50391.02441q.03589-.40869.042-1.11035.00586-.70166.00586-1.72168v-.38477q0-.46729-.00586-1.08008c-.00439-.40723-.01807-.876-.042-1.40332.08789.01563.17188.0293.252.042a1.72976,1.72976,0,0,0,.252.01758,1.579,1.579,0,0,0,.228-.01758c.07959-.0127.16406-.02637.252-.042q-.04834.43213-.0542.68359-.00586.252-.00586.48047l.02393.01172q.70825-1.29639,1.584-1.2959a1.27285,1.27285,0,0,1,.186.01172.92993.92993,0,0,1,.19824.06055,1.33527,1.33527,0,0,0-.07227.4375c-.00781.19629-.01172.374-.01172.53418l-.084.05957A.53809.53809,0,0,0,626.7334,375.35547Z" transform="translate(-355.26416 -371.12012)"/><path class="cls-1" d="M632.895,375.05566q0-.79248-.02979-1.55957-.03-.769-.06592-1.53613.312.02344.63574.042.32446.01758.63623.01758.312,0,.63574-.03027.32446-.0293.63623-.0293a5.69541,5.69541,0,0,1,.97217.07813,2.445,2.445,0,0,1,.80371.27539,1.5097,1.5097,0,0,1,.55225.53418,1.59464,1.59464,0,0,1,.20361.83984,1.7801,1.7801,0,0,1-.55762,1.39258,3.184,3.184,0,0,1-1.458.708v.02344a2.95885,2.95885,0,0,1,1.686.5166,1.76012,1.76012,0,0,1,.61768,1.5,2.14544,2.14544,0,0,1-.27588,1.12793,2.23028,2.23028,0,0,1-.71973.7373,2.96344,2.96344,0,0,1-.978.39648,5.07013,5.07013,0,0,1-1.062.11426c-.19238,0-.38623-.00488-.582-.0127q-.29443-.01172-.582-.01172h-.582q-.29443,0-.582.02441.03589-.769.06592-1.53027.03-.76172.02979-1.55371Zm1.63232.58789a4.13762,4.13762,0,0,0,.834-.084,2.24016,2.24016,0,0,0,.73779-.28223,1.52873,1.52873,0,0,0,.522-.52734,1.59776,1.59776,0,0,0,.19824-.834,1.49441,1.49441,0,0,0-.18018-.78613,1.30279,1.30279,0,0,0-.45605-.45605,1.74611,1.74611,0,0,0-.624-.21582,4.51445,4.51445,0,0,0-.6958-.05469c-.208,0-.38428.00684-.52783.01855-.144.01172-.27246.02539-.38428.042q-.02417.57568-.04785,1.13965-.02417.564-.02393,1.14063v.89941Zm-.64795,1.668q0,.6123.02393,1.21191.02344.60059.04785,1.21191c.15186.0166.332.03027.54.042q.312.019.63623.01855a2.09632,2.09632,0,0,0,.73779-.13184,1.73909,1.73909,0,0,0,.61816-.39062,1.87831,1.87831,0,0,0,.41992-.63574,2.23269,2.23269,0,0,0,.15576-.8584,1.71071,1.71071,0,0,0-.186-.8457,1.30328,1.30328,0,0,0-.53369-.51562,2.55752,2.55752,0,0,0-.834-.25781,7.33812,7.33812,0,0,0-1.08594-.07227h-.54Z" transform="translate(-355.26416 -371.12012)"/><path class="cls-1" d="M640.01123,377.37207a3.34974,3.34974,0,0,1,.2583-1.38672,2.569,2.569,0,0,1,.67773-.92383,2.68135,2.68135,0,0,1,.94189-.51562,3.42357,3.42357,0,0,1,2.082,0,2.69474,2.69474,0,0,1,.936.51563,2.58144,2.58144,0,0,1,.67822.92383,3.85571,3.85571,0,0,1,0,2.77246,2.5729,2.5729,0,0,1-.67822.92383,2.46271,2.46271,0,0,1-.936.498,3.84631,3.84631,0,0,1-2.082,0,2.45425,2.45425,0,0,1-.94189-.498,2.56052,2.56052,0,0,1-.67773-.92383A3.34179,3.34179,0,0,1,640.01123,377.37207Zm1.05615,0a5.13339,5.13339,0,0,0,.08984.97168,2.59475,2.59475,0,0,0,.30615.834,1.641,1.641,0,0,0,.57617.582,1.93451,1.93451,0,0,0,1.77588,0,1.6436,1.6436,0,0,0,.57568-.582,2.59475,2.59475,0,0,0,.30615-.834,5.30466,5.30466,0,0,0,0-1.94434,2.59475,2.59475,0,0,0-.30615-.834,1.6436,1.6436,0,0,0-.57568-.582,1.93451,1.93451,0,0,0-1.77588,0,1.641,1.641,0,0,0-.57617.582,2.59475,2.59475,0,0,0-.30615.834A5.14374,5.14374,0,0,0,641.06738,377.37207Z" transform="translate(-355.26416 -371.12012)"/><path class="cls-1" d="M649.32324,380.21582q-.13257-.32373-.34229-.83984-.20947-.51562-.44971-1.08594-.24023-.56982-.49219-1.16406-.252-.59473-.47412-1.11621-.22192-.52148-.38965-.918-.16846-.39551-.252-.58789c.10352.01563.19971.0293.2876.042a1.99365,1.99365,0,0,0,.52832,0c.08789-.0127.18408-.02637.28809-.042q.37134,1.15137.82764,2.2793.4563,1.12939.96,2.32813.50464-1.05469.96631-2.25586.46143-1.19971.82178-2.35156a1.346,1.346,0,0,0,.792,0q-.0835.16846-.27.56934-.186.40283-.44385.96-.25781.55811-.564,1.23633t-.624,1.39258q-.31787.71338-.62988,1.416-.312.70166-.57617,1.332-.26367.62988-.46191,1.13965-.19775.50977-.29395.80957a1.42671,1.42671,0,0,0-.81592,0A24.34875,24.34875,0,0,0,649.32324,380.21582Z" transform="translate(-355.26416 -371.12012)"/><path class="cls-1" d="M653.94385,375.08008a3.41,3.41,0,0,1,.99561-.55273,3.101,3.101,0,0,1,.936-.14355,2.38239,2.38239,0,0,1,.792.126,1.718,1.718,0,0,1,.6123.36035,1.66834,1.66834,0,0,1,.396.56348,1.80369,1.80369,0,0,1,.144.72656q0,.68262-.02441,1.36133-.02417.67822-.02393,1.43457c0,.0957.002.19727.00635.30566a.88987.88987,0,0,0,.05371.28809.54392.54392,0,0,0,.13818.21.38469.38469,0,0,0,.27.084q.06006,0,.126-.00586a.301.301,0,0,0,.126-.042v.26367a1.39987,1.39987,0,0,1-.33008.0957,2.415,2.415,0,0,1-.438.03613.80972.80972,0,0,1-.58789-.19727.81918.81918,0,0,1-.24023-.51074,3.24207,3.24207,0,0,1-.85205.63672,2.3525,2.3525,0,0,1-1.03174.20313,2.06429,2.06429,0,0,1-.58789-.084,1.339,1.339,0,0,1-.51025-.27539,1.51589,1.51589,0,0,1-.35986-.46191,1.33689,1.33689,0,0,1-.13818-.61816,1.40655,1.40655,0,0,1,.4502-1.11621,2.45917,2.45917,0,0,1,1.2417-.52832q.64819-.10693,1.01416-.18555a2.555,2.555,0,0,0,.54-.16211.36512.36512,0,0,0,.21-.19824.99476.99476,0,0,0,.03613-.29395,2.26665,2.26665,0,0,0-.07227-.57617,1.33109,1.33109,0,0,0-.228-.47949,1.15424,1.15424,0,0,0-.40771-.33008,1.358,1.358,0,0,0-.6123-.126,1.90758,1.90758,0,0,0-.89355.21582,1.41982,1.41982,0,0,0-.61816.60059h-.13184Zm2.96387,2.13574a3.06817,3.06817,0,0,1-.47412.12012c-.18018.03223-.36182.06543-.5459.10156a5.04935,5.04935,0,0,0-.5459.13867,1.76539,1.76539,0,0,0-.48.22754,1.10848,1.10848,0,0,0-.33643.36035,1.277,1.277,0,0,0,.19824,1.40332,1.05654,1.05654,0,0,0,.72021.28809,1.47357,1.47357,0,0,0,.834-.252,1.8889,1.8889,0,0,0,.582-.58789Z" transform="translate(-355.26416 -371.12012)"/><path class="cls-1" d="M659.95557,377.37207a3.14741,3.14741,0,0,1,.26416-1.34473,2.72689,2.72689,0,0,1,.68994-.92969,2.75508,2.75508,0,0,1,.97705-.54,3.73145,3.73145,0,0,1,1.12891-.17383,3.96934,3.96934,0,0,1,1.18164.16211,2.05044,2.05044,0,0,1,.75.36621,3.46127,3.46127,0,0,0-.15039.37793,4.19361,4.19361,0,0,0-.11328.41406h-.0957a1.73913,1.73913,0,0,0-.22852-.31836,1.87018,1.87018,0,0,0-.3418-.2998,2.0193,2.0193,0,0,0-.4375-.22852,1.50505,1.50505,0,0,0-.5293-.08984,2.034,2.034,0,0,0-.92969.19824,1.71089,1.71089,0,0,0-.63477.5459,2.37216,2.37216,0,0,0-.36133.82227,4.36944,4.36944,0,0,0-.11328,1.02539,2.84681,2.84681,0,0,0,.52734,1.86621,1.90707,1.90707,0,0,0,1.54883.62988,1.93926,1.93926,0,0,0,.49219-.06543,2.78738,2.78738,0,0,0,.49219-.18066,2.67093,2.67093,0,0,0,.44922-.26953,2.24681,2.24681,0,0,0,.36523-.33594l.06055.03613a3.65031,3.65031,0,0,0-.07227.58789,3.35445,3.35445,0,0,1-.89258.49219,3.09888,3.09888,0,0,1-1.11133.20313,3.75087,3.75087,0,0,1-1.03711-.14941,2.54142,2.54142,0,0,1-.94238-.50391,2.58008,2.58008,0,0,1-.67773-.918A3.3006,3.3006,0,0,1,659.95557,377.37207Z" transform="translate(-355.26416 -371.12012)"/><path class="cls-1" d="M667.02344,375.08008a3.39966,3.39966,0,0,1,.99609-.55273,3.09313,3.09313,0,0,1,.93555-.14355,2.38445,2.38445,0,0,1,.792.126,1.718,1.718,0,0,1,.6123.36035,1.66034,1.66034,0,0,1,.39551.56348,1.78754,1.78754,0,0,1,.14453.72656q0,.68262-.02441,1.36133-.02344.67822-.02344,1.43457c0,.0957.002.19727.00586.30566a.88987.88987,0,0,0,.05371.28809.55415.55415,0,0,0,.1377.21.38685.38685,0,0,0,.27051.084q.06006,0,.126-.00586a.301.301,0,0,0,.126-.042v.26367a1.39293,1.39293,0,0,1-.33008.0957,2.42061,2.42061,0,0,1-.43848.03613.75237.75237,0,0,1-.82715-.708,3.24373,3.24373,0,0,1-.85254.63672,2.35475,2.35475,0,0,1-1.03223.20313,2.0717,2.0717,0,0,1-.58789-.084,1.34781,1.34781,0,0,1-.50977-.27539,1.50987,1.50987,0,0,1-.36035-.46191,1.34286,1.34286,0,0,1-.1377-.61816,1.40814,1.40814,0,0,1,.4502-1.11621,2.45908,2.45908,0,0,1,1.24219-.52832q.64746-.10693,1.01367-.18555a2.555,2.555,0,0,0,.54-.16211.36512.36512,0,0,0,.21-.19824.97876.97876,0,0,0,.03613-.29395,2.28875,2.28875,0,0,0-.07227-.57617,1.33844,1.33844,0,0,0-.22754-.47949,1.16037,1.16037,0,0,0-.4082-.33008,1.358,1.358,0,0,0-.6123-.126,1.90473,1.90473,0,0,0-.89355.21582,1.41982,1.41982,0,0,0-.61816.60059h-.13184Zm2.96387,2.13574a3.06111,3.06111,0,0,1-.47363.12012c-.18066.03223-.3623.06543-.54687.10156a5.13759,5.13759,0,0,0-.5459.13867,1.76912,1.76912,0,0,0-.47949.22754,1.09665,1.09665,0,0,0-.33594.36035,1.2788,1.2788,0,0,0,.19727,1.40332,1.05859,1.05859,0,0,0,.7207.28809,1.47244,1.47244,0,0,0,.834-.252,1.89419,1.89419,0,0,0,.582-.58789Z" transform="translate(-355.26416 -371.12012)"/><path class="cls-1" d="M681.35156,372.584c-.08887-.02441-.18066-.04395-.27637-.06055a2.2016,2.2016,0,0,0-.34766-.02344,1.75661,1.75661,0,0,0-.83984.19727,2.32727,2.32727,0,0,0-.66016.52832,3.33891,3.33891,0,0,0-.49219.75586,5.6549,5.6549,0,0,0-.33594.88184,6.33234,6.33234,0,0,0-.19238.89453,5.97977,5.97977,0,0,0-.05957.80957h.02344a3.15512,3.15512,0,0,1,.28809-.40723,2.0732,2.0732,0,0,1,.40234-.37207,2.14445,2.14445,0,0,1,.54-.27637,2.0957,2.0957,0,0,1,.70215-.1084,3.17151,3.17151,0,0,1,.71973.09668,2.27423,2.27423,0,0,1,.77441.34766,2.08446,2.08446,0,0,1,.61719.69043,2.22975,2.22975,0,0,1,.252,1.12207,3.116,3.116,0,0,1-.18555,1.09766,2.37826,2.37826,0,0,1-.53418.85156,2.29967,2.29967,0,0,1-.83984.54,3.10284,3.10284,0,0,1-1.10352.18652,2.9131,2.9131,0,0,1-.99609-.17383,2.08788,2.08788,0,0,1-.84668-.582,2.96487,2.96487,0,0,1-.582-1.0625,5.16464,5.16464,0,0,1-.21582-1.60156,7.28557,7.28557,0,0,1,.23438-1.87793,4.90011,4.90011,0,0,1,.68359-1.53613,3.2839,3.2839,0,0,1,1.11621-1.02637,2.99932,2.99932,0,0,1,1.53027-.36035c.13574,0,.2373.00293.30566.00684a1.10269,1.10269,0,0,1,.19824.0293l.17969.38477Zm.05957,5.32813a2.66592,2.66592,0,0,0-.37793-1.48828,1.27741,1.27741,0,0,0-1.14551-.57617,1.459,1.459,0,0,0-.6543.15039,1.54845,1.54845,0,0,0-.52832.42578,2.16358,2.16358,0,0,0-.35352.6543,2.49009,2.49009,0,0,0-.13281.834,2.80162,2.80162,0,0,0,.12012.83984,2.07127,2.07127,0,0,0,.33594.66016,1.5388,1.5388,0,0,0,.51074.42578,1.3667,1.3667,0,0,0,.62988.14941,1.47665,1.47665,0,0,0,.67773-.14941,1.41617,1.41617,0,0,0,.498-.42578,2.03713,2.03713,0,0,0,.3125-.66016A3.12291,3.12291,0,0,0,681.41113,377.91211Z" transform="translate(-355.26416 -371.12012)"/><path class="cls-1" d="M684.14746,376.24414a8.52075,8.52075,0,0,1,.14355-1.60254,4.02612,4.02612,0,0,1,.47461-1.30762,2.54266,2.54266,0,0,1,.86914-.88867,2.48967,2.48967,0,0,1,1.32031-.33008,2.69846,2.69846,0,0,1,1.41016.33008,2.37733,2.37733,0,0,1,.85742.88867,3.84535,3.84535,0,0,1,.42676,1.30762,10.78285,10.78285,0,0,1,.11328,1.60254,7.09809,7.09809,0,0,1-.168,1.57129,4.32548,4.32548,0,0,1-.50977,1.30859,2.59467,2.59467,0,0,1-.87012.8877,2.36134,2.36134,0,0,1-1.25977.32422,2.82114,2.82114,0,0,1-1.41016-.3125,2.23906,2.23906,0,0,1-.85742-.87012,3.84536,3.84536,0,0,1-.42676-1.30762A10.64931,10.64931,0,0,1,684.14746,376.24414Zm.9834,0a11.418,11.418,0,0,0,.08984,1.47559,4.50864,4.50864,0,0,0,.30664,1.1875,2.043,2.043,0,0,0,.56348.792,1.44043,1.44043,0,0,0,1.72852,0,2.043,2.043,0,0,0,.56348-.792,4.50864,4.50864,0,0,0,.30664-1.1875,12.17038,12.17038,0,0,0,0-2.95215,4.50864,4.50864,0,0,0-.30664-1.1875,2.05039,2.05039,0,0,0-.56348-.792,1.30988,1.30988,0,0,0-.86426-.28809,1.39151,1.39151,0,0,0-.86426.26367,1.85917,1.85917,0,0,0-.56348.75586,4.35268,4.35268,0,0,0-.30664,1.18262A12.072,12.072,0,0,0,685.13086,376.24414Z" transform="translate(-355.26416 -371.12012)"/><path class="cls-1" d="M695.625,375.61328q-.01758-.59326-.07812-1.10937a3.21588,3.21588,0,0,0,.54.05957,1.38212,1.38212,0,0,0,.21-.01758c.07617-.0127.166-.02637.27051-.042-.02441.32031-.03613.63965-.03613.96h.02344a2.00969,2.00969,0,0,1,2.376-.99023,2.02546,2.02546,0,0,1,.52246.24609,1.66558,1.66558,0,0,1,.40234.37793,1.27885,1.27885,0,0,1,.22754.47363h.02441a2.11056,2.11056,0,0,1,.78516-.88184,2.14586,2.14586,0,0,1,1.14648-.30566,2.40937,2.40937,0,0,1,.73242.10742,1.483,1.483,0,0,1,.96582.9248,2.41435,2.41435,0,0,1,.1377.86328c0,.13672-.00391.28418-.01172.44434-.00879.16016-.0166.3457-.02441.55762-.00781.21289-.01562.45215-.02344.7207-.00879.26758-.0127.57813-.0127.92969q0,.32373.00586.624c.00391.2002.01465.416.03027.64844a1.417,1.417,0,0,0-.26367-.02441h-.5166a1.417,1.417,0,0,0-.26367.02441q.03662-.30029.07813-1.21289.04248-.91113.042-2.54395a2.32067,2.32067,0,0,0-.06641-.56348,1.24871,1.24871,0,0,0-.21-.45605,1.00943,1.00943,0,0,0-.38379-.30566,1.39118,1.39118,0,0,0-.59961-.11426,1.47688,1.47688,0,0,0-.73242.168,1.45725,1.45725,0,0,0-.46777.39551,1.28226,1.28226,0,0,0-.15039.26465,1.60937,1.60937,0,0,0-.084.40137c-.01953.18066-.03418.43262-.042.75684q-.01172.48486-.01172,1.33789c0,.34375.00586.6582.01758.94141q.019.42627.042.93066c-.18359-.0166-.35937-.02441-.52734-.02441s-.34473.00781-.52832.02441q.06006-.66064.084-1.34473.02344-.68408.02441-1.34375,0-.564-.00586-.88184c-.00488-.21191-.01465-.37988-.03027-.50391a1.57017,1.57017,0,0,0-.06641-.30664,2.40325,2.40325,0,0,0-.11328-.26367,1.09745,1.09745,0,0,0-.41406-.38965,1.15348,1.15348,0,0,0-.582-.16211,1.33789,1.33789,0,0,0-1.16406.51563,2.45223,2.45223,0,0,0-.37207,1.45215v1.02051q0,.53906.01758,1.13379.01758.59326.07813,1.07422c-.18359-.0166-.36426-.02441-.54-.02441s-.35547.00781-.54.02441q.06006-.48047.07813-1.07422.01758-.59473.01758-1.13379v-1.248Q695.64258,376.20752,695.625,375.61328Z" transform="translate(-355.26416 -371.12012)"/><path class="cls-1" d="M706.29883,372.416a.61519.61519,0,1,1,.18066.43164A.591.591,0,0,1,706.29883,372.416Zm.168,4.332q0-.54053-.01758-1.13477-.01758-.59326-.07812-1.10937a2.47766,2.47766,0,0,0,1.08008,0q-.06006.51563-.07812,1.10938-.01758.59473-.01758,1.13477v1.248q0,.53906.01758,1.13379.01758.59326.07813,1.07422c-.18457-.0166-.36426-.02441-.54-.02441s-.35645.00781-.54.02441q.06006-.48047.07813-1.07422.01758-.59473.01758-1.13379Z" transform="translate(-355.26416 -371.12012)"/><path class="cls-1" d="M710.33691,373.72363q-.00586-.479-.01758-.94824c-.00781-.31152-.01855-.60937-.03027-.89355s-.02637-.52637-.042-.72656a2.43867,2.43867,0,0,0,1.08008,0q-.0249.30029-.042.72656c-.01172.28418-.02246.582-.03027.89355q-.01172.46875-.01758.94824-.00586.48047-.00586.8877v2.17188q0,.40869.00586.88867c.00391.32031.00977.63574.01758.94824.00781.31152.01855.60742.03027.8877s.02539.51172.042.69629c-.18457-.0166-.36426-.02441-.54-.02441s-.35645.00781-.54.02441c.01563-.18457.03027-.416.042-.69629s.02246-.57617.03027-.8877c.00781-.3125.01367-.62793.01758-.94824s.00586-.61621.00586-.88867v-2.17187Q710.34277,374.2041,710.33691,373.72363Z" transform="translate(-355.26416 -371.12012)"/><path class="cls-1" d="M713.415,377.54a3.507,3.507,0,0,1,.70215-2.31641,2.51516,2.51516,0,0,1,2.0459-.83984,2.75846,2.75846,0,0,1,1.09766.19824,2.28628,2.28628,0,0,1,.77441.52734,2.0838,2.0838,0,0,1,.46191.77441,2.95464,2.95464,0,0,1,.15039.94824c0,.08008-.002.1582-.00586.2334-.00488.07617-.01074.1543-.01855.23438q-.64746-.01172-1.28418-.02441-.63574-.01172-1.28418-.01172-.39551,0-.78516.01172-.39111.01318-.78613.02441a.9106.9106,0,0,0-.0127.17969v.15625a2.69549,2.69549,0,0,0,.13867.876,1.98912,1.98912,0,0,0,.40137.70215,1.92658,1.92658,0,0,0,.64844.46777,2.127,2.127,0,0,0,.8877.17383,1.93926,1.93926,0,0,0,.49219-.06543,2.78738,2.78738,0,0,0,.49219-.18066,2.67962,2.67962,0,0,0,.4502-.26953,2.288,2.288,0,0,0,.36523-.33594l.06055.03613-.07227.58789a3.36115,3.36115,0,0,1-.89355.49219,3.09365,3.09365,0,0,1-1.11035.20313,3.37834,3.37834,0,0,1-1.18164-.19727,2.60956,2.60956,0,0,1-.92383-.57617,2.57008,2.57008,0,0,1-.60059-.89453A2.93626,2.93626,0,0,1,713.415,377.54Zm2.77246-2.77246a1.3222,1.3222,0,0,0-.75.2041,1.7407,1.7407,0,0,0-.50391.50977,2.429,2.429,0,0,0-.30078.67188,3.66167,3.66167,0,0,0-.126.69043q.37207.01172.77441.02441.40137.01172.78613.01172.39551,0,.80371-.01172c.27148-.00879.53613-.0166.792-.02441a4.58725,4.58725,0,0,0-.05371-.68359,2.164,2.164,0,0,0-.21582-.67285,1.43973,1.43973,0,0,0-.4502-.51562A1.28385,1.28385,0,0,0,716.1875,374.76758Z" transform="translate(-355.26416 -371.12012)"/><path class="cls-1" d="M720.57324,379.35156a1.79854,1.79854,0,0,0,.2998.27051,1.71577,1.71577,0,0,0,.39648.21,1.33151,1.33151,0,0,0,.47363.084,1.34929,1.34929,0,0,0,.43848-.07227,1.19049,1.19049,0,0,0,.37109-.2041.948.948,0,0,0,.25879-.33594,1.0936,1.0936,0,0,0,.0957-.46777.74752.74752,0,0,0-.21-.57031,1.666,1.666,0,0,0-.52246-.32422,5.56535,5.56535,0,0,0-.68359-.22168,2.86056,2.86056,0,0,1-.68359-.27051,1.58235,1.58235,0,0,1-.52246-.46191,1.32193,1.32193,0,0,1-.21-.792,1.938,1.938,0,0,1,.13184-.72559,1.59865,1.59865,0,0,1,.38379-.57031,1.80637,1.80637,0,0,1,.624-.37793,2.44708,2.44708,0,0,1,.85254-.1377,2.06044,2.06044,0,0,1,.75.12012c.2041.08008.39746.15137.582.21582a2.70888,2.70888,0,0,0-.18066.44434,3.15751,3.15751,0,0,0-.10742.40723h-.14453a1.1337,1.1337,0,0,0-.37207-.51562,1.04044,1.04044,0,0,0-.68359-.22754,1.13288,1.13288,0,0,0-.36035.05957,1.00988,1.00988,0,0,0-.32324.17969.94272.94272,0,0,0-.24023.3125,1.00364,1.00364,0,0,0-.0957.45605.79985.79985,0,0,0,.21.59375,1.476,1.476,0,0,0,.52148.33008,5.4518,5.4518,0,0,0,.68457.21,2.99226,2.99226,0,0,1,.68359.252,1.48187,1.48187,0,0,1,.52148.4502,1.3151,1.3151,0,0,1,.21094.792,1.665,1.665,0,0,1-.15039.68359,1.93573,1.93573,0,0,1-.43164.60645,1.98222,1.98222,0,0,1-.67871.41992,2.53217,2.53217,0,0,1-.89941.14941,3.36309,3.36309,0,0,1-.9248-.10742,2.90363,2.90363,0,0,1-.623-.252,3.1575,3.1575,0,0,0,.14941-.42578,1.69845,1.69845,0,0,0,.07813-.4502h.14355A1.28985,1.28985,0,0,0,720.57324,379.35156Z" transform="translate(-355.26416 -371.12012)"/><path class="cls-1" d="M468.91016,389.87012a1.137,1.137,0,0,0-.96-.46191,1.44217,1.44217,0,0,0-1.23.51563,2.36571,2.36571,0,0,0-.39014,1.45215v1.02051q0,.53906.01807,1.13379.01758.59326.07813,1.07422c-.18408-.0166-.36426-.02441-.54-.02441-.17627,0-.35645.00781-.54.02441q.06006-.48047.07813-1.07422.01758-.59473.01758-1.13379v-1.248q0-.54053-.01758-1.13477-.01831-.59326-.07812-1.10937a3.21076,3.21076,0,0,0,.54.05957,1.38718,1.38718,0,0,0,.21-.01758c.07568-.0127.166-.02637.27-.042-.02393.32031-.03613.63965-.03613.96h.02393a2.50517,2.50517,0,0,1,.8042-.79785,2.11758,2.11758,0,0,1,1.11572-.28223,2.521,2.521,0,0,1,.67822.0957,1.63258,1.63258,0,0,1,.61816.33008,1.71254,1.71254,0,0,1,.44971.63574,2.60884,2.60884,0,0,1,.17383,1.02637c0,.34375-.00781.69824-.02393,1.06152q-.02417.54639-.02393,1.1582v.78027q0,.19189.00586.37793.00659.186.01807.35449a4.89405,4.89405,0,0,0-.50391-.02441,4.75682,4.75682,0,0,0-.4917.02441q.02344-.624.05371-1.28418.03-.66064.03027-1.35645v-.73145A2.24208,2.24208,0,0,0,468.91016,389.87012Z" transform="translate(-355.26416 -371.12012)"/><path class="cls-1" d="M472.06592,391.77246a3.34974,3.34974,0,0,1,.2583-1.38672,2.569,2.569,0,0,1,.67773-.92383,2.68134,2.68134,0,0,1,.94189-.51562,3.42357,3.42357,0,0,1,2.082,0,2.69474,2.69474,0,0,1,.936.51563,2.58144,2.58144,0,0,1,.67822.92383,3.85571,3.85571,0,0,1,0,2.77246,2.5729,2.5729,0,0,1-.67822.92383,2.46271,2.46271,0,0,1-.936.498,3.84631,3.84631,0,0,1-2.082,0,2.45425,2.45425,0,0,1-.94189-.498,2.56052,2.56052,0,0,1-.67773-.92383A3.34179,3.34179,0,0,1,472.06592,391.77246Zm1.05615,0a5.13339,5.13339,0,0,0,.08984.97168,2.59475,2.59475,0,0,0,.30615.834,1.641,1.641,0,0,0,.57617.582,1.93451,1.93451,0,0,0,1.77588,0,1.6436,1.6436,0,0,0,.57568-.582,2.59475,2.59475,0,0,0,.30615-.834,5.30466,5.30466,0,0,0,0-1.94434,2.59475,2.59475,0,0,0-.30615-.834,1.6436,1.6436,0,0,0-.57568-.582,1.93451,1.93451,0,0,0-1.77588,0,1.641,1.641,0,0,0-.57617.582,2.59475,2.59475,0,0,0-.30615.834A5.14374,5.14374,0,0,0,473.12207,391.77246Z" transform="translate(-355.26416 -371.12012)"/><path class="cls-1" d="M482.28369,389.75586a1.07572,1.07572,0,0,0-.354-.05957,1.01041,1.01041,0,0,0-.51562.13184,1.20122,1.20122,0,0,0-.38428.35352,1.68405,1.68405,0,0,0-.23975.52832,2.45578,2.45578,0,0,0-.084.6543v1.31934q0,.8042.00586,1.23047a5.943,5.943,0,0,0,.042.69043,4.64675,4.64675,0,0,0-.48-.02441,4.88045,4.88045,0,0,0-.50391.02441q.03589-.40869.042-1.11035.00586-.70166.00586-1.72168v-.38477q0-.46729-.00586-1.08008c-.00439-.40723-.01807-.876-.042-1.40332.08789.01563.17188.0293.252.042a1.72977,1.72977,0,0,0,.252.01758,1.57905,1.57905,0,0,0,.228-.01758c.07959-.0127.16406-.02637.252-.042q-.04834.43213-.0542.68359-.00586.252-.00586.48047l.02393.01172q.70825-1.29639,1.584-1.2959a1.27286,1.27286,0,0,1,.186.01172.92993.92993,0,0,1,.19824.06055,1.33527,1.33527,0,0,0-.07227.4375c-.00781.19629-.01172.374-.01172.53418l-.084.05957A.53809.53809,0,0,0,482.28369,389.75586Z" transform="translate(-355.26416 -371.12012)"/><path class="cls-1" d="M485.39795,387.2959q-.03589.457-.05371.89453-.01831.438-.042.88184.13184,0,.4917-.00586c.24023-.00391.5-.01465.78027-.03027a.47187.47187,0,0,0-.01221.13184v.252a.40838.40838,0,0,0,.01221.12012c-.104-.00781-.2124-.01367-.32422-.01758-.1123-.00391-.23193-.00684-.35986-.00684h-.58789a3.81978,3.81978,0,0,0-.03027.38477c-.01172.22363-.022.49023-.02979.79785q-.01245.46143-.01807.96582-.00659.50391-.00586.90039,0,.33545.01758.65918a1.9804,1.9804,0,0,0,.11426.582.9334.9334,0,0,0,.28809.41406.85286.85286,0,0,0,.55176.15625,1.91046,1.91046,0,0,0,.2583-.02344,2.04606,2.04606,0,0,0,.28174-.06055v.28809c-.13623.02441-.28613.05371-.44971.08984a2.203,2.203,0,0,1-.47412.05371,1.49545,1.49545,0,0,1-1.11621-.37109,1.51275,1.51275,0,0,1-.35986-1.09277c0-.21582.00391-.44922.01221-.70215q.01172-.37793.02979-.82715c.01221-.30078.022-.63184.02979-.99609q.01245-.54639.01221-1.21875h-.38379c-.06445,0-.13232.00293-.2041.00684-.07227.00391-.14844.00977-.228.01758.00781-.04785.01367-.09375.01807-.1377.00391-.04395.00586-.08984.00586-.13867,0-.03906-.002-.0791-.00586-.11914-.00439-.04-.01025-.08008-.01807-.12012.35986.02344.624.03613.792.03613q-.01245-.24023-.01807-.60059c-.00439-.24023-.01416-.4873-.02979-.74414l.99561-.41992Z" transform="translate(-355.26416 -371.12012)"/><path class="cls-1" d="M488.272,388.124q-.00586-.479-.01807-.94824-.01172-.46729-.02979-.89355-.01831-.42627-.042-.72656a2.43868,2.43868,0,0,0,1.08008,0q-.02417.30029-.042.7207-.01831.42041-.03027.88184c-.00781.30762-.01416.61816-.01807.92969q-.00586.46875-.00586.86426v.91211h.02393a2.50517,2.50517,0,0,1,.8042-.79785,2.11758,2.11758,0,0,1,1.11572-.28223,2.521,2.521,0,0,1,.67822.0957,1.63258,1.63258,0,0,1,.61816.33008,1.71254,1.71254,0,0,1,.44971.63574,2.60884,2.60884,0,0,1,.17383,1.02637c0,.34375-.00781.69824-.02393,1.06152q-.02417.54639-.02393,1.1582v.78027q0,.19189.00586.37793.00659.186.01807.35449a4.89405,4.89405,0,0,0-.50391-.02441,4.75682,4.75682,0,0,0-.4917.02441q.02344-.624.05371-1.28418.03-.66064.03027-1.35645v-.73145a2.24208,2.24208,0,0,0-.34814-1.3623,1.137,1.137,0,0,0-.96-.46191,1.44217,1.44217,0,0,0-1.23.51563,2.36571,2.36571,0,0,0-.39014,1.45215q0,.33691.00586.78027.00586.44385.01807.89355c.00781.2998.01807.59082.03027.87012.01172.28027.02588.50781.042.68457-.18408-.0166-.36426-.02441-.54-.02441-.17627,0-.35645.00781-.54.02441.01563-.18457.02979-.416.042-.69629q.01758-.42041.02979-.8877c.00781-.3125.01416-.62793.01807-.94824s.00586-.61621.00586-.88867v-2.17187Q488.27783,388.60449,488.272,388.124Z" transform="translate(-355.26416 -371.12012)"/><path class="cls-1" d="M498.77783,391.77246a3.34974,3.34974,0,0,1,.2583-1.38672,2.569,2.569,0,0,1,.67773-.92383,2.68134,2.68134,0,0,1,.94189-.51562,3.42357,3.42357,0,0,1,2.082,0,2.69474,2.69474,0,0,1,.936.51563,2.58144,2.58144,0,0,1,.67822.92383,3.85571,3.85571,0,0,1,0,2.77246,2.5729,2.5729,0,0,1-.67822.92383,2.46271,2.46271,0,0,1-.936.498,3.84632,3.84632,0,0,1-2.082,0,2.45425,2.45425,0,0,1-.94189-.498,2.56052,2.56052,0,0,1-.67773-.92383A3.34179,3.34179,0,0,1,498.77783,391.77246Zm1.05615,0a5.13339,5.13339,0,0,0,.08984.97168,2.59475,2.59475,0,0,0,.30615.834,1.641,1.641,0,0,0,.57617.582,1.93451,1.93451,0,0,0,1.77588,0,1.6436,1.6436,0,0,0,.57568-.582,2.59475,2.59475,0,0,0,.30615-.834,5.30467,5.30467,0,0,0,0-1.94434,2.59475,2.59475,0,0,0-.30615-.834,1.6436,1.6436,0,0,0-.57568-.582,1.93451,1.93451,0,0,0-1.77588,0,1.641,1.641,0,0,0-.57617.582,2.59475,2.59475,0,0,0-.30615.834A5.14374,5.14374,0,0,0,499.834,391.77246Z" transform="translate(-355.26416 -371.12012)"/><path class="cls-1" d="M508.36572,386.37207a.89116.89116,0,0,0-.75586.36621,1.04207,1.04207,0,0,0-.17383.37793,1.86441,1.86441,0,0,0-.0542.45605q0,.21533.042.624c.02783.27148.062.53223.10205.78027q.312,0,.61816-.00684.30542-.00586.61768-.00586c-.00781.04-.01416.08008-.01807.12012s-.00586.08008-.00586.12012.002.08008.00586.12012.01025.08008.01807.12012c-.208-.00781-.41406-.0166-.61768-.02441q-.30615-.01172-.61816-.01172,0,1.30811.00586,2.59766.00586,1.29053.042,2.59863a1.417,1.417,0,0,0-.26367-.02441h-.25244c-.168,0-.34375.00781-.52783.02441q.08423-1.30811.09619-2.58594.01172-1.27881.01172-2.61035-.21606,0-.43164.01172c-.144.00781-.28809.0166-.43213.02441.00781-.04.01367-.08008.01807-.12012q.00586-.06006.00586-.12012t-.00586-.12012c-.00439-.04-.01025-.08008-.01807-.12012.144,0,.28955.002.438.00586.14795.00488.28955.00684.42578.00684a4.3478,4.3478,0,0,1,.07227-.75684,5.12367,5.12367,0,0,1,.21-.80371,5.03377,5.03377,0,0,1,.33008-.75,2.56421,2.56421,0,0,1,.43164-.59375,2.10293,2.10293,0,0,1,.54639-.38379,1.47235,1.47235,0,0,1,.67773-.168.77571.77571,0,0,1,.24023.03516c-.0083.16016-.01807.32031-.03027.48047-.01172.16016-.01807.32031-.01807.47949l-.07178.03613A1.21808,1.21808,0,0,0,508.36572,386.37207Z" transform="translate(-355.26416 -371.12012)"/><path class="cls-1" d="M514.49756,389.45605q0-.79248-.02979-1.55957-.03-.769-.06592-1.53613.312.02344.63574.042.32446.01758.63623.01758.312,0,.63574-.03027.32446-.0293.63623-.0293a5.6954,5.6954,0,0,1,.97217.07813,2.445,2.445,0,0,1,.80371.27539,1.5097,1.5097,0,0,1,.55225.53418,1.59464,1.59464,0,0,1,.20361.83984,1.7801,1.7801,0,0,1-.55762,1.39258,3.184,3.184,0,0,1-1.458.708v.02344a2.95885,2.95885,0,0,1,1.686.5166,1.76012,1.76012,0,0,1,.61768,1.5,2.14545,2.14545,0,0,1-.27588,1.12793,2.23028,2.23028,0,0,1-.71973.7373,2.96344,2.96344,0,0,1-.978.39648,5.07013,5.07013,0,0,1-1.062.11426c-.19238,0-.38623-.00488-.582-.0127q-.29443-.01172-.582-.01172h-.582q-.29443,0-.582.02441.03589-.769.06592-1.53027.03-.76172.02979-1.55371Zm1.63232.58789a4.13762,4.13762,0,0,0,.834-.084,2.24015,2.24015,0,0,0,.73779-.28223,1.52873,1.52873,0,0,0,.522-.52734,1.59776,1.59776,0,0,0,.19824-.834,1.49441,1.49441,0,0,0-.18018-.78613,1.30279,1.30279,0,0,0-.45605-.45605,1.74611,1.74611,0,0,0-.624-.21582,4.51445,4.51445,0,0,0-.6958-.05469c-.208,0-.38428.00684-.52783.01855-.144.01172-.27246.02539-.38428.042q-.02417.57568-.04785,1.13965-.02417.564-.02393,1.14063v.89941Zm-.64795,1.668q0,.6123.02393,1.21191.02344.60059.04785,1.21191c.15186.0166.332.03027.54.042q.312.019.63623.01855a2.09632,2.09632,0,0,0,.73779-.13184,1.73909,1.73909,0,0,0,.61816-.39062,1.87831,1.87831,0,0,0,.41992-.63574,2.23269,2.23269,0,0,0,.15576-.8584,1.71071,1.71071,0,0,0-.186-.8457,1.30328,1.30328,0,0,0-.53369-.51562,2.55751,2.55751,0,0,0-.834-.25781,7.33812,7.33812,0,0,0-1.08594-.07227h-.54Z" transform="translate(-355.26416 -371.12012)"/><path class="cls-1" d="M521.61377,391.77246a3.34974,3.34974,0,0,1,.2583-1.38672,2.569,2.569,0,0,1,.67773-.92383,2.68134,2.68134,0,0,1,.94189-.51562,3.42357,3.42357,0,0,1,2.082,0,2.69474,2.69474,0,0,1,.936.51563,2.58144,2.58144,0,0,1,.67822.92383,3.85571,3.85571,0,0,1,0,2.77246,2.5729,2.5729,0,0,1-.67822.92383,2.46271,2.46271,0,0,1-.936.498,3.84632,3.84632,0,0,1-2.082,0,2.45425,2.45425,0,0,1-.94189-.498,2.56052,2.56052,0,0,1-.67773-.92383A3.34179,3.34179,0,0,1,521.61377,391.77246Zm1.05615,0a5.13339,5.13339,0,0,0,.08984.97168,2.59475,2.59475,0,0,0,.30615.834,1.641,1.641,0,0,0,.57617.582,1.93451,1.93451,0,0,0,1.77588,0,1.6436,1.6436,0,0,0,.57568-.582,2.59475,2.59475,0,0,0,.30615-.834,5.30467,5.30467,0,0,0,0-1.94434,2.59475,2.59475,0,0,0-.30615-.834,1.6436,1.6436,0,0,0-.57568-.582,1.93451,1.93451,0,0,0-1.77588,0,1.641,1.641,0,0,0-.57617.582,2.59475,2.59475,0,0,0-.30615.834A5.14374,5.14374,0,0,0,522.66992,391.77246Z" transform="translate(-355.26416 -371.12012)"/><path class="cls-1" d="M529.00586,390.74023a1.95838,1.95838,0,0,1,.17969-.87012,1.67546,1.67546,0,0,1,.498-.60645,2.25187,2.25187,0,0,1,.73193-.35937,3.1552,3.1552,0,0,1,.88232-.12012q.22778,0,.438.01172c.13965.00781.31787.02051.53369.03613.18408.0166.34814.02832.49219.03613s.25977.01172.34814.01172a5.53564,5.53564,0,0,0,.97168-.05957,1.22367,1.22367,0,0,0-.01758.126c-.00439.04395-.00635.08594-.00635.126s.002.082.00635.126a1.22367,1.22367,0,0,0,.01758.126c-.23193-.01562-.458-.03418-.67773-.05371q-.33032-.03076-.65381-.042l-.02441.02344a1.50844,1.50844,0,0,1,.6001.62988,1.8485,1.8485,0,0,1,.228.88184,1.7434,1.7434,0,0,1-.606,1.41016,2.43989,2.43989,0,0,1-1.626.50977q-.16846,0-.33008-.01172-.16187-.01172-.33008-.01172a.61117.61117,0,0,0-.40186.15625.49263.49263,0,0,0-.186.39551.60705.60705,0,0,0,.1499.45605.8523.8523,0,0,0,.55811.15625q.33618.01172.66016.01758.32373.00732.65967.01855a3.48457,3.48457,0,0,1,.94238.13184,1.81787,1.81787,0,0,1,.63574.32422,1.24587,1.24587,0,0,1,.35986.46777,1.43467,1.43467,0,0,1,.11426.57617,2.41818,2.41818,0,0,1-.16211.85156,2.21768,2.21768,0,0,1-.50391.78027,2.69376,2.69376,0,0,1-.88184.57617,3.33743,3.33743,0,0,1-1.29639.22754,3.20137,3.20137,0,0,1-1.83594-.46191,1.5247,1.5247,0,0,1-.55811-1.8418,1.75079,1.75079,0,0,1,.29443-.46777,1.41649,1.41649,0,0,1,.40771-.32422,2.08522,2.08522,0,0,1,.46826-.17969v-.02441a1.04978,1.04978,0,0,1-.564-.36035.95706.95706,0,0,1-.19238-.59961.87117.87117,0,0,1,.07813-.37207,1.16787,1.16787,0,0,1,.19824-.2998,1.01922,1.01922,0,0,1,.27588-.21582.97672.97672,0,0,1,.2998-.1084v-.02441a2.01234,2.01234,0,0,1-.86377-.67773A1.84532,1.84532,0,0,1,529.00586,390.74023Zm4.25977,5.13574a1.13577,1.13577,0,0,0-.41992-1.00781,2.541,2.541,0,0,0-1.39209-.28809,2.72885,2.72885,0,0,0-1.39209.29395,1.13331,1.13331,0,0,0-.4917,1.0625,1.59927,1.59927,0,0,0,.1377.69531,1.26719,1.26719,0,0,0,.37207.46777,1.54843,1.54843,0,0,0,.55811.26465,2.785,2.785,0,0,0,.69629.084,2.67525,2.67525,0,0,0,.708-.0957,1.95889,1.95889,0,0,0,.61768-.28809,1.507,1.507,0,0,0,.438-.48633A1.39418,1.39418,0,0,0,533.26563,395.876Zm-.64795-5.19629a1.656,1.656,0,0,0-.35986-1.15137,1.21905,1.21905,0,0,0-.94824-.39648,1.23294,1.23294,0,0,0-1.00781.43848,1.7836,1.7836,0,0,0-.35986,1.16992,1.936,1.936,0,0,0,.33008,1.19336,1.27254,1.27254,0,0,0,2.02783-.07129,1.65725,1.65725,0,0,0,.23975-.54A2.57984,2.57984,0,0,0,532.61768,390.67969Z" transform="translate(-355.26416 -371.12012)"/><path class="cls-1" d="M535.36572,391.77246a3.34974,3.34974,0,0,1,.2583-1.38672,2.569,2.569,0,0,1,.67773-.92383,2.68134,2.68134,0,0,1,.94189-.51562,3.42357,3.42357,0,0,1,2.082,0,2.69474,2.69474,0,0,1,.936.51563,2.58144,2.58144,0,0,1,.67822.92383,3.85571,3.85571,0,0,1,0,2.77246,2.5729,2.5729,0,0,1-.67822.92383,2.46271,2.46271,0,0,1-.936.498,3.84632,3.84632,0,0,1-2.082,0,2.45425,2.45425,0,0,1-.94189-.498,2.56052,2.56052,0,0,1-.67773-.92383A3.34179,3.34179,0,0,1,535.36572,391.77246Zm1.05615,0a5.13339,5.13339,0,0,0,.08984.97168,2.59474,2.59474,0,0,0,.30615.834,1.641,1.641,0,0,0,.57617.582,1.93451,1.93451,0,0,0,1.77588,0,1.6436,1.6436,0,0,0,.57568-.582,2.59475,2.59475,0,0,0,.30615-.834,5.30466,5.30466,0,0,0,0-1.94434,2.59475,2.59475,0,0,0-.30615-.834,1.6436,1.6436,0,0,0-.57568-.582,1.93451,1.93451,0,0,0-1.77588,0,1.641,1.641,0,0,0-.57617.582,2.59474,2.59474,0,0,0-.30615.834A5.14374,5.14374,0,0,0,536.42188,391.77246Z" transform="translate(-355.26416 -371.12012)"/><path class="cls-1" d="M544.16162,387.2959q-.03589.457-.05371.89453-.01831.438-.042.88184.13184,0,.4917-.00586c.24023-.00391.5-.01465.78027-.03027a.47187.47187,0,0,0-.01221.13184v.252a.40838.40838,0,0,0,.01221.12012c-.104-.00781-.2124-.01367-.32422-.01758-.1123-.00391-.23193-.00684-.35986-.00684h-.58789a3.81979,3.81979,0,0,0-.03027.38477c-.01172.22363-.022.49023-.02979.79785q-.01245.46143-.01807.96582-.00659.50391-.00586.90039,0,.33545.01758.65918a1.9804,1.9804,0,0,0,.11426.582.9334.9334,0,0,0,.28809.41406.85286.85286,0,0,0,.55176.15625,1.91046,1.91046,0,0,0,.2583-.02344,2.04606,2.04606,0,0,0,.28174-.06055v.28809c-.13623.02441-.28613.05371-.44971.08984a2.203,2.203,0,0,1-.47412.05371,1.49545,1.49545,0,0,1-1.11621-.37109,1.51275,1.51275,0,0,1-.35986-1.09277c0-.21582.00391-.44922.01221-.70215q.01172-.37793.02979-.82715c.01221-.30078.022-.63184.02979-.99609q.01245-.54639.01221-1.21875h-.38379c-.06445,0-.13232.00293-.2041.00684-.07227.00391-.14844.00977-.228.01758.00781-.04785.01367-.09375.01807-.1377.00391-.04395.00586-.08984.00586-.13867,0-.03906-.002-.0791-.00586-.11914-.00439-.04-.01025-.08008-.01807-.12012.35986.02344.624.03613.792.03613q-.01245-.24023-.01807-.60059c-.00439-.24023-.01416-.4873-.02979-.74414l.99561-.41992Z" transform="translate(-355.26416 -371.12012)"/><path class="cls-1" d="M547.06592,389.48047a3.41,3.41,0,0,1,.99561-.55273,3.101,3.101,0,0,1,.936-.14355,2.38239,2.38239,0,0,1,.792.126,1.718,1.718,0,0,1,.6123.36035,1.66834,1.66834,0,0,1,.396.56348,1.80369,1.80369,0,0,1,.144.72656q0,.68262-.02441,1.36133-.02417.67822-.02393,1.43457c0,.0957.002.19727.00635.30566a.88987.88987,0,0,0,.05371.28809.54392.54392,0,0,0,.13818.21.38469.38469,0,0,0,.27.084q.06006,0,.126-.00586a.301.301,0,0,0,.126-.042V394.46a1.39987,1.39987,0,0,1-.33008.0957,2.415,2.415,0,0,1-.438.03613.80972.80972,0,0,1-.58789-.19727.81917.81917,0,0,1-.24023-.51074,3.24207,3.24207,0,0,1-.85205.63672,2.3525,2.3525,0,0,1-1.03174.20313,2.06429,2.06429,0,0,1-.58789-.084,1.339,1.339,0,0,1-.51025-.27539,1.51589,1.51589,0,0,1-.35986-.46191,1.33689,1.33689,0,0,1-.13818-.61816,1.40655,1.40655,0,0,1,.4502-1.11621,2.45918,2.45918,0,0,1,1.2417-.52832q.64819-.10693,1.01416-.18555a2.555,2.555,0,0,0,.54-.16211.36512.36512,0,0,0,.21-.19824.99476.99476,0,0,0,.03613-.29395,2.26665,2.26665,0,0,0-.07227-.57617,1.33109,1.33109,0,0,0-.228-.47949,1.15424,1.15424,0,0,0-.40771-.33008,1.358,1.358,0,0,0-.6123-.126,1.90758,1.90758,0,0,0-.89355.21582,1.41982,1.41982,0,0,0-.61816.60059h-.13184Zm2.96387,2.13574a3.06816,3.06816,0,0,1-.47412.12012c-.18018.03223-.36182.06543-.5459.10156a5.04938,5.04938,0,0,0-.5459.13867,1.76539,1.76539,0,0,0-.48.22754,1.10848,1.10848,0,0,0-.33643.36035,1.277,1.277,0,0,0,.19824,1.40332,1.05654,1.05654,0,0,0,.72021.28809,1.47357,1.47357,0,0,0,.834-.252,1.8889,1.8889,0,0,0,.582-.58789Z" transform="translate(-355.26416 -371.12012)"/><path class="cls-1" d="M554.02588,393.374a.43364.43364,0,0,1,.35986-.15039.54144.54144,0,0,1,.29395.09668.34127.34127,0,0,1,.1499.31152.58242.58242,0,0,1-.06006.26465l-.11963.23926-1.5,2.50879-.21631-.084.92432-2.88086A.93267.93267,0,0,1,554.02588,393.374Z" transform="translate(-355.26416 -371.12012)"/><path class="cls-1" d="M567.36377,394.32227a3.29532,3.29532,0,0,1-.564.2041q-.33032.08936-.73828.16211a4.91307,4.91307,0,0,1-.85205.07129,5.48224,5.48224,0,0,1-1.752-.26953,3.68275,3.68275,0,0,1-1.38574-.82227,3.86363,3.86363,0,0,1-.91211-1.34961,5.1736,5.1736,0,0,1,0-3.63672,3.79665,3.79665,0,0,1,.92383-1.34961,3.968,3.968,0,0,1,1.42236-.83984,5.50806,5.50806,0,0,1,1.82373-.28809,5.998,5.998,0,0,1,1.44629.16211,6.77142,6.77142,0,0,1,1.15771.38965,1.58267,1.58267,0,0,0-.15576.45605q-.06006.28857-.09619.48047l-.07178.02344a2.71768,2.71768,0,0,0-.33594-.32422,3.7825,3.7825,0,0,0-.50439-.34766,3.23708,3.23708,0,0,0-.64795-.28223,2.637,2.637,0,0,0-.792-.11328,3.71422,3.71422,0,0,0-1.314.22754,2.801,2.801,0,0,0-1.05615.70215,3.2758,3.2758,0,0,0-.70166,1.2002,6.00838,6.00838,0,0,0,0,3.44336,3.26775,3.26775,0,0,0,.70166,1.2002,2.78957,2.78957,0,0,0,1.05615.70215,3.69276,3.69276,0,0,0,1.314.22852,2.797,2.797,0,0,0,.79785-.1084,4.33957,4.33957,0,0,0,.67236-.25781,4.04668,4.04668,0,0,0,.55176-.32422q.24609-.17432.41406-.30566l.04785.04785-.10791.708A1.59028,1.59028,0,0,1,567.36377,394.32227Z" transform="translate(-355.26416 -371.12012)"/><path class="cls-1" d="M569.28955,391.77246a3.34974,3.34974,0,0,1,.2583-1.38672,2.569,2.569,0,0,1,.67773-.92383,2.68134,2.68134,0,0,1,.94189-.51562,3.42357,3.42357,0,0,1,2.082,0,2.69474,2.69474,0,0,1,.936.51563,2.58144,2.58144,0,0,1,.67822.92383,3.85571,3.85571,0,0,1,0,2.77246,2.5729,2.5729,0,0,1-.67822.92383,2.46271,2.46271,0,0,1-.936.498,3.84631,3.84631,0,0,1-2.082,0,2.45425,2.45425,0,0,1-.94189-.498,2.56052,2.56052,0,0,1-.67773-.92383A3.34179,3.34179,0,0,1,569.28955,391.77246Zm1.05615,0a5.13339,5.13339,0,0,0,.08984.97168,2.59475,2.59475,0,0,0,.30615.834,1.641,1.641,0,0,0,.57617.582,1.93451,1.93451,0,0,0,1.77588,0,1.6436,1.6436,0,0,0,.57568-.582,2.59475,2.59475,0,0,0,.30615-.834,5.30466,5.30466,0,0,0,0-1.94434,2.59475,2.59475,0,0,0-.30615-.834,1.6436,1.6436,0,0,0-.57568-.582,1.93451,1.93451,0,0,0-1.77588,0,1.641,1.641,0,0,0-.57617.582,2.59475,2.59475,0,0,0-.30615.834A5.14374,5.14374,0,0,0,570.3457,391.77246Z" transform="translate(-355.26416 -371.12012)"/><path class="cls-1" d="M577.29932,388.124q-.00586-.479-.01758-.94824-.01245-.46729-.03027-.89355-.01758-.42627-.042-.72656a2.43868,2.43868,0,0,0,1.08008,0q-.02417.30029-.042.72656-.01831.42627-.02979.89355-.01245.46875-.01807.94824-.00659.48047-.00635.8877v2.17188q0,.40869.00635.88867c.00391.32031.00977.63574.01807.94824q.01172.46729.02979.8877c.01221.28027.02588.51172.042.69629-.18408-.0166-.36426-.02441-.54-.02441-.17627,0-.356.00781-.54.02441.01611-.18457.03027-.416.042-.69629q.01831-.42041.03027-.8877c.00781-.3125.01367-.62793.01758-.94824q.00659-.48047.00635-.88867v-2.17187Q577.30566,388.60449,577.29932,388.124Z" transform="translate(-355.26416 -371.12012)"/><path class="cls-1" d="M580.37793,391.77246a3.34974,3.34974,0,0,1,.2583-1.38672,2.569,2.569,0,0,1,.67773-.92383,2.68134,2.68134,0,0,1,.94189-.51562,3.42357,3.42357,0,0,1,2.082,0,2.69474,2.69474,0,0,1,.936.51563,2.58144,2.58144,0,0,1,.67822.92383,3.85571,3.85571,0,0,1,0,2.77246,2.5729,2.5729,0,0,1-.67822.92383,2.46271,2.46271,0,0,1-.936.498,3.84631,3.84631,0,0,1-2.082,0,2.45425,2.45425,0,0,1-.94189-.498,2.56052,2.56052,0,0,1-.67773-.92383A3.34179,3.34179,0,0,1,580.37793,391.77246Zm1.05615,0a5.13339,5.13339,0,0,0,.08984.97168,2.59475,2.59475,0,0,0,.30615.834,1.641,1.641,0,0,0,.57617.582,1.93451,1.93451,0,0,0,1.77588,0,1.6436,1.6436,0,0,0,.57568-.582,2.59475,2.59475,0,0,0,.30615-.834,5.30466,5.30466,0,0,0,0-1.94434,2.59475,2.59475,0,0,0-.30615-.834,1.6436,1.6436,0,0,0-.57568-.582,1.93451,1.93451,0,0,0-1.77588,0,1.641,1.641,0,0,0-.57617.582,2.59475,2.59475,0,0,0-.30615.834A5.14374,5.14374,0,0,0,581.43408,391.77246Z" transform="translate(-355.26416 -371.12012)"/><path class="cls-1" d="M588.08789,390.01367q-.01831-.59326-.07812-1.10937a3.21589,3.21589,0,0,0,.54.05957,1.38718,1.38718,0,0,0,.21-.01758c.07617-.0127.166-.02637.27-.042-.02393.32031-.03564.63965-.03564.96h.02393a2.00969,2.00969,0,0,1,2.376-.99023,2.02983,2.02983,0,0,1,.522.24609,1.67239,1.67239,0,0,1,.40186.37793,1.27251,1.27251,0,0,1,.228.47363h.02393a2.1159,2.1159,0,0,1,.78613-.88184,2.143,2.143,0,0,1,1.146-.30566,2.4016,2.4016,0,0,1,.73193.10742,1.483,1.483,0,0,1,.96582.9248,2.40306,2.40306,0,0,1,.13818.86328c0,.13672-.00391.28418-.01221.44434-.00781.16016-.01611.3457-.02393.55762-.00781.21289-.01611.45215-.02393.7207-.00781.26758-.01172.57813-.01172.92969,0,.21582.00146.42383.00586.624q.00586.30029.02979.64844a1.417,1.417,0,0,0-.26367-.02441H595.522a1.41832,1.41832,0,0,0-.26416.02441q.03589-.30029.07813-1.21289.04175-.91113.042-2.54395a2.321,2.321,0,0,0-.06592-.56348,1.26485,1.26485,0,0,0-.21-.45605,1.01486,1.01486,0,0,0-.38428-.30566,1.39269,1.39269,0,0,0-.59961-.11426,1.47688,1.47688,0,0,0-.73242.168,1.45725,1.45725,0,0,0-.46777.39551,1.27915,1.27915,0,0,0-.1499.26465,1.566,1.566,0,0,0-.084.40137q-.03.271-.042.75684-.01245.48486-.01221,1.33789c0,.34375.00586.6582.01807.94141q.01831.42627.042.93066c-.18408-.0166-.35986-.02441-.52783-.02441s-.34424.00781-.52832.02441q.06006-.66064.084-1.34473.02417-.68408.02393-1.34375,0-.564-.00586-.88184a4.94959,4.94959,0,0,0-.02979-.50391,1.57375,1.57375,0,0,0-.06592-.30664,2.425,2.425,0,0,0-.11426-.26367,1.08671,1.08671,0,0,0-.41406-.38965,1.1495,1.1495,0,0,0-.582-.16211,1.33848,1.33848,0,0,0-1.16406.51563,2.45231,2.45231,0,0,0-.37158,1.45215v1.02051q0,.53906.01758,1.13379.01831.59326.07813,1.07422c-.18408-.0166-.36426-.02441-.54-.02441s-.356.00781-.54.02441q.06006-.48047.07813-1.07422.01831-.59473.01807-1.13379v-1.248Q588.106,390.60791,588.08789,390.01367Z" transform="translate(-355.26416 -371.12012)"/><path class="cls-1" d="M603.87354,391.60449a3.69469,3.69469,0,0,1-.21,1.27148,3.06488,3.06488,0,0,1-.57617.99023,2.50067,2.50067,0,0,1-.86377.63574,2.60051,2.60051,0,0,1-1.07422.22168,2.185,2.185,0,0,1-1.03809-.24512,1.92983,1.92983,0,0,1-.70166-.59473q-.43213.34863-.8042.69629h-.21582c.01563-.19238.02979-.42383.042-.69629q.01758-.40723.02979-.87012.01172-.46143.01807-.94141.00586-.48047.00586-.88867v-2.17187q0-.40723-.00586-.8877-.00586-.479-.01807-.94824-.01172-.46729-.02979-.89355-.01831-.42627-.042-.72656a3.12858,3.12858,0,0,0,.54.06055,2.10544,2.10544,0,0,0,.27588-.01855c.09619-.01172.19971-.02539.312-.042q-.03589.24023-.06006.7627-.02417.52148-.03613,1.16406-.01172.6416-.02393,1.31934-.01172.67822-.02393,1.23047h.02393a2.86032,2.86032,0,0,1,.8999-.94824,2.14439,2.14439,0,0,1,1.14014-.2998,2.33518,2.33518,0,0,1,1.08008.23438,2.23557,2.23557,0,0,1,.75586.61719,2.66034,2.66034,0,0,1,.4502.89453A3.78449,3.78449,0,0,1,603.87354,391.60449Zm-1.05615-.03613a3.18253,3.18253,0,0,0-.1377-.97852,2.36281,2.36281,0,0,0-.36035-.71387,1.51685,1.51685,0,0,0-.51562-.4375,1.31356,1.31356,0,0,0-.606-.15039,1.89589,1.89589,0,0,0-.71436.1377,1.44923,1.44923,0,0,0-.59375.45605,2.41727,2.41727,0,0,0-.40186.82813,4.47732,4.47732,0,0,0-.15039,1.25391q0,2.4126,1.752,2.41211a1.245,1.245,0,0,0,.68408-.19824,1.774,1.774,0,0,0,.5459-.56934,3.08963,3.08963,0,0,0,.36621-.88867A4.65125,4.65125,0,0,0,602.81738,391.56836Z" transform="translate(-355.26416 -371.12012)"/><path class="cls-1" d="M605.97363,386.81641a.6135.6135,0,1,1,.17969.43164A.59193.59193,0,0,1,605.97363,386.81641Zm.168,4.332q0-.54053-.01807-1.13477-.01831-.59326-.07812-1.10937a2.47767,2.47767,0,0,0,1.08008,0q-.06006.51563-.07812,1.10938-.01758.59473-.01807,1.13477v1.248q0,.53906.01807,1.13379.01831.59326.07813,1.07422c-.18408-.0166-.36426-.02441-.54-.02441-.17627,0-.356.00781-.54.02441q.06006-.48047.07813-1.07422.01758-.59473.01807-1.13379Z" transform="translate(-355.26416 -371.12012)"/><path class="cls-1" d="M609.82568,389.48047a3.41,3.41,0,0,1,.99561-.55273,3.101,3.101,0,0,1,.936-.14355,2.38239,2.38239,0,0,1,.792.126,1.718,1.718,0,0,1,.6123.36035,1.66834,1.66834,0,0,1,.396.56348,1.80369,1.80369,0,0,1,.144.72656q0,.68262-.02441,1.36133-.02417.67822-.02393,1.43457c0,.0957.002.19727.00635.30566a.88987.88987,0,0,0,.05371.28809.54392.54392,0,0,0,.13818.21.38469.38469,0,0,0,.27.084q.06006,0,.126-.00586a.301.301,0,0,0,.126-.042V394.46a1.39987,1.39987,0,0,1-.33008.0957,2.415,2.415,0,0,1-.438.03613.80972.80972,0,0,1-.58789-.19727.81917.81917,0,0,1-.24023-.51074,3.24208,3.24208,0,0,1-.85205.63672,2.3525,2.3525,0,0,1-1.03174.20313,2.06428,2.06428,0,0,1-.58789-.084,1.339,1.339,0,0,1-.51025-.27539,1.51589,1.51589,0,0,1-.35986-.46191,1.33689,1.33689,0,0,1-.13818-.61816,1.40655,1.40655,0,0,1,.4502-1.11621,2.45918,2.45918,0,0,1,1.2417-.52832q.64819-.10693,1.01416-.18555a2.555,2.555,0,0,0,.54-.16211.36512.36512,0,0,0,.21-.19824.99476.99476,0,0,0,.03613-.29395,2.26666,2.26666,0,0,0-.07227-.57617,1.33109,1.33109,0,0,0-.228-.47949,1.15424,1.15424,0,0,0-.40771-.33008,1.358,1.358,0,0,0-.6123-.126,1.90758,1.90758,0,0,0-.89355.21582,1.41982,1.41982,0,0,0-.61816.60059h-.13184Zm2.96387,2.13574a3.06816,3.06816,0,0,1-.47412.12012c-.18018.03223-.36182.06543-.5459.10156a5.04938,5.04938,0,0,0-.5459.13867,1.76539,1.76539,0,0,0-.48.22754,1.10848,1.10848,0,0,0-.33643.36035,1.277,1.277,0,0,0,.19824,1.40332,1.05654,1.05654,0,0,0,.72021.28809,1.47357,1.47357,0,0,0,.834-.252,1.8889,1.8889,0,0,0,.582-.58789Z" transform="translate(-355.26416 -371.12012)"/><path class="cls-1" d="M616.31738,394.04a.68413.68413,0,0,1,1.36816,0,.59817.59817,0,0,1-.2041.46191.71083.71083,0,0,1-.96,0A.59817.59817,0,0,1,616.31738,394.04Z" transform="translate(-355.26416 -371.12012)"/></svg>