<svg id="Layer_1" data-name="Layer 1" xmlns="http://www.w3.org/2000/svg" viewBox="0 0 173.1917 173.0752"><defs><style>.cls-1{fill:#870808;}.cls-1,.cls-2{fill-rule:evenodd;}.cls-2{fill:#025b02;}</style></defs><title>logo</title><path class="cls-1" d="M678.09959,298.1743c-15.0425,2.5073-21.102,20.2241-21.102,30.8794h0c0,12.7031,4.0952,23.4834,13.5805,30.169,2.2984,1.6294,6.7696,3.7612,10.5298,3.7612,5.89211,0,6.728-13.4551,4.0112-21.7285-3.1753-9.7364-11.3237-19.5142-7.1035-36.0196" transform="translate(-596.72697 -298.1743)"/><path class="cls-2" d="M683.32279,376.313a8.37793,8.37793,0,1,0,8.3569,8.3989,8.36373,8.36373,0,0,0-8.3569-8.3989Z" transform="translate(-596.72697 -298.1743)"/><path class="cls-2" d="M764.67869,468.8257a77.22979,77.22979,0,0,1-44.543-44.543,2.16558,2.16558,0,0,1,2.7579-2.7998h0a77.373,77.373,0,0,1,44.5849,44.5859" transform="translate(-596.72697 -298.1743)"/><path class="cls-2" d="M599.167,466.0688a77.36727,77.36727,0,0,1,44.585-44.5859,2.16529,2.16529,0,0,1,2.75779,2.7998h0a77.23034,77.23034,0,0,1-44.5435,44.543" transform="translate(-596.72697 -298.1743)"/><path class="cls-2" d="M601.9663,300.5562a77.23129,77.23129,0,0,1,44.5435,44.5429,2.16524,2.16524,0,0,1-2.75779,2.7998h0a77.25144,77.25144,0,0,1-44.585-44.5849" transform="translate(-596.72697 -298.1743)"/><path class="cls-1" d="M738.93849,358.3457c-12.7031,0-23.4414,4.1367-30.168,13.5796-1.6299,2.2983-3.7617,6.769-3.7617,10.5718,0,5.8921,13.4551,6.686,21.7285,4.0117,9.7363-3.1763,19.51471-11.3237,36.0615-7.104a15.03042,15.03042,0,0,1,3.0918,1.0449c2.5059,1.0864,4.3877,1.6299,3.9698-.9614-2.5499-15.0425-20.2666-21.1426-30.9219-21.1426Z" transform="translate(-596.72697 -298.1743)"/><path class="cls-1" d="M688.54589,471.2495c15.043-2.5498,21.1016-20.2661,21.1016-30.9214h0c0-12.7016-4.0948-23.4824-13.5801-30.1694-2.2988-1.6289-6.7695-3.7608-10.5303-3.7608-5.8916,0-6.7275,13.4566-4.0112,21.7286,3.1753,9.7353,11.3237,19.5136,7.104,36.0195" transform="translate(-596.72697 -298.1743)"/><path class="cls-1" d="M627.7065,411.0371c12.7027,0,23.4419-4.1377,30.127-13.5806,1.6299-2.2983,3.8022-6.769,3.8022-10.5717,0-5.8921-13.4545-6.6861-21.728-4.0118-9.7363,3.1753-19.51369,11.3658-36.0605,7.1451a18.066,18.066,0,0,1-3.0923-1.085c-2.5073-1.0879-4.3872-1.5879-3.9697,1.0029,2.5488,15.0411,20.2661,21.1011,30.9213,21.1011Z" transform="translate(-596.72697 -298.1743)"/><path class="cls-2" d="M767.47849,303.314a77.2571,77.2571,0,0,1-44.5849,44.5849,2.16553,2.16553,0,0,1-2.7579-2.7998h0a77.23074,77.23074,0,0,1,44.543-44.5429" transform="translate(-596.72697 -298.1743)"/><path class="cls-1" d="M611.8701,384.2524c16.8809,0,25.2793-12.5361,42.2027-9.4438,1.6713.3345,8.8584,2.9253,3.30121-3.6353-.54291-.6264-.91941-.9189-1.50441-1.5039l-1.0869-1.2119c-10.90569-11.4072-31.2964-13.2881-45.2109-4.9306-4.5132,2.6738-11.6582,8.6494-11.6582,14.332,0,4.1787,9.9028,6.3935,13.9565,6.3935Z" transform="translate(-596.72697 -298.1743)"/><path class="cls-1" d="M676.46969,470.0806c4.2207.041,6.4346-9.8628,6.4346-13.9156h0c0-16.9228-12.5352-25.2812-9.4429-42.2451.2925-1.6299,2.8833-8.8169-3.6352-3.2588a17.34394,17.34394,0,0,0-1.5459,1.5035l-1.1704,1.0449c-11.4493,10.9477-13.2876,31.2973-4.9727,45.2114,2.6743,4.5132,8.6919,11.7007,14.3325,11.6597" transform="translate(-596.72697 -298.1743)"/><path class="cls-1" d="M754.77539,385.1304c-16.9229,0-25.2793,12.5351-42.2451,9.4428-1.6299-.2924-8.8174-2.8828-3.2588,3.6348.543.627.9189.9194,1.5049,1.5059l1.0859,1.2104c10.9053,11.4068,31.2979,13.2881,45.2109,4.9736,4.4717-2.7177,11.6582-8.6928,11.6582-14.3745,0-4.1782-9.9033-6.393-13.956-6.393Z" transform="translate(-596.72697 -298.1743)"/><path class="cls-1" d="M690.17479,299.3022c-4.2187,0-6.4341,9.8619-6.4341,13.9146h0c0,16.9228,12.5357,25.2808,9.4429,42.2456-.292,1.6294-2.8828,8.8584,3.6367,3.2588.668-.543.96-.919,1.5449-1.4624l1.17-1.0864c11.4492-10.9478,13.288-31.2974,4.9716-45.212-2.67379-4.5126-8.6894-11.6582-14.332-11.6582" transform="translate(-596.72697 -298.1743)"/></svg>