<svg id="Layer_3" enable-background="new 0 0 64 64" height="512" viewBox="0 0 64 64" width="512" xmlns="http://www.w3.org/2000/svg"><path d="m32 28c-2.206 0-4 1.794-4 4s1.794 4 4 4 4-1.794 4-4-1.794-4-4-4zm0 6c-1.103 0-2-.897-2-2s.897-2 2-2 2 .897 2 2-.897 2-2 2z"/><path d="m32.758 24.032c-.5-.043-1.015-.043-1.519 0-2.525.215-4.733 1.56-6.058 3.688-1.306 2.098-1.545 4.605-.657 6.88.012.032.026.062.042.093l6.543 12.764c.172.333.516.543.891.543s.719-.21.89-.544l6.543-12.764c.016-.03.03-.061.042-.093.888-2.274.648-4.782-.657-6.88-1.325-2.127-3.533-3.472-6.06-3.687zm4.871 9.795-5.629 10.981-5.629-10.98c-.636-1.669-.451-3.508.509-5.05.989-1.588 2.64-2.592 4.528-2.753.391-.031.796-.031 1.183 0 1.89.161 3.541 1.165 4.53 2.753.959 1.541 1.144 3.38.508 5.049z"/><path d="m63 32c0-17.094-13.907-31-31-31s-31 13.906-31 31 13.907 31 31 31c4.451 0 8.736-.931 12.751-2.748 1.938 1.705 4.471 2.748 7.249 2.748 6.065 0 11-4.935 11-11 0-2.778-1.043-5.311-2.748-7.249 1.817-4.015 2.748-8.298 2.748-12.751zm-60 0c0-15.99 13.009-29 29-29s29 13.01 29 29c0 3.935-.775 7.729-2.291 11.302-1.055-.816-2.257-1.448-3.566-1.839 1.231-3 1.857-6.177 1.857-9.463 0-13.785-11.215-25-25-25s-25 11.215-25 25 11.215 25 25 25c3.286 0 6.462-.626 9.463-1.856.391 1.308 1.023 2.51 1.838 3.565-3.573 1.516-7.367 2.291-11.301 2.291-15.991 0-29-13.01-29-29zm38 20c0 .384.021.764.059 1.138-2.559 1.1-5.262 1.717-8.059 1.835v-2.973h-2v2.975c-11.888-.512-21.463-10.087-21.975-21.975h3.975v-2h-3.975c.512-11.888 10.087-21.463 21.975-21.975v3.975h2v-3.975c11.888.512 21.463 10.087 21.975 21.975h-3.975v2h3.973c-.118 2.797-.735 5.5-1.835 8.059-.374-.038-.754-.059-1.138-.059-6.065 0-11 4.935-11 11zm11 9c-4.962 0-9-4.037-9-9s4.038-9 9-9 9 4.037 9 9-4.038 9-9 9z"/><path d="m52 47c1.103 0 2 .897 2 2h2c0-2.206-1.794-4-4-4s-4 1.794-4 4 1.794 4 4 4c1.103 0 2 .897 2 2s-.897 2-2 2-2-.897-2-2h-2c0 2.206 1.794 4 4 4s4-1.794 4-4-1.794-4-4-4c-1.103 0-2-.897-2-2s.897-2 2-2z"/></svg>