<svg height="512pt" viewBox="0 -66 512 512" width="512pt" xmlns="http://www.w3.org/2000/svg"><path d="m497 350.632812h-11.167969l-11.683593-20.402343-.054688-.09375c-9.039062-15.527344-23.566406-40.699219-31.886719-55.203125-6.972656-11.96875-17.515625-18.832032-28.9375-18.832032-.007812 0-.015625 0-.023437 0-11.417969.011719-21.953125 6.882813-28.898438 18.855469l-.09375.160157c-.207031.367187-.414062.738281-.628906 1.113281l-83.746094-145.0625c-8.527344-14.777344-21.289062-23.261719-35.011718-23.277344-.011719 0-.023438 0-.039063 0-13.722656 0-26.507813 8.472656-35.089844 23.277344 0 0-27.324219 47.355469-44.875 77.757812-2.730469-4.722656-4.808593-8.324219-4.863281-8.414062-8.519531-14.785157-21.285156-23.273438-35.015625-23.285157-.007813 0-.015625 0-.027344 0-13.730469 0-26.511719 8.480469-35.070312 23.277344l-86.628907 150.128906h-8.257812c-8.285156 0-15 6.71875-15 15.003907 0 8.28125 6.714844 15 15 15h482c8.285156 0 15-6.71875 15-15 0-8.285157-6.714844-15.003907-15-15.003907zm-361.136719-135.121093c3.535157-6.113281 7.109375-8.285157 9.09375-8.285157h.003907c1.976562.003907 5.535156 2.167969 9.054687 8.273438.578125 1.003906 14.210937 24.617188 17.457031 30.15625 2.78125 4.746094 7.917969 7.6875 13.414063 7.6875h.039062c5.507813-.015625 10.648438-2.984375 13.417969-7.765625 10.210938-17.660156 57.371094-99.398437 57.363281-99.390625 3.550781-6.125 7.132813-8.296875 9.125-8.296875h.003907c1.980468.003906 5.539062 2.167969 9.058593 8.273437l96.300781 166.804688c2.769532 4.792969 7.925782 7.769531 13.460938 7.769531h.007812c5.539063 0 10.699219-2.984375 13.46875-7.789062l3.429688-5.949219c3.589844-6.222656 6.980469-12.105469 9.773438-17.058594 1.285156-2.195312 2.367187-3.199218 2.941406-3.625.582031.425782 1.675781 1.433594 2.957031 3.632813 8.285156 14.441406 22.835937 39.652343 31.910156 55.234375l3.117188 5.449218h-393.378907zm0 0"/><path d="m124.722656 121.742188c33.566406 0 60.871094-27.308594 60.871094-60.871094 0-33.566406-27.304688-60.871094-60.871094-60.871094-33.5625 0-60.871094 27.304688-60.871094 60.871094 0 33.5625 27.308594 60.871094 60.871094 60.871094zm0-91.742188c17.023438 0 30.871094 13.847656 30.871094 30.871094 0 17.019531-13.847656 30.867187-30.871094 30.867187-17.019531 0-30.867187-13.847656-30.867187-30.867187 0-17.023438 13.847656-30.871094 30.867187-30.871094zm0 0"/></svg>