<svg id="Layer_1" data-name="Layer 1" xmlns="http://www.w3.org/2000/svg" viewBox="0 0 91.97949 9.98486"><defs><style>.cls-1{fill:#52482d;}</style></defs><title>our-coffe</title><path class="cls-1" d="M604.4541,384.7627a4.57622,4.57622,0,0,1,.35645-1.80225,4.513,4.513,0,0,1,1.00488-1.47852,4.64664,4.64664,0,0,1,1.56934-.99854,5.54724,5.54724,0,0,1,2.04883-.36279,6.3365,6.3365,0,0,1,1.93213.28516,4.39755,4.39755,0,0,1,1.55615.856,3.98411,3.98411,0,0,1,1.04395,1.4458,5.06618,5.06618,0,0,1,.38232,2.04248,4.46575,4.46575,0,0,1-.36963,1.81543,4.55246,4.55246,0,0,1-1.02441,1.47168,4.625,4.625,0,0,1-1.5625.97949,5.506,5.506,0,0,1-1.99707.34961,7.08705,7.08705,0,0,1-1.92578-.25293,4.10921,4.10921,0,0,1-1.56885-.81641,3.95067,3.95067,0,0,1-1.05713-1.43945A5.137,5.137,0,0,1,604.4541,384.7627Zm7.76758-.28516a5.09084,5.09084,0,0,0-.20752-1.51074,3.46836,3.46836,0,0,0-.57715-1.13477,2.5325,2.5325,0,0,0-.895-.71973,2.61112,2.61112,0,0,0-1.14746-.25293,2.246,2.246,0,0,0-1.18652.31787,2.81349,2.81349,0,0,0-.88818.8623,4.14165,4.14165,0,0,0-.55127,1.27734,6.26218,6.26218,0,0,0-.188,1.5625,5.9722,5.9722,0,0,0,.2207,1.75049,3.15088,3.15088,0,0,0,.59619,1.14844,2.2236,2.2236,0,0,0,.86914.62891,2.81338,2.81338,0,0,0,1.03711.19434,2.6108,2.6108,0,0,0,1.11523-.24707,2.51583,2.51583,0,0,0,.92725-.752,3.95029,3.95029,0,0,0,.63525-1.2832A6.27934,6.27934,0,0,0,612.22168,384.47754Z" transform="translate(-604.4541 -379.38135)"/><path class="cls-1" d="M622.7251,388.26367a2.56313,2.56313,0,0,1-.84912.82422,2.19236,2.19236,0,0,1-1.10889.27832,1.98291,1.98291,0,0,1-1.49756-.54492,2.54237,2.54237,0,0,1-.52539-1.80176q0-.66211.02588-1.167.02637-.50684.02588-1.01172,0-.41528-.019-.90137-.01978-.48633-.04541-.979c.11182.01709.25488.03223.42773.04541.17285.0127.35449.01953.54443.01953.19043,0,.37158-.00684.54492-.01953q.25928-.01978.42773-.04541-.09082.7002-.1167,1.62061-.02563.92139-.02588,2.10059a2.05455,2.05455,0,0,0,.27881,1.2002.98668.98668,0,0,0,1.64063-.123,2.98838,2.98838,0,0,0,.272-1.40137v-.51855q0-.791-.019-1.48437-.01978-.6936-.08447-1.394a5.74781,5.74781,0,0,0,.97266.06494c.19873,0,.38037-.00684.54443-.01953q.24609-.01978.42822-.04541-.06519.7002-.08447,1.394-.01978.6936-.01953,1.48438v.51855q0,.79248.01953,1.49219.01978.7002.08447,1.34863a4.10837,4.10837,0,0,0-.46045-.02637h-.9209a4.82186,4.82186,0,0,0-.48633.02637l.05225-.93457Z" transform="translate(-604.4541 -379.38135)"/><path class="cls-1" d="M631.05078,384.56836a3.24768,3.24768,0,0,1,.81689-1.31641,1.67253,1.67253,0,0,1,1.14111-.42139.86866.86866,0,0,1,.11035.00635.61106.61106,0,0,0,.09717.00684,3.77864,3.77864,0,0,0-.05811.415q-.01978.22046-.01953.51855v.63525a1.75591,1.75591,0,0,0,.0127.2207l-.1167.10352a1.39653,1.39653,0,0,0-.2915-.12939,1.211,1.211,0,0,0-.36963-.05225,1.1649,1.1649,0,0,0-.9209.38281,1.31948,1.31948,0,0,0-.33691.90088v.51855q0,.79248.01953,1.49219.019.7002.084,1.34863a2.7999,2.7999,0,0,0-.42139-.02637h-1.0957a3.02235,3.02235,0,0,0-.42822.02637q.06519-.64893.08447-1.34863.01978-.7002.01953-1.49219v-.51855q0-.791-.01953-1.48437-.019-.6936-.08447-1.394.22046.02563.44775.04541c.15088.0127.30029.01953.44727.01953s.2959-.00684.44727-.01953q.22705-.01978.44727-.04541l-.03857,1.582Z" transform="translate(-604.4541 -379.38135)"/><path class="cls-1" d="M651.61768,388.2832a3.12908,3.12908,0,0,0-.104.55176,5.83412,5.83412,0,0,1-2.64551.53125,5.95911,5.95911,0,0,1-2.01611-.31738,4.27171,4.27171,0,0,1-1.50439-.89453,3.85876,3.85876,0,0,1-.94043-1.36816,4.47481,4.47481,0,0,1-.32373-1.71191,5.575,5.575,0,0,1,.42139-2.28906,4.18406,4.18406,0,0,1,1.12793-1.53027,4.493,4.493,0,0,1,1.64063-.8623,6.95379,6.95379,0,0,1,1.958-.272,5.22127,5.22127,0,0,1,.71338.05176q.37573.052.72607.13623a6.0636,6.0636,0,0,1,.668.20068,3.385,3.385,0,0,1,.53809.24658,4.07074,4.07074,0,0,0-.20117.65479,4.98189,4.98189,0,0,0-.09717.668H651.397a3.19456,3.19456,0,0,0-1.01123-.88818,2.64154,2.64154,0,0,0-1.21924-.26611,2.55965,2.55965,0,0,0-1.04395.2334,2.80917,2.80917,0,0,0-.95312.71338,3.67183,3.67183,0,0,0-.69385,1.22559,5.32274,5.32274,0,0,0-.26562,1.78271,4.75255,4.75255,0,0,0,.27246,1.70557,3.38474,3.38474,0,0,0,.70654,1.1543,2.67439,2.67439,0,0,0,.98584.6543,3.11721,3.11721,0,0,0,1.1084.208,2.99911,2.99911,0,0,0,.63574-.07129,4.196,4.196,0,0,0,.63525-.19434,3.30932,3.30932,0,0,0,.58984-.30566,2.61732,2.61732,0,0,0,.48633-.40137l.16846.10352Q651.69556,388.00488,651.61768,388.2832Z" transform="translate(-604.4541 -379.38135)"/><path class="cls-1" d="M655.94824,386.25391a3.9835,3.9835,0,0,1,.26611-1.51709,3.2008,3.2008,0,0,1,.70654-1.08252,2.84358,2.84358,0,0,1,1.01807-.64844,3.38877,3.38877,0,0,1,1.18652-.21387,3.11879,3.11879,0,0,1,2.34717.85547,3.19407,3.19407,0,0,1,.83008,2.32129,4.12492,4.12492,0,0,1-.2334,1.42676,3.14071,3.14071,0,0,1-.65479,1.083,2.64645,2.64645,0,0,1-1.00537.667,3.59307,3.59307,0,0,1-1.28369.2207,4.30257,4.30257,0,0,1-1.14746-.15527,2.75571,2.75571,0,0,1-1.01807-.52539,2.68838,2.68838,0,0,1-.73291-.96582A3.44785,3.44785,0,0,1,655.94824,386.25391Zm4.43506-.47949a4.40475,4.40475,0,0,0-.28516-1.77.97382.97382,0,0,0-.94678-.62891,1.04637,1.04637,0,0,0-.93994.7002,5.23786,5.23786,0,0,0-.34375,2.19189,7.32338,7.32338,0,0,0,.06494,1.01074,3.08806,3.08806,0,0,0,.21387.81055,1.38,1.38,0,0,0,.38916.53809.92456.92456,0,0,0,.603.19434Q660.38306,388.82129,660.3833,385.77441Z" transform="translate(-604.4541 -379.38135)"/><path class="cls-1" d="M670.04443,383.20654a1.01994,1.01994,0,0,0-.0127.16895,1.04785,1.04785,0,0,0,.0127.16211c.00879.05615.01709.10986.02588.16211l-1.21875-.02637V384.75q0,1.27148.02588,2.334.02563,1.06348.07764,2.11426a2.85112,2.85112,0,0,0-.42773-.02637H667.438a2.85112,2.85112,0,0,0-.42773.02637q.05127-1.05176.07764-2.11426.02563-1.06348.02588-2.334v-1.06348l-.90771.01318a1.3369,1.3369,0,0,0,.03906-.32422,1.80388,1.80388,0,0,0-.03906-.3501l.90771.03857a12.67847,12.67847,0,0,1,.32422-1.46533,4.395,4.395,0,0,1,.51221-1.167,2.34447,2.34447,0,0,1,.79736-.77148,2.31341,2.31341,0,0,1,1.18018-.27881,2.84986,2.84986,0,0,1,.54492.06494,3.45927,3.45927,0,0,0-.04541.564q-.00659.35669-.00684.69385v.42773l-.15527.05176a3.95461,3.95461,0,0,0-.59668-.25928,1.98546,1.98546,0,0,0-.64844-.1167,1.11348,1.11348,0,0,0-.57715.123.46881.46881,0,0,0-.20068.43457,2.28939,2.28939,0,0,0,.1748.76514,6.32043,6.32043,0,0,0,.43457.9209l1.21875-.02588C670.06152,383.09424,670.05322,383.15479,670.04443,383.20654Z" transform="translate(-604.4541 -379.38135)"/><path class="cls-1" d="M677.37061,383.20654a1.01994,1.01994,0,0,0-.0127.16895,1.04785,1.04785,0,0,0,.0127.16211c.00879.05615.01709.10986.02588.16211l-1.21875-.02637V384.75q0,1.27148.02588,2.334.02563,1.06348.07764,2.11426a2.85112,2.85112,0,0,0-.42773-.02637h-1.08936a2.85112,2.85112,0,0,0-.42773.02637q.05127-1.05176.07764-2.11426.02563-1.06348.02588-2.334v-1.06348l-.90771.01318a1.3369,1.3369,0,0,0,.03906-.32422,1.80388,1.80388,0,0,0-.03906-.3501l.90771.03857a12.67845,12.67845,0,0,1,.32422-1.46533,4.395,4.395,0,0,1,.51221-1.167,2.34447,2.34447,0,0,1,.79736-.77148,2.31341,2.31341,0,0,1,1.18018-.27881,2.84986,2.84986,0,0,1,.54492.06494,3.45926,3.45926,0,0,0-.04541.564q-.00659.35669-.00684.69385v.42773l-.15527.05176a3.95461,3.95461,0,0,0-.59668-.25928,1.98546,1.98546,0,0,0-.64844-.1167,1.11348,1.11348,0,0,0-.57715.123.46881.46881,0,0,0-.20068.43457,2.28938,2.28938,0,0,0,.1748.76514,6.32042,6.32042,0,0,0,.43457.9209l1.21875-.02588C677.3877,383.09424,677.37939,383.15479,677.37061,383.20654Z" transform="translate(-604.4541 -379.38135)"/><path class="cls-1" d="M682.97266,386.09863a4.37882,4.37882,0,0,0,.10352.97266,2.43229,2.43229,0,0,0,.31787.78418,1.5541,1.5541,0,0,0,.54492.51855,1.52632,1.52632,0,0,0,.772.18848,2.418,2.418,0,0,0,1.59375-.584l.15625.11719-.28516.72559a2.62122,2.62122,0,0,1-.77734.39551,3.91616,3.91616,0,0,1-1.19336.14941,4.10564,4.10564,0,0,1-1.20654-.1748,2.56936,2.56936,0,0,1-1.00488-.57715,2.82157,2.82157,0,0,1-.6875-1.01758,3.87368,3.87368,0,0,1-.25293-1.47266,4.27431,4.27431,0,0,1,.22705-1.46484,2.89114,2.89114,0,0,1,.62891-1.0376,2.57667,2.57667,0,0,1,.95313-.62256,3.38235,3.38235,0,0,1,1.2002-.207,2.517,2.517,0,0,1,1.96484.752,3.06253,3.06253,0,0,1,.67969,2.127v.27246a.658.658,0,0,1-.01172.15527Zm1.99609-.584a4.97923,4.97923,0,0,0-.23828-1.55566.7514.7514,0,0,0-.7207-.5835.651.651,0,0,0-.47949.19434,1.40456,1.40456,0,0,0-.311.499,3.325,3.325,0,0,0-.17529.6875,6.42429,6.42429,0,0,0-.07129.7583Z" transform="translate(-604.4541 -379.38135)"/><path class="cls-1" d="M692.69824,386.09863a4.349,4.349,0,0,0,.10449.97266,2.41016,2.41016,0,0,0,.31738.78418,1.5541,1.5541,0,0,0,.54492.51855,1.52828,1.52828,0,0,0,.77148.18848,2.41865,2.41865,0,0,0,1.59473-.584l.15625.11719-.28613.72559a2.5976,2.5976,0,0,1-.77734.39551,3.91181,3.91181,0,0,1-1.19336.14941,4.10235,4.10235,0,0,1-1.20605-.1748,2.56247,2.56247,0,0,1-1.00488-.57715,2.82156,2.82156,0,0,1-.6875-1.01758,3.88315,3.88315,0,0,1-.25293-1.47266,4.27379,4.27379,0,0,1,.22754-1.46484,2.87073,2.87073,0,0,1,.62891-1.0376,2.56877,2.56877,0,0,1,.95313-.62256,3.37692,3.37692,0,0,1,1.19922-.207,2.51555,2.51555,0,0,1,1.96484.752,3.06282,3.06282,0,0,1,.68066,2.127v.27246a.64169.64169,0,0,1-.0127.15527Zm1.99707-.584a5.00474,5.00474,0,0,0-.23926-1.55566.75037.75037,0,0,0-.71973-.5835.65243.65243,0,0,0-.48047.19434,1.41059,1.41059,0,0,0-.31055.499,3.26485,3.26485,0,0,0-.1748.6875,6.53334,6.53334,0,0,0-.07227.7583Z" transform="translate(-604.4541 -379.38135)"/></svg>