<?xml version="1.0" encoding="iso-8859-1"?>
<!-- Generator: Adobe Illustrator 19.0.0, SVG Export Plug-In . SVG Version: 6.00 Build 0)  -->
<svg version="1.1" id="Capa_1" xmlns="http://www.w3.org/2000/svg" xmlns:xlink="http://www.w3.org/1999/xlink" x="0px" y="0px"
	 viewBox="0 0 480 480" style="enable-background:new 0 0 480 480;" xml:space="preserve">
<g>
	<g>
		<path d="M240,0C107.664,0,0,107.664,0,240s107.664,240,240,240s240-107.664,240-240S372.336,0,240,0z M240,464
			C116.488,464,16,363.512,16,240S116.488,16,240,16s224,100.488,224,224S363.512,464,240,464z"/>
	</g>
</g>
<g>
	<g>
		<path d="M370.144,390.824L259.112,279.8l-39.736-39.744c0,0-0.008,0-0.008-0.008l-64.832-64.824l-20.88-20.88
			c0,0-0.008,0-0.008-0.008l-44.48-44.472c-1.608-1.608-3.744-2.472-6.112-2.336c-2.272,0.128-4.384,1.224-5.808,3
			C47.648,147.712,32,192.48,32,240c0,114.688,93.304,208,208,208c47.512,0,92.288-15.656,129.472-45.264
			c1.784-1.416,2.872-3.528,3-5.808C372.608,394.656,371.752,392.432,370.144,390.824z M255.496,298.808
			C254.352,301.84,251.424,304,248,304h-16c-3.44,0-6.312-2.2-7.44-5.248l15.44-15.44L255.496,298.808z M216.384,259.696
			L228.688,272l-7.128,7.128C218.616,275.56,214.72,268.904,216.384,259.696z M168,344V224c0-1.856,0.136-3.696,0.392-5.52
			c0.08-0.552,0.24-1.088,0.344-1.632c0.24-1.272,0.464-2.552,0.824-3.792c0.016-0.04,0.032-0.08,0.04-0.12l4.064,4.064l30.08,30.08
			c-0.832,1.76-1.544,3.544-2.064,5.352c-3.64,12.48-1.336,25.2,6.312,35.376v4.896l-13.656,13.656l11.312,11.312l7.264-7.264
			C217.304,316.192,224.184,320,232,320h16c7.808,0,14.696-3.808,19.08-9.6l44.72,44.72C310.264,366.88,300.176,376,288,376h-96
			c-13.232,0-24-10.768-24-24V344z M124.968,168.288L157.2,200.52c-0.112,0.232-0.184,0.48-0.288,0.72
			c-0.272,0.608-0.488,1.224-0.736,1.84c-0.632,1.56-1.208,3.144-1.696,4.752c-0.232,0.768-0.448,1.528-0.648,2.304
			c-0.408,1.576-0.736,3.168-1,4.776c-0.12,0.712-0.264,1.424-0.352,2.144c-0.288,2.296-0.48,4.608-0.48,6.944v112h-16
			c-13.232,0-24-10.768-24-24V184C112,176.216,117.592,169.712,124.968,168.288z M240,432c-105.864,0-192-86.128-192-192
			c0-40.856,12.528-79.512,36.336-112.344l28.4,28.392C102.816,161.496,96,171.912,96,184v128c0,22.056,17.944,40,40,40h16
			c0,22.056,17.944,40,40,40h96c16.384,0,30.464-9.92,36.64-24.056l27.712,27.712C319.504,419.464,280.848,432,240,432z"/>
	</g>
</g>
<g>
	<g>
		<path d="M240,32c-47.512,0-92.288,15.656-129.472,45.264c-1.784,1.416-2.872,3.528-3,5.808c-0.136,2.272,0.72,4.496,2.328,6.104
			l140.488,140.48l64,64l48,48c0,0,0.008,0,0.008,0.008l28.472,28.472c1.504,1.504,3.536,2.344,5.656,2.344
			c0.152,0,0.296,0,0.456-0.008c2.272-0.128,4.384-1.224,5.808-3C432.352,332.288,448,287.52,448,240C448,125.312,354.696,32,240,32
			z M208,164.688V152h64v16h-60.688L208,164.688z M312,268.68L283.312,240l10.344-10.344l-11.312-11.312L272,228.688L227.312,184
			H272c22.056,0,40,17.944,40,40V268.68z M360,232v-64h16v64H360z M395.664,352.344L376,332.68V248h8c4.424,0,8-3.584,8-8v-80
			c0-4.416-3.576-8-8-8h-32c-4.424,0-8,3.584-8,8v80c0,4.416,3.576,8,8,8h8v68.68l-32-32V224c0-25.32-16.896-46.736-40-53.64V152
			c0-8.824-7.176-16-16-16h-24v-16h24c8.824,0,16-7.176,16-16V88c0-8.824-7.176-16-16-16h-64c-8.824,0-16,7.176-16,16v16
			c0,8.824,7.176,16,16,16h24v16h-24c-7.792,0-14.28,5.608-15.696,12.992l-64.656-64.656C160.496,60.536,199.152,48,240,48
			c105.864,0,192,86.128,192,192C432,280.856,419.472,319.512,395.664,352.344z M208,104V88h64l0.008,16H208z"/>
	</g>
</g>
<g>
</g>
<g>
</g>
<g>
</g>
<g>
</g>
<g>
</g>
<g>
</g>
<g>
</g>
<g>
</g>
<g>
</g>
<g>
</g>
<g>
</g>
<g>
</g>
<g>
</g>
<g>
</g>
<g>
</g>
</svg>
