<svg id="Layer_1" data-name="Layer 1" xmlns="http://www.w3.org/2000/svg" viewBox="0 0 428.08643 23.98486"><defs><style>.cls-1{fill:#52482d;}</style></defs><title>product-title</title><path class="cls-1" d="M605.77246,395.03809q0-2.58545-.0625-4.59473-.063-2.0083-.187-4.0332.52954.06152,1.15283.1084.62256.04688,1.40137.04688,1.3396,0,2.80371-.07812,1.46338-.07764,2.80322-.07715a10.779,10.779,0,0,1,2.5542.28027,6.00406,6.00406,0,0,1,1.99365.85645,3.82939,3.82939,0,0,1,1.293,1.49512,4.93689,4.93689,0,0,1,.45166,2.19629,4.32217,4.32217,0,0,1-.52979,2.19531A5.30412,5.30412,0,0,1,618.1543,394.96a6.25881,6.25881,0,0,1-1.65088.9502,8.625,8.625,0,0,1-1.60449.46777v.06152a6.92914,6.92914,0,0,1,1.68213.32715,6.39017,6.39017,0,0,1,1.83789.91895,5.5067,5.5067,0,0,1,1.47949,1.60449,4.43839,4.43839,0,0,1,.60742,2.38281,6.214,6.214,0,0,1-.60742,2.86621,5.44687,5.44687,0,0,1-1.61963,1.93066,6.12669,6.12669,0,0,1-2.3208,1.04395,12.24619,12.24619,0,0,1-2.71.2959q-1.24585,0-2.32031-.03125-1.0752-.03223-2.2583-.03125h-1.729a12.59943,12.59943,0,0,0-1.41748.0625q.12451-1.93066.187-3.94043.06226-2.00977.0625-4.59473Zm9.59375-3.208a5.70383,5.70383,0,0,0-.17139-1.418,2.88176,2.88176,0,0,0-.57617-1.15234,3.00549,3.00549,0,0,0-1.02783-.77832,3.62509,3.62509,0,0,0-1.55762-.2959q-.68555,0-.94971.01563a4.3481,4.3481,0,0,0-.57666.07715q-.06226,1.15283-.09326,2.33691-.03149,1.18359-.03125,1.99316,0,.84082.01563,1.60449.01538.76318.01563,1.57324h1.40186a3.5126,3.5126,0,0,0,1.29248-.25,3.38982,3.38982,0,0,0,1.13721-.73145,3.64355,3.64355,0,0,0,.80957-1.23047A4.51617,4.51617,0,0,0,615.36621,391.83008Zm.21826,10.06055a4.6935,4.6935,0,0,0-.98145-3.25488,3.66281,3.66281,0,0,0-2.8501-1.07422q-.43652,0-.74756.01563c-.208.01074-.40479.01563-.5918.01563q0,.65332-.01562,1.35449-.01611.70166-.01562,1.667,0,.74707.01563,1.52637.01538.77783.01563,1.52539,0,.74854.01563,1.37109c.01025.416.01563.75781.01563,1.02832q.43579.03076.80957.0459.37427.01611.90332.01563a3.14642,3.14642,0,0,0,1.30859-.28027,3.10162,3.10162,0,0,0,1.09033-.8252,4.19024,4.19024,0,0,0,.74756-1.32422A5.33059,5.33059,0,0,0,615.58447,401.89063Z" transform="translate(-605.52295 -384.229)"/><path class="cls-1" d="M630.84717,400.73828a9.56733,9.56733,0,0,1,.63867-3.64453,7.684,7.684,0,0,1,1.69775-2.60059,6.83159,6.83159,0,0,1,2.44531-1.55762,8.12672,8.12672,0,0,1,2.8501-.51367,7.48775,7.48775,0,0,1,5.6377,2.05566,7.66811,7.66811,0,0,1,1.99365,5.5752,9.876,9.876,0,0,1-.56055,3.42676,7.53263,7.53263,0,0,1-1.57324,2.60156,6.35613,6.35613,0,0,1-2.41406,1.60352,8.64847,8.64847,0,0,1-3.0835.5293,10.32645,10.32645,0,0,1-2.75684-.373,6.61642,6.61642,0,0,1-2.44531-1.26172,6.45513,6.45513,0,0,1-1.75977-2.32031A8.28023,8.28023,0,0,1,630.84717,400.73828Zm10.65332-1.15234a10.57716,10.57716,0,0,0-.68555-4.252,2.33946,2.33946,0,0,0-2.27393-1.51074,2.51388,2.51388,0,0,0-2.2583,1.68164,12.6,12.6,0,0,0-.8252,5.26465,17.5964,17.5964,0,0,0,.15576,2.42969,7.474,7.474,0,0,0,.51367,1.94727,3.33089,3.33089,0,0,0,.93457,1.292,2.22544,2.22544,0,0,0,1.44873.46777Q641.5,406.90625,641.50049,399.58594Z" transform="translate(-605.52295 -384.229)"/><path class="cls-1" d="M661,395.16309a6.64517,6.64517,0,0,1,2.04-2.02539,4.99127,4.99127,0,0,1,2.66357-.71582,4.6737,4.6737,0,0,1,3.59766,1.35449,6.29888,6.29888,0,0,1,1.26172,4.377q0,1.58789-.0625,2.80273-.063,1.21582-.0625,2.42969,0,.99756.04688,2.165.04688,1.16895.10889,2.25879a6.904,6.904,0,0,0-1.02783-.0625h-2.61621a6.9021,6.9021,0,0,0-1.02832.0625,36.96524,36.96524,0,0,0,.28027-3.81641q.06226-2.1958.0625-5.03027a4.92911,4.92911,0,0,0-.66992-2.88086,2.36686,2.36686,0,0,0-3.93994.2959A7.15774,7.15774,0,0,0,661,399.74121v1.24609q0,1.90137.04688,3.583.04614,1.68164.20215,3.23926a6.77134,6.77134,0,0,0-1.01221-.0625h-2.63232a7.29807,7.29807,0,0,0-1.02783.0625q.15527-1.55713.20264-3.23926.04688-1.68311.04639-3.583v-1.24609q0-1.89844-.04639-3.56641-.04687-1.66553-.20264-3.34863.561.063,1.106.10938c.36279.03125.73193.04688,1.10547.04688q.561,0,1.106-.04687t1.168-.10937l-.12451,2.33691Z" transform="translate(-605.52295 -384.229)"/><path class="cls-1" d="M681.83887,394.60156a9.99938,9.99938,0,0,1,2.81934-1.61914,8.58292,8.58292,0,0,1,3.00586-.56055,8.78166,8.78166,0,0,1,2.28906.28027,4.89716,4.89716,0,0,1,1.80664.8877,4.01734,4.01734,0,0,1,1.18359,1.57324,5.83375,5.83375,0,0,1,.4209,2.33594q0,1.99365-.04687,3.69141t-.04687,3.37988a4.84968,4.84968,0,0,0,.10938,1.168,1.36852,1.36852,0,0,0,.32715.63867,1.04035,1.04035,0,0,0,.57617.28027,4.91356,4.91356,0,0,0,.8252.06152v.748q-.90381.37354-1.52637.56055a4.62165,4.62165,0,0,1-1.33887.18652,2.94375,2.94375,0,0,1-1.86914-.56055,3.44262,3.44262,0,0,1-1.09082-1.61914,5.88186,5.88186,0,0,1-1.666,1.58789,4.43282,4.43282,0,0,1-2.38281.5918,5.83364,5.83364,0,0,1-2.0249-.31152,3.51857,3.51857,0,0,1-2.18066-2.19531,4.56876,4.56876,0,0,1-.249-1.47949,4.40053,4.40053,0,0,1,.32715-1.77539,3.5641,3.5641,0,0,1,.93457-1.27734,5.38212,5.38212,0,0,1,1.44824-.8877,11.64024,11.64024,0,0,1,1.8999-.60742q1.30811-.312,2.07129-.5459a5.02164,5.02164,0,0,0,1.1377-.4668,1.12373,1.12373,0,0,0,.48242-.51367,1.90741,1.90741,0,0,0,.10938-.68555,2.60962,2.60962,0,0,0-.79492-1.916,2.96636,2.96636,0,0,0-2.19531-.79395,4.523,4.523,0,0,0-1.09082.13965,5.553,5.553,0,0,0-1.07422.38965,6.87509,6.87509,0,0,0-.93457.54492,2.35005,2.35005,0,0,0-.63867.63867h-.21826Zm7.38281,8.47266q0-1.33887.01563-2.04.01465-.7002.01563-1.23047a7.21036,7.21036,0,0,1-1.38672.60742,6.57113,6.57113,0,0,0-1.33887.5918,2.90373,2.90373,0,0,0-.99707.98145,3.43374,3.43374,0,0,0-.38965,1.80664,2.77163,2.77163,0,0,0,.4834,1.75977,1.56348,1.56348,0,0,0,1.292.60742,2.05184,2.05184,0,0,0,1.667-.77832A3.57226,3.57226,0,0,0,689.22168,403.07422Z" transform="translate(-605.52295 -384.229)"/><path class="cls-1" d="M709.46875,395.16309a6.64517,6.64517,0,0,1,2.04-2.02539,4.99317,4.99317,0,0,1,2.66309-.71582,4.673,4.673,0,0,1,3.59766,1.35449,6.294,6.294,0,0,1,1.26172,4.377q0,1.58789-.06152,2.80273-.063,1.21582-.0625,2.42969,0,.99756.04688,2.165.04541,1.16895.1084,2.25879a6.89233,6.89233,0,0,0-1.02734-.0625H715.418a6.89233,6.89233,0,0,0-1.02734.0625,37.24077,37.24077,0,0,0,.28027-3.81641q.06152-2.1958.0625-5.03027a4.93285,4.93285,0,0,0-.66992-2.88086,2.1989,2.1989,0,0,0-1.88477-.91895,2.1754,2.1754,0,0,0-2.05566,1.21484,7.15774,7.15774,0,0,0-.6543,3.36328v1.24609q0,1.90137.04688,3.583t.20215,3.23926a6.77842,6.77842,0,0,0-1.0127-.0625h-2.63184a7.28584,7.28584,0,0,0-1.02734.0625q.15527-1.55713.20215-3.23926.04688-1.68311.04688-3.583v-1.24609q0-1.89844-.04687-3.56641-.04687-1.66553-.20215-3.34863.55957.063,1.10547.10938.54492.04688,1.10547.04688c.374,0,.74219-.01562,1.10645-.04687q.54346-.04687,1.168-.10937l-.125,2.33691Z" transform="translate(-605.52295 -384.229)"/><path class="cls-1" d="M733.59375,400.64453q2.00977-2.959,4.06543-6.043-.90381,0-1.65137.01563-.74707.01611-1.542.04688-.79395.03223-1.75977.10938-.96533.07764-2.30469.20215a4.53867,4.53867,0,0,0,.124-1.08984,4.16927,4.16927,0,0,0-.124-1.05957q.77783.063,1.52637.10938.74707.04688,1.52637.04688h6.85254q.87158,0,1.57324-.04687.7002-.04687,1.26172-.10937v1.24609q-2.18115,3.022-4.26758,5.99609-2.0874,2.9751-3.9873,6.05859h1.80664q.65332,0,1.27734-.01562.62256-.01465,1.33887-.06152t1.58887-.10937q.87158-.06152,1.99316-.18652a6.52658,6.52658,0,0,0-.09277,1.05859,4.56644,4.56644,0,0,0,.09277.99707q-.498-.03223-.98047-.04687-.4834-.01611-.99707-.01562h-7.69434q-1.16748,0-1.93066.01563-.76465.01465-1.19922.03125c-.291.00977-.50977.01563-.6543.01563V406.626Q731.58447,403.604,733.59375,400.64453Z" transform="translate(-605.52295 -384.229)"/><path class="cls-1" d="M753.66992,394.60156a9.99938,9.99938,0,0,1,2.81934-1.61914,8.58292,8.58292,0,0,1,3.00586-.56055,8.78166,8.78166,0,0,1,2.28906.28027,4.89716,4.89716,0,0,1,1.80664.8877,4.01734,4.01734,0,0,1,1.18359,1.57324,5.83375,5.83375,0,0,1,.4209,2.33594q0,1.99365-.04687,3.69141t-.04687,3.37988a4.84968,4.84968,0,0,0,.10938,1.168,1.36852,1.36852,0,0,0,.32715.63867,1.04035,1.04035,0,0,0,.57617.28027,4.91356,4.91356,0,0,0,.8252.06152v.748q-.90381.37354-1.52637.56055a4.62165,4.62165,0,0,1-1.33887.18652,2.94375,2.94375,0,0,1-1.86914-.56055,3.44262,3.44262,0,0,1-1.09082-1.61914,5.88186,5.88186,0,0,1-1.666,1.58789,4.43282,4.43282,0,0,1-2.38281.5918,5.84038,5.84038,0,0,1-2.02539-.31152,3.517,3.517,0,0,1-2.17969-2.19531,4.54265,4.54265,0,0,1-.249-1.47949,4.4093,4.4093,0,0,1,.32617-1.77539,3.58734,3.58734,0,0,1,.93457-1.27734,5.3804,5.3804,0,0,1,1.44922-.8877,11.61865,11.61865,0,0,1,1.89941-.60742q1.30811-.312,2.07129-.5459a5.02164,5.02164,0,0,0,1.1377-.4668,1.12373,1.12373,0,0,0,.48242-.51367,1.90741,1.90741,0,0,0,.10938-.68555,2.60962,2.60962,0,0,0-.79492-1.916,2.96636,2.96636,0,0,0-2.19531-.79395,4.523,4.523,0,0,0-1.09082.13965,5.553,5.553,0,0,0-1.07422.38965,6.87509,6.87509,0,0,0-.93457.54492,2.34315,2.34315,0,0,0-.63867.63867h-.21777Zm7.38281,8.47266q0-1.33887.01563-2.04.01465-.7002.01563-1.23047a7.21036,7.21036,0,0,1-1.38672.60742,6.57113,6.57113,0,0,0-1.33887.5918,2.90373,2.90373,0,0,0-.99707.98145,3.43374,3.43374,0,0,0-.38965,1.80664,2.77163,2.77163,0,0,0,.4834,1.75977,1.56348,1.56348,0,0,0,1.292.60742,2.05184,2.05184,0,0,0,1.667-.77832A3.57226,3.57226,0,0,0,761.05273,403.07422Z" transform="translate(-605.52295 -384.229)"/><path class="cls-1" d="M794.10156,390.44336q-.063-2.0083-.18652-4.0332,1.40039.03076,2.77148.09277,1.37109.063,2.77246.0625,2.30566,0,4.09668-.04687,1.79-.04687,2.41406-.1084a5.56254,5.56254,0,0,0-.125,1.30762,7.55945,7.55945,0,0,0,.03125.7793q.03076.27979.09375.623-.90381-.063-1.97852-.125-1.07373-.06152-2.08691-.125-1.01221-.06152-1.82227-.09277-.81006-.03076-1.15234-.03125-.12451,1.71387-.14062,3.39551-.01465,1.68164-.01465,3.39453,2.02441-.03076,3.65918-.09277,1.63623-.063,3.41113-.15625c-.0625.35352-.10352.623-.124.81055a5.18366,5.18366,0,0,0-.03125.5918,2.94653,2.94653,0,0,0,.04688.51367q.04541.26514.1084.7627-3.55078-.27979-7.07031-.28027v1.58887q0,2.58545.06152,4.59473.063,2.0083.1875,3.94043a9.802,9.802,0,0,0-1.15234-.0625h-2.80371a9.77821,9.77821,0,0,0-1.15234.0625q.123-1.93066.18652-3.94043.06152-2.00977.0625-4.59473v-4.23633Q794.16406,392.45264,794.10156,390.44336Z" transform="translate(-605.52295 -384.229)"/><path class="cls-1" d="M815.12793,394.60156a9.99938,9.99938,0,0,1,2.81934-1.61914,8.58292,8.58292,0,0,1,3.00586-.56055,8.78166,8.78166,0,0,1,2.28906.28027,4.89716,4.89716,0,0,1,1.80664.8877,4.01734,4.01734,0,0,1,1.18359,1.57324,5.83375,5.83375,0,0,1,.4209,2.33594q0,1.99365-.04687,3.69141t-.04687,3.37988a4.84968,4.84968,0,0,0,.10938,1.168,1.36852,1.36852,0,0,0,.32715.63867,1.04035,1.04035,0,0,0,.57617.28027,4.91356,4.91356,0,0,0,.8252.06152v.748q-.90381.37354-1.52637.56055a4.62165,4.62165,0,0,1-1.33887.18652,2.94375,2.94375,0,0,1-1.86914-.56055,3.44262,3.44262,0,0,1-1.09082-1.61914,5.88186,5.88186,0,0,1-1.666,1.58789,4.43282,4.43282,0,0,1-2.38281.5918,5.84038,5.84038,0,0,1-2.02539-.31152,3.517,3.517,0,0,1-2.17969-2.19531,4.54265,4.54265,0,0,1-.249-1.47949,4.4093,4.4093,0,0,1,.32617-1.77539,3.58734,3.58734,0,0,1,.93457-1.27734,5.3804,5.3804,0,0,1,1.44922-.8877,11.61865,11.61865,0,0,1,1.89941-.60742q1.30811-.312,2.07129-.5459a5.02164,5.02164,0,0,0,1.1377-.4668,1.12373,1.12373,0,0,0,.48242-.51367,1.90741,1.90741,0,0,0,.10938-.68555,2.60962,2.60962,0,0,0-.79492-1.916,2.96636,2.96636,0,0,0-2.19531-.79395,4.523,4.523,0,0,0-1.09082.13965,5.553,5.553,0,0,0-1.07422.38965,6.87508,6.87508,0,0,0-.93457.54492,2.34315,2.34315,0,0,0-.63867.63867h-.21777Zm7.38281,8.47266q0-1.33887.01563-2.04.01465-.7002.01563-1.23047a7.21036,7.21036,0,0,1-1.38672.60742,6.57113,6.57113,0,0,0-1.33887.5918,2.90373,2.90373,0,0,0-.99707.98145,3.43374,3.43374,0,0,0-.38965,1.80664,2.77163,2.77163,0,0,0,.4834,1.75977,1.56348,1.56348,0,0,0,1.292.60742,2.05184,2.05184,0,0,0,1.667-.77832A3.57226,3.57226,0,0,0,822.51074,403.07422Z" transform="translate(-605.52295 -384.229)"/><path class="cls-1" d="M842.82031,396.68945a7.785,7.785,0,0,1,1.96191-3.16211,4.018,4.018,0,0,1,2.74121-1.0127,2.00833,2.00833,0,0,1,.26465.01563,1.60918,1.60918,0,0,0,.23438.01563,9.21637,9.21637,0,0,0-.14062.99707q-.04687.53027-.04687,1.24609v1.52637a4.32314,4.32314,0,0,0,.03125.5293l-.28027.249a3.36248,3.36248,0,0,0-.70117-.31152,2.94475,2.94475,0,0,0-.8877-.124,2.79483,2.79483,0,0,0-2.21094.91895,3.16237,3.16237,0,0,0-.81055,2.16406v1.24609q0,1.90137.04688,3.583t.20215,3.23926a6.76425,6.76425,0,0,0-1.01172-.0625h-2.63281a7.28584,7.28584,0,0,0-1.02734.0625q.15527-1.55713.20215-3.23926.04688-1.68311.04688-3.583v-1.24609q0-1.89844-.04687-3.56641-.04687-1.66553-.20215-3.34863.52881.063,1.07422.10938.54492.04688,1.0752.04688.52881,0,1.07422-.04687.54492-.04687,1.0752-.10937l-.09375,3.80078Z" transform="translate(-605.52295 -384.229)"/><path class="cls-1" d="M862.56836,395.16309a6.64517,6.64517,0,0,1,2.04-2.02539,4.99419,4.99419,0,0,1,2.66406-.71582,3.89685,3.89685,0,0,1,2.41406.7627,4.91267,4.91267,0,0,1,1.57324,2.19629,6.9831,6.9831,0,0,1,2.17969-2.19629,4.98854,4.98854,0,0,1,2.64844-.7627,4.67585,4.67585,0,0,1,3.59766,1.35449,6.299,6.299,0,0,1,1.26074,4.377q0,1.58789-.06152,2.80273-.063,1.21582-.0625,2.42969,0,.99756.04688,2.165.04688,1.16895.1084,2.25879a6.89233,6.89233,0,0,0-1.02734-.0625H877.333a6.89233,6.89233,0,0,0-1.02734.0625,37.24077,37.24077,0,0,0,.28027-3.81641q.06152-2.1958.0625-5.03027a5.02833,5.02833,0,0,0-.6543-2.88086,2.1273,2.1273,0,0,0-1.83789-.91895,2.08148,2.08148,0,0,0-1.23047.3418,2.43975,2.43975,0,0,0-.7627.88867,3.74348,3.74348,0,0,0-.374,1.168,7.95981,7.95981,0,0,0-.09375,1.18359v2.24219q0,1.90137.04688,3.583t.20215,3.23926a6.76425,6.76425,0,0,0-1.01172-.0625H868.2998a7.28584,7.28584,0,0,0-1.02734.0625q.15527-1.55713.20215-3.23926.04688-1.68311.04688-3.583v-1.89941a7.19185,7.19185,0,0,0-.46777-2.89746,1.76485,1.76485,0,0,0-1.77539-1.02734,2.17636,2.17636,0,0,0-2.05566,1.21484,7.16987,7.16987,0,0,0-.6543,3.36328v1.24609q0,1.90137.04688,3.583t.20215,3.23926a6.76425,6.76425,0,0,0-1.01172-.0625h-2.63281a7.28584,7.28584,0,0,0-1.02734.0625q.15527-1.55713.20215-3.23926.04688-1.68311.04688-3.583v-1.24609q0-1.89844-.04687-3.56641-.04687-1.66553-.20215-3.34863.561.063,1.10547.10938.54492.04688,1.10645.04688c.373,0,.74219-.01562,1.10547-.04687s.752-.06738,1.168-.10937l-.125,2.33691Z" transform="translate(-605.52295 -384.229)"/><path class="cls-1" d="M925.958,405.61328a7.62074,7.62074,0,0,0-.25,1.32422,14.024,14.024,0,0,1-6.35449,1.27637,14.3292,14.3292,0,0,1-4.84375-.7627,10.25535,10.25535,0,0,1-3.61328-2.14941,9.24994,9.24994,0,0,1-2.25781-3.28613,10.72725,10.72725,0,0,1-.7793-4.11133,13.40245,13.40245,0,0,1,1.0127-5.498,10.0469,10.0469,0,0,1,2.71-3.67578,10.76425,10.76425,0,0,1,3.94043-2.07129,16.6967,16.6967,0,0,1,4.7041-.6543,12.73222,12.73222,0,0,1,1.71289.124q.90234.126,1.74414.32715a14.58708,14.58708,0,0,1,1.60449.4834,7.98575,7.98575,0,0,1,1.293.5918,9.74969,9.74969,0,0,0-.4834,1.57324,11.8599,11.8599,0,0,0-.2334,1.60352h-.43652a7.67752,7.67752,0,0,0-2.42969-2.13379,6.3492,6.3492,0,0,0-2.92773-.63867,6.13441,6.13441,0,0,0-2.50781.56152,6.72148,6.72148,0,0,0-2.28906,1.71289,8.81731,8.81731,0,0,0-1.667,2.94336,12.79172,12.79172,0,0,0-.6377,4.2832,11.42483,11.42483,0,0,0,.65332,4.09668,8.08714,8.08714,0,0,0,1.69824,2.77148,6.42583,6.42583,0,0,0,2.36719,1.57324,7.49547,7.49547,0,0,0,2.66309.499,7.0953,7.0953,0,0,0,1.52637-.17187,9.96288,9.96288,0,0,0,1.52637-.4668,7.94268,7.94268,0,0,0,1.417-.73242,6.30911,6.30911,0,0,0,1.168-.96582l.40527.249Q926.14453,404.94385,925.958,405.61328Z" transform="translate(-605.52295 -384.229)"/><path class="cls-1" d="M936.36133,400.73828a9.56783,9.56783,0,0,1,.6377-3.64453,7.69956,7.69956,0,0,1,1.69824-2.60059,6.83159,6.83159,0,0,1,2.44531-1.55762,8.13,8.13,0,0,1,2.84961-.51367,7.49007,7.49007,0,0,1,5.63867,2.05566,7.67193,7.67193,0,0,1,1.99316,5.5752,9.876,9.876,0,0,1-.56055,3.42676,7.53263,7.53263,0,0,1-1.57324,2.60156,6.35613,6.35613,0,0,1-2.41406,1.60352,8.64928,8.64928,0,0,1-3.084.5293,10.33179,10.33179,0,0,1-2.75684-.373,6.61229,6.61229,0,0,1-2.44434-1.26172,6.45179,6.45179,0,0,1-1.76074-2.32031A8.28823,8.28823,0,0,1,936.36133,400.73828Zm10.65234-1.15234a10.58784,10.58784,0,0,0-.68457-4.252,2.33965,2.33965,0,0,0-2.27441-1.51074,2.5128,2.5128,0,0,0-2.25781,1.68164,12.58932,12.58932,0,0,0-.82617,5.26465,17.59316,17.59316,0,0,0,.15625,2.42969,7.4548,7.4548,0,0,0,.51367,1.94727,3.32107,3.32107,0,0,0,.93457,1.292,2.225,2.225,0,0,0,1.44824.46777Q947.01465,406.90625,947.01367,399.58594Z" transform="translate(-605.52295 -384.229)"/><path class="cls-1" d="M970.2207,393.418a2.39625,2.39625,0,0,0-.03125.40527,2.471,2.471,0,0,0,.03125.38965c.02051.13477.041.26465.06152.38867l-2.92773-.06152v2.585q0,3.05273.0625,5.60742.06152,2.55322.18652,5.07715a6.89233,6.89233,0,0,0-1.02734-.0625H963.959a6.89233,6.89233,0,0,0-1.02734.0625q.123-2.52393.18652-5.07715.063-2.55469.0625-5.60742v-2.55371L961,394.60156a3.18171,3.18171,0,0,0,.09375-.77832A4.31733,4.31733,0,0,0,961,392.98242l2.18066.09277a30.47353,30.47353,0,0,1,.77832-3.51953,10.56291,10.56291,0,0,1,1.23047-2.80371,5.63,5.63,0,0,1,1.916-1.853,5.55948,5.55948,0,0,1,2.835-.66992,6.90558,6.90558,0,0,1,1.30762.15576,8.4789,8.4789,0,0,0-.1084,1.35547q-.01611.85693-.01562,1.666v1.02832l-.374.124a9.47838,9.47838,0,0,0-1.43262-.623,4.77175,4.77175,0,0,0-1.55762-.28027,2.68354,2.68354,0,0,0-1.38672.2959,1.1251,1.1251,0,0,0-.48242,1.04395,5.51571,5.51571,0,0,0,.4209,1.83789,15.33,15.33,0,0,0,1.043,2.21191l2.92773-.0625C970.26172,393.14844,970.24121,393.29395,970.2207,393.418Z" transform="translate(-605.52295 -384.229)"/><path class="cls-1" d="M987.81934,393.418a2.39625,2.39625,0,0,0-.03125.40527,2.471,2.471,0,0,0,.03125.38965c.02051.13477.041.26465.06152.38867l-2.92773-.06152v2.585q0,3.05273.0625,5.60742.06152,2.55322.18652,5.07715a6.89233,6.89233,0,0,0-1.02734-.0625h-2.61719a6.89233,6.89233,0,0,0-1.02734.0625q.123-2.52393.18652-5.07715.063-2.55469.0625-5.60742v-2.55371l-2.18066.03027a3.18171,3.18171,0,0,0,.09375-.77832,4.31733,4.31733,0,0,0-.09375-.84082l2.18066.09277a30.47356,30.47356,0,0,1,.77832-3.51953,10.56291,10.56291,0,0,1,1.23047-2.80371,5.63,5.63,0,0,1,1.916-1.853,5.55948,5.55948,0,0,1,2.835-.66992,6.90558,6.90558,0,0,1,1.30762.15576,8.4789,8.4789,0,0,0-.1084,1.35547q-.01611.85693-.01562,1.666v1.02832l-.374.124a9.47838,9.47838,0,0,0-1.43262-.623,4.77175,4.77175,0,0,0-1.55762-.28027,2.68354,2.68354,0,0,0-1.38672.2959,1.1251,1.1251,0,0,0-.48242,1.04395,5.51571,5.51571,0,0,0,.4209,1.83789,15.33,15.33,0,0,0,1.043,2.21191l2.92773-.0625C987.86035,393.14844,987.83984,393.29395,987.81934,393.418Z" transform="translate(-605.52295 -384.229)"/><path class="cls-1" d="M1001.27539,400.36426a10.41837,10.41837,0,0,0,.25,2.33691,5.8004,5.8004,0,0,0,.7627,1.88379,3.73835,3.73835,0,0,0,1.30859,1.24609,3.67613,3.67613,0,0,0,1.85352.45215,5.81851,5.81851,0,0,0,3.83105-1.40234l.374.28125-.68555,1.74414a6.3437,6.3437,0,0,1-1.86914.9502,9.42552,9.42552,0,0,1-2.86523.35742,9.82508,9.82508,0,0,1-2.89746-.41992,6.16125,6.16125,0,0,1-2.41406-1.38672,6.75074,6.75074,0,0,1-1.65039-2.44434,9.28568,9.28568,0,0,1-.60742-3.53613,10.27779,10.27779,0,0,1,.54492-3.51953,6.93,6.93,0,0,1,1.51074-2.49219,6.17136,6.17136,0,0,1,2.28906-1.49512,8.11987,8.11987,0,0,1,2.88184-.498,6.03972,6.03972,0,0,1,4.71875,1.80664,7.34379,7.34379,0,0,1,1.63574,5.1084v.6543a1.428,1.428,0,0,1-.03125.373Zm4.79785-1.40137a12.07673,12.07673,0,0,0-.57715-3.73828,1.80132,1.80132,0,0,0-1.72852-1.40137,1.56865,1.56865,0,0,0-1.15234.4668,3.3851,3.3851,0,0,0-.748,1.2002,7.95284,7.95284,0,0,0-.41992,1.65039,15.56182,15.56182,0,0,0-.17187,1.82227Z" transform="translate(-605.52295 -384.229)"/><path class="cls-1" d="M1024.63769,400.36426a10.41843,10.41843,0,0,0,.25,2.33691,5.8004,5.8004,0,0,0,.7627,1.88379,3.73835,3.73835,0,0,0,1.30859,1.24609,3.67614,3.67614,0,0,0,1.85352.45215,5.81851,5.81851,0,0,0,3.83106-1.40234l.374.28125-.68555,1.74414a6.34368,6.34368,0,0,1-1.86914.9502,9.42552,9.42552,0,0,1-2.86523.35742,9.82509,9.82509,0,0,1-2.89746-.41992,6.16125,6.16125,0,0,1-2.41406-1.38672,6.75074,6.75074,0,0,1-1.65039-2.44434,9.28569,9.28569,0,0,1-.60742-3.53613,10.2778,10.2778,0,0,1,.54492-3.51953,6.93,6.93,0,0,1,1.51074-2.49219,6.17135,6.17135,0,0,1,2.28906-1.49512,8.11986,8.11986,0,0,1,2.88184-.498,6.03972,6.03972,0,0,1,4.71875,1.80664,7.34379,7.34379,0,0,1,1.63574,5.1084v.6543a1.428,1.428,0,0,1-.03125.373Zm4.79785-1.40137a12.0767,12.0767,0,0,0-.57715-3.73828,1.80131,1.80131,0,0,0-1.72852-1.40137,1.56865,1.56865,0,0,0-1.15234.4668,3.3851,3.3851,0,0,0-.748,1.2002,7.953,7.953,0,0,0-.41992,1.65039,15.562,15.562,0,0,0-.17187,1.82227Z" transform="translate(-605.52295 -384.229)"/></svg>