<svg id="Layer_1" data-name="Layer 1" xmlns="http://www.w3.org/2000/svg" viewBox="0 0 502.79199 35.75537"><defs><style>.cls-1{fill:#52482d;}</style></defs><title>project-title</title><path class="cls-1" d="M420.13574,379.86963q0-2.92236-.07031-5.19531-.07178-2.272-.21191-4.5625c.39941.04785.833.08887,1.30371.124q.70459.05273,1.585.05273,1.51465,0,3.1709-.08789,1.65527-.08789,3.16992-.08887a12.25277,12.25277,0,0,1,2.88867.31738,6.81216,6.81216,0,0,1,2.25488.96875,4.34239,4.34239,0,0,1,1.46191,1.69141,5.58586,5.58586,0,0,1,.51074,2.4834,4.88921,4.88921,0,0,1-.59961,2.4834,6.02007,6.02007,0,0,1-1.46191,1.72559,7.0879,7.0879,0,0,1-1.86621,1.0752,9.79932,9.79932,0,0,1-1.81445.52832v.07031a7.772,7.772,0,0,1,1.90234.37012,7.174,7.174,0,0,1,2.07813,1.03906,6.21015,6.21015,0,0,1,1.67285,1.81348,5.02287,5.02287,0,0,1,.6875,2.69482,7.03617,7.03617,0,0,1-.6875,3.24219,6.16456,6.16456,0,0,1-1.83105,2.18359,6.95379,6.95379,0,0,1-2.625,1.17969,13.87518,13.87518,0,0,1-3.06445.334q-1.40918,0-2.624-.03516-1.21582-.03516-2.55469-.03516h-1.95508a14.40833,14.40833,0,0,0-1.60254.07031q.14063-2.18262.21191-4.45508.06885-2.27344.07031-5.19678Zm10.84961-3.62793a6.50265,6.50265,0,0,0-.19336-1.60254,3.27021,3.27021,0,0,0-.65234-1.30371,3.4065,3.4065,0,0,0-1.16211-.88086,4.10543,4.10543,0,0,0-1.76172-.334q-.7749,0-1.07422.01758a4.7537,4.7537,0,0,0-.65137.08789q-.07178,1.30371-.10645,2.6416-.03516,1.33887-.03516,2.25488,0,.95068.01758,1.81445.01758.86279.01758,1.77832h1.58594a3.999,3.999,0,0,0,1.46191-.28125,3.85084,3.85084,0,0,0,1.28516-.82812,4.0977,4.0977,0,0,0,.916-1.3916A5.1076,5.1076,0,0,0,430.98535,376.2417Zm.24609,11.37744a5.30542,5.30542,0,0,0-1.10937-3.68018,4.14311,4.14311,0,0,0-3.22266-1.21582c-.3291,0-.61133.00684-.8457.01758-.23535.0127-.458.01758-.66992.01758q0,.73975-.01758,1.5332-.01758.79248-.01758,1.88428c0,.56445.00586,1.13867.01758,1.72656q.01758.87891.01758,1.72656c0,.5625.00586,1.08008.01855,1.54883.01074.4707.01758.85742.01758,1.16211.32813.02344.63379.041.915.05273.28223.01367.62207.01758,1.02246.01758a3.5783,3.5783,0,0,0,1.47949-.31641,3.49906,3.49906,0,0,0,1.23242-.93359,4.7453,4.7453,0,0,0,.8457-1.49609A6.04523,6.04523,0,0,0,431.23145,387.61914Z" transform="translate(-419.85352 -367.92822)"/><path class="cls-1" d="M448.49316,386.31641a10.81994,10.81994,0,0,1,.72168-4.12158,8.69992,8.69992,0,0,1,1.91992-2.94141,7.70921,7.70921,0,0,1,2.76563-1.76074,9.19418,9.19418,0,0,1,3.22266-.582,8.47107,8.47107,0,0,1,6.376,2.3252,8.67352,8.67352,0,0,1,2.25488,6.30518,11.16814,11.16814,0,0,1-.63379,3.875,8.50515,8.50515,0,0,1-1.7793,2.94141,7.17994,7.17994,0,0,1-2.72949,1.81445,9.81916,9.81916,0,0,1-3.48828.59961,11.61383,11.61383,0,0,1-3.11719-.42383,7.47092,7.47092,0,0,1-2.76562-1.42578,7.31138,7.31138,0,0,1-1.99023-2.625A9.36464,9.36464,0,0,1,448.49316,386.31641ZM460.54,385.01367a11.97627,11.97627,0,0,0-.77441-4.80908,2.645,2.645,0,0,0-2.57129-1.708,2.84223,2.84223,0,0,0-2.55469,1.90234,14.24374,14.24374,0,0,0-.93359,5.95264,19.90906,19.90906,0,0,0,.17676,2.748,8.41382,8.41382,0,0,0,.58105,2.20117,3.76792,3.76792,0,0,0,1.05664,1.46289,2.5199,2.5199,0,0,0,1.6377.52734Q460.54053,393.291,460.54,385.01367Z" transform="translate(-419.85352 -367.92822)"/><path class="cls-1" d="M482.59277,380.01123a7.51837,7.51837,0,0,1,2.30762-2.29,5.64058,5.64058,0,0,1,3.01172-.81055,5.28321,5.28321,0,0,1,4.06836,1.5332q1.42676,1.53223,1.42676,4.94922,0,1.7959-.07031,3.16943-.07178,1.374-.07031,2.748,0,1.12793.05273,2.44922t.123,2.55273a7.894,7.894,0,0,0-1.16211-.07031h-2.959a7.89928,7.89928,0,0,0-1.16309.07031,41.99182,41.99182,0,0,0,.31738-4.31445q.07031-2.48437.07031-5.689a5.591,5.591,0,0,0-.75684-3.25879,2.678,2.678,0,0,0-4.457.335,8.10193,8.10193,0,0,0-.73926,3.8042v1.4082q0,2.15039.05273,4.05273.05273,1.90137.22852,3.66211a7.73606,7.73606,0,0,0-1.14453-.07031h-2.97656a8.34258,8.34258,0,0,0-1.16211.07031q.17578-1.76074.22852-3.66211.05273-1.9043.05273-4.05273v-1.4082q0-2.14819-.05273-4.03369-.05273-1.88379-.22852-3.78711.63281.07178,1.25.124.6167.05273,1.251.05273t1.25-.05273q.6167-.05273,1.32129-.124l-.14062,2.64258Z" transform="translate(-419.85352 -367.92822)"/><path class="cls-1" d="M506.15918,379.37646a11.30506,11.30506,0,0,1,3.1875-1.83105,9.71811,9.71811,0,0,1,3.39941-.63477,9.9874,9.9874,0,0,1,2.58984.31738,5.54984,5.54984,0,0,1,2.043,1.00391,4.55779,4.55779,0,0,1,1.33887,1.7793,6.60759,6.60759,0,0,1,.47559,2.6416q0,2.25439-.05273,4.17529-.05273,1.91895-.05371,3.82227a5.46868,5.46868,0,0,0,.124,1.32031,1.54793,1.54793,0,0,0,.37012.72266,1.17352,1.17352,0,0,0,.65137.31641,5.50305,5.50305,0,0,0,.93359.07031v.8457q-1.02246.42188-1.72656.63477a5.25741,5.25741,0,0,1-1.51465.21094,3.32278,3.32278,0,0,1-2.11328-.63477,3.89164,3.89164,0,0,1-1.2334-1.832,6.63332,6.63332,0,0,1-1.88477,1.79688,5.01726,5.01726,0,0,1-2.69434.66992,6.61936,6.61936,0,0,1-2.29-.35352,4.0323,4.0323,0,0,1-1.56738-1.00391,3.99114,3.99114,0,0,1-.89844-1.47852,5.14031,5.14031,0,0,1-.28223-1.67383,4.99291,4.99291,0,0,1,.37012-2.00781,4.043,4.043,0,0,1,1.05664-1.44336,6.06883,6.06883,0,0,1,1.63867-1.00391,13.018,13.018,0,0,1,2.14844-.6875q1.47949-.35229,2.34277-.6167a5.687,5.687,0,0,0,1.28613-.52832,1.27582,1.27582,0,0,0,.5459-.58105,2.15234,2.15234,0,0,0,.123-.77539,2.95172,2.95172,0,0,0-.89844-2.166,3.35307,3.35307,0,0,0-2.4834-.89844,5.07451,5.07451,0,0,0-1.23242.1582,6.27249,6.27249,0,0,0-1.21582.44043,7.68582,7.68582,0,0,0-1.05664.61621,2.6277,2.6277,0,0,0-.72266.72266h-.24609Zm8.34863,9.58252q0-1.51465.01758-2.30859.01758-.791.01758-1.39062a8.15111,8.15111,0,0,1-1.56738.6875,7.40959,7.40959,0,0,0-1.51465.668,3.28787,3.28787,0,0,0-1.127,1.11133,3.87634,3.87634,0,0,0-.44043,2.043,3.13946,3.13946,0,0,0,.5459,1.99023,1.77117,1.77117,0,0,0,1.46191.68555,2.32544,2.32544,0,0,0,1.88477-.87891A4.045,4.045,0,0,0,514.50781,388.959Z" transform="translate(-419.85352 -367.92822)"/><path class="cls-1" d="M537.40527,380.01123a7.51837,7.51837,0,0,1,2.30762-2.29,5.6454,5.6454,0,0,1,3.01172-.81055,5.284,5.284,0,0,1,4.06934,1.5332q1.42676,1.53223,1.42676,4.94922,0,1.7959-.07129,3.16943-.07031,1.374-.07031,2.748,0,1.12793.05273,2.44922t.124,2.55273a7.90851,7.90851,0,0,0-1.16309-.07031h-2.959a7.88481,7.88481,0,0,0-1.16211.07031,41.74291,41.74291,0,0,0,.31641-4.31445q.07031-2.48437.07129-5.689a5.58281,5.58281,0,0,0-.75781-3.25879,2.67708,2.67708,0,0,0-4.45605.335,8.10088,8.10088,0,0,0-.74023,3.8042v1.4082q0,2.15039.05273,4.05273.0542,1.90137.22949,3.66211a7.74526,7.74526,0,0,0-1.14453-.07031h-2.97754a8.35247,8.35247,0,0,0-1.16211.07031q.17578-1.76074.22949-3.66211.05273-1.9043.05273-4.05273v-1.4082q0-2.14819-.05273-4.03369-.0542-1.88379-.22949-3.78711.63428.07178,1.251.124.61523.05273,1.25.05273.63428,0,1.251-.05273.61523-.05273,1.32031-.124l-.14062,2.64258Z" transform="translate(-419.85352 -367.92822)"/><path class="cls-1" d="M564.68848,386.21094q2.272-3.34644,4.59766-6.83447-1.02246,0-1.86719.01855-.84521.01758-1.74414.05273-.89795.03516-1.99023.123-1.09277.08789-2.60645.22852a5.12768,5.12768,0,0,0,.14063-1.23242,4.71453,4.71453,0,0,0-.14062-1.19824q.87891.07178,1.72559.124.84521.05273,1.72656.05273h7.75q.98584,0,1.77832-.05273t1.42676-.124v1.40918q-2.46533,3.41748-4.82617,6.78076-2.35986,3.36621-4.50879,6.85156h2.043c.49316,0,.97461-.00391,1.44434-.01758q.70459-.01758,1.51465-.07031t1.79688-.123q.98584-.07031,2.25488-.21094a7.314,7.314,0,0,0-.10645,1.19727,5.09552,5.09552,0,0,0,.10645,1.127q-.564-.03516-1.11035-.05273c-.36426-.01172-.73926-.01758-1.127-.01758h-8.70117q-1.32129,0-2.18359.01758-.86426.01758-1.35645.03516-.49365.01758-.74023.01758v-1.33789Q562.417,389.55859,564.68848,386.21094Z" transform="translate(-419.85352 -367.92822)"/><path class="cls-1" d="M587.39258,379.37646a11.30506,11.30506,0,0,1,3.1875-1.83105,9.71811,9.71811,0,0,1,3.39941-.63477,9.9874,9.9874,0,0,1,2.58984.31738,5.54984,5.54984,0,0,1,2.043,1.00391,4.55779,4.55779,0,0,1,1.33887,1.7793,6.60759,6.60759,0,0,1,.47559,2.6416q0,2.25439-.05273,4.17529-.05273,1.91895-.05371,3.82227a5.46868,5.46868,0,0,0,.124,1.32031,1.54793,1.54793,0,0,0,.37012.72266,1.17352,1.17352,0,0,0,.65137.31641,5.50306,5.50306,0,0,0,.93359.07031v.8457q-1.02246.42188-1.72656.63477a5.25741,5.25741,0,0,1-1.51465.21094,3.32278,3.32278,0,0,1-2.11328-.63477,3.89164,3.89164,0,0,1-1.2334-1.832,6.63332,6.63332,0,0,1-1.88477,1.79688,5.01726,5.01726,0,0,1-2.69434.66992,6.61936,6.61936,0,0,1-2.29-.35352,4.0323,4.0323,0,0,1-1.56738-1.00391,3.99114,3.99114,0,0,1-.89844-1.47852,5.14031,5.14031,0,0,1-.28223-1.67383,4.99291,4.99291,0,0,1,.37012-2.00781,4.043,4.043,0,0,1,1.05664-1.44336,6.06883,6.06883,0,0,1,1.63867-1.00391,13.018,13.018,0,0,1,2.14844-.6875q1.47949-.35229,2.34277-.6167a5.687,5.687,0,0,0,1.28613-.52832,1.27581,1.27581,0,0,0,.5459-.58105,2.15234,2.15234,0,0,0,.123-.77539,2.95172,2.95172,0,0,0-.89844-2.166,3.35307,3.35307,0,0,0-2.4834-.89844,5.07451,5.07451,0,0,0-1.23242.1582,6.27249,6.27249,0,0,0-1.21582.44043,7.68582,7.68582,0,0,0-1.05664.61621,2.62769,2.62769,0,0,0-.72266.72266h-.24609Zm8.34863,9.58252q0-1.51465.01758-2.30859.01758-.791.01758-1.39062a8.15111,8.15111,0,0,1-1.56738.6875,7.40959,7.40959,0,0,0-1.51465.668,3.28787,3.28787,0,0,0-1.127,1.11133,3.87634,3.87634,0,0,0-.44043,2.043,3.13946,3.13946,0,0,0,.5459,1.99023,1.77117,1.77117,0,0,0,1.46191.68555,2.32544,2.32544,0,0,0,1.88477-.87891A4.045,4.045,0,0,0,595.74121,388.959Z" transform="translate(-419.85352 -367.92822)"/><path class="cls-1" d="M633.11719,374.67432q-.07178-2.272-.21191-4.5625,1.585.03662,3.13574.10645,1.5498.07031,3.13477.07031,2.606,0,4.63281-.05273,2.02441-.05273,2.72949-.124a6.31431,6.31431,0,0,0-.14062,1.47949,8.47264,8.47264,0,0,0,.03516.88086c.02344.21191.05859.44629.10547.70508q-1.02246-.07031-2.23633-.1416-1.21582-.06885-2.36035-.14062-1.14551-.07031-2.06055-.10547-.917-.03516-1.30371-.03516-.14209,1.938-.1582,3.83984-.019,1.90137-.01855,3.83984,2.28955-.03516,4.13965-.10645,1.8501-.06885,3.85742-.17578c-.07031.39941-.11816.70508-.14062.916a5.84161,5.84161,0,0,0-.03516.66895,3.358,3.358,0,0,0,.05273.582c.03516.19922.0752.4873.123.8623q-4.0166-.31641-7.99707-.31641v1.7959q0,2.926.07129,5.19678.07031,2.27051.21094,4.45508a11.22325,11.22325,0,0,0-1.30371-.07031H634.209a11.22325,11.22325,0,0,0-1.30371.07031q.14063-2.18262.21191-4.45508.07031-2.27344.07031-5.19678v-4.791Q633.1875,376.94727,633.11719,374.67432Z" transform="translate(-419.85352 -367.92822)"/><path class="cls-1" d="M656.89453,379.37646a11.29656,11.29656,0,0,1,3.18848-1.83105,9.71,9.71,0,0,1,3.39941-.63477,9.98511,9.98511,0,0,1,2.58887.31738,5.54233,5.54233,0,0,1,2.043,1.00391,4.55779,4.55779,0,0,1,1.33887,1.7793,6.59067,6.59067,0,0,1,.47559,2.6416q0,2.25439-.05273,4.17529-.05273,1.91895-.05273,3.82227a5.4768,5.4768,0,0,0,.123,1.32031,1.54793,1.54793,0,0,0,.37012.72266,1.17675,1.17675,0,0,0,.65137.31641,5.50306,5.50306,0,0,0,.93359.07031v.8457q-1.02246.42188-1.72656.63477a5.25741,5.25741,0,0,1-1.51465.21094,3.32278,3.32278,0,0,1-2.11328-.63477,3.89868,3.89868,0,0,1-1.2334-1.832,6.64286,6.64286,0,0,1-1.88379,1.79688,5.02317,5.02317,0,0,1-2.69531.66992,6.62324,6.62324,0,0,1-2.29-.35352,3.98017,3.98017,0,0,1-2.46582-2.48242,5.16515,5.16515,0,0,1-.28125-1.67383,4.99336,4.99336,0,0,1,.36914-2.00781,4.04557,4.04557,0,0,1,1.05762-1.44336,6.07811,6.07811,0,0,1,1.6377-1.00391,13.048,13.048,0,0,1,2.14844-.6875q1.47949-.35229,2.34277-.6167a5.687,5.687,0,0,0,1.28613-.52832,1.27581,1.27581,0,0,0,.5459-.58105,2.15234,2.15234,0,0,0,.123-.77539,2.948,2.948,0,0,0-.89844-2.166,3.35307,3.35307,0,0,0-2.4834-.89844,5.08054,5.08054,0,0,0-1.23242.1582,6.27249,6.27249,0,0,0-1.21582.44043,7.68582,7.68582,0,0,0-1.05664.61621,2.6231,2.6231,0,0,0-.72168.72266h-.24707Zm8.34863,9.58252q0-1.51465.01758-2.30859.01758-.791.01758-1.39062a8.15111,8.15111,0,0,1-1.56738.6875,7.40959,7.40959,0,0,0-1.51465.668,3.28787,3.28787,0,0,0-1.127,1.11133,3.87634,3.87634,0,0,0-.44043,2.043,3.13946,3.13946,0,0,0,.5459,1.99023,1.77245,1.77245,0,0,0,1.46191.68555,2.3228,2.3228,0,0,0,1.88477-.87891A4.045,4.045,0,0,0,665.24316,388.959Z" transform="translate(-419.85352 -367.92822)"/><path class="cls-1" d="M688.21191,381.73682a8.82058,8.82058,0,0,1,2.21973-3.5752,4.54244,4.54244,0,0,1,3.09961-1.14453,2.18186,2.18186,0,0,1,.2998.01758,1.86688,1.86688,0,0,0,.26367.01758,10.4099,10.4099,0,0,0-.1582,1.127q-.05273.59912-.05273,1.40918V381.314a4.856,4.856,0,0,0,.03516.59961l-.31738.28125a3.76623,3.76623,0,0,0-.792-.35156,3.30118,3.30118,0,0,0-1.00391-.1416,3.16559,3.16559,0,0,0-2.502,1.03906,3.58657,3.58657,0,0,0-.915,2.44873v1.4082q0,2.15039.05273,4.05273.05273,1.90137.22852,3.66211a7.74527,7.74527,0,0,0-1.14453-.07031h-2.97656a8.36742,8.36742,0,0,0-1.16309.07031q.17578-1.76074.22949-3.66211.05273-1.9043.05273-4.05273v-1.4082q0-2.14819-.05273-4.03369-.05273-1.88379-.22949-3.78711.59912.07178,1.21582.124.61523.05273,1.21484.05273.59912,0,1.21582-.05273.61523-.05273,1.21484-.124l-.10547,4.29785Z" transform="translate(-419.85352 -367.92822)"/><path class="cls-1" d="M710.5459,380.01123a7.51837,7.51837,0,0,1,2.30762-2.29,5.64058,5.64058,0,0,1,3.01172-.81055,4.4044,4.4044,0,0,1,2.72949.86328,5.54578,5.54578,0,0,1,1.7793,2.4834,7.91522,7.91522,0,0,1,2.46582-2.4834,5.64049,5.64049,0,0,1,2.99414-.86328,5.284,5.284,0,0,1,4.06934,1.5332q1.42676,1.53223,1.42676,4.94922,0,1.7959-.07129,3.16943-.07031,1.374-.07031,2.748,0,1.12793.05273,2.44922t.124,2.55273a7.90851,7.90851,0,0,0-1.16309-.07031h-2.959a7.88481,7.88481,0,0,0-1.16211.07031,41.74291,41.74291,0,0,0,.31641-4.31445q.07031-2.48437.07129-5.689a5.68735,5.68735,0,0,0-.74023-3.25879,2.40548,2.40548,0,0,0-2.07812-1.03906,2.34346,2.34346,0,0,0-1.3916.3877,2.75213,2.75213,0,0,0-.86328,1.00391,4.25718,4.25718,0,0,0-.42285,1.32031,9.06766,9.06766,0,0,0-.10547,1.33887v2.53564q0,2.15039.05273,4.05273.05273,1.90137.22949,3.66211a7.75962,7.75962,0,0,0-1.14551-.07031h-2.97656a8.34258,8.34258,0,0,0-1.16211.07031q.17578-1.76074.22852-3.66211.05273-1.9043.05273-4.05273v-2.14795a8.12906,8.12906,0,0,0-.52832-3.27637,1.99658,1.99658,0,0,0-2.00781-1.16211,2.46283,2.46283,0,0,0-2.3252,1.374,8.10193,8.10193,0,0,0-.73926,3.8042v1.4082q0,2.15039.05273,4.05273.05273,1.90137.22852,3.66211a7.73606,7.73606,0,0,0-1.14453-.07031h-2.97656a8.34258,8.34258,0,0,0-1.16211.07031q.17578-1.76074.22852-3.66211.05273-1.9043.05273-4.05273v-1.4082q0-2.14819-.05273-4.03369-.05273-1.88379-.22852-3.78711.63281.07178,1.25.124.6167.05273,1.251.05273t1.25-.05273q.6167-.05273,1.32129-.124l-.14062,2.64258Z" transform="translate(-419.85352 -367.92822)"/><path class="cls-1" d="M763.35059,379.86963q0-2.92236-.07031-5.19531-.07178-2.272-.21191-4.5625.59912.07178,1.30371.124.70459.05273,1.585.05273,1.2334,0,2.55371-.08789,1.32129-.08789,2.58984-.08887a16.16621,16.16621,0,0,1,3.91016.37012,5.46471,5.46471,0,0,1,2.21875,1.07422,5.84947,5.84947,0,0,1,1.65625,2.04395,6.35993,6.35993,0,0,1,.52832,2.71191,8.15312,8.15312,0,0,1-.66992,3.45215,5.97872,5.97872,0,0,1-1.88379,2.34277,8.19177,8.19177,0,0,1-2.87109,1.32129,14.68438,14.68438,0,0,1-3.62891.42285h-1.79687q0,2.64038.05371,5.26611.05273,2.625.22852,5.19531a11.22324,11.22324,0,0,0-1.30371-.07031h-3.16992a11.22324,11.22324,0,0,0-1.30371.07031q.14063-2.18262.21191-4.45508.07031-2.27344.07031-5.19678Zm10.49707-2.99414a7.343,7.343,0,0,0-.29883-2.25391,3.88606,3.88606,0,0,0-.81055-1.46191,3.02153,3.02153,0,0,0-1.19727-.793,4.19917,4.19917,0,0,0-1.42676-.24609h-1.16309a1.30134,1.30134,0,0,0-.31641.03516q-.03662,2.53564-.05273,4.98438-.019,2.44922-.01855,4.91406a9.79871,9.79871,0,0,0,1.81445-.17578,4.32834,4.32834,0,0,0,1.709-.72266,3.97932,3.97932,0,0,0,1.26758-1.56738A6.28621,6.28621,0,0,0,773.84766,376.87549Z" transform="translate(-419.85352 -367.92822)"/><path class="cls-1" d="M795.86426,381.73682a8.82058,8.82058,0,0,1,2.21973-3.5752,4.54244,4.54244,0,0,1,3.09961-1.14453,2.18186,2.18186,0,0,1,.2998.01758,1.86688,1.86688,0,0,0,.26367.01758,10.40988,10.40988,0,0,0-.1582,1.127q-.05273.59912-.05273,1.40918V381.314a4.856,4.856,0,0,0,.03516.59961l-.31738.28125a3.76623,3.76623,0,0,0-.792-.35156,3.30118,3.30118,0,0,0-1.00391-.1416,3.16559,3.16559,0,0,0-2.502,1.03906,3.58657,3.58657,0,0,0-.915,2.44873v1.4082q0,2.15039.05273,4.05273.05273,1.90137.22852,3.66211a7.74526,7.74526,0,0,0-1.14453-.07031h-2.97656a8.36742,8.36742,0,0,0-1.16309.07031q.17578-1.76074.22949-3.66211.05273-1.9043.05273-4.05273v-1.4082q0-2.14819-.05273-4.03369-.05273-1.88379-.22949-3.78711.59912.07178,1.21582.124.61523.05273,1.21484.05273.59912,0,1.21582-.05273.61523-.05273,1.21484-.124l-.10547,4.29785Z" transform="translate(-419.85352 -367.92822)"/><path class="cls-1" d="M812.59668,386.31641a10.81945,10.81945,0,0,1,.72266-4.12158,8.68541,8.68541,0,0,1,1.91992-2.94141,7.7138,7.7138,0,0,1,2.76465-1.76074,9.19552,9.19552,0,0,1,3.22363-.582,8.47107,8.47107,0,0,1,6.376,2.3252,8.67352,8.67352,0,0,1,2.25488,6.30518,11.191,11.191,0,0,1-.63379,3.875,8.50515,8.50515,0,0,1-1.7793,2.94141,7.18349,7.18349,0,0,1-2.73047,1.81445,9.80988,9.80988,0,0,1-3.4873.59961,11.61383,11.61383,0,0,1-3.11719-.42383,7.47092,7.47092,0,0,1-2.76562-1.42578,7.31138,7.31138,0,0,1-1.99023-2.625A9.36407,9.36407,0,0,1,812.59668,386.31641Zm12.04785-1.30273a11.97627,11.97627,0,0,0-.77441-4.80908,2.64625,2.64625,0,0,0-2.57227-1.708,2.842,2.842,0,0,0-2.55371,1.90234,14.24374,14.24374,0,0,0-.93359,5.95264,20.06923,20.06923,0,0,0,.17578,2.748,8.45106,8.45106,0,0,0,.582,2.20117,3.76792,3.76792,0,0,0,1.05664,1.46289,2.5199,2.5199,0,0,0,1.6377.52734Q824.645,393.291,824.64453,385.01367Z" transform="translate(-419.85352 -367.92822)"/><path class="cls-1" d="M839.72168,402.416a3.35773,3.35773,0,0,0,2.043-1.55078,6.26772,6.26772,0,0,0,.59863-2.99414V385.18945q0-2.14819-.05273-4.03369-.05273-1.88379-.22852-3.78711.49219.07178,1.16211.124.66943.05273,1.47949.05273a15.60484,15.60484,0,0,0,2.6416-.17676q-.17578,1.90283-.22852,3.78711-.05273,1.88525-.05273,4.03369v10.63867a10.68183,10.68183,0,0,1-.458,3.3457,5.87167,5.87167,0,0,1-1.35645,2.291,6.4199,6.4199,0,0,1-2.20117,1.44336,12.87165,12.87165,0,0,1-2.99414.77539Zm2.21875-31.70459a2.76589,2.76589,0,1,1,.81055,1.97266A2.6846,2.6846,0,0,1,841.94043,370.71143Z" transform="translate(-419.85352 -367.92822)"/><path class="cls-1" d="M864.80371,385.89453a11.77859,11.77859,0,0,0,.28223,2.64063,6.61724,6.61724,0,0,0,.8623,2.13281,4.24844,4.24844,0,0,0,1.47949,1.4082,4.17881,4.17881,0,0,0,2.09668.51172,6.58416,6.58416,0,0,0,4.333-1.58594l.42285.31641-.77539,1.97266a7.11669,7.11669,0,0,1-2.11328,1.07422,10.65744,10.65744,0,0,1-3.24121.40625,11.06341,11.06341,0,0,1-3.27637-.47656,6.96178,6.96178,0,0,1-2.72949-1.56641,7.67284,7.67284,0,0,1-1.86719-2.76562,10.50715,10.50715,0,0,1-.6875-3.998,11.61437,11.61437,0,0,1,.61719-3.981,7.8362,7.8362,0,0,1,1.708-2.81836,6.98552,6.98552,0,0,1,2.58887-1.69043,9.17053,9.17053,0,0,1,3.25879-.56445,6.82905,6.82905,0,0,1,5.33691,2.04395,8.30683,8.30683,0,0,1,1.84961,5.77637v.73975a1.62842,1.62842,0,0,1-.03516.42383Zm5.4248-1.58545a13.63922,13.63922,0,0,0-.65137-4.22754,2.03844,2.03844,0,0,0-1.95508-1.585,1.77111,1.77111,0,0,0-1.30371.52832,3.81606,3.81606,0,0,0-.8457,1.35645,9.10041,9.10041,0,0,0-.47559,1.86621,17.74963,17.74963,0,0,0-.19336,2.06152Z" transform="translate(-419.85352 -367.92822)"/><path class="cls-1" d="M898.42773,379.67627a3.04335,3.04335,0,0,0-2.44824-.96875,3.41244,3.41244,0,0,0-3.1709,1.91992,11.17774,11.17774,0,0,0-1.05664,5.3374,7.823,7.823,0,0,0,1.33887,4.91406,5.07644,5.07644,0,0,0,6.02344,1.19727,4.33846,4.33846,0,0,0,1.51465-1.14453l.42285.35156a7.91624,7.91624,0,0,0-.42285,1.02148q-.17578.53027-.35156,1.05664a6.75433,6.75433,0,0,1-1.95508,1.00391,8.666,8.666,0,0,1-2.80078.40625,11.18389,11.18389,0,0,1-4.333-.74023,7.36235,7.36235,0,0,1-2.83594-2.00781,7.62466,7.62466,0,0,1-1.53223-2.87109,11.6637,11.6637,0,0,1-.458-3.22266,9.72175,9.72175,0,0,1,.65137-3.59326,8.1455,8.1455,0,0,1,1.86719-2.85352,8.7338,8.7338,0,0,1,2.94141-1.88477,10.29914,10.29914,0,0,1,3.83984-.6875,10.98733,10.98733,0,0,1,3.39941.458,13.90323,13.90323,0,0,1,2.66016,1.19824,9.98975,9.98975,0,0,0-.793,1.72559,12.89537,12.89537,0,0,0-.5459,1.9375h-.8457A5.27685,5.27685,0,0,0,898.42773,379.67627Z" transform="translate(-419.85352 -367.92822)"/><path class="cls-1" d="M922.29395,378.49658a3.61862,3.61862,0,0,0,.10547.87988l-3.10059-.07031q-.07031.81152-.123,1.86719-.05273,1.05762-.07031,2.14941-.01758,1.09131-.03516,2.11279-.01758,1.02246-.01758,1.72656,0,1.83105.08789,2.959a7.09417,7.09417,0,0,0,.2998,1.72656,1.40322,1.40322,0,0,0,.59863.81055,2.04745,2.04745,0,0,0,.98633.21094,4.01575,4.01575,0,0,0,.98633-.08789,2.82764,2.82764,0,0,0,.63379-.26562v1.44531a9.91782,9.91782,0,0,1-1.76074.56445,9.14994,9.14994,0,0,1-2.0791.24609q-4.47363,0-4.47363-5.35547,0-1.01953.03516-2.30664.03516-1.28613.08887-2.64209.05273-1.35645.08789-2.67773.03369-1.31982.03516-2.44824l-2.46582.03516a3.61861,3.61861,0,0,0,.10547-.87988,4.89876,4.89876,0,0,0-.10547-.95117l2.46582.10547q0-1.09131-.03516-2.043-.03662-.95215-.10547-2.29,1.23193-.49219,2.43066-1.03906,1.19678-.54639,2.39453-1.14453l.35254.24609q-.07031.564-.123,1.32129t-.10547,1.585c-.03516.55176-.05957,1.11621-.07031,1.69043q-.019.86426-.01855,1.63867l3.10059-.07031A4.89877,4.89877,0,0,0,922.29395,378.49658Z" transform="translate(-419.85352 -367.92822)"/></svg>