<svg height="512pt" viewBox="0 0 512 512.00727" width="512pt" xmlns="http://www.w3.org/2000/svg"><path d="m423.609375 441.386719c-4.433594 0-8.265625-3.335938-8.757813-7.855469l-8.828124-79.449219c-.539063-4.847656 2.949218-9.207031 7.792968-9.746093 4.820313-.554688 9.207032 2.949218 9.746094 7.792968l7.859375 70.675782 70.671875-7.847657c4.8125-.546875 9.207031 2.949219 9.746094 7.792969.539062 4.847656-2.949219 9.207031-7.792969 9.746094l-79.449219 8.828125c-.335937.042969-.664062.0625-.988281.0625zm0 0"/><path d="m75.988281 102.105469c-2.039062 0-4.089843-.703125-5.757812-2.132813-3.691407-3.179687-4.113281-8.757812-.925781-12.449218 6.585937-7.652344 13.796874-15.429688 21.433593-23.117188 3.433594-3.460938 9.019531-3.488281 12.480469-.046875 3.460938 3.433594 3.480469 9.023437.046875 12.484375-7.347656 7.394531-14.265625 14.863281-20.585937 22.199219-1.75 2.03125-4.210938 3.0625-6.691407 3.0625zm0 0"/><path d="m255.894531 512.007812c-2.058593 0-4.117187-.019531-6.164062-.070312-4.871094-.117188-8.730469-4.160156-8.613281-9.03125.113281-4.875 4.421874-8.820312 9.039062-8.617188 20.109375.460938 40.375-1.570312 59.824219-6.046874 4.75-1.050782 9.488281 1.871093 10.582031 6.621093s-1.871094 9.492188-6.621094 10.585938c-18.898437 4.351562-38.433594 6.558593-58.046875 6.558593zm-67.566406-9.359374c-.796875 0-1.609375-.113282-2.410156-.34375-20.746094-5.886719-40.722657-14.414063-59.367188-25.34375-4.210937-2.472657-5.613281-7.875-3.152343-12.085938 2.464843-4.207031 7.875-5.621094 12.078124-3.148438 17.355469 10.175782 35.9375 18.113282 55.25 23.59375 4.6875 1.324219 7.417969 6.214844 6.082032 10.902344-1.09375 3.894532-4.632813 6.425782-8.480469 6.425782zm-106.664063-62.496094c-2.253906 0-4.503906-.859375-6.226562-2.570313-15.332031-15.238281-28.6875-32.351562-39.703125-50.882812-2.492187-4.191407-1.113281-9.605469 3.070313-12.101563 4.191406-2.488281 9.605468-1.113281 12.101562 3.070313 10.257812 17.25 22.707031 33.191406 36.980469 47.378906 3.460937 3.441406 3.476562 9.023437.035156 12.492187-1.722656 1.746094-3.992187 2.613282-6.257813 2.613282zm-63.179687-106.292969c-3.832031 0-7.355469-2.507813-8.476563-6.375-5.992187-20.640625-9.355468-42.089844-9.9999995-63.753906-.1406245-4.871094 3.6914065-8.941407 8.5624995-9.082031 4.765626-.292969 8.933594 3.6875 9.082032 8.5625.601562 20.171874 3.734375 40.140624 9.316406 59.355468 1.359375 4.679688-1.335938 9.578125-6.023438 10.9375-.8125.238282-1.640624.355469-2.460937.355469zm-2.691406-123.4375c-.742188 0-1.503907-.097656-2.261719-.300781-4.714844-1.246094-7.53125-6.074219-6.277344-10.785156 5.316406-20.128907 13.648438-40.203126 24.769532-59.675782 2.421874-4.230468 7.824218-5.703125 12.050781-3.285156 4.230469 2.417969 5.703125 7.8125 3.285156 12.042969-10.363281 18.128906-18.105469 36.785156-23.03125 55.417969-1.050781 3.972656-4.625 6.585937-8.535156 6.585937zm0 0"/><path d="m370.757812 483.898438c-3.179687 0-6.25-1.71875-7.832031-4.730469-2.257812-4.316407-.597656-9.65625 3.71875-11.917969 8.746094-4.589844 17.308594-9.789062 25.429688-15.457031 4.007812-2.789063 9.507812-1.800781 12.296875 2.191406 2.792968 4 1.8125 9.496094-2.1875 12.296875-8.730469 6.089844-17.929688 11.679688-27.339844 16.613281-1.304688.679688-2.699219 1.003907-4.085938 1.003907zm0 0"/><path d="m423.617188 441.386719c-2.214844 0-4.433594-.828125-6.144532-2.488281-3.503906-3.390626-3.59375-8.980469-.195312-12.484376 7.238281-7.46875 14.011718-15.03125 20.144531-22.472656 3.101563-3.761718 8.660156-4.308594 12.421875-1.210937 3.769531 3.097656 4.308594 8.660156 1.210938 12.421875-6.429688 7.8125-13.527344 15.738281-21.101563 23.542968-1.726563 1.789063-4.03125 2.691407-6.335937 2.691407zm0 0"/><path d="m477.730469 368.207031c-1.359375 0-2.753907-.320312-4.042969-.988281-4.324219-2.234375-6.03125-7.566406-3.789062-11.902344 9.09375-17.59375 15.714843-35.910156 19.667968-54.449218 1.015625-4.773438 5.722656-7.820313 10.480469-6.796876 4.773437 1.015626 7.8125 5.703126 6.796875 10.480469-4.28125 20.082031-11.433594 39.890625-21.257812 58.878907-1.570313 3.046874-4.660157 4.777343-7.855469 4.777343zm24.972656-116.746093c-4.660156 0-8.554687-3.65625-8.808594-8.359376-1.042969-19.464843-4.449219-38.710937-10.136719-57.210937-1.429687-4.660156 1.183594-9.597656 5.84375-11.035156 4.644532-1.421875 9.597657 1.183593 11.035157 5.84375 6.109375 19.878906 9.773437 40.5625 10.886719 61.464843.253906 4.875-3.480469 9.023438-8.34375 9.289063-.160157 0-.316407.007813-.476563.007813zm-35.144531-114.359376c-2.980469 0-5.894532-1.519531-7.554688-4.257812-10.046875-16.605469-22.128906-31.988281-35.910156-45.71875-3.460938-3.441406-3.46875-9.027344-.027344-12.480469 3.441406-3.46875 9.03125-3.46875 12.484375-.027343 14.800781 14.742187 27.769531 31.257812 38.558594 49.089843 2.523437 4.175781 1.191406 9.597657-2.984375 12.121094-1.429688.867187-3.011719 1.273437-4.566406 1.273437zm-84.796875-84.4375c-1.542969 0-3.105469-.40625-4.527344-1.253906-16.683594-10-34.558594-17.917968-53.125-23.542968-4.667969-1.421876-7.308594-6.347657-5.886719-11.015626 1.410156-4.664062 6.347656-7.308593 11.007813-5.890624 19.949219 6.046874 39.160156 14.558593 57.078125 25.300781 4.183594 2.507812 5.535156 7.925781 3.035156 12.113281-1.65625 2.753906-4.578125 4.289062-7.582031 4.289062zm-174.617188-30.402343c-4.140625 0-7.832031-2.921875-8.652343-7.132813-.933594-4.785156 2.179687-9.417968 6.964843-10.363281 20.347657-3.980469 41.589844-5.480469 62.261719-4.449219 4.875.238282 8.625 4.378906 8.386719 9.25-.246094 4.863282-4.457031 8.476563-9.25 8.386719-19.273438-.960937-39.0625.433594-58.007813 4.148437-.574218.117188-1.148437.160157-1.703125.160157zm0 0"/><path d="m123.488281 56.089844c-2.921875 0-5.773437-1.449219-7.460937-4.089844-2.613282-4.113281-1.402344-9.566406 2.710937-12.179688 8.96875-5.703124 18.398438-10.902343 28.011719-15.441406 4.414062-2.074218 9.664062-.191406 11.746094 4.222656 2.085937 4.402344.195312 9.664063-4.207032 11.746094-8.953124 4.230469-17.726562 9.058594-26.078124 14.371094-1.464844.921875-3.097657 1.371094-4.722657 1.371094zm0 0"/><path d="m105.816406 158.902344c-4.441406 0-8.265625-3.335938-8.765625-7.855469l-7.859375-70.671875-70.664062 7.847656c-4.847656.539063-9.214844-2.949218-9.753906-7.796875-.539063-4.84375 2.957031-9.214843 7.804687-9.746093l79.445313-8.828126c4.820312-.546874 9.207031 2.949219 9.746093 7.796876l8.828125 79.449218c.539063 4.84375-2.949218 9.207032-7.804687 9.746094-.324219.042969-.652344.058594-.976563.058594zm0 0"/><path d="m255.894531 423.730469c-68.152343 0-123.589843-53.113281-123.589843-118.414063 0-101.242187 112.695312-210.015625 117.488281-214.597656 3.417969-3.257812 8.785156-3.257812 12.191406 0 4.792969 4.582031 117.484375 113.355469 117.484375 214.597656.011719 65.289063-55.425781 118.414063-123.574219 118.414063zm.007813-314.121094c-23.386719 24.089844-105.933594 114.890625-105.933594 195.699219 0 55.554687 47.519531 100.757812 105.933594 100.757812 58.410156 0 105.929687-45.195312 105.929687-100.757812-.007812-80.886719-82.546875-171.617188-105.929687-195.699219zm0 0"/><path d="m185.332031 348.246094c-3.113281 0-6.125-1.648438-7.730469-4.5625-6.515624-11.804688-9.96875-25.070313-9.984374-38.367188-.007813-4.871094 3.945312-8.835937 8.820312-8.835937h.007812c4.871094 0 8.816407 3.945312 8.828126 8.820312.007812 10.328125 2.699218 20.65625 7.785156 29.855469 2.355468 4.273438.800781 9.640625-3.460938 11.996094-1.359375.742187-2.816406 1.09375-4.265625 1.09375zm0 0"/><path d="m255.894531 388.421875c-13.039062-.007813-25.46875-3.097656-39.152343-9.710937-4.386719-2.117188-6.230469-7.398438-4.105469-11.785157 2.121093-4.386719 7.398437-6.242187 11.785156-4.105469 11.203125 5.410157 21.203125 7.9375 31.480469 7.945313 4.871094 0 8.828125 3.964844 8.816406 8.835937 0 4.863282-3.953125 8.820313-8.824219 8.820313zm0 0"/></svg>